<svg width="172" height="56" viewBox="0 0 172 56" fill="none" xmlns="http://www.w3.org/2000/svg">
<g clip-path="url(#clip0_3136_15190)">
<path d="M41.0938 35.5723C41.2192 35.5525 41.2126 35.427 41.2523 35.3477C43.465 30.275 45.6843 25.2022 47.8838 20.1295C48.0423 19.7728 48.2009 19.6143 48.617 19.6275C49.7729 19.6671 50.9288 19.6473 52.0781 19.6341C52.3819 19.6275 52.5338 19.7068 52.6659 20.004C54.4031 24.0265 56.1601 28.0424 57.9104 32.0584C58.3992 33.1746 58.8814 34.2975 59.3768 35.4072C59.4758 35.6383 59.456 35.7044 59.1918 35.7044C57.884 35.6912 56.5762 35.6912 55.2684 35.7044C55.0504 35.7044 54.9645 35.6119 54.8919 35.4336C53.4123 31.6158 51.9196 27.798 50.4334 23.9869C50.4004 23.8944 50.3607 23.8086 50.2947 23.6632C50.0437 24.3105 49.8059 24.905 49.5747 25.5061C48.7953 27.514 48.0159 29.5154 47.2299 31.5233C47.0978 31.8668 47.0978 31.8668 47.4875 31.8668C49.0067 31.8668 50.5259 31.8668 52.0385 31.8668C52.1507 31.8668 52.2762 31.8338 52.3885 31.9064C52.3291 32.0187 52.2168 32.0518 52.1309 32.098C50.123 33.2605 48.115 34.4164 46.107 35.5855C45.9617 35.6714 45.8098 35.711 45.6447 35.711C44.1255 35.711 42.6129 35.7176 41.0938 35.7176C41.0938 35.6582 41.0938 35.6119 41.0938 35.5723Z" fill="#08080B"/>
<path d="M120.695 36.0345C120.041 35.8892 119.38 35.8033 118.746 35.5721C115.609 34.436 113.792 32.1903 113.317 28.9207C112.914 26.1268 113.654 23.6366 115.675 21.6155C117.148 20.1491 118.984 19.4622 121.032 19.2839C123.178 19.0989 125.206 19.5415 127.121 20.519C127.399 20.6577 127.445 20.7766 127.306 21.0606C126.903 21.9127 126.54 22.7846 126.17 23.6565C126.091 23.848 126.025 23.8942 125.82 23.7886C124.691 23.2139 123.489 22.877 122.22 22.8374C119.975 22.7714 118.132 24.2113 117.636 26.4108C117.128 28.683 117.987 30.8428 119.836 31.9129C120.926 32.547 122.095 32.5734 123.29 32.3686C124.182 32.2167 125.041 31.9393 125.847 31.5166C126.012 31.4307 126.084 31.4373 126.164 31.6156C126.567 32.5536 126.976 33.4915 127.392 34.4228C127.485 34.6342 127.346 34.6672 127.221 34.7333C126.051 35.3673 124.803 35.7703 123.482 35.9618C123.409 35.975 123.324 35.9552 123.271 36.0279C122.412 36.0345 121.553 36.0345 120.695 36.0345Z" fill="#08080B"/>
<path d="M137.545 23.6563C137.096 24.8122 136.66 25.9152 136.231 27.0183C135.141 29.8189 134.044 32.626 132.961 35.4266C132.888 35.6116 132.803 35.6974 132.585 35.6974C131.277 35.6842 129.969 35.6842 128.661 35.6974C128.371 35.6974 128.39 35.6116 128.483 35.3936C130.722 30.268 132.954 25.149 135.18 20.0169C135.306 19.7262 135.451 19.6139 135.781 19.6206C136.99 19.647 138.199 19.6404 139.408 19.6206C139.672 19.6139 139.791 19.6998 139.896 19.9376C141.918 24.5942 143.945 29.2442 145.973 33.8942C146.191 34.3962 146.409 34.9048 146.634 35.4068C146.72 35.605 146.72 35.6974 146.455 35.6908C145.015 35.6776 143.576 35.6842 142.136 35.6842C142.023 35.6842 141.924 35.6578 141.825 35.605C139.751 34.4028 137.677 33.2073 135.603 32.0052C135.557 31.9787 135.517 31.9457 135.445 31.8995C135.57 31.8202 135.689 31.8466 135.801 31.8466C137.353 31.8466 138.906 31.8466 140.451 31.8466C140.63 31.8466 140.782 31.8731 140.669 31.5956C139.659 29.0196 138.655 26.4437 137.651 23.861C137.631 23.8148 137.604 23.7686 137.545 23.6563Z" fill="#08080B"/>
<path d="M84.6967 28.0687C85.1855 28.0687 85.6017 28.0819 86.0112 28.0687C86.7179 28.0423 87.3718 27.8573 87.9333 27.395C88.9901 26.5297 89.109 24.033 87.0284 23.3724C86.6585 23.2535 86.282 23.1941 85.8923 23.1941C85.2846 23.2007 84.6835 23.2073 84.0759 23.1875C83.8447 23.1809 83.7786 23.2469 83.7786 23.4781C83.7918 24.2906 83.7852 25.103 83.7852 25.9154C83.7852 29.0595 83.7852 32.1969 83.7918 35.3409C83.7918 35.6051 83.739 35.6976 83.455 35.6976C82.2462 35.6778 81.0375 35.6844 79.8288 35.6976C79.5844 35.6976 79.5117 35.6382 79.5117 35.3872C79.5183 30.2352 79.5183 25.0832 79.5117 19.9312C79.5117 19.7396 79.5249 19.6273 79.7693 19.6339C82.1538 19.6604 84.5448 19.5877 86.9293 19.6736C88.1116 19.7198 89.2279 20.017 90.2517 20.6247C91.5132 21.3777 92.286 22.4741 92.5833 23.9075C92.8937 25.3936 92.7946 26.8467 92.1077 28.2074C91.2292 29.9644 89.7166 30.8759 87.8276 31.2061C86.6849 31.4043 86.6849 31.3911 86.0904 30.4003C85.6413 29.6473 85.1921 28.8943 84.6967 28.0687Z" fill="#08080B"/>
<path d="M69.4551 23.848C68.6493 26.0805 67.8765 28.214 67.1037 30.3474C66.4894 32.0383 65.8751 33.7292 65.2741 35.4268C65.2014 35.6315 65.1023 35.6844 64.8976 35.6844C63.6096 35.6778 62.3216 35.6711 61.0402 35.6844C60.743 35.6844 60.6901 35.6381 60.809 35.3475C62.8632 30.2021 64.9108 25.0501 66.9518 19.8915C67.0376 19.6735 67.1433 19.6207 67.3613 19.6207C68.7484 19.6273 70.1355 19.6339 71.5159 19.6207C71.7735 19.6207 71.899 19.6867 71.9981 19.9377C73.7286 24.3169 75.4724 28.6961 77.2095 33.0687C77.52 33.8547 77.8238 34.6407 78.1475 35.4202C78.2399 35.6381 78.1937 35.6777 77.9757 35.6777C76.6481 35.6711 75.3139 35.6645 73.9862 35.6844C73.7419 35.6844 73.7022 35.5456 73.6362 35.3805C72.3614 31.8468 71.0866 28.3196 69.8118 24.7925C69.6995 24.5085 69.5938 24.2245 69.4551 23.848Z" fill="#08080B"/>
<path d="M111.782 26.6815C111.498 23.9338 110.263 21.7607 107.799 20.4198C105.289 19.0526 102.621 18.9139 99.8996 19.6536C97.7728 20.2349 96.1017 21.4634 95.0118 23.4054C94.0607 25.0897 93.8163 26.9193 94.0277 28.8216C94.4108 32.276 96.6697 34.8719 100.058 35.7173C100.534 35.8362 101.016 35.9287 101.498 36.0278C102.423 36.0278 103.348 36.0278 104.272 36.0278C104.801 35.889 105.349 35.8428 105.877 35.6909C108.44 34.9445 110.316 33.4253 111.287 30.8956C111.789 29.5349 111.928 28.1214 111.782 26.6815ZM106.426 30.988C105.686 31.9061 104.662 32.3487 103.499 32.461C101.908 32.6129 100.481 32.2364 99.3844 30.9946C98.4729 29.9708 98.1691 28.7291 98.2219 27.3882C98.2682 26.2125 98.6315 25.1425 99.4373 24.264C100.369 23.2468 101.564 22.8307 103.077 22.8175C104.834 22.8769 106.386 23.5771 107.126 25.4265C107.898 27.375 107.786 29.2905 106.426 30.988Z" fill="#08080B"/>
<path d="M18.5639 31.4419C18.5507 31.3825 18.5177 31.3362 18.4781 31.2966C18.4781 30.3653 18.4781 29.4406 18.4781 28.5092C18.4781 27.5449 18.4781 26.5739 18.4781 25.6096C18.4715 24.5395 18.4715 23.4761 18.4649 22.4061C18.4517 22.3995 18.4451 22.3929 18.4451 22.3797C17.9959 23.1723 17.5468 23.9583 17.0976 24.7509C16.6683 25.5039 16.2323 26.2503 15.803 27.0033C15.3803 27.6902 14.9708 28.3903 14.5943 29.1037C14.1451 29.8104 13.729 30.537 13.3393 31.2768C13.0156 31.7523 12.7382 32.2609 12.474 32.7761C12.1305 33.2847 11.8399 33.8264 11.5493 34.368C11.2256 34.8303 10.9747 35.3389 10.6972 35.8277C10.367 36.3759 10.0367 36.9308 9.70647 37.479C9.60078 37.7036 9.48849 37.9215 9.38281 38.1461C10.2943 37.697 11.186 37.2412 12.0249 36.693C12.6127 36.3825 13.1874 36.0589 13.7422 35.7088C14.3433 35.3654 14.9708 35.0549 15.5388 34.6586C16.1333 34.3482 16.7277 34.0245 17.2892 33.6546C17.7053 33.4367 18.1214 33.2187 18.5045 32.9479C18.6432 32.4393 18.5705 31.9373 18.5639 31.4419Z" fill="#08080B"/>
<path d="M0.207284 22.3138C6.19153 22.3072 12.1692 22.3006 18.1534 22.3006C18.2591 22.3006 18.378 22.2609 18.4507 22.3798C18.4639 22.3798 18.4837 22.3798 18.4969 22.3864C18.4969 22.3732 18.5035 22.3534 18.5035 22.3402C18.5035 22.3138 18.5101 22.2873 18.5101 22.2675C18.2195 22.0958 17.9288 21.9241 17.6316 21.7589C16.9513 21.3692 16.2974 20.9333 15.5906 20.5964C14.7584 20.101 13.9393 19.5924 13.0807 19.1499C12.5457 18.8329 12.0106 18.5026 11.469 18.1988C11.1982 18.0468 10.9538 17.8355 10.6368 17.7628C10.2405 17.4392 9.7517 17.2476 9.33557 16.9504C9.27613 16.9108 9.2431 16.9372 9.19687 16.9702C8.64204 17.3005 8.09381 17.6307 7.53898 17.9544C6.49537 18.5224 5.46497 19.1235 4.44117 19.7312C3.00786 20.5502 1.57455 21.3692 0.14784 22.1883C0.0685786 22.2015 0.0751837 22.2609 0.0817889 22.3138C0.114815 22.3204 0.161048 22.3138 0.207284 22.3138ZM7.21533 22.2279V22.2345C7.20872 22.2345 7.20872 22.2345 7.20212 22.2345C7.20872 22.2279 7.20872 22.2279 7.21533 22.2279Z" fill="#08080B"/>
<path d="M7.85803 35.8872C7.60703 35.3324 7.27678 34.8172 6.95313 34.302C6.66911 33.7009 6.29261 33.1527 5.95575 32.5847C5.3811 31.4816 4.74041 30.4248 4.09971 29.3614C3.8289 28.8131 3.51846 28.2847 3.17499 27.7761C2.96363 27.2873 2.6664 26.8448 2.38898 26.389C2.11817 25.8408 1.79452 25.3256 1.47747 24.8038C1.05474 23.9716 0.546149 23.179 0.0771848 22.3731C-0.015287 22.4788 0.0243446 22.6043 0.0243446 22.7166C0.0177395 23.6017 0.0111335 24.4934 0.0111335 25.3785C0.0111335 26.8118 0.011136 28.2517 0.0177411 29.685C0.011136 30.7022 0.00453002 31.726 0.00453002 32.7432C0.00453002 32.8224 -0.0284948 32.9215 0.0837924 32.9678C0.935854 33.4565 1.78791 33.9519 2.64658 34.4407C3.37315 34.8568 4.09971 35.2729 4.82627 35.6891C5.33487 36.0259 5.86328 36.3232 6.4049 36.6006C7.32301 37.1422 8.24113 37.6904 9.17906 38.2453C9.19887 38.0471 9.05356 37.948 9.03374 37.7961C8.63743 37.1752 8.24773 36.5279 7.85803 35.8872Z" fill="#08080B"/>
<path d="M36.9816 22.2477C36.5919 22.0166 36.222 21.7458 35.7927 21.5872C35.6804 21.5278 35.5615 21.4749 35.4558 21.3957C34.7689 20.9135 34.0291 20.5172 33.2894 20.1209C32.51 19.6453 31.7306 19.1631 30.9115 18.7536C29.8943 18.1526 28.8771 17.5449 27.8599 16.9438C27.8467 16.9636 27.8335 16.9901 27.8203 17.0099C27.8798 17.1222 27.9392 17.2411 27.992 17.3533C28.0581 17.4524 28.1241 17.5515 28.1836 17.6572C28.6063 18.3705 29.0291 19.0839 29.4518 19.7972C29.8085 20.4644 30.1717 21.1381 30.5879 21.7722C30.9908 22.4789 31.4003 23.1857 31.8032 23.8858C32.3316 24.8105 32.8666 25.7286 33.395 26.6534C33.864 27.4658 34.3396 28.2716 34.8085 29.084C34.8482 29.1633 34.8812 29.2426 34.9208 29.3152C35.403 30.1607 35.8918 31.0061 36.374 31.8516C36.3674 32.0564 36.3541 32.2677 36.6382 32.314C36.8099 32.4262 36.8033 32.6838 37.0411 32.8093C37.0411 29.335 37.0411 25.9004 37.0411 22.4723C37.0411 22.4063 37.0675 22.3138 36.9816 22.2477Z" fill="#08080B"/>
<path d="M18.9175 32.3006C19.3469 31.5344 19.7762 30.7749 20.2121 30.0087C20.5094 29.5661 20.7736 29.0972 21.0048 28.6216C21.2756 28.2649 21.4671 27.8554 21.6785 27.4657C22.0021 26.9967 22.2663 26.4881 22.5239 25.9861C23.1646 24.9822 23.7525 23.9452 24.3007 22.8949C24.8423 22.0957 25.2915 21.2437 25.7539 20.3982C25.8001 20.3388 25.8463 20.2793 25.886 20.2133C26.2426 19.6122 26.5927 19.0177 26.9494 18.4167C27.1872 17.9741 27.4249 17.525 27.6693 17.0824C27.1938 17.2806 26.7644 17.5118 26.3417 17.7628C25.5161 18.2515 24.6508 18.6809 23.8516 19.2159C22.8938 19.7443 21.9295 20.2727 21.0048 20.8606C20.1725 21.3295 19.3403 21.7985 18.508 22.2675C18.4816 22.3005 18.475 22.3335 18.4882 22.3731C18.475 22.7959 18.4354 23.2252 18.5014 23.6479C18.5212 23.6677 18.5411 23.6876 18.5609 23.7008C18.5609 24.3811 18.5609 25.0614 18.5609 25.7351C18.5609 26.2437 18.5609 26.7457 18.5609 27.2543C18.5609 27.862 18.5609 28.4697 18.5609 29.0773C18.5278 29.1038 18.4948 29.1434 18.4816 29.1962C18.4684 29.2491 18.4684 29.3019 18.4618 29.3548C18.4089 30.4512 18.541 31.5477 18.5212 32.6507C18.5212 32.7102 18.508 32.7894 18.6071 32.7894C18.6467 32.7432 18.6864 32.697 18.726 32.6507C18.792 32.5384 18.8515 32.4195 18.9175 32.3006Z" fill="#08080B"/>
<path d="M36.857 32.9414C36.6324 32.9149 36.4012 32.948 36.1767 32.948V32.9546C36.1767 32.948 36.1767 32.948 36.1767 32.948C35.7605 32.948 35.3444 32.948 34.9283 32.948L34.9415 32.9744C34.9481 32.9744 34.9481 32.9744 34.9547 32.9744C34.9481 32.9744 34.9415 32.981 34.9349 32.981C34.9349 32.9744 34.9415 32.9744 34.9415 32.9744L34.9283 32.948C34.4263 32.9414 33.9243 32.8885 33.4289 32.981L33.4157 32.9876C33.2572 32.981 33.0987 32.9678 32.9468 32.9612C32.8609 32.8885 32.7552 32.9215 32.6627 32.9215C28.0722 32.9281 23.475 32.9281 18.8844 32.9414C18.8184 32.9414 18.7325 32.8885 18.6797 33.0206C18.9505 33.1791 19.2213 33.3377 19.4987 33.4962C20.4366 34.0378 21.3548 34.6191 22.3257 35.1144C23.1514 35.6164 23.977 36.1184 24.8357 36.561C25.7736 37.1092 26.7049 37.6574 27.6362 38.2056C27.7948 38.2981 27.9004 38.2519 28.0127 38.1396C28.1647 38.133 28.2505 37.9943 28.3694 37.9282C29.0497 37.5385 29.7565 37.2017 30.4038 36.7591C30.8926 36.4487 31.4408 36.2373 31.9098 35.8938C32.4514 35.6098 32.9864 35.3192 33.495 34.9757C34.0102 34.7049 34.5254 34.4275 35.0142 34.1105C35.1199 34.0444 35.2255 33.9718 35.3378 33.9189C35.8662 33.6547 36.3682 33.3641 36.8636 33.047C36.9165 33.0206 37.0287 32.9612 36.857 32.9414Z" fill="#08080B"/>
</g>
<defs>
<clipPath id="clip0_3136_15190">
<rect width="172" height="55.7838" fill="white"/>
</clipPath>
</defs>
</svg>
