<svg width="122" height="43" viewBox="0 0 122 43" fill="none" xmlns="http://www.w3.org/2000/svg">
<path d="M31.9974 27.3843C32.0789 29.8565 32.4321 32.3286 31.9159 34.7193C30.7749 39.9626 26.3467 43.3041 20.8046 42.9781C12.8175 42.5162 6.67781 38.8487 2.79294 31.894C-0.765927 25.5369 -0.847428 18.9082 2.11377 12.2523C2.38544 11.6546 2.62994 11.5188 3.28195 11.7904C7.24832 13.3933 9.72051 17.1695 9.82918 21.6249C9.93785 26.3248 12.1384 29.8293 16.2949 32.0026C21.6196 34.8008 28.1669 33.0622 31.5356 28.1178C31.6714 27.8733 31.8344 27.6288 31.9974 27.3843Z" fill="white"/>
<path d="M19.8531 0C21.0756 0 22.2981 0 23.5206 0C28.302 0.380337 32.4857 2.22769 36.0989 5.37905C37.5388 6.62873 38.7613 8.06858 39.8208 9.67143C40.0925 10.0789 40.1196 10.2691 39.6035 10.4864C36.4793 11.7361 34.2788 13.9638 32.9747 17.0608C32.9476 17.1152 32.8932 17.1423 32.8389 17.1967C30.3395 11.8991 26.2373 9.29109 20.2878 9.6986C16.2942 9.97027 12.4365 12.9315 10.5348 17.2782C9.91001 16.273 9.5025 15.2135 8.79616 14.2898C7.49215 12.6055 5.8893 11.3558 3.90611 10.5408C3.33561 10.3234 3.22694 10.1061 3.60728 9.58993C7.19331 4.40104 12.0562 1.19535 18.3318 0.190169C18.8208 0.108668 19.3369 0.0543339 19.8531 0Z" fill="white"/>
<path d="M69.6509 17.2782C67.9394 16.3546 66.2822 15.7026 64.5164 15.3494C63.1037 15.0505 61.6639 14.9147 60.224 15.2407C59.572 15.4037 59.0015 15.7026 58.9472 16.4632C58.92 17.1696 59.5177 17.4412 60.061 17.6042C61.6095 18.1204 63.2124 18.5551 64.7609 19.0713C65.9291 19.4516 67.0158 20.0764 68.1024 20.6741C72.1775 22.9561 71.933 29.0958 68.3469 31.568C66.4181 32.8992 64.2991 33.4154 61.9899 33.4426C58.9472 33.4969 56.0675 32.9536 53.4323 31.405C52.9976 31.1334 52.7803 30.8617 52.8074 30.3184C52.8346 28.5797 52.8346 26.8138 52.8346 24.9665C54.9808 26.6237 57.29 27.5745 59.8437 27.9548C61.039 28.145 62.2615 28.1722 63.4569 27.8733C64.2176 27.6832 64.8967 27.33 64.9782 26.4335C65.0597 25.537 64.3806 25.048 63.6742 24.8035C62.2887 24.3145 60.876 23.9613 59.4633 23.4995C57.9148 22.9833 56.4207 22.3585 55.0351 21.4076C52.2913 19.5331 51.7751 13.5835 55.6328 11.1928C57.0727 10.2963 58.6483 9.86166 60.3055 9.72583C63.3211 9.48132 66.2279 9.88883 68.9989 11.22C69.4879 11.4373 69.6781 11.709 69.6781 12.2524C69.6238 13.8824 69.6509 15.4852 69.6509 17.2782Z" fill="white"/>
<path d="M29.96 41.1309C32.7582 38.387 33.7362 35.0455 33.6003 31.2421C33.4917 27.9821 33.5732 24.722 33.5732 21.462C33.5732 17.1696 36.1812 13.3663 40.1476 11.7634C40.6909 11.5461 40.9354 11.6276 41.2071 12.1709C46.3145 22.7389 41.7776 35.779 31.1825 40.8592C30.8293 41.0222 30.4761 41.3482 29.96 41.1309Z" fill="white"/>
<path d="M96.9267 33.2525C96.6007 33.3883 96.3018 33.497 96.003 33.6056C94.4816 34.0946 92.9874 34.0946 91.6291 33.0895C91.1944 32.7635 91.0858 32.5733 91.7106 32.2201C96.6007 29.5849 98.9913 24.1787 97.6873 18.8268C96.329 13.2848 91.6834 9.72589 85.7611 9.72589C77.774 9.72589 72.1776 16.7621 73.9706 24.5319C75.0844 29.2861 78.8063 32.7363 83.642 33.4698C84.3212 33.5785 84.8374 33.7686 85.2992 34.3663C86.1957 35.5073 87.2552 36.4853 88.4234 37.3275C90.8684 39.0933 93.5036 39.3922 96.3018 38.4413C96.6822 38.3055 96.9267 38.1697 96.9267 37.6807C96.8995 36.1865 96.9267 34.7466 96.9267 33.2525ZM84.0495 27.8734C81.5502 27.1127 79.9202 24.7764 79.8387 21.7608C79.7028 17.1425 83.8865 13.9911 88.0159 15.5668C91.1129 16.7621 92.6886 20.5112 91.5476 23.9614C90.4609 27.1399 87.2281 28.8242 84.0495 27.8734Z" fill="white"/>
<path d="M117.437 20.3481C120.969 18.2563 120.643 12.9315 117.193 11.1385C116.106 10.568 114.938 10.242 113.715 10.1877C109.885 10.0247 106.027 10.1605 102.196 10.1062C101.544 10.1062 101.599 10.4593 101.599 10.8669C101.599 18.0118 101.599 25.1567 101.599 32.3016C101.599 32.8992 101.735 33.0622 102.359 33.0622C106.054 33.0351 109.749 33.0622 113.444 33.0351C114.394 33.0351 115.345 32.9264 116.269 32.7091C119.176 32.0299 121.349 29.8022 121.539 27.2485C121.838 23.8798 120.48 21.6521 117.437 20.3481ZM107.548 15.4581C107.548 15.1321 107.603 14.9147 108.01 14.9147C109.477 14.9691 110.944 14.8061 112.411 15.0234C113.579 15.1864 114.259 15.9199 114.231 16.9522C114.231 17.9846 113.444 18.7453 112.275 18.8811C112.221 18.8811 112.167 18.8811 112.112 18.8811C111.433 18.8811 110.727 18.8811 110.048 18.8811C109.396 18.8811 108.716 18.8539 108.064 18.8811C107.711 18.8811 107.548 18.7724 107.575 18.3921C107.575 17.4141 107.548 16.4361 107.548 15.4581ZM112.71 28.0364C111.895 28.0907 111.107 28.0364 110.292 28.0364V28.0635C109.532 28.0635 108.798 28.0635 108.037 28.0635C107.657 28.0635 107.548 27.9277 107.548 27.5745C107.575 26.2977 107.548 25.048 107.548 23.7711C107.548 23.4451 107.603 23.2278 108.01 23.2278C109.613 23.2821 111.243 23.1191 112.846 23.3365C114.259 23.5266 115.128 24.4503 115.101 25.7272C115.101 27.0312 114.177 27.9277 112.71 28.0364Z" fill="white"/>
</svg>
