<svg width="136" height="42" viewBox="0 0 136 42" fill="none" xmlns="http://www.w3.org/2000/svg">
<path d="M82.5133 4.18181C81.2271 2.8951 79.78 1.88181 78.124 1.14196C76.902 0.595104 75.5997 0.369929 74.3295 0C73.204 0 72.0785 0 70.9531 0C69.2488 0.418181 67.5606 0.884614 65.9849 1.70489C62.8175 3.34545 60.8238 6.01537 59.1999 9.05523C58.0262 11.2748 56.9489 13.5265 55.5341 15.6175C55.0356 16.3412 54.5051 17.0489 53.8619 17.6601C51.7557 19.7028 48.7812 20.0727 46.1765 18.6251C43.7005 17.258 42.4142 14.4594 43.0252 11.7734C43.6523 9.00698 46.0801 6.91607 48.9581 6.73915C51.418 6.57831 53.5564 7.35034 55.1964 9.23215C55.6144 9.71467 55.7431 9.56991 56.0003 9.13565C56.9007 7.52726 57.8172 5.93495 58.7658 4.35873C59.023 3.92447 58.9748 3.69929 58.605 3.37762C56.5952 1.67272 54.3121 0.595104 51.7235 0.160839C51.5467 0.128671 51.3376 0.176923 51.209 0C50.0353 0 48.8616 0 47.6718 0C47.5432 0.193007 47.3342 0.128671 47.1573 0.160839C42.5107 1.04545 39.0217 3.52237 37.0602 7.83285C34.4394 13.5587 36.3206 20.0566 41.5139 23.7237C46.691 27.3909 53.9102 26.9727 58.4121 22.7909C60.7273 20.6517 62.303 17.9979 63.7661 15.2636C64.779 13.3657 65.6794 11.3874 66.9818 9.65033C68.9755 6.98041 72.2554 6.01537 75.262 7.22166C76.5483 7.73635 77.6416 8.54054 78.6385 9.48949C79.0887 9.90767 79.2655 9.81117 79.571 9.36082C80.5518 7.92936 81.5486 6.51397 82.5776 5.11468C82.851 4.72866 82.851 4.50349 82.5133 4.18181Z" fill="white"/>
<path d="M0 0.627168C0.0482347 0.627168 0.112548 0.611084 0.160782 0.611084C0.434112 0.916678 0.418034 1.30269 0.418034 1.67262C0.418034 9.29638 0.418034 16.9201 0.418034 24.5278C0.418034 24.8978 0.45019 25.2838 0.160782 25.5894C0.112548 25.5894 0.0482347 25.6054 0 25.6054C0 17.274 0 8.94254 0 0.627168Z" fill="white"/>
<path d="M33.5555 13.2048C33.5555 17.0649 33.5234 20.9412 33.5716 24.8013C33.5877 25.5572 33.3465 25.6698 32.6873 25.6537C30.7901 25.6055 28.8928 25.6216 26.9956 25.6537C26.4811 25.6698 26.3203 25.5251 26.3203 24.9943C26.3364 17.081 26.3364 9.16776 26.3203 1.2384C26.3203 0.659383 26.5133 0.546796 27.0438 0.546796C28.9893 0.578964 30.9508 0.578964 32.8963 0.546796C33.4269 0.530712 33.5716 0.691551 33.5555 1.20624C33.5555 5.21112 33.5555 9.19993 33.5555 13.2048Z" fill="white"/>
<path d="M72.0787 26.1845C68.9595 26.1041 65.9851 25.0264 63.4447 22.823C63.0588 22.4852 62.9624 22.26 63.2518 21.7775C64.2004 20.2335 65.1008 18.6572 66.0011 17.081C66.2102 16.7111 66.3066 16.4859 66.7729 16.9363C70.5191 20.6195 75.7767 20.2978 79.0084 16.2125C79.2978 15.8426 79.4265 15.8104 79.7641 16.1642C80.9539 17.467 82.1597 18.7537 83.3656 20.0244C83.5746 20.2495 83.7354 20.3943 83.4621 20.7481C80.5841 24.2866 76.661 26.2167 72.0787 26.1845Z" fill="white"/>
<path d="M22.011 13.8804C21.2874 13.2853 20.4353 12.9315 19.5349 12.5615C21.7055 11.5804 22.8792 9.95595 22.9917 7.63986C23.1204 5.14686 22.1235 3.18463 19.9529 1.88183C18.6506 1.09372 17.2196 0.691626 15.7083 0.627291C11.0617 0.450368 6.399 0.595123 1.75239 0.562955C1.22181 0.546871 0.691226 0.595123 0.160645 0.611207C0.160645 8.94266 0.160645 17.258 0.160645 25.5895C5.41823 25.6377 10.6919 25.7182 15.9495 25.5573C17.7502 25.5091 19.4706 24.9783 21.0141 23.9811C24.696 21.6007 25.1944 16.486 22.011 13.8804ZM6.99389 9.74685C7.02605 8.68532 7.02605 7.6077 6.99389 6.54616C6.99389 6.19232 7.04213 6.03148 7.46016 6.03148C9.51817 6.06364 11.5762 6.01539 13.6342 6.06364C14.9526 6.09581 15.7083 6.86784 15.7404 8.09021C15.7726 9.36084 15.033 10.149 13.6985 10.2615C13.1679 10.3098 12.6373 10.2937 12.0907 10.2937C11.5601 10.2937 11.0134 10.2937 10.4829 10.2937C9.51817 10.2937 8.55348 10.2776 7.58879 10.3098C7.18683 10.2937 6.97781 10.2294 6.99389 9.74685ZM16.7212 18.0461C16.6248 19.0273 16.0459 19.6384 15.1456 19.9601C14.7436 20.1049 14.3256 20.1531 13.8915 20.1531C11.8174 20.1531 9.72719 20.137 7.6531 20.1531C7.20291 20.1531 6.99389 20.0888 7.00997 19.558C7.0582 18.3678 7.04213 17.1615 7.00997 15.9713C6.99389 15.5371 7.1386 15.4245 7.54055 15.4406C8.68211 15.4566 9.83974 15.4566 10.9813 15.4566C10.9813 15.4727 10.9813 15.4888 10.9813 15.4888C12.1872 15.4888 13.393 15.4245 14.5828 15.5049C16.0138 15.6175 16.8498 16.6629 16.7212 18.0461Z" fill="white"/>
<path d="M134.43 7.99358C132.469 3.36141 128.61 1.09359 123.706 0.659321C119.928 0.321559 116.117 0.611069 112.323 0.53065C111.712 0.514566 111.567 0.675405 111.567 1.28659C111.599 5.21106 111.583 9.13553 111.583 13.06C111.583 17.0327 111.583 21.0054 111.567 24.9782C111.567 25.4285 111.615 25.6376 112.162 25.6376C115.828 25.6054 119.493 25.7019 123.159 25.5572C126.97 25.3963 130.33 23.997 132.742 20.9411C135.861 17.0006 136.359 12.5614 134.43 7.99358ZM127.725 13.253C127.581 17.0649 125.346 19.204 121.503 19.204C120.78 19.204 120.056 19.1719 119.333 19.2201C118.866 19.2523 118.77 19.0754 118.77 18.6411C118.802 16.8075 118.786 14.9579 118.786 13.1243C118.786 11.2908 118.802 9.44113 118.77 7.60756C118.754 7.06071 118.931 6.93204 119.429 6.96421C120.233 6.99637 121.037 6.96421 121.825 6.98029C125.587 7.07679 127.87 9.50546 127.725 13.253Z" fill="white"/>
<path d="M110.184 25.2517C107.355 17.2258 104.525 9.21603 101.711 1.17409C101.534 0.69157 101.325 0.530731 100.795 0.530731C98.2061 0.562899 95.6015 0.562899 93.0129 0.530731C92.4662 0.530731 92.225 0.69157 92.0482 1.20625C89.749 7.78457 87.4176 14.3468 85.1024 20.909C84.5557 22.4531 84.0251 23.9971 83.4624 25.6055C85.8741 25.6055 88.2055 25.5894 90.5207 25.6216C90.9066 25.6216 91.0352 25.4447 91.1317 25.1391C91.389 24.2706 91.6945 23.4181 91.9196 22.5496C92.016 22.1475 92.209 22.0671 92.5948 22.0671C95.2638 22.0831 97.9489 22.0831 100.618 22.0671C101.1 22.0671 101.261 22.244 101.374 22.6622C101.599 23.4824 101.872 24.2866 102.145 25.0908C102.226 25.3321 102.242 25.6216 102.628 25.6055C105.168 25.5894 107.692 25.6055 110.281 25.6055C110.233 25.4447 110.217 25.3482 110.184 25.2517ZM94.0419 15.9874C94.894 13.2048 95.7301 10.4545 96.5662 7.72023C96.5822 7.67198 96.6466 7.6559 96.743 7.57548C97.4344 10.4223 98.3508 13.1888 99.2191 16.0034C97.4826 15.9874 95.7783 15.9874 94.0419 15.9874Z" fill="white"/>
<path fill-rule="evenodd" clip-rule="evenodd" d="M90.52 35.3041C89.9412 35.4327 89.5071 35.3845 89.1373 34.7894C88.5102 33.8083 87.2883 33.5187 86.1467 33.9048C85.0534 34.2908 84.4103 35.2397 84.4263 36.5104C84.4263 37.781 85.0695 38.7299 86.1789 39.0999C87.3204 39.4859 88.462 39.132 89.1694 38.1992C89.1996 38.1569 89.2276 38.1145 89.2549 38.0731C89.3004 38.0042 89.3443 37.9377 89.3945 37.8775C89.6678 37.4754 90.1341 37.588 90.4074 37.7006C90.7024 37.8288 90.5371 38.0696 90.401 38.268L90.4009 38.268C90.3664 38.3183 90.3338 38.3659 90.311 38.4082C89.5553 39.9041 87.7867 40.6117 85.9859 40.1614C84.3781 39.7593 83.2687 38.2313 83.3009 36.446C83.333 34.6607 84.4585 33.2132 86.1306 32.8432C88.2047 32.3446 90.1663 33.4544 90.52 35.3041ZM99.5245 37.4754C99.5245 37.2336 99.5227 36.9935 99.5209 36.754V36.7538V36.7535V36.7533V36.7531V36.7528V36.7526V36.7524V36.7521V36.7519V36.7517V36.7514V36.7512V36.751V36.7507V36.7505V36.7503V36.7501V36.7499V36.7496C99.5174 36.274 99.5138 35.8006 99.5245 35.3202C99.5245 35.2766 99.5182 35.2275 99.5118 35.177C99.4873 34.985 99.4602 34.7733 99.7657 34.7733C99.831 34.7733 99.9047 34.7598 99.98 34.746C100.201 34.7055 100.437 34.6623 100.521 34.9502C100.637 35.3217 100.762 35.2239 100.906 35.1118C100.943 35.0832 100.981 35.0536 101.02 35.0307C101.968 34.4838 102.676 34.4999 103.512 35.1754C103.769 35.3845 103.866 35.3523 104.091 35.1593C104.814 34.5321 105.65 34.4838 106.486 34.8698C107.339 35.2558 107.467 36.06 107.483 36.8964C107.483 37.1912 107.481 37.4842 107.48 37.7767L107.48 37.7786C107.476 38.363 107.473 38.945 107.483 39.5341L107.483 39.5659C107.484 39.9205 107.484 40.1931 106.969 40.1775C106.47 40.1775 106.406 39.9684 106.422 39.5663C106.454 38.6817 106.454 37.8132 106.422 36.9286C106.39 35.9153 105.924 35.5293 104.927 35.674C104.348 35.7544 103.962 35.9635 104.026 36.6873C104.074 37.2646 104.065 37.8474 104.057 38.4293C104.051 38.8363 104.045 39.2429 104.059 39.6467C104.075 40.081 103.898 40.1775 103.496 40.1775C103.094 40.1775 102.933 40.081 102.949 39.6307C102.981 38.73 102.965 37.8132 102.949 36.9125C102.933 35.9957 102.612 35.6419 101.792 35.6579C100.859 35.6579 100.57 35.9474 100.57 36.8803C100.57 37.1799 100.568 37.4814 100.566 37.7834C100.562 38.3892 100.559 38.9974 100.57 39.5985C100.586 39.9845 100.521 40.1775 100.055 40.1775C99.6371 40.1775 99.4924 40.0488 99.5245 39.6307C99.5353 39.1485 99.5317 38.6663 99.5281 38.1889V38.1886V38.1884V38.1881V38.1879V38.1876V38.1874V38.1871V38.1869V38.1866V38.1864V38.1861V38.1859V38.1857V38.1854V38.1852V38.185V38.1847V38.1845V38.1843V38.1838V38.1833V38.1828V38.1823V38.1819V38.1814V38.1809V38.1804V38.1799V38.1794V38.179V38.1785V38.178V38.1775V38.1771V38.1766V38.1761V38.1757V38.1752C99.5263 37.9406 99.5245 37.7071 99.5245 37.4754ZM37.4009 35.1502C37.3279 35.1946 37.2522 35.2408 37.1726 35.288C37.1726 35.0385 37.1688 34.8044 37.1651 34.5795V34.5792V34.5789V34.5785V34.5782V34.5779V34.5776V34.5773V34.577V34.5767V34.5764V34.5762V34.5759V34.5756V34.5756C37.1581 34.1497 37.1516 33.7572 37.1726 33.358C37.2048 32.9076 37.0601 32.7628 36.5938 32.7628C36.1115 32.7468 36.0954 32.9719 36.0954 33.3419C36.1115 35.4328 36.1115 37.5076 36.0954 39.5824C36.0954 39.9845 36.1597 40.1454 36.6099 40.1454C37.1083 40.1614 37.1887 39.9523 37.1726 39.5342C37.1619 38.8814 37.1655 38.2216 37.1691 37.5641V37.5637V37.5634V37.5631V37.5627V37.5624V37.5621V37.5618V37.5614V37.5611V37.5608V37.5604V37.5601V37.5598V37.5595V37.5592V37.5589V37.5585V37.5582C37.1709 37.2294 37.1726 36.9012 37.1726 36.5747C37.1726 36.5292 37.1688 36.483 37.165 36.4368L37.165 36.4367C37.1513 36.2706 37.1377 36.1055 37.3013 35.9796C37.864 35.5614 38.5071 35.5293 39.1342 35.7062C39.6487 35.867 39.8416 36.3174 39.8416 36.8482C39.8577 37.781 39.8738 38.7139 39.8416 39.6468C39.8255 40.1293 40.0506 40.1614 40.4204 40.1614C40.7742 40.1614 40.9671 40.1293 40.951 39.695C40.9364 39.2345 40.9384 38.7741 40.9404 38.3136V38.3133C40.9428 37.7606 40.9452 37.2079 40.9189 36.6552C40.8706 35.2398 39.9381 34.4999 38.5232 34.6607C38.1155 34.7151 37.7996 34.9074 37.4009 35.1502ZM123.304 37.4432V35.288C123.304 35.2482 123.3 35.2036 123.295 35.1578C123.276 34.9813 123.255 34.7861 123.497 34.7733C123.564 34.7696 123.638 34.7566 123.714 34.7432C123.97 34.6983 124.25 34.649 124.35 34.9341C124.478 35.2948 124.586 35.2119 124.724 35.1067C124.758 35.0806 124.793 35.053 124.832 35.0306C126.488 34.0656 128.096 34.9502 128.128 36.832C128.135 37.2458 128.133 37.6565 128.131 38.0669C128.128 38.6137 128.126 39.1597 128.144 39.711C128.16 40.1292 127.967 40.1775 127.613 40.1775C127.26 40.1775 127.067 40.1292 127.083 39.711C127.115 38.8316 127.099 37.968 127.083 37.0888L127.083 37.0733C127.067 36.5264 126.986 35.9474 126.375 35.7544C125.78 35.5614 125.169 35.6097 124.607 35.9474C124.377 36.0825 124.386 36.2744 124.394 36.4658C124.396 36.5023 124.398 36.5387 124.398 36.5747C124.398 36.8642 124.395 37.1537 124.392 37.4433C124.386 38.167 124.379 38.8908 124.414 39.6145C124.43 40.0971 124.253 40.1775 123.819 40.1936C123.353 40.2096 123.304 40.0006 123.304 39.6145C123.315 39.1213 123.312 38.6424 123.308 38.1634C123.306 37.9239 123.304 37.6845 123.304 37.4432ZM30.9185 34.7411C29.6965 35.0467 28.8766 36.1243 28.8766 37.4593C28.8766 38.7621 29.6322 39.8236 30.8381 40.1292C32.2047 40.4992 33.5714 40.0006 34.1663 38.8908C34.1898 38.8471 34.2224 38.8 34.2562 38.7511C34.3844 38.5657 34.5299 38.3552 34.2628 38.2153C34.0216 38.0866 33.6357 38.0705 33.3624 38.2957C33.2918 38.3461 33.2464 38.4219 33.2026 38.4953C33.1766 38.5388 33.1511 38.5814 33.1212 38.6174C32.5424 39.2768 31.6259 39.4537 30.8703 39.0677C30.1146 38.6817 29.7769 37.8292 30.0181 36.8803C30.211 36.0761 30.8703 35.6257 31.8189 35.6418C32.462 35.6579 32.9443 35.9313 33.2498 36.4943C33.491 36.9285 33.9573 36.8481 34.2306 36.7195C34.529 36.5897 34.3773 36.3447 34.2484 36.1367L34.2484 36.1367L34.2482 36.1363L34.2482 36.1363C34.2174 36.0866 34.188 36.0391 34.1663 35.9957C33.6036 34.9181 32.253 34.4195 30.9185 34.7411ZM42.8164 37.3628V35.288C42.8164 35.2485 42.8116 35.2043 42.8068 35.1588L42.8067 35.1584L42.8067 35.1583V35.1582V35.1582V35.1581C42.7878 34.981 42.7666 34.7828 43.0093 34.7572C43.0775 34.7534 43.1537 34.7389 43.232 34.724C43.4863 34.6756 43.7631 34.623 43.8614 34.9181C43.9851 35.2769 44.0993 35.1883 44.2332 35.0844C44.2734 35.0533 44.3154 35.0207 44.3599 34.9985C46.0642 34.0334 47.6398 34.9341 47.6559 36.8964C47.6639 37.3387 47.6599 37.777 47.6559 38.2153C47.6519 38.6535 47.6479 39.0918 47.6559 39.5341C47.672 39.9202 47.6559 40.1775 47.1253 40.1775C46.643 40.1775 46.5465 40.0006 46.5626 39.5663C46.581 39.0792 46.5783 38.592 46.5757 38.1049C46.5737 37.7396 46.5718 37.3743 46.5787 37.009C46.5787 36.4621 46.4661 35.9635 45.9195 35.7544C45.2924 35.5292 44.6654 35.5775 44.0865 35.9635C43.879 36.0933 43.8912 36.2859 43.9037 36.4822C43.9067 36.5291 43.9097 36.5763 43.9097 36.623C43.9097 36.8677 43.9087 37.1135 43.9077 37.3598V37.3598V37.3599V37.3599V37.36V37.36V37.3601V37.3601V37.3602V37.3602V37.3603V37.3603V37.3604V37.3604V37.3605V37.3605C43.9047 38.1011 43.9016 38.8463 43.9258 39.5824C43.9418 40.0327 43.8293 40.1775 43.3469 40.1775C42.8967 40.1775 42.8164 40.0006 42.8324 39.6146C42.8324 39.2366 42.8284 38.8626 42.8244 38.4887C42.8204 38.1147 42.8164 37.7408 42.8164 37.3628ZM75.568 35.5775C75.3268 34.7894 74.8927 34.5803 74.0888 34.8216C74.2832 35.3304 74.4731 35.8407 74.6626 36.3502L74.6632 36.352C75.0846 37.4847 75.5043 38.6132 75.9699 39.7111C76.195 40.2097 76.1789 40.5635 75.986 41.03C75.9664 41.077 75.9297 41.1326 75.8906 41.1917C75.7693 41.3751 75.6259 41.5921 75.9056 41.6894L75.9462 41.7023C76.2548 41.8011 76.7346 41.9547 76.9346 41.416C77.4512 40.0545 77.9739 38.693 78.4952 37.3354L78.4976 37.3292C78.8192 36.4916 79.1402 35.6554 79.4589 34.8216C78.6228 34.5321 78.253 34.8859 78.0279 35.6258C77.7837 36.4052 77.4891 37.1761 77.1744 37.9995L77.1743 37.9998L77.1737 38.0012L77.1724 38.0047C77.0526 38.3181 76.9299 38.6392 76.806 38.9712C76.6635 38.5878 76.5225 38.2238 76.3862 37.8721L76.3859 37.8714L76.3858 37.8711L76.3857 37.871C76.0763 37.0724 75.7911 36.3366 75.568 35.5775ZM129.381 34.8216C130.201 34.5643 130.635 34.7894 130.876 35.6097C131.099 36.3938 131.406 37.1609 131.737 37.9852L131.737 37.9864L131.737 37.9866L131.738 37.9878L131.738 37.988L131.738 37.9892L131.738 37.9894L131.739 37.9906L131.739 37.9908C131.862 38.2976 131.988 38.6125 132.115 38.9391C132.579 37.7201 132.98 36.6451 133.381 35.5705L133.382 35.5699L133.382 35.5698L133.382 35.5682L133.382 35.568L133.383 35.5671L133.383 35.5662L133.385 35.5615C133.706 34.6769 133.706 34.6769 134.767 34.7894C134.285 36.0601 133.803 37.3307 133.32 38.5852C133.232 38.8119 133.142 39.0375 133.052 39.2628L133.052 39.2633C132.796 39.9012 132.542 40.5373 132.34 41.1908C132.179 41.6894 131.889 41.7538 131.455 41.7538C130.989 41.7538 131.021 41.5286 131.198 41.2713C131.616 40.6279 131.455 40.0489 131.182 39.4055C130.688 38.2433 130.241 37.0716 129.79 35.8903L129.79 35.8899C129.655 35.5347 129.519 35.1786 129.381 34.8216ZM17.7468 36.9286L17.7468 36.9289C17.7485 37.036 17.7503 37.1432 17.7503 37.2503C17.7503 37.3734 17.7485 37.4966 17.7468 37.6198L17.7468 37.6202C17.7432 37.8668 17.7396 38.1134 17.7503 38.3601C17.8468 39.6628 18.4578 40.1936 19.7762 40.1614C20.1621 40.1614 20.2746 40.0328 20.2746 39.6628C20.2746 39.2607 20.1299 39.1482 19.7601 39.1803C19.0527 39.2447 18.8115 38.8265 18.8115 38.1992C18.8051 37.9738 18.8089 37.751 18.8128 37.5288V37.5287V37.5287V37.5287V37.5287V37.5286V37.5286V37.5286V37.5286V37.5285V37.5285V37.5285V37.5284C18.8186 37.1956 18.8243 36.8639 18.7954 36.5265C18.7472 35.9314 18.8919 35.6258 19.5672 35.7223C19.602 35.7262 19.6385 35.7317 19.6758 35.7373L19.6758 35.7373C19.9479 35.7784 20.2605 35.8256 20.2746 35.288C20.2907 34.6929 19.9852 34.6929 19.5833 34.7412C19.0527 34.8055 18.6829 34.7251 18.8115 34.0496C18.8919 33.6475 18.7954 33.4223 18.2809 33.4223C17.7986 33.4223 17.7021 33.6153 17.7343 34.0335C17.7367 34.0601 17.7394 34.0872 17.7423 34.1145L17.7423 34.1149C17.7768 34.4521 17.8156 34.8304 17.2358 34.7412C16.866 34.6929 16.866 34.9503 16.866 35.2076C16.868 35.2389 16.869 35.2712 16.87 35.3037C16.8773 35.5376 16.8848 35.7788 17.2519 35.7223C17.7182 35.658 17.7825 35.8992 17.7503 36.2852C17.7396 36.4997 17.7432 36.7141 17.7468 36.9286ZM57.8922 37.388L57.8922 37.3889C57.8856 38.1304 57.8791 38.8684 57.9135 39.6146C57.9296 40.0971 57.7366 40.1775 57.3025 40.1936C56.8362 40.2097 56.788 39.9845 56.8041 39.6146C56.8202 37.5398 56.8202 35.465 56.8041 33.3901C56.8041 33.0202 56.8362 32.8111 57.3025 32.8111C57.7366 32.8272 57.9296 32.9076 57.9135 33.3901C57.8894 34.1494 57.8924 34.9268 57.8954 35.7086V35.7088V35.7093C57.8964 35.9707 57.8974 36.2325 57.8974 36.4943C57.8974 36.7933 57.8948 37.0909 57.8922 37.388ZM6.99933 36.7578C6.9967 36.9646 6.99406 37.1717 6.99406 37.3789C6.99406 37.568 6.99507 37.756 6.99607 37.9439V37.9439V37.944V37.944V37.944V37.9441V37.9441V37.9442V37.9442V37.9443V37.9443C6.99909 38.5073 7.00209 39.068 6.97798 39.6467C6.9619 40.0649 7.07445 40.1936 7.50856 40.1936C7.89444 40.1775 8.05522 40.0971 8.05522 39.6628C8.03915 38.1831 8.03915 36.7195 8.05522 35.2558C8.0713 34.8859 7.97483 34.7251 7.57288 34.7411L7.51836 34.7436C7.20634 34.757 6.96278 34.7674 6.97798 35.2237C7.01241 35.7288 7.00588 36.2421 6.99933 36.7578ZM8.19976 33.4062C8.16761 33.8726 7.94251 34.1139 7.54056 34.1139C7.17076 34.13 6.92958 33.937 6.89743 33.5509C6.86527 33.1328 7.10644 32.8915 7.49232 32.8433C7.89428 32.8111 8.10329 33.0845 8.19976 33.4062ZM4.80739 34.13C5.06464 34.9824 4.82347 35.658 4.00348 36.3174C4.74308 36.6552 5.22542 37.1699 5.2415 38.0223C5.28974 39.2286 4.38936 40.1132 2.95839 40.1615C2.22233 40.1856 1.4772 40.1826 0.736619 40.1796H0.736518H0.736418H0.736317H0.736217H0.736116H0.736016H0.735916H0.735816C0.489877 40.1785 0.244439 40.1775 0 40.1775V32.8111C0.367728 32.8172 0.737716 32.8164 1.10827 32.8156C1.72602 32.8144 2.34535 32.8131 2.95839 32.8433C3.89093 32.8915 4.5823 33.4062 4.80739 34.13ZM1.96154 33.7118C0.99685 33.6475 1.01293 34.1461 1.1094 34.8055C1.12476 34.9284 1.11169 35.066 1.09866 35.2032C1.05715 35.6403 1.01605 36.073 1.89723 36.0118C3.27996 35.8992 3.77838 35.6741 3.77838 34.8377C3.77838 34.0174 3.29604 33.8083 1.96154 33.7118ZM1.09332 38.0706C1.09332 39.2608 1.09332 39.2608 2.31526 39.2447C3.60152 39.2447 4.16426 38.8587 4.14818 37.9901C4.11603 37.1699 3.58545 36.8482 2.29919 36.8482C1.09332 36.8482 1.09332 36.8482 1.09332 38.0706ZM72.5772 35.288C72.5932 34.8055 72.4003 34.7412 71.9823 34.7251C71.5018 34.6931 71.4964 34.9448 71.4905 35.2211C71.4875 35.3609 71.4843 35.507 71.4195 35.6258C70.2619 34.4517 68.7023 34.3391 67.6411 35.3041C66.58 36.2692 66.4996 38.0545 67.4643 39.1321C68.4772 40.258 70.0046 40.2258 71.4678 39.0195C71.5642 39.8076 71.3391 40.4027 70.6317 40.7566C69.8921 41.1104 68.7666 40.9817 68.3325 40.4027C67.9466 39.9041 67.5286 39.9363 67.0302 40.0489C67.5125 41.4321 68.2199 41.8181 70.1172 41.7699C71.5481 41.7377 72.545 40.7887 72.5772 39.3734C72.5843 38.7656 72.5787 38.161 72.5732 37.5568V37.5564V37.5559V37.5554V37.555V37.5545V37.5541V37.5536C72.5662 36.7997 72.5593 36.0464 72.5772 35.288ZM69.7313 39.0517C68.6701 39.0838 67.8662 38.344 67.8662 37.3146C67.8662 36.2692 68.6058 35.5454 69.6992 35.5454C70.7442 35.5454 71.4838 36.2692 71.4838 37.2824C71.516 38.2957 70.7764 39.0356 69.7313 39.0517ZM110.49 35.5775C112.001 34.4034 113.48 34.3712 114.445 35.481C115.409 36.5908 115.345 38.6013 114.3 39.5985C113.223 40.6118 111.792 40.4992 110.425 39.2125C110.425 39.4728 110.423 39.7198 110.421 39.958V39.9583V39.9586V39.9588V39.9591V39.9594V39.9596V39.9604C110.418 40.413 110.415 40.8341 110.425 41.2551C110.441 41.6251 110.313 41.7698 109.927 41.7537C109.557 41.7537 109.332 41.7216 109.332 41.2551C109.356 39.7956 109.353 38.336 109.35 36.8765C109.349 36.3899 109.348 35.9033 109.348 35.4167C109.348 35.3715 109.346 35.3267 109.345 35.2827C109.334 34.9821 109.325 34.7251 109.83 34.7251C110.345 34.7251 110.506 34.8859 110.425 35.3684C110.425 35.4041 110.44 35.4397 110.456 35.4781C110.469 35.509 110.482 35.5417 110.49 35.5775ZM110.425 37.4272C110.425 38.5209 111.197 39.2929 112.274 39.2768C113.351 39.2607 114.043 38.553 114.027 37.4593C114.027 36.3496 113.335 35.6579 112.242 35.6579C111.165 35.6579 110.441 36.3656 110.425 37.4272ZM26.2076 37.7166C27.5099 37.7166 27.6707 37.4754 27.1562 36.253C27.0437 35.9957 26.8829 35.7222 26.6899 35.5131C25.87 34.6124 24.3586 34.3712 23.2331 34.9663C22.1237 35.5292 21.5449 36.7516 21.8022 37.9901C22.0755 39.3411 22.992 40.1614 24.4068 40.2901C25.7092 40.4187 26.7864 39.7271 27.2688 38.4243C27.1772 38.4209 27.0864 38.4097 26.9966 38.3986C26.6605 38.3569 26.3386 38.317 26.0468 38.6978C25.5645 39.3411 24.8731 39.4859 24.1013 39.3089C23.3457 39.132 22.9276 38.6334 22.799 37.7327C23.9726 37.7166 25.0819 37.7166 26.2073 37.7166H26.2076ZM23.4582 36.9285C23.4052 36.9241 23.3448 36.9318 23.2835 36.9397C23.1219 36.9604 22.9538 36.982 22.8955 36.7838C22.8633 36.639 22.992 36.4299 23.0884 36.2852C23.7476 35.288 25.4841 35.3201 26.079 36.3334C26.288 36.6873 26.3845 36.9768 25.7735 36.9446C25.5055 36.9232 25.2375 36.9303 24.9696 36.9375C24.8356 36.941 24.7016 36.9446 24.5676 36.9446C24.3827 36.9366 24.1978 36.9366 24.0129 36.9366C23.828 36.9366 23.6431 36.9366 23.4582 36.9285ZM121.446 38.6173C121.453 38.9176 121.46 39.2178 121.439 39.518C121.435 39.5708 121.442 39.6334 121.449 39.698V39.6981V39.6982V39.6983V39.6983C121.472 39.9091 121.498 40.1415 121.165 40.1292C121.103 40.1292 121.031 40.147 120.955 40.1656C120.717 40.2242 120.443 40.2914 120.345 39.8397C120.293 39.576 120.143 39.6906 120.019 39.7848C119.992 39.8055 119.967 39.8252 119.943 39.8397C119.332 40.2418 118.673 40.3705 117.966 40.1936C117.114 39.9845 116.68 39.4698 116.664 38.6173C116.647 37.7166 117.049 37.2019 117.95 36.9607C118.577 36.7999 119.22 36.832 119.863 36.8642C120.41 36.8964 120.41 36.6712 120.265 36.253C120.088 35.7705 119.702 35.6257 119.268 35.5775C118.722 35.5131 118.191 35.5936 117.885 36.1404C117.868 36.1716 117.851 36.2027 117.835 36.2333C117.733 36.4239 117.644 36.593 117.339 36.6068C116.792 36.6229 116.615 36.4943 116.84 35.9313C117.226 34.9985 118.175 34.532 119.509 34.6929C120.651 34.8376 121.294 35.4166 121.391 36.4943C121.425 36.8845 121.418 37.2829 121.412 37.6837V37.684V37.6842V37.6845C121.409 37.8451 121.407 38.006 121.407 38.167H121.439C121.439 38.3171 121.442 38.4672 121.446 38.6173ZM119.3 39.3009C119.365 39.2848 119.429 39.2687 119.493 39.2607C120.217 39.1642 120.458 38.746 120.378 38.0383C120.315 37.5305 120.046 37.5903 119.798 37.6454C119.661 37.6759 119.531 37.7049 119.445 37.6362H118.979C118.384 37.6523 117.741 37.7005 117.709 38.5047C117.693 39.0838 118.303 39.4215 119.107 39.3411C119.172 39.3331 119.236 39.317 119.3 39.3009ZM12.7179 34.6286C11.094 34.6286 9.83994 35.8509 9.82386 37.4272C9.80779 39.0195 11.0458 40.2418 12.6697 40.274C14.3418 40.3062 15.5799 39.0999 15.5799 37.4432C15.5799 35.8188 14.3579 34.6286 12.7179 34.6286ZM12.6858 39.2768C11.6568 39.2607 10.885 38.4565 10.9011 37.4272C10.9172 36.3656 11.6729 35.6418 12.7501 35.6579C13.8273 35.674 14.5348 36.3978 14.5187 37.4915C14.5026 38.5369 13.7309 39.2929 12.6858 39.2768ZM59.5703 37.4593C59.5703 35.8188 60.8244 34.5964 62.4805 34.6285C64.1365 34.6607 65.3263 35.8509 65.3102 37.4432C65.3102 39.0838 64.0561 40.3061 62.4001 40.274C60.7601 40.2418 59.5703 39.0677 59.5703 37.4593ZM60.6636 37.4111C60.6476 38.4726 61.3711 39.2446 62.4162 39.2768C63.4613 39.3089 64.233 38.553 64.2491 37.4754C64.2652 36.3978 63.5577 35.6579 62.4966 35.6418C61.4032 35.6418 60.6797 36.3334 60.6636 37.4111ZM94.942 34.6286C93.3341 34.6125 92.0479 35.8509 92.0318 37.4272C92.0157 39.0356 93.302 40.3062 94.958 40.2901C96.598 40.274 97.7878 39.0838 97.7878 37.4593C97.7878 35.8188 96.598 34.6447 94.942 34.6286ZM94.8777 39.2768C93.8486 39.2446 93.093 38.4405 93.1251 37.395C93.1573 36.3335 93.8969 35.6258 94.9902 35.6419C96.0514 35.6579 96.7749 36.43 96.7427 37.4915C96.6945 38.5691 95.9227 39.309 94.8777 39.2768ZM49.376 37.4754C49.3599 35.8349 50.6301 34.6125 52.2861 34.6286C53.9261 34.6447 55.0998 35.8509 55.1159 37.4754C55.0998 39.0999 53.91 40.274 52.254 40.274C50.614 40.274 49.3921 39.0838 49.376 37.4754ZM50.4211 37.4272C50.405 38.4726 51.1928 39.2768 52.2218 39.2768C53.2508 39.2929 54.0547 38.5048 54.0708 37.4593C54.0869 36.4139 53.3152 35.6419 52.254 35.6419C51.1928 35.6419 50.4372 36.3817 50.4211 37.4272Z" fill="white"/>
</svg>
