<svg width="24" height="24" viewBox="0 0 24 24" fill="none" xmlns="http://www.w3.org/2000/svg">
<path d="M13.5627 21.8636H13.0627V22.449L13.6409 22.3574L13.5627 21.8636ZM13.5627 14.8855V14.3855H13.0627V14.8855H13.5627ZM15.8794 14.8855V15.3855H16.309L16.3737 14.9609L15.8794 14.8855ZM16.3202 11.9947L16.8145 12.0701L16.9023 11.4947H16.3202V11.9947ZM16.3088 11.9947L15.8145 11.9193L15.7268 12.4947H16.3088V11.9947ZM16.3104 11.9846L16.8046 12.06L16.8924 11.4846H16.3104V11.9846ZM13.5422 11.9846H13.0422V12.4846H13.5422V11.9846ZM16.433 8.55031V9.05031H16.933V8.55031H16.433ZM16.433 6.11054H16.933V5.69624L16.5259 5.61925L16.433 6.11054ZM16.4231 6.1087H15.9231V6.52503L16.3326 6.60043L16.4231 6.1087ZM16.4231 6.10046H16.9231V5.68689L16.5169 5.60933L16.4231 6.10046ZM10.4365 11.9846V12.4846H10.9365V11.9846H10.4365ZM7.88392 11.9846V11.4846H7.38392V11.9846H7.88392ZM7.88392 14.8754H7.38392V15.3754H7.88392V14.8754ZM7.8938 14.8754H8.3938V14.3754H7.8938V14.8754ZM7.8938 14.8855H7.3938V15.3855H7.8938V14.8855ZM10.4365 14.8855H10.9365V14.3855H10.4365V14.8855ZM10.4365 21.8667L10.3591 22.3607L10.9365 22.4512V21.8667H10.4365ZM22.4895 11.9949C22.4895 6.20361 17.7859 1.5 11.9946 1.5V2.5C17.2336 2.5 21.4895 6.7559 21.4895 11.9949H22.4895ZM13.6409 22.3574C18.6568 21.5629 22.4895 17.2306 22.4895 11.9949H21.4895C21.4895 16.7298 18.0234 20.6507 13.4845 21.3697L13.6409 22.3574ZM14.0627 21.8636V14.8855H13.0627V21.8636H14.0627ZM13.5627 15.3855H15.8794V14.3855H13.5627V15.3855ZM16.3737 14.9609L16.8145 12.0701L15.826 11.9193L15.3852 14.8102L16.3737 14.9609ZM16.3202 11.4947H16.3088V12.4947H16.3202V11.4947ZM15.8161 11.9093L15.8145 11.9193L16.8031 12.0701L16.8046 12.06L15.8161 11.9093ZM13.5422 12.4846H16.3104V11.4846H13.5422V12.4846ZM14.0422 11.9846V10.1187H13.0422V11.9846H14.0422ZM14.0422 10.1187C14.0422 9.8001 14.1236 9.54021 14.2745 9.36649C14.4141 9.20584 14.6726 9.05031 15.1824 9.05031V8.05031C14.4517 8.05031 13.8901 8.28433 13.5197 8.71056C13.1607 9.12372 13.0422 9.64804 13.0422 10.1187H14.0422ZM15.1824 9.05031H16.433V8.05031H15.1824V9.05031ZM16.933 8.55031V6.11054H15.933V8.55031H16.933ZM16.433 6.11054C16.5259 5.61925 16.5259 5.61925 16.5259 5.61925C16.5259 5.61925 16.5259 5.61925 16.5259 5.61925C16.5259 5.61924 16.5259 5.61924 16.5259 5.61924C16.5259 5.61924 16.5259 5.61924 16.5259 5.61924C16.5259 5.61924 16.5259 5.61923 16.5259 5.61923C16.5258 5.61923 16.5258 5.61922 16.5257 5.61921C16.5257 5.6192 16.5256 5.61918 16.5255 5.61916C16.5253 5.61913 16.525 5.61908 16.5247 5.61902C16.5241 5.61891 16.5233 5.61875 16.5223 5.61856C16.5202 5.61818 16.5173 5.61764 16.5137 5.61697L16.3326 6.60043C16.3354 6.60096 16.3375 6.60134 16.3388 6.60158C16.3394 6.6017 16.3398 6.60178 16.34 6.60182C16.3402 6.60184 16.3402 6.60185 16.3402 6.60185C16.3402 6.60185 16.3402 6.60185 16.3402 6.60185C16.3402 6.60185 16.3402 6.60184 16.3402 6.60184C16.3401 6.60184 16.3401 6.60184 16.3401 6.60183C16.3401 6.60183 16.3401 6.60183 16.3401 6.60183C16.3401 6.60183 16.3401 6.60183 16.3401 6.60183C16.3401 6.60183 16.3401 6.60183 16.3401 6.60183C16.3401 6.60183 16.3401 6.60183 16.433 6.11054ZM15.9231 6.10046V6.1087H16.9231V6.10046H15.9231ZM14.1986 6.38519C14.7176 6.38519 15.2506 6.43636 15.6585 6.48875C15.8613 6.5148 16.0307 6.54082 16.1487 6.56021C16.2077 6.5699 16.2538 6.57792 16.2847 6.58343C16.3001 6.58619 16.3117 6.58831 16.3193 6.58971C16.323 6.59041 16.3258 6.59092 16.3275 6.59124C16.3283 6.5914 16.3289 6.59151 16.3292 6.59157C16.3294 6.5916 16.3295 6.59161 16.3295 6.59162C16.3295 6.59162 16.3295 6.59162 16.3295 6.59161C16.3295 6.59161 16.3294 6.59161 16.3294 6.59161C16.3294 6.5916 16.3294 6.59159 16.4231 6.10046C16.5169 5.60933 16.5168 5.60932 16.5168 5.60931C16.5168 5.60931 16.5167 5.6093 16.5167 5.60929C16.5166 5.60927 16.5165 5.60925 16.5163 5.60923C16.5161 5.60918 16.5158 5.60912 16.5154 5.60904C16.5146 5.6089 16.5135 5.6087 16.5122 5.60845C16.5096 5.60795 16.5059 5.60726 16.5011 5.60638C16.4916 5.60462 16.4779 5.60212 16.4604 5.59899C16.4253 5.59273 16.3747 5.58393 16.3108 5.57344C16.1832 5.55247 16.0021 5.52467 15.7859 5.4969C15.3557 5.44165 14.7765 5.38519 14.1986 5.38519V6.38519ZM10.9365 9.78063C10.9365 8.62935 11.2766 7.79382 11.8191 7.2471C12.3616 6.70031 13.1633 6.38519 14.1986 6.38519V5.38519C12.9582 5.38519 11.8788 5.76714 11.1092 6.54275C10.3395 7.31843 9.93646 8.43062 9.93646 9.78063H10.9365ZM10.9365 11.9846V9.78063H9.93646V11.9846H10.9365ZM7.88392 12.4846H10.4365V11.4846H7.88392V12.4846ZM8.38392 14.8754V11.9846H7.38392V14.8754H8.38392ZM7.8938 14.3754H7.88392V15.3754H7.8938V14.3754ZM7.3938 14.8754V14.8855H8.3938V14.8754H7.3938ZM7.8938 15.3855H10.4365V14.3855H7.8938V15.3855ZM10.9365 21.8667V14.8855H9.93646V21.8667H10.9365ZM1.49976 11.9949C1.49976 17.2376 5.34289 21.5749 10.3591 22.3607L10.5138 21.3728C5.97596 20.6619 2.49976 16.7367 2.49976 11.9949H1.49976ZM11.9946 1.5C6.20337 1.5 1.49976 6.20361 1.49976 11.9949H2.49976C2.49976 6.7559 6.75565 2.5 11.9946 2.5V1.5Z" fill="white"/>
</svg>
