<svg width="172" height="56" viewBox="0 0 172 56" fill="none" xmlns="http://www.w3.org/2000/svg">
<path d="M30.92 35.9816C26.6973 35.9816 22.4746 35.9816 18.2519 35.9816C18.0805 35.9816 18.0193 36.018 18.0193 36.2002C18.0316 37.9122 18.0193 39.612 18.0193 41.324C18.0193 41.3847 17.9949 41.4454 18.0561 41.5062C18.0928 41.4819 18.1173 41.4454 18.154 41.4212C19.1699 40.4984 20.3571 40.037 21.728 40.0734C23.1478 40.1098 24.3473 40.6441 25.302 41.6761C26.3913 42.8539 26.8197 44.2502 26.5994 45.8287C26.4035 47.1643 25.7059 48.2206 24.69 49.0827C22.3277 51.0739 19.6105 51.8753 16.5383 51.4625C13.9435 51.1104 11.8016 49.884 10.1615 47.8685C8.37447 45.683 7.66457 43.1696 7.9828 40.377C8.25208 38.07 9.24349 36.0909 10.9081 34.4517C12.8175 32.5819 15.1308 31.6348 17.8113 31.562C17.9704 31.562 18.0193 31.5134 18.0193 31.3555C18.0071 30.2385 18.0193 29.1214 18.0193 28.0044C18.0193 24.7989 18.0193 21.5813 18.0193 18.3759C18.0193 18.1938 17.9704 18.1452 17.7868 18.1573C17.3951 18.1816 17.0157 18.1816 16.624 18.2059C14.8125 18.3395 13.0745 18.728 11.3854 19.3958C8.64375 20.4764 6.30596 22.1156 4.37209 24.3375C1.86296 27.2273 0.430916 30.5663 0.0759653 34.3546C-0.0831506 36.0909 0.00252722 37.8272 0.381957 39.5392C1.61817 45.1001 4.78824 49.2284 9.86771 51.8874C11.9362 52.9681 14.1516 53.563 16.4894 53.7452C16.7587 53.7694 17.0157 53.7452 17.285 53.818C17.7623 53.818 18.2397 53.818 18.717 53.818C18.766 53.7816 18.8272 53.7937 18.8761 53.7816C20.1123 53.733 21.3363 53.5509 22.5358 53.2352C25.8283 52.3731 28.6556 50.6975 31.0179 48.2813C31.1036 48.1963 31.1158 48.0992 31.1158 47.9899C31.1158 44.0559 31.1158 40.122 31.1158 36.2002C31.1403 36.0302 31.1036 35.9816 30.92 35.9816Z" fill="white"/>
<path d="M107.919 18.1574C106.512 18.1574 105.104 18.1574 103.696 18.1574C103.55 18.1574 103.476 18.1695 103.439 18.3517C103.158 19.918 102.864 21.4843 102.57 23.0506C102.191 25.1147 101.799 27.1909 101.42 29.2551C101.334 29.7165 101.248 30.1778 101.163 30.6392C100.832 29.0001 100.514 27.3609 100.208 25.7218C99.7553 23.2691 99.2901 20.8286 98.8373 18.376C98.8006 18.206 98.7516 18.1574 98.5802 18.1574C97.1727 18.1695 95.7651 18.1695 94.3698 18.1574C94.174 18.1574 94.125 18.206 94.125 18.4124C94.125 24.204 94.125 30.0079 94.125 35.7995C94.125 35.9938 94.1862 36.0302 94.3698 36.0302C95.4102 36.0181 96.4628 36.0181 97.5032 36.0302C97.699 36.0302 97.7479 35.9817 97.7357 35.7874C97.7235 34.1604 97.7357 32.5334 97.7357 30.8942C97.7357 28.9394 97.7357 26.9724 97.7357 25.0176C97.7357 24.9568 97.6867 24.8354 97.8091 24.8354C97.9193 24.8354 97.8826 24.9447 97.8948 25.0054C98.005 25.6246 98.1029 26.2439 98.2008 26.8631C98.4823 28.5873 98.7638 30.3114 99.0576 32.0355C99.2657 33.3104 99.486 34.5853 99.6941 35.8602C99.7185 35.9817 99.7553 36.0181 99.8899 36.0181C100.734 36.0181 101.591 36.0181 102.436 36.0181C102.57 36.0181 102.607 35.9695 102.619 35.8481C102.729 35.156 102.84 34.4639 102.962 33.784C103.452 30.8821 103.929 27.968 104.419 25.0661C104.431 24.9811 104.382 24.8233 104.529 24.8354C104.651 24.8476 104.578 24.9933 104.578 25.0783C104.578 28.648 104.578 32.2055 104.578 35.7752C104.578 35.9695 104.627 36.0181 104.822 36.0181C105.936 36.0059 107.062 36.0181 108.176 36.0181C108.176 30.0564 108.176 24.0948 108.176 18.1331C108.09 18.1453 108.005 18.1574 107.919 18.1574Z" fill="white"/>
<path d="M62.2525 36.03C63.2929 36.0179 64.3455 36.0179 65.3859 36.03C65.594 36.03 65.6552 35.9815 65.6552 35.7751C65.6429 30.7726 65.6552 25.7702 65.6552 20.7677C65.6552 20.707 65.6552 20.6342 65.6552 20.5735C65.6429 20.4399 65.6919 20.3913 65.8265 20.4035C66.0591 20.4156 66.2916 20.4035 66.5242 20.4035C66.8424 20.4035 66.7935 20.367 66.7935 20.6827C66.7935 25.7216 66.7935 30.7605 66.7935 35.7994C66.7935 35.9936 66.8424 36.03 67.026 36.03C68.0542 36.0179 69.0823 36.0179 70.1227 36.03C70.3307 36.03 70.4042 35.9936 70.3919 35.7629C70.3797 32.8732 70.3919 29.9834 70.3919 27.1058C70.3919 24.2039 70.3919 21.302 70.3919 18.4001C70.3919 18.2422 70.3797 18.1572 70.1839 18.1572C67.5401 18.1694 64.9085 18.1694 62.2648 18.1572C62.0812 18.1572 62.0567 18.2179 62.0567 18.3758C62.0567 24.1917 62.0567 29.9955 62.0567 35.8115C62.0322 35.9815 62.0812 36.03 62.2525 36.03Z" fill="white"/>
<path d="M54.6896 29.7649C53.6492 29.777 52.6089 29.777 51.5807 29.7649C51.3971 29.7649 51.3359 29.8013 51.3359 29.9956C51.3482 30.9548 51.3359 31.914 51.3359 32.8732C51.3359 33.2374 51.3604 33.6017 51.4216 33.9659C51.6052 35.1559 52.3886 35.9329 53.5268 35.9936C54.8487 36.0665 56.1584 36.0908 57.4803 35.9815C58.4594 35.9086 59.1571 35.4108 59.4753 34.4395C59.6222 33.9781 59.6834 33.4924 59.6834 33.0067C59.6834 31.9868 59.6834 30.9669 59.6834 29.9348C59.6834 29.522 59.6834 29.1092 59.6467 28.6964C59.5488 27.725 58.9858 27.0936 58.0311 26.8872C57.8107 26.8387 57.5782 26.8144 57.3456 26.8144C57.2844 26.8144 57.2355 26.8022 57.2355 26.7294C57.2355 26.6444 57.2844 26.6444 57.3456 26.6444C57.4191 26.6444 57.4925 26.6444 57.5659 26.6444C58.3003 26.5837 58.9123 26.3044 59.3162 25.673C59.5733 25.2724 59.6712 24.8353 59.6712 24.3617C59.6834 23.3782 59.6834 22.3947 59.6712 21.3991C59.6712 21.0227 59.6467 20.6585 59.5855 20.2942C59.4019 19.0436 58.5818 18.2422 57.3824 18.1937C56.1339 18.1451 54.8732 18.1451 53.6248 18.1937C52.5477 18.2301 51.7888 18.8493 51.4951 19.8814C51.3849 20.2942 51.3359 20.707 51.3359 21.132C51.3359 21.9941 51.3359 22.844 51.3359 23.7061C51.3359 23.8518 51.3604 23.9003 51.5195 23.9003C52.5966 23.8882 53.6615 23.8882 54.7386 23.9003C54.9099 23.9003 54.9344 23.8396 54.9344 23.6939C54.9222 22.8561 54.9344 22.0062 54.9344 21.1684C54.9344 21.0591 54.9344 20.9499 54.9589 20.8527C54.9956 20.6099 55.1792 20.452 55.424 20.4278C55.8157 20.3913 56.0727 20.6463 56.0727 21.0713C56.0727 22.249 56.0727 23.4268 56.0727 24.6046C56.0727 24.7503 56.0605 24.896 56.036 25.0295C55.9625 25.4909 55.73 25.7338 55.2771 25.8187C55.1058 25.8552 54.9222 25.8673 54.7386 25.8673C54.2735 25.8795 53.8206 25.8795 53.3555 25.8673C53.2086 25.8673 53.1597 25.9037 53.1597 26.0616C53.1719 26.5594 53.1597 27.0451 53.1597 27.5429C53.1597 27.8343 53.1597 27.8343 53.4656 27.8343C53.9675 27.8343 54.4571 27.8343 54.9589 27.8586C55.7178 27.895 56.0482 28.2471 56.0605 28.9999C56.0727 29.6677 56.0605 30.3477 56.0605 31.0155C56.0605 31.2826 56.0605 31.5619 56.0605 31.829C56.0605 32.2661 56.0605 32.7032 56.0605 33.1403C56.0605 33.3831 55.9503 33.5653 55.73 33.6745C55.5219 33.7838 55.3138 33.7474 55.118 33.6017C54.9222 33.456 54.9099 33.2374 54.9099 33.0189C54.9099 32.0232 54.8977 31.0276 54.9099 30.0441C54.9467 29.8256 54.9099 29.7527 54.6896 29.7649Z" fill="white"/>
<path d="M33.6844 36.03C34.7003 36.0179 35.7162 36.03 36.7321 36.0179C37.0748 36.0179 37.0258 36.0665 37.0258 35.7265C37.0258 30.6998 37.0258 25.673 37.0258 20.6585C37.0258 20.452 37.0748 20.3913 37.2829 20.4035C38.2131 20.4156 39.1433 20.4035 40.0735 20.4156C40.2449 20.4156 40.3061 20.3792 40.3061 20.1849C40.2938 19.6021 40.2938 19.0072 40.3061 18.4243C40.3061 18.2179 40.2449 18.1572 40.049 18.1572C37.9316 18.1694 35.8141 18.1694 33.6966 18.1572C33.4885 18.1572 33.4396 18.2058 33.4396 18.4243C33.4518 21.3141 33.4396 24.216 33.4396 27.1058C33.4396 29.9955 33.4396 32.8853 33.4396 35.7629C33.4273 35.9572 33.4641 36.03 33.6844 36.03Z" fill="white"/>
<path d="M24.5181 34.8767C31.4703 25.1632 31.2499 11.7707 24.5181 2.32434C21.5683 6.68327 19.047 12.4385 19.4631 20.27C19.7569 25.6003 21.4459 30.4692 24.5181 34.8767ZM24.5304 33.6746C23.6369 31.9869 23.184 30.2021 23.0983 28.3444C22.9882 26.0253 23.6369 23.2448 24.5304 21.9577C25.1546 22.6498 25.9624 25.8674 25.9746 27.798C25.9746 29.8621 25.4973 31.8048 24.5304 33.6746ZM24.5059 4.83771C26.1949 7.82461 27.4556 10.9329 28.0187 14.2962C28.5817 17.6474 28.6184 20.9985 27.9452 24.3375C28.0431 19.3108 26.8804 14.5998 24.5059 10.1558C22.1191 14.6605 20.9931 19.4565 21.1032 24.5318C19.8548 17.5624 21.042 11.0301 24.5059 4.83771Z" fill="white"/>
<path d="M83.5272 34.0146C83.723 35.156 84.4941 35.9088 85.5957 35.9816C86.9298 36.0666 88.2639 36.0666 89.5858 35.9816C90.5405 35.9209 91.2627 35.3381 91.5564 34.4396C91.7278 33.9297 91.7645 33.3954 91.7645 32.849C91.7645 30.9913 91.7645 29.1336 91.7645 27.2759C91.7645 25.3696 91.7645 23.4634 91.7645 21.5571C91.7645 21.0714 91.7523 20.5736 91.6421 20.0879C91.4096 18.9466 90.614 18.2424 89.4879 18.1938C88.2272 18.1452 86.9665 18.1331 85.7059 18.1938C84.9103 18.2302 84.2616 18.5581 83.8454 19.2623C83.5394 19.7844 83.4415 20.3551 83.4293 20.95C83.417 25.0054 83.4293 29.0486 83.4293 33.104C83.4293 33.4076 83.466 33.7111 83.5272 34.0146ZM87.04 20.8893C87.0767 20.5858 87.2848 20.4036 87.603 20.4036C87.8845 20.4036 88.1171 20.5979 88.166 20.8893C88.1783 20.9986 88.1905 21.12 88.1905 21.2293C88.1905 25.1268 88.1905 29.0122 88.1905 32.9097C88.1905 33.019 88.1905 33.1283 88.166 33.2254C88.1293 33.5047 87.8968 33.699 87.6152 33.7111C87.3337 33.7232 87.1134 33.5411 87.0645 33.2497C87.0522 33.1526 87.04 33.0554 87.04 32.9462C87.04 30.9792 87.04 29.0001 87.04 27.0331C87.04 25.0661 87.04 23.0991 87.04 21.1443C87.0277 21.0593 87.0277 20.9743 87.04 20.8893Z" fill="white"/>
<path d="M40.5635 36.03C41.6161 36.0179 42.6687 36.0179 43.7213 36.03C43.856 36.03 43.9049 35.9815 43.9172 35.8479C43.9416 35.338 43.9906 34.8159 44.0273 34.3059C44.1008 33.3467 44.162 32.3996 44.2232 31.4404C44.2354 31.2947 44.2844 31.2704 44.419 31.2704C44.8719 31.2826 45.3125 31.2826 45.7654 31.2704C45.9 31.2704 45.9367 31.3069 45.949 31.4404C45.9857 31.9625 46.0224 32.4968 46.0591 33.0189C46.1326 33.9659 46.1937 34.913 46.2549 35.8601C46.2672 35.9936 46.3039 36.03 46.4385 36.0179C46.9648 36.0058 47.4912 36.0179 48.0175 36.0179C48.5315 36.0179 49.0456 36.0058 49.5474 36.0179C49.7555 36.03 49.78 35.9572 49.7677 35.7751C49.7065 35.2651 49.6576 34.7551 49.5964 34.2452C49.4862 33.2253 49.3761 32.2054 49.2782 31.1733C49.1558 30.0077 49.0334 28.8299 48.911 27.6643C48.8008 26.6444 48.7029 25.6245 48.5927 24.5924C48.4826 23.5603 48.3724 22.5162 48.2623 21.4841C48.1521 20.4278 48.0297 19.3836 47.9318 18.3272C47.9195 18.1815 47.8706 18.1451 47.736 18.1451C47.381 18.1451 47.0138 18.1451 46.6589 18.1451C45.288 18.1451 43.9049 18.1451 42.5341 18.1451C42.3627 18.1451 42.2648 18.1572 42.2403 18.3879C42.1302 19.6142 41.9955 20.8284 41.8609 22.0548C41.714 23.4996 41.5549 24.9324 41.3958 26.3773C41.2489 27.8221 41.102 29.2549 40.9429 30.6998C40.7593 32.3996 40.5757 34.1116 40.3921 35.8115C40.3799 35.9572 40.3921 36.03 40.5635 36.03ZM44.37 29.1456C44.4312 28.2593 44.4924 27.3608 44.5536 26.4744C44.6148 25.5273 44.6883 24.5803 44.7495 23.6332C44.8229 22.6011 44.8963 21.5691 44.9698 20.537C44.9698 20.452 44.9943 20.4035 45.0922 20.4035C45.1901 20.4035 45.1901 20.4642 45.1901 20.5249C45.2513 21.3262 45.3003 22.1398 45.3614 22.9411C45.4471 24.1067 45.5206 25.2602 45.6062 26.4258C45.6674 27.3243 45.7286 28.2228 45.7898 29.1213C45.8021 29.267 45.7654 29.3277 45.6062 29.3156C45.4226 29.3035 45.2513 29.3156 45.0677 29.3156C44.8841 29.3156 44.7127 29.3035 44.5292 29.3156C44.3945 29.3156 44.3578 29.267 44.37 29.1456Z" fill="white"/>
<path d="M73.0007 36.0301C74.0288 36.0179 75.057 36.0179 76.0973 36.0301C76.2932 36.0301 76.3544 35.9936 76.3544 35.7872C76.3421 33.9174 76.3544 32.0597 76.3421 30.1898C76.3421 29.9955 76.3789 29.947 76.5869 29.9348C77.3947 29.9227 78.2026 29.9955 79.0104 29.8863C79.6836 29.8013 80.2466 29.5099 80.6138 28.9271C80.9198 28.4414 81.0544 27.895 81.0544 27.3365C81.0789 25.3452 81.0666 23.3661 81.0666 21.3748C81.0666 20.9499 81.0422 20.537 80.9687 20.1121C80.7362 18.91 79.9284 18.2058 78.6921 18.1694C76.795 18.1208 74.8856 18.1572 72.9885 18.1451C72.7804 18.1451 72.7437 18.2058 72.7437 18.4001C72.7437 21.2898 72.7437 24.1917 72.7437 27.0815C72.7437 29.9713 72.7437 32.8732 72.7437 35.7629C72.7314 35.9815 72.7926 36.0301 73.0007 36.0301ZM76.5502 20.3913C77.2234 20.3913 77.4682 20.622 77.4682 21.2898C77.4682 23.2204 77.4682 25.1631 77.4682 27.0936C77.4682 27.2029 77.4682 27.3243 77.4315 27.4336C77.3213 27.8343 77.1377 27.9679 76.7216 27.98C76.3421 27.98 76.3421 27.98 76.3421 27.6157C76.3421 26.4744 76.3421 25.3331 76.3421 24.1917C76.3421 23.0018 76.3421 21.7998 76.3421 20.6099C76.3299 20.4399 76.3789 20.3913 76.5502 20.3913Z" fill="white"/>
<path d="M71.8391 49.3012C72.0716 49.3376 72.2308 49.1798 72.4144 49.0948C72.5245 49.0462 72.4878 48.9369 72.4878 48.8519C72.4878 47.9899 72.4878 47.1278 72.4878 46.2536C72.4878 45.7193 72.4878 45.7315 71.9615 45.7315C71.8024 45.7315 71.7656 45.78 71.7656 45.9257C71.7779 46.46 71.7656 46.9821 71.7656 47.5163C71.7656 48.0506 71.7656 48.5848 71.7656 49.1191C71.7656 49.1919 71.7289 49.2769 71.8391 49.3012Z" fill="white"/>
<path d="M69.1224 48.9129C69.1224 48.9736 69.0979 49.0465 69.1836 49.0829C69.3427 49.1557 69.4773 49.2529 69.6487 49.2893C69.7834 49.3136 69.8568 49.2893 69.8568 49.1193C69.8445 48.5851 69.8568 48.0508 69.8568 47.5166C69.8568 47.0916 69.8568 46.6788 69.8568 46.2538C69.8568 45.7196 69.8568 45.7196 69.306 45.7317C69.1713 45.7317 69.1224 45.7803 69.1224 45.9139C69.1224 46.9216 69.1224 47.9173 69.1224 48.9129Z" fill="white"/>
<path d="M33.4758 41.6156C33.4758 45.5738 33.4758 49.5199 33.4758 53.4782C33.4758 53.8182 33.4391 53.7939 33.7818 53.7939C58.5794 53.7939 83.3771 53.7939 108.175 53.7939C108.175 49.6171 108.175 45.4403 108.175 41.2756C83.3893 41.2756 58.6039 41.2756 33.8308 41.2756C33.4146 41.2635 33.4758 41.2149 33.4758 41.6156ZM100.023 47.5165C100.023 46.2902 100.023 45.0517 100.023 43.8254C100.023 43.6433 100.072 43.5947 100.256 43.6069C100.66 43.619 101.063 43.619 101.467 43.6069C101.663 43.5947 101.724 43.6433 101.724 43.8497C101.712 44.7239 101.724 45.6103 101.712 46.4845C101.712 46.6545 101.749 46.7152 101.932 46.703C102.067 46.6909 102.202 46.7152 102.349 46.703C102.899 46.6423 103.401 46.7759 103.891 47.043C104.148 47.1887 104.258 47.4073 104.344 47.638C104.662 48.5486 104.686 49.4714 104.405 50.3942C104.197 51.062 103.719 51.4141 102.997 51.4748C102.52 51.5112 102.043 51.4869 101.577 51.4626C101.149 51.4384 100.708 51.4262 100.28 51.4384C100.096 51.4505 100.035 51.4141 100.035 51.2198C100.035 49.9813 100.023 48.755 100.023 47.5165ZM84.9437 43.7526C84.9437 43.6433 84.9805 43.6069 85.0906 43.6069C86.4247 43.6069 87.7589 43.6069 89.093 43.6069C89.2031 43.6069 89.2521 43.6311 89.2521 43.7526C89.2521 44.129 89.2521 44.5054 89.2521 44.8939C89.2521 45.0032 89.2154 45.0396 89.1052 45.0396C88.8237 45.0275 88.5422 45.0517 88.2607 45.0396C88.1016 45.0275 88.0526 45.076 88.0526 45.2339C88.0649 46.2416 88.0526 47.2494 88.0526 48.2572C88.0526 49.2528 88.0526 50.2485 88.0526 51.2319C88.0526 51.4019 88.0037 51.4505 87.8323 51.4505C87.3427 51.4384 86.8531 51.4384 86.3635 51.4505C86.1799 51.4505 86.131 51.4019 86.131 51.2198C86.1432 49.2407 86.131 47.2616 86.1432 45.2824C86.1432 45.076 86.082 45.0153 85.8862 45.0275C85.6169 45.0517 85.3476 45.0275 85.0906 45.0396C84.9805 45.0396 84.9437 45.0032 84.9437 44.8939C84.9437 44.5175 84.9437 44.129 84.9437 43.7526ZM67.3308 45.671C67.4043 45.2582 67.6735 45.0153 67.955 44.7603C67.9673 44.7482 67.9795 44.7482 67.9918 44.7361C68.4569 44.2868 69.0199 44.2625 69.6196 44.3111C69.8032 44.3232 69.8522 44.2625 69.84 44.0925C69.8277 43.6069 69.84 43.6069 70.3173 43.6069C70.7335 43.6069 71.1496 43.6069 71.5657 43.6069C71.7004 43.6069 71.7616 43.6311 71.7493 43.7768C71.7493 43.9468 71.6637 44.1654 71.7861 44.2747C71.8962 44.3839 72.1165 44.3354 72.2879 44.2989C72.8387 44.2018 73.2671 44.4689 73.6587 44.7846C73.9525 45.0275 74.1728 45.2946 74.2707 45.6953C74.4298 46.3024 74.3442 46.9216 74.3809 47.4315C74.3809 47.7351 74.3686 47.9536 74.3809 48.1601C74.4176 48.67 74.3197 49.1557 74.1728 49.6292C74.0871 49.9206 73.8056 50.0542 73.6098 50.2606C73.5975 50.2727 73.5853 50.2727 73.5731 50.2849C73.1202 50.722 72.5694 50.7706 71.9941 50.7098C71.7861 50.6856 71.7249 50.7584 71.7371 50.9648C71.7493 51.4262 71.7371 51.4262 71.2842 51.4262C70.8558 51.4262 70.4397 51.4262 70.0113 51.4262C69.8889 51.4262 69.8277 51.4141 69.8277 51.2684C69.8277 51.0984 69.9134 50.8555 69.791 50.7584C69.6686 50.6491 69.4238 50.6977 69.2524 50.722C68.6894 50.8191 68.2855 50.5277 67.8938 50.2242C67.6001 49.9935 67.3798 49.7142 67.3063 49.3135C67.2451 48.9614 67.1839 48.6214 67.1839 48.2572C67.1962 47.7594 67.1962 47.2737 67.1839 46.7759C67.1962 46.4116 67.2696 46.0474 67.3308 45.671ZM53.0471 43.6069C54.0263 43.619 55.0054 43.619 55.9846 43.6069C56.156 43.6069 56.1927 43.6554 56.1805 43.8133C56.1682 44.1532 56.1682 44.5054 56.1805 44.8453C56.1927 45.0153 56.1193 45.0396 55.9724 45.0396C55.6174 45.0275 55.2625 45.0396 54.9075 45.0396C54.7851 45.0396 54.7362 45.0639 54.7362 45.1974C54.7484 45.6467 54.7484 46.0959 54.7362 46.5452C54.7362 46.6666 54.7729 46.703 54.8953 46.703C55.2502 46.6909 55.6174 46.7152 55.9724 46.6909C56.1437 46.6787 56.1805 46.7395 56.1682 46.8973C56.156 47.2373 56.156 47.5894 56.1682 47.9294C56.1682 48.0872 56.1193 48.1236 55.9724 48.1115C55.6174 48.0993 55.2502 48.1115 54.8953 48.1115C54.7729 48.1115 54.7362 48.1358 54.7362 48.2693C54.7484 48.8036 54.7484 49.3257 54.7362 49.8599C54.7362 49.9935 54.7851 50.0299 54.9075 50.0299C55.3482 50.0178 55.801 50.0299 56.2539 50.0299C56.3885 50.0299 56.4375 50.0542 56.4252 50.1999C56.413 50.5763 56.413 50.9405 56.4252 51.3169C56.4252 51.4262 56.3885 51.4626 56.2784 51.4626C55.1768 51.4626 54.0752 51.4626 52.9737 51.4626C52.8023 51.4626 52.839 51.3534 52.839 51.2562C52.839 50.2606 52.839 49.2528 52.839 48.2572C52.839 48.0144 52.839 47.7715 52.839 47.5287C52.839 46.3024 52.839 45.076 52.839 43.8376C52.839 43.6676 52.8757 43.6069 53.0471 43.6069ZM37.2456 43.6069C37.7475 43.619 38.2371 43.619 38.7389 43.6069C38.9225 43.6069 38.947 43.6676 38.947 43.8254C38.9347 44.7118 38.947 45.5981 38.9347 46.4845C38.9347 46.6423 38.9714 46.7152 39.1428 46.703C39.3264 46.6909 39.5222 46.6909 39.7058 46.703C39.8649 46.7152 39.9017 46.6545 39.9017 46.5088C39.8894 45.6345 39.9139 44.7482 39.8894 43.874C39.8894 43.6433 39.9629 43.6069 40.1709 43.6069C40.5748 43.619 40.9788 43.619 41.3827 43.6069C41.5173 43.6069 41.5663 43.6311 41.5663 43.7768C41.5663 46.2659 41.5663 48.7671 41.5663 51.2562C41.5663 51.3776 41.5418 51.4384 41.3949 51.4384C40.9543 51.4262 40.5136 51.4262 40.073 51.4384C39.9139 51.4384 39.8894 51.3776 39.8894 51.2441C39.8894 50.2849 39.8894 49.3135 39.9017 48.3543C39.9017 48.1722 39.8649 48.0993 39.6691 48.1115C39.4855 48.1236 39.3142 48.1236 39.1306 48.1115C38.9714 48.0993 38.9347 48.1601 38.9347 48.3058C38.9347 49.2771 38.9347 50.2485 38.947 51.2198C38.947 51.3898 38.9102 51.4505 38.7266 51.4384C38.2248 51.4262 37.7352 51.4262 37.2334 51.4384C37.062 51.4384 37.0131 51.3898 37.0131 51.2198C37.0253 49.9813 37.0131 48.7429 37.0131 47.5044C37.0131 46.2781 37.0131 45.0396 37.0131 43.8133C37.0131 43.6554 37.0743 43.6069 37.2456 43.6069Z" fill="white"/>
</svg>
