<svg width="32" height="32" viewBox="0 0 32 32" fill="none" xmlns="http://www.w3.org/2000/svg">
<path fill-rule="evenodd" clip-rule="evenodd" d="M12.1994 22.3842V13.3531H9.17857V22.3842H12.1994V22.3842ZM10.689 12.1201C11.7424 12.1201 12.3981 11.4266 12.3981 10.5599C12.3784 9.67376 11.7424 8.99952 10.709 8.99952C9.67562 8.99952 9 9.67376 9 10.5599C9 11.4266 9.65553 12.1201 10.6693 12.1201H10.6889H10.689Z" fill="#08080B"/>
<path fill-rule="evenodd" clip-rule="evenodd" d="M13.8711 22.3842H16.8919V17.3409C16.8919 17.071 16.9115 16.8013 16.9913 16.6084C17.2097 16.0691 17.7067 15.5106 18.5412 15.5106C19.6343 15.5106 20.0716 16.3387 20.0716 17.5528V22.3842H23.0921V17.2059C23.0921 14.432 21.6018 13.1412 19.6144 13.1412C17.9847 13.1412 17.2693 14.0463 16.8718 14.6629H16.892V13.3531H13.8712C13.9108 14.2005 13.8712 22.3842 13.8712 22.3842H13.8711Z" fill="#08080B"/>
<rect x="0.5" y="0.499512" width="31" height="31" rx="3.5" stroke="#08080B"/>
</svg>
