<svg width="101" height="32" viewBox="0 0 101 32" fill="none" xmlns="http://www.w3.org/2000/svg">
<path d="M13.8945 23.1888C13.931 22.9301 14.0196 22.7852 14.348 22.7696C15.1558 22.7282 15.3643 22.5316 15.578 21.7709C16.2607 19.3388 16.9435 16.9014 17.6263 14.4693C17.6263 14.4589 17.6315 14.4537 17.6367 14.4434C17.8347 13.7086 17.6471 13.455 16.881 13.424C16.8132 13.4188 16.7454 13.4136 16.6725 13.4084C16.6673 13.1652 16.7298 13.041 17.0112 13.041C18.1631 13.0565 19.3201 13.0462 20.472 13.0462C20.5553 13.0462 20.6387 13.0462 20.7325 13.0462C20.7482 13.2842 20.7013 13.4291 20.4563 13.4447C20.3208 13.455 20.1853 13.486 20.0446 13.5067C19.5703 13.5637 19.3097 13.8586 19.1846 14.2881C18.6634 16.1355 18.1422 17.983 17.621 19.8304C17.423 20.529 17.2197 21.2327 17.0425 21.9365C16.907 22.4747 17.0425 22.661 17.5898 22.7489C17.7357 22.7696 17.8764 22.7903 18.0328 22.811C18.0224 22.9352 18.0119 23.0594 17.9963 23.1836C16.636 23.1888 15.2653 23.1888 13.8945 23.1888Z" fill="#08080B"/>
<path d="M26.5508 23.188C26.6185 22.8723 26.8531 22.8102 27.1397 22.7895C27.5463 22.7533 27.7652 22.4842 27.8694 22.1168C28.0362 21.5424 28.1977 20.9628 28.3593 20.3832C28.6564 19.3276 28.9535 18.2719 29.2506 17.2163C29.2766 17.1179 29.2975 17.0196 29.3287 16.8902C29.0004 16.8902 28.6981 16.8902 28.401 16.8902C28.3697 16.5021 28.4166 16.4504 28.7554 16.4504C29.4642 16.4504 29.4382 16.44 29.6623 15.7777C29.8603 15.1877 30.0688 14.5875 30.3711 14.0441C30.8871 13.123 31.8669 12.7193 32.8155 12.947C33.3419 13.0712 33.7119 13.5525 33.6598 14.0389C33.5973 14.6444 33.2012 15.1049 32.7113 15.136C32.2265 15.167 31.9451 14.7893 32.1327 14.3442C32.2213 14.1321 32.3673 13.9406 32.4767 13.7388C32.6331 13.4542 32.5497 13.3196 32.2213 13.3196C31.7783 13.3196 31.4917 13.6094 31.3926 13.951C31.1581 14.7479 31.0122 15.5758 30.8193 16.4349C31.3509 16.4349 31.8252 16.4349 32.2943 16.4349C32.2995 16.8385 32.2682 16.8747 31.919 16.8747C31.5803 16.8747 31.2415 16.8799 30.9027 16.8747C30.7516 16.8695 30.6838 16.9316 30.6473 17.0662C30.1887 18.7169 29.7196 20.3677 29.2662 22.0185C29.1307 22.5153 29.3183 22.774 29.8291 22.8413C29.8864 22.8464 29.9437 22.862 30.0011 22.8723C29.9959 22.9862 29.9906 23.0897 29.9854 23.188C28.8388 23.188 27.6974 23.188 26.5508 23.188Z" fill="#08080B"/>
<path d="M75.02 12.9568C74.9991 12.9103 74.947 12.8482 74.9053 12.8482C74.3164 12.843 73.7326 12.843 73.1072 12.843C73.1072 15.1354 73.1072 17.3917 73.1072 19.653C72.9926 19.5909 72.9404 19.5185 72.8935 19.4461C71.6896 17.5003 70.4856 15.5494 69.2817 13.6037C69.1253 13.3553 69.0159 13.0189 68.7918 12.8947C68.5676 12.7706 68.2185 12.8482 67.9266 12.8482C67.6139 12.843 67.3012 12.8482 66.9884 12.8482C66.9207 12.8482 66.8581 12.8637 66.7695 12.8741C66.7695 12.9931 66.7695 13.0966 66.7695 13.1949C66.7695 16.4188 66.7695 19.6375 66.7695 22.8614C66.7695 22.9701 66.7591 23.0839 66.7539 23.1926C67.4158 23.1926 68.0725 23.1926 68.7344 23.1926C68.7292 23.1357 68.7188 23.0736 68.7188 23.0167C68.7188 20.9105 68.7188 18.8044 68.7188 16.6982C68.7188 16.6413 68.724 16.5792 68.7292 16.5223C68.7553 16.5016 68.7813 16.4757 68.8074 16.455C68.8282 16.5068 68.8387 16.5689 68.8699 16.6154C70.2198 18.7785 71.5645 20.9416 72.9144 23.0995C72.93 23.1305 72.9404 23.1616 72.9561 23.1926C73.6493 23.1926 74.3424 23.1926 75.0408 23.1926C75.0408 19.8342 75.0408 16.4705 75.0408 13.1121C75.0304 13.0552 75.0408 12.9982 75.02 12.9568Z" fill="#08080B"/>
<path d="M41.7612 21.8588C42.1208 20.5547 42.5221 19.261 42.84 17.9415C43.0433 17.0928 42.8765 16.4822 41.7872 16.3218C40.9533 16.1976 40.2341 16.4563 39.593 16.979C39.4314 17.1135 39.2594 17.2377 39.0927 17.3671C39.077 17.3567 39.0614 17.3412 39.0405 17.3308C39.1187 17.0307 39.1917 16.7306 39.2751 16.4046C39.1552 16.4046 39.0718 16.3994 38.9884 16.4046C38.3682 16.4356 37.7428 16.4822 37.1226 16.4977C36.8932 16.5029 36.7838 16.5753 36.8046 16.8134C36.888 16.8341 36.9714 16.8599 37.0548 16.8755C37.576 16.9686 37.6959 17.1549 37.5551 17.662C37.159 19.0903 36.7525 20.5185 36.3564 21.9416C36.2157 22.4435 35.9134 22.7799 35.3661 22.8213C35.1003 22.842 35.0065 22.9714 34.9805 23.1939C36.1271 23.1939 37.2737 23.1939 38.4151 23.1939C38.436 23.08 38.4568 22.961 38.4829 22.8006C38.3786 22.8006 38.29 22.8058 38.1962 22.8006C37.8001 22.7851 37.6073 22.5677 37.7011 22.1952C37.9356 21.274 38.2118 20.3633 38.436 19.437C38.6132 18.7229 38.8842 18.0657 39.421 17.543C39.8275 17.1497 40.2706 16.8651 40.8751 16.979C41.3077 17.0618 41.5527 17.336 41.4641 17.7603C41.3181 18.4486 41.1357 19.1265 40.9585 19.8044C40.7709 20.5185 40.5572 21.2223 40.3592 21.9312C40.1924 22.5315 39.9161 22.7696 39.2959 22.7903C38.9936 22.8006 39.0822 23.049 38.9884 23.1887C40.0986 23.1887 41.2087 23.1887 42.3188 23.1887C42.3501 23.0749 42.3814 22.9662 42.4231 22.8265C42.3188 22.8161 42.2459 22.8006 42.1677 22.7954C41.7924 22.7696 41.6517 22.6247 41.6778 22.2573C41.6934 22.1279 41.7247 21.9882 41.7612 21.8588Z" fill="#08080B"/>
<path d="M25.5582 21.1028C25.8552 20.0264 26.168 18.9604 26.4442 17.8789C26.6266 17.1647 26.3921 16.6524 25.8344 16.4403C25.4227 16.2798 24.9901 16.2695 24.5575 16.3264C23.9268 16.4092 23.4421 16.7715 22.9626 17.1492C22.8688 17.2217 22.7646 17.2838 22.6082 17.3976C22.7072 17.0198 22.7854 16.7249 22.8688 16.404C22.7594 16.404 22.6812 16.3989 22.6082 16.404C21.9672 16.4351 21.3313 16.4817 20.6902 16.4972C20.4609 16.5024 20.3827 16.5903 20.3932 16.8077C20.4818 16.8284 20.5652 16.8542 20.6485 16.8698C21.1802 16.9681 21.2948 17.1389 21.1541 17.6563C20.758 19.0846 20.3515 20.5128 19.9554 21.9411C19.8094 22.4534 19.4915 22.7949 18.939 22.826C18.668 22.8415 18.6055 22.976 18.5898 23.1934C19.7365 23.1934 20.8831 23.1934 22.0245 23.1934C22.0401 23.0692 22.0558 22.945 22.0714 22.8156C22.0141 22.8104 21.9724 22.8053 21.9307 22.8053C21.3417 22.7846 21.1854 22.6138 21.3313 22.0549C21.6127 20.963 21.9046 19.8712 22.233 18.7896C22.431 18.1324 22.8636 17.6098 23.4317 17.2113C23.7653 16.9784 24.1353 16.8956 24.5418 16.9888C24.8806 17.0664 25.1099 17.2786 25.063 17.6149C24.9901 18.1479 24.8702 18.6706 24.7347 19.1933C24.4949 20.104 24.2291 21.0096 23.9737 21.9152C23.7965 22.5465 23.5464 22.7587 22.874 22.8001C22.5874 22.8208 22.676 23.0537 22.603 23.1934C23.7131 23.1934 24.8233 23.1934 25.9334 23.1934C25.9595 23.0795 25.9855 22.9657 26.0168 22.826C25.9282 22.8156 25.85 22.8053 25.7771 22.8001C25.3705 22.7742 25.209 22.5931 25.2871 22.1998C25.3497 21.8272 25.4539 21.465 25.5582 21.1028Z" fill="#08080B"/>
<path d="M82.7681 17.15C82.6221 16.9275 82.6221 16.8033 82.8098 16.6119C83.7583 15.6597 84.6965 14.692 85.6346 13.7295C85.9108 13.4449 86.1871 13.1603 86.4946 12.8394C85.6138 12.8394 84.7903 12.8446 83.9668 12.8342C83.7739 12.8291 83.6489 12.9015 83.5238 13.0361C82.2417 14.4229 80.9595 15.8098 79.6722 17.1914C79.6096 17.2639 79.5367 17.326 79.4689 17.3932C79.4481 17.3829 79.422 17.3725 79.4012 17.3622C79.4012 17.2639 79.4012 17.1604 79.4012 17.0621C79.4012 15.7632 79.4012 14.4695 79.4012 13.1706C79.4012 12.8394 79.4012 12.8394 79.0572 12.8394C78.5725 12.8394 78.0878 12.8394 77.5979 12.8394C77.5145 12.8394 77.4311 12.8498 77.332 12.8549C77.332 12.9843 77.332 13.0878 77.332 13.1913C77.332 16.41 77.332 19.6339 77.332 22.8527C77.332 22.9613 77.3216 23.0752 77.3164 23.1839C78.0096 23.1839 78.7028 23.1839 79.4012 23.1839C79.4012 22.2317 79.4064 21.2795 79.4012 20.3274C79.4012 20.1307 79.4585 19.991 79.5992 19.8513C80.0527 19.4114 80.4905 18.9612 80.9335 18.5162C81.0012 18.4489 81.069 18.392 81.1628 18.304C81.2775 18.4955 81.3765 18.6611 81.4807 18.8318C82.299 20.2135 83.1173 21.5952 83.9303 22.982C83.972 23.0493 84.0033 23.1166 84.0345 23.189C84.9362 23.189 85.8379 23.189 86.7447 23.189C85.4209 21.176 84.1023 19.1579 82.7681 17.15Z" fill="#08080B"/>
<path d="M31.1328 23.1888C31.1641 22.9663 31.2423 22.8266 31.5185 22.8214C32.1022 22.8059 32.3993 22.4592 32.5452 21.9106C32.9309 20.4565 33.3583 19.0076 33.7492 17.5534C33.8795 17.067 33.6866 16.8497 33.1759 16.8238C33.1185 16.8186 33.056 16.8238 32.9778 16.8238C32.9518 16.6065 33.0091 16.503 33.2436 16.4978C33.8222 16.4823 34.4007 16.4357 34.9792 16.4046C35.1043 16.3995 35.2294 16.4046 35.4014 16.4046C35.2919 16.8031 35.1981 17.155 35.0991 17.5069C34.6717 19.0334 34.2391 20.5548 33.8222 22.0814C33.6866 22.5678 33.7857 22.6972 34.2756 22.7955C34.359 22.811 34.4424 22.8369 34.5518 22.868C34.5206 22.9818 34.4893 23.0853 34.4632 23.1888C33.3531 23.1888 32.2429 23.1888 31.1328 23.1888Z" fill="#08080B"/>
<path d="M35.07 14.6237C34.627 14.6289 34.3612 14.2822 34.4759 13.8527C34.6062 13.3714 35.1691 12.9937 35.6642 13.0506C35.9873 13.0868 36.2219 13.4439 36.1437 13.7803C36.0342 14.2719 35.5912 14.6186 35.07 14.6237Z" fill="#08080B"/>
<path d="M8.46317 11.0586C8.14003 12.1712 6.73281 12.9526 5.21094 12.8956C6.51913 12.7042 7.62405 12.166 8.46317 11.0586Z" fill="#08080B"/>
<path d="M11.2421 15.2298C11.2421 14.6037 11.2473 13.9775 11.2264 13.3462C11.2004 12.7045 10.7261 12.1612 10.0798 12.068C9.65245 12.0111 9.21465 12.0266 8.78206 12.0215C8.71952 12.0215 8.64134 12.0836 8.58922 12.1353C7.6615 13.0513 6.54615 13.5325 5.22754 13.5066C4.16952 13.4859 3.31477 13.1289 2.94994 12.0163C2.42354 12.0163 1.89713 11.9852 1.37073 12.0215C0.54725 12.0836 0.00521191 12.6838 0 13.4911C0 16.2338 0 18.9712 0 21.7139C0 22.1537 0.145933 22.5367 0.495131 22.8006C0.714031 22.9662 0.990262 23.0593 1.24043 23.1887C4.1591 23.1887 7.07256 23.1887 9.99122 23.1887C10.1215 23.1421 10.2518 23.1059 10.3769 23.049C11.0023 22.7488 11.2525 22.2417 11.2473 21.569C11.2369 19.4577 11.2421 17.3412 11.2421 15.2298ZM7.78137 20.8652C6.24386 20.8652 4.71156 20.8652 3.17405 20.8652C2.76752 20.8652 2.73625 20.8238 2.73104 20.4202C2.72583 19.6595 2.68413 19.7164 3.42943 19.7164C3.69003 19.7164 3.94541 19.7164 4.23207 19.7164C4.23728 19.5974 4.2477 19.4939 4.2477 19.3956C4.2477 17.781 4.24249 16.1665 4.24249 14.5468C4.24249 14.1845 4.27897 14.1483 4.64381 14.1483C5.2953 14.1483 5.94678 14.1483 6.59827 14.1483C6.9162 14.1483 6.97353 14.2104 6.97353 14.5261C6.97874 16.1406 6.97874 17.7551 6.97874 19.3749C6.97874 19.4784 6.97874 19.5767 6.97874 19.7112C7.41133 19.7112 7.7918 19.7216 8.17227 19.706C8.4068 19.7009 8.49541 19.8147 8.52147 20.0269C8.60486 20.7928 8.54231 20.8652 7.78137 20.8652Z" fill="#08080B"/>
<path d="M52.6144 17.7643C52.5623 17.7488 52.5154 17.7177 52.4372 17.6815C52.5102 17.6298 52.5571 17.5935 52.604 17.5677C53.5056 17.0398 53.9487 16.2429 53.8496 15.2235C53.7454 14.1109 53.0939 13.345 52.0046 13.0449C51.4886 12.9 50.931 12.8638 50.3889 12.8534C48.9035 12.8275 47.4233 12.8482 45.938 12.8379C45.7243 12.8379 45.6513 12.8948 45.6565 13.1122C45.6617 16.4706 45.6617 19.8291 45.6617 23.1927C47.1888 23.1927 48.7159 23.1927 50.243 23.1927C50.6443 23.172 51.0508 23.1358 51.4522 23.1254C52.7291 23.0995 53.7037 22.4579 54.1571 21.3039C54.7357 19.8446 54.1884 18.3025 52.6144 17.7643ZM47.7256 14.7422C47.7256 14.5766 47.7778 14.5094 47.9497 14.5145C48.8931 14.5352 49.8365 14.5301 50.7798 14.5715C51.4313 14.6025 51.8378 15.0579 51.8535 15.6996C51.8691 16.3309 51.4469 16.8328 50.785 16.9053C50.2638 16.9622 49.7322 16.9622 49.2058 16.9881C49.2058 16.9777 49.2058 16.9726 49.2058 16.9622C48.7889 16.9622 48.3719 16.957 47.9602 16.9622C47.7986 16.9674 47.7308 16.9156 47.7308 16.7449C47.7308 16.0773 47.7308 15.4098 47.7256 14.7422ZM51.0613 21.4022C50.8059 21.4384 50.5453 21.4488 50.2847 21.4488C49.4456 21.4539 48.6064 21.4488 47.7256 21.4488C47.7256 20.7398 47.7204 20.0723 47.7256 19.4047C47.7256 19.1615 47.6683 18.8355 47.7986 18.6958C47.9133 18.5716 48.252 18.6337 48.4918 18.6388C49.3413 18.6647 50.1909 18.6699 51.03 18.7423C51.7805 18.8096 52.2287 19.3478 52.2339 20.0774C52.2392 20.8174 51.8222 21.2935 51.0613 21.4022Z" fill="#08080B"/>
<path d="M65.2765 22.4011C64.0204 19.291 62.7644 16.1861 61.5135 13.0709C61.4405 12.8949 61.3467 12.8277 61.1487 12.8328C60.6014 12.8484 60.0542 12.8535 59.5121 12.8328C59.2672 12.8225 59.1733 12.9105 59.0847 13.1278C57.7713 16.4811 56.4475 19.8344 55.1289 23.1824C55.8742 23.1824 56.6195 23.1824 57.37 23.1824C57.4586 22.9082 57.542 22.6287 57.6358 22.3597C57.7922 21.9146 57.9694 21.4799 58.1205 21.0297C58.1831 20.8486 58.2769 20.7969 58.4593 20.7969C59.6997 20.802 60.9402 20.802 62.1806 20.7969C62.3213 20.7969 62.4256 20.8176 62.4829 20.9676C62.7487 21.6714 63.0249 22.3752 63.296 23.079C63.3064 23.11 63.3012 23.1462 63.3064 23.1773C64.0725 23.1773 64.8335 23.1773 65.5996 23.1773C65.4954 22.9289 65.3859 22.665 65.2765 22.4011ZM58.8554 19.0892C59.3245 17.8058 59.7831 16.5587 60.2418 15.3064C60.2678 15.3012 60.2939 15.296 60.3252 15.2909C60.7942 16.538 61.2633 17.7851 61.7532 19.0892C60.763 19.0892 59.83 19.0892 58.8554 19.0892Z" fill="#08080B"/>
<path d="M6.98605 8.77119C5.99057 8.5021 5.0837 8.77119 4.26022 9.33007C3.82763 9.61985 3.49407 9.99761 3.32208 10.4996C3.10839 11.1309 3.32729 11.7312 3.93187 12.021C4.26543 12.1814 4.6459 12.2435 5.01073 12.347C5.01595 12.3263 5.02116 12.3056 5.03158 12.2849C5.0837 12.2849 5.13582 12.2901 5.18794 12.2849C5.30781 12.2694 5.42769 12.259 5.54756 12.2383C6.49613 12.0572 7.30397 11.6484 7.81995 10.8049C8.34635 9.92517 7.98152 9.04028 6.98605 8.77119ZM3.84327 10.8618C3.83284 10.9187 3.80157 10.9705 3.76509 11.0636C3.65564 10.7117 3.72339 10.4323 3.86933 10.1632C4.35925 9.25244 5.76646 8.69874 6.75151 9.02475C7.16846 9.16447 7.46554 9.41804 7.5333 9.86824C6.54303 8.58489 4.0309 9.61985 3.84327 10.8618Z" fill="#08080B"/>
</svg>
