<svg width="172" height="56" viewBox="0 0 172 56" fill="none" xmlns="http://www.w3.org/2000/svg">
<path d="M35.2812 40.4235C35.3434 39.9724 35.4943 39.7198 36.0534 39.6928C37.4292 39.6206 37.7842 39.2778 38.1481 37.9517C39.3108 33.7119 40.4735 29.463 41.6363 25.2232C41.6363 25.2051 41.6451 25.1961 41.654 25.1781C41.9913 23.8971 41.6718 23.4551 40.367 23.4009C40.2516 23.3919 40.1363 23.3829 40.012 23.3739C40.0031 22.9499 40.1096 22.7334 40.5889 22.7334C42.5505 22.7605 44.5209 22.7424 46.4824 22.7424C46.6244 22.7424 46.7664 22.7424 46.9262 22.7424C46.9528 23.1574 46.8729 23.41 46.4558 23.437C46.225 23.4551 45.9942 23.5092 45.7546 23.5453C44.9469 23.6445 44.5031 24.1587 44.2901 24.9074C43.4025 28.1279 42.515 31.3484 41.6274 34.5689C41.2901 35.7867 40.944 37.0135 40.6422 38.2404C40.4114 39.1786 40.6422 39.5033 41.5741 39.6567C41.8226 39.6928 42.0623 39.7289 42.3286 39.7649C42.3108 39.9814 42.2931 40.1979 42.2664 40.4144C39.9499 40.4235 37.6156 40.4235 35.2812 40.4235Z" fill="white"/>
<path d="M56.832 40.4239C56.9474 39.8736 57.3468 39.7654 57.835 39.7293C58.5273 39.6661 58.9001 39.1971 59.0776 38.5566C59.3616 37.5552 59.6368 36.5449 59.9119 35.5345C60.4178 33.6943 60.9237 31.854 61.4297 30.0137C61.474 29.8423 61.5095 29.6709 61.5628 29.4454C61.0036 29.4454 60.4888 29.4454 59.9829 29.4454C59.9297 28.7688 60.0095 28.6786 60.5865 28.6786C61.7936 28.6786 61.7492 28.6606 62.1308 27.5059C62.4681 26.4775 62.8231 25.4311 63.3379 24.4839C64.2166 22.8782 65.8853 22.1745 67.5006 22.5714C68.3971 22.788 69.0273 23.6269 68.9385 24.4749C68.832 25.5303 68.1574 26.3332 67.3231 26.3873C66.4977 26.4414 66.0184 25.7829 66.3379 25.0071C66.4888 24.6372 66.7373 24.3035 66.9237 23.9517C67.19 23.4555 67.048 23.221 66.4888 23.221C65.7344 23.221 65.2462 23.7261 65.0776 24.3215C64.6782 25.7107 64.4296 27.1541 64.1012 28.6516C65.0066 28.6516 65.8143 28.6516 66.6131 28.6516C66.622 29.3552 66.5687 29.4183 65.974 29.4183C65.3971 29.4183 64.8202 29.4274 64.2433 29.4183C63.9859 29.4093 63.8705 29.5176 63.8083 29.7521C63.0273 32.6298 62.2285 35.5075 61.4563 38.3852C61.2255 39.2512 61.545 39.7022 62.4149 39.8195C62.5125 39.8285 62.6101 39.8556 62.7078 39.8736C62.6989 40.0721 62.69 40.2525 62.6811 40.4239C60.7285 40.4239 58.7847 40.4239 56.832 40.4239Z" fill="white"/>
<path d="M139.378 22.5891C139.342 22.5079 139.253 22.3997 139.182 22.3997C138.179 22.3907 137.185 22.3907 136.12 22.3907C136.12 26.3869 136.12 30.3201 136.12 34.2622C135.925 34.154 135.836 34.0277 135.756 33.9014C133.706 30.5095 131.656 27.1086 129.606 23.7167C129.339 23.2837 129.153 22.6974 128.771 22.4809C128.39 22.2644 127.795 22.3997 127.298 22.3997C126.765 22.3907 126.233 22.3997 125.7 22.3997C125.585 22.3997 125.478 22.4267 125.327 22.4448C125.327 22.6523 125.327 22.8327 125.327 23.0041C125.327 28.6241 125.327 34.2351 125.327 39.8552C125.327 40.0446 125.31 40.2431 125.301 40.4325C126.428 40.4325 127.546 40.4325 128.674 40.4325C128.665 40.3333 128.647 40.225 128.647 40.1258C128.647 36.4543 128.647 32.7828 128.647 29.1113C128.647 29.012 128.656 28.9038 128.665 28.8045C128.709 28.7685 128.753 28.7234 128.798 28.6873C128.833 28.7775 128.851 28.8857 128.904 28.9669C131.203 32.7377 133.493 36.5084 135.792 40.2702C135.819 40.3243 135.836 40.3784 135.863 40.4325C137.043 40.4325 138.224 40.4325 139.413 40.4325C139.413 34.5779 139.413 28.7143 139.413 22.8597C139.395 22.7605 139.413 22.6613 139.378 22.5891Z" fill="white"/>
<path d="M82.7426 38.1054C83.355 35.8321 84.0385 33.5769 84.5799 31.2766C84.926 29.7971 84.642 28.7326 82.787 28.453C81.3669 28.2365 80.142 28.6875 79.0503 29.5987C78.7752 29.8332 78.4823 30.0497 78.1983 30.2752C78.1716 30.2572 78.145 30.2301 78.1095 30.2121C78.2426 29.6889 78.3669 29.1657 78.5089 28.5973C78.3048 28.5973 78.1627 28.5883 78.0207 28.5973C76.9645 28.6515 75.8994 28.7326 74.8432 28.7597C74.4527 28.7687 74.2663 28.895 74.3018 29.31C74.4438 29.3461 74.5858 29.3912 74.7278 29.4182C75.6154 29.5806 75.8196 29.9054 75.5799 30.7894C74.9054 33.2792 74.2131 35.769 73.5385 38.2497C73.2989 39.1248 72.7841 39.7111 71.8521 39.7833C71.3995 39.8194 71.2397 40.0449 71.1953 40.4328C73.148 40.4328 75.1006 40.4328 77.0444 40.4328C77.0799 40.2343 77.1154 40.0269 77.1598 39.7472C76.9823 39.7472 76.8314 39.7562 76.6716 39.7472C75.9971 39.7202 75.6687 39.3413 75.8284 38.6918C76.2278 37.086 76.6983 35.4984 77.0799 33.8836C77.3817 32.6387 77.8432 31.4931 78.7574 30.5819C79.4497 29.8963 80.2042 29.4002 81.2337 29.5987C81.9704 29.743 82.3876 30.2211 82.2367 30.9608C81.9882 32.1606 81.6775 33.3423 81.3758 34.5241C81.0562 35.769 80.6923 36.9958 80.3551 38.2317C80.071 39.2781 79.6006 39.6931 78.5444 39.7292C78.0296 39.7472 78.1805 40.1802 78.0207 40.4238C79.9113 40.4238 81.8018 40.4238 83.6923 40.4238C83.7456 40.2253 83.7988 40.0359 83.8698 39.7923C83.6923 39.7743 83.5681 39.7472 83.4349 39.7382C82.7959 39.6931 82.5562 39.4405 82.6006 38.8C82.6272 38.5745 82.6805 38.3309 82.7426 38.1054Z" fill="white"/>
<path d="M55.1481 36.788C55.654 34.9116 56.1866 33.0533 56.657 31.1679C56.9676 29.923 56.5682 29.03 55.6185 28.6601C54.9173 28.3805 54.1806 28.3624 53.444 28.4616C52.37 28.606 51.5445 29.2374 50.728 29.896C50.5682 30.0223 50.3907 30.1305 50.1244 30.329C50.2931 29.6705 50.4262 29.1563 50.5682 28.597C50.3818 28.597 50.2487 28.5879 50.1244 28.597C49.0327 28.6511 47.9499 28.7323 46.8582 28.7593C46.4676 28.7684 46.3345 28.9217 46.3522 29.3006C46.5031 29.3367 46.6451 29.3818 46.7872 29.4088C47.6925 29.5802 47.8877 29.8779 47.6481 30.78C46.9735 33.2698 46.2812 35.7596 45.6067 38.2494C45.3582 39.1424 44.8167 39.7378 43.8759 39.7919C43.4144 39.819 43.3079 40.0536 43.2812 40.4324C45.2339 40.4324 47.1866 40.4324 49.1304 40.4324C49.157 40.2159 49.1836 39.9994 49.2102 39.7739C49.1126 39.7649 49.0416 39.7559 48.9706 39.7559C47.9676 39.7198 47.7014 39.4221 47.9499 38.4478C48.4292 36.5444 48.9262 34.641 49.4854 32.7556C49.8227 31.61 50.5593 30.6988 51.5268 30.0042C52.0948 29.5983 52.725 29.4539 53.4173 29.6163C53.9942 29.7516 54.3848 30.1215 54.3049 30.7079C54.1806 31.637 53.9765 32.5481 53.7457 33.4592C53.3374 35.0469 52.8848 36.6256 52.4499 38.2043C52.1481 39.3048 51.7221 39.6747 50.5771 39.7468C50.0889 39.7829 50.2398 40.1889 50.1156 40.4324C52.0061 40.4324 53.8966 40.4324 55.7871 40.4324C55.8315 40.234 55.8759 40.0355 55.9292 39.7919C55.7783 39.7739 55.6451 39.7559 55.5209 39.7468C54.8286 39.7017 54.5534 39.386 54.6866 38.7004C54.7931 38.0509 54.9706 37.4194 55.1481 36.788Z" fill="white"/>
<path d="M152.577 29.896C152.328 29.5081 152.328 29.2916 152.648 28.9578C154.263 27.298 155.861 25.611 157.459 23.9331C157.929 23.437 158.399 22.9408 158.923 22.3815C157.423 22.3815 156.021 22.3906 154.618 22.3725C154.29 22.3635 154.077 22.4898 153.864 22.7243C151.681 25.142 149.497 27.5596 147.305 29.9682C147.198 30.0945 147.074 30.2027 146.959 30.32C146.923 30.3019 146.879 30.2839 146.843 30.2659C146.843 30.0945 146.843 29.914 146.843 29.7426C146.843 27.4784 146.843 25.2231 146.843 22.9589C146.843 22.3815 146.843 22.3815 146.257 22.3815C145.432 22.3815 144.607 22.3815 143.772 22.3815C143.63 22.3815 143.488 22.3996 143.32 22.4086C143.32 22.6341 143.32 22.8145 143.32 22.995C143.32 28.606 143.32 34.226 143.32 39.8371C143.32 40.0265 143.302 40.225 143.293 40.4144C144.473 40.4144 145.654 40.4144 146.843 40.4144C146.843 38.7546 146.852 37.0947 146.843 35.4349C146.843 35.0921 146.941 34.8485 147.181 34.6049C147.953 33.8381 148.698 33.0533 149.453 32.2775C149.568 32.1602 149.683 32.061 149.843 31.9077C150.039 32.2414 150.207 32.5301 150.385 32.8278C151.778 35.2364 153.172 37.645 154.556 40.0626C154.627 40.1799 154.681 40.2971 154.734 40.4234C156.269 40.4234 157.805 40.4234 159.349 40.4234C157.095 36.9143 154.849 33.3961 152.577 29.896Z" fill="white"/>
<path d="M64.6367 40.4237C64.69 40.0358 64.8231 39.7923 65.2935 39.7832C66.2876 39.7562 66.7935 39.1518 67.042 38.1955C67.6988 35.6607 68.4267 33.1348 69.0923 30.5999C69.3142 29.752 68.9858 29.3731 68.116 29.328C68.0184 29.3189 67.9119 29.328 67.7787 29.328C67.7343 28.9491 67.832 28.7687 68.2314 28.7596C69.2166 28.7326 70.2018 28.6514 71.187 28.5973C71.4 28.5883 71.613 28.5973 71.9059 28.5973C71.7195 29.2919 71.5598 29.9053 71.3911 30.5187C70.6633 33.1799 69.9267 35.8321 69.2166 38.4932C68.9858 39.3412 69.1545 39.5667 69.9888 39.7381C70.1308 39.7652 70.2728 39.8103 70.4592 39.8644C70.4059 40.0629 70.3527 40.2433 70.3083 40.4237C68.4178 40.4237 66.5272 40.4237 64.6367 40.4237Z" fill="white"/>
<path d="M71.3463 25.494C70.5919 25.503 70.1392 24.8986 70.3345 24.1499C70.5564 23.3109 71.5149 22.6524 72.3581 22.7516C72.9084 22.8148 73.3078 23.4372 73.1747 24.0236C72.9883 24.8806 72.2339 25.485 71.3463 25.494Z" fill="white"/>
<path d="M26.0345 19.2788C25.4842 21.2183 23.0878 22.5805 20.4961 22.4812C22.7239 22.1475 24.6056 21.2093 26.0345 19.2788Z" fill="white"/>
<path d="M30.766 26.5494C30.766 25.4578 30.7749 24.3663 30.7394 23.2658C30.695 22.1472 29.8873 21.2 28.7867 21.0376C28.0589 20.9384 27.3134 20.9654 26.5767 20.9564C26.4702 20.9564 26.337 21.0646 26.2483 21.1549C24.6684 22.7516 22.769 23.5905 20.5234 23.5454C18.7217 23.5093 17.2661 22.8869 16.6448 20.9474C15.7483 20.9474 14.8519 20.8932 13.9554 20.9564C12.553 21.0646 11.63 22.1111 11.6211 23.5183C11.6211 28.2994 11.6211 33.0715 11.6211 37.8526C11.6211 38.6194 11.8696 39.2869 12.4643 39.747C12.8371 40.0357 13.3075 40.1981 13.7335 40.4236C18.7039 40.4236 23.6654 40.4236 28.6358 40.4236C28.8577 40.3424 29.0796 40.2792 29.2927 40.18C30.3577 39.6568 30.7838 38.7727 30.7749 37.6C30.7571 33.9195 30.766 30.2299 30.766 26.5494ZM24.8725 36.3732C22.2542 36.3732 19.6447 36.3732 17.0264 36.3732C16.3341 36.3732 16.2808 36.301 16.272 35.5974C16.2631 34.2713 16.1921 34.3705 17.4613 34.3705C17.9051 34.3705 18.34 34.3705 18.8282 34.3705C18.8371 34.163 18.8548 33.9826 18.8548 33.8112C18.8548 30.9967 18.8459 28.1822 18.8459 25.3586C18.8459 24.7271 18.9081 24.664 19.5294 24.664C20.6388 24.664 21.7483 24.664 22.8578 24.664C23.3992 24.664 23.4968 24.7722 23.4968 25.3225C23.5057 28.1371 23.5057 30.9516 23.5057 33.7751C23.5057 33.9556 23.5057 34.127 23.5057 34.3615C24.2424 34.3615 24.8903 34.3796 25.5382 34.3525C25.9376 34.3435 26.0885 34.5419 26.1329 34.9118C26.2749 36.2469 26.1684 36.3732 24.8725 36.3732Z" fill="white"/>
<path d="M101.221 30.9693C101.132 30.9422 101.052 30.8881 100.919 30.825C101.043 30.7347 101.123 30.6716 101.203 30.6265C102.738 29.7064 103.493 28.3171 103.324 26.54C103.147 24.6005 102.037 23.2654 100.182 22.7422C99.3035 22.4896 98.3538 22.4265 97.4307 22.4084C94.9011 22.3633 92.3804 22.3994 89.8508 22.3813C89.4869 22.3813 89.3627 22.4806 89.3715 22.8595C89.3804 28.7141 89.3804 34.5686 89.3804 40.4323C91.981 40.4323 94.5816 40.4323 97.1822 40.4323C97.8656 40.3962 98.5579 40.333 99.2413 40.315C101.416 40.2699 103.076 39.1513 103.848 37.1396C104.833 34.5957 103.901 31.9075 101.221 30.9693ZM92.8952 25.7011C92.8952 25.4124 92.984 25.2951 93.2769 25.3041C94.8834 25.3402 96.4899 25.3312 98.0964 25.4034C99.2058 25.4575 99.8981 26.2513 99.9248 27.3699C99.9514 28.4705 99.2325 29.3455 98.1052 29.4718C97.2177 29.571 96.3123 29.571 95.4159 29.6161C95.4159 29.5981 95.4159 29.5891 95.4159 29.571C94.7058 29.571 93.9958 29.562 93.2946 29.571C93.0195 29.5801 92.9041 29.4899 92.9041 29.1922C92.9041 28.0285 92.9041 26.8648 92.8952 25.7011ZM98.5757 37.311C98.1407 37.3742 97.697 37.3922 97.2532 37.3922C95.8242 37.4012 94.3952 37.3922 92.8952 37.3922C92.8952 36.1563 92.8863 34.9926 92.8952 33.8289C92.8952 33.4049 92.7976 32.8366 93.0195 32.5931C93.2147 32.3766 93.7916 32.4848 94.1999 32.4938C95.6467 32.5389 97.0934 32.548 98.5224 32.6742C99.8005 32.7915 100.564 33.7297 100.573 35.0016C100.582 36.2916 99.8715 37.1216 98.5757 37.311Z" fill="white"/>
<path d="M122.789 39.0522C120.65 33.6306 118.511 28.2181 116.381 22.7875C116.256 22.4808 116.097 22.3635 115.759 22.3725C114.827 22.3996 113.895 22.4086 112.972 22.3725C112.555 22.3545 112.395 22.5078 112.244 22.8867C110.008 28.7323 107.753 34.5778 105.508 40.4144C106.777 40.4144 108.046 40.4144 109.324 40.4144C109.475 39.9363 109.617 39.4491 109.777 38.9801C110.043 38.2043 110.345 37.4465 110.602 36.6617C110.709 36.3459 110.869 36.2557 111.179 36.2557C113.292 36.2648 115.404 36.2648 117.517 36.2557C117.756 36.2557 117.934 36.2918 118.031 36.5534C118.484 37.7803 118.955 39.0071 119.416 40.234C119.434 40.2881 119.425 40.3512 119.434 40.4054C120.739 40.4054 122.034 40.4054 123.339 40.4054C123.162 39.9724 122.975 39.5123 122.789 39.0522ZM111.854 33.2788C112.653 31.0416 113.434 28.8676 114.215 26.6845C114.259 26.6755 114.304 26.6665 114.357 26.6575C115.156 28.8315 115.955 31.0055 116.789 33.2788C115.102 33.2788 113.514 33.2788 111.854 33.2788Z" fill="white"/>
<path d="M23.5163 15.2912C21.821 14.8222 20.2767 15.2912 18.8743 16.2655C18.1376 16.7707 17.5696 17.4292 17.2767 18.3042C16.9128 19.4048 17.2855 20.4512 18.3151 20.9564C18.8832 21.236 19.5311 21.3443 20.1524 21.5247C20.1613 21.4886 20.1702 21.4525 20.1879 21.4165C20.2767 21.4165 20.3654 21.4255 20.4542 21.4165C20.6583 21.3894 20.8625 21.3714 21.0666 21.3353C22.682 21.0195 24.0577 20.3069 24.9364 18.8365C25.8329 17.3029 25.2116 15.7603 23.5163 15.2912ZM18.1642 18.9357C18.1465 19.0349 18.0932 19.1251 18.0311 19.2875C17.8447 18.6741 17.9601 18.187 18.2086 17.7179C19.0429 16.1302 21.4394 15.165 23.1169 15.7333C23.827 15.9768 24.3329 16.4189 24.4483 17.2037C22.7619 14.9665 18.4838 16.7707 18.1642 18.9357Z" fill="white"/>
</svg>
