<svg width="56" height="56" viewBox="0 0 56 56" fill="none" xmlns="http://www.w3.org/2000/svg">
<g clip-path="url(#clip0_2248_32212)">
<path d="M9.98177 5.98332L16.4823 12.4839L14.6521 14.3141M14.5835 39.4771L9.66314 34.6464C8.04107 33.0539 7.45824 30.6815 8.15775 28.5186L8.4041 27.7569L4.42818 24.538L14.6521 14.3141M14.6521 14.3141L18.2495 17.9115L22.7387 17.9578C23.7852 17.9686 24.7859 18.3891 25.5259 19.1291L26.0754 19.6786M46.0196 6.17194L39.8346 12.3569L41.6648 14.1872M40.8339 39.8744L44.2681 36.7377C45.885 35.2609 46.9079 33.2453 47.1454 31.0685L47.5342 27.5038L51.7628 24.2851L41.6648 14.1872M41.6648 14.1872L37.9412 17.9108L35.5123 17.8622C33.0149 17.8123 30.5893 18.6988 28.7126 20.3473L20.2067 27.8194L21.2396 28.8524C23.0807 30.6934 26.0265 30.8135 28.0113 29.1283L31.1882 26.4309L32.6385 27.8813C34.5911 29.8339 37.757 29.8339 39.7096 27.8813L42.1697 25.4212" stroke="#D68843" stroke-linecap="square" stroke-linejoin="round"/>
<rect x="13.543" y="40.1953" width="12.3835" height="4.54685" rx="2.27343" transform="rotate(-45 13.543 40.1953)" stroke="#D68843" stroke-linecap="round" stroke-linejoin="round"/>
<rect x="16.6466" y="43.3025" width="15.6913" height="4.54685" rx="2.27343" transform="rotate(-45 16.6466 43.3025)" stroke="#D68843" stroke-linecap="round" stroke-linejoin="round"/>
<rect x="19.7559" y="46.4094" width="12.3835" height="4.54685" rx="2.27343" transform="rotate(-45 19.7559 46.4094)" stroke="#D68843" stroke-linecap="round" stroke-linejoin="round"/>
<rect x="23.9493" y="48.4294" width="8.60859" height="4.54685" rx="2.27343" transform="rotate(-45 23.9493 48.4294)" stroke="#D68843" stroke-linecap="round" stroke-linejoin="round"/>
<path d="M29.7222 29.5606L41.6227 41.4611C42.4201 42.2584 42.4201 43.5511 41.6227 44.3485V44.3485C40.8254 45.1458 39.5327 45.1458 38.7354 44.3485L32.2782 37.8912" stroke="#D68843" stroke-linecap="round" stroke-linejoin="round"/>
<path d="M32.1104 37.7271L39.0153 44.632C39.8126 45.4293 39.8126 46.722 39.0153 47.5194V47.5194C38.218 48.3167 36.9253 48.3167 36.128 47.5194L33.3357 44.7271" stroke="#D68843" stroke-linecap="round" stroke-linejoin="round"/>
<path d="M34.2826 45.7323L35.7262 47.176C36.5236 47.9733 36.5236 49.266 35.7262 50.0633V50.0633C34.9289 50.8606 33.6362 50.8606 32.8389 50.0633L31.111 48.3354" stroke="#D68843" stroke-linecap="round" stroke-linejoin="round"/>
<path d="M30.9454 48.2271L31.6872 48.9689C32.4845 49.7663 32.4845 51.059 31.6872 51.8563V51.8563C30.8898 52.6536 29.5971 52.6536 28.7998 51.8563L28.0873 51.1438" stroke="#D68843" stroke-linecap="round" stroke-linejoin="round"/>
</g>
<defs>
<clipPath id="clip0_2248_32212">
<rect width="56" height="56" fill="white"/>
</clipPath>
</defs>
</svg>
