<svg width="56" height="56" viewBox="0 0 56 56" fill="none" xmlns="http://www.w3.org/2000/svg">
<mask id="path-1-inside-1_2248_32215" fill="white">
<path fill-rule="evenodd" clip-rule="evenodd" d="M32.668 9.33325H45.8346C46.9392 9.33325 47.8346 10.2287 47.8346 11.3333V24.4999H43.168V25.0833C43.168 26.6941 41.8621 27.9999 40.2513 27.9999C38.6405 27.9999 37.3346 26.6941 37.3346 25.0833V24.4999H32.668V19.8333H33.2513C34.8621 19.8333 36.168 18.5274 36.168 16.9166C36.168 15.3058 34.8621 13.9999 33.2513 13.9999H32.668V9.33325Z"/>
</mask>
<path d="M32.668 9.33325V8.33325H31.668V9.33325H32.668ZM47.8346 24.4999V25.4999H48.8346V24.4999H47.8346ZM43.168 24.4999V23.4999H42.168V24.4999H43.168ZM37.3346 24.4999H38.3346V23.4999H37.3346V24.4999ZM32.668 24.4999H31.668V25.4999H32.668V24.4999ZM32.668 19.8333V18.8333H31.668V19.8333H32.668ZM32.668 13.9999H31.668V14.9999H32.668V13.9999ZM45.8346 8.33325H32.668V10.3333H45.8346V8.33325ZM48.8346 11.3333C48.8346 9.6764 47.4915 8.33325 45.8346 8.33325V10.3333C46.3869 10.3333 46.8346 10.781 46.8346 11.3333H48.8346ZM48.8346 24.4999V11.3333H46.8346V24.4999H48.8346ZM43.168 25.4999H47.8346V23.4999H43.168V25.4999ZM44.168 25.0833V24.4999H42.168V25.0833H44.168ZM40.2513 28.9999C42.4144 28.9999 44.168 27.2464 44.168 25.0833H42.168C42.168 26.1418 41.3098 26.9999 40.2513 26.9999V28.9999ZM36.3346 25.0833C36.3346 27.2464 38.0882 28.9999 40.2513 28.9999V26.9999C39.1928 26.9999 38.3346 26.1418 38.3346 25.0833H36.3346ZM36.3346 24.4999V25.0833H38.3346V24.4999H36.3346ZM32.668 25.4999H37.3346V23.4999H32.668V25.4999ZM31.668 19.8333V24.4999H33.668V19.8333H31.668ZM33.2513 18.8333H32.668V20.8333H33.2513V18.8333ZM35.168 16.9166C35.168 17.9751 34.3098 18.8333 33.2513 18.8333V20.8333C35.4144 20.8333 37.168 19.0797 37.168 16.9166H35.168ZM33.2513 14.9999C34.3098 14.9999 35.168 15.858 35.168 16.9166H37.168C37.168 14.7535 35.4144 12.9999 33.2513 12.9999V14.9999ZM32.668 14.9999H33.2513V12.9999H32.668V14.9999ZM31.668 9.33325V13.9999H33.668V9.33325H31.668Z" fill="#D68843" mask="url(#path-1-inside-1_2248_32215)"/>
<mask id="path-3-inside-2_2248_32215" fill="white">
<path fill-rule="evenodd" clip-rule="evenodd" d="M37.3346 32.0833C37.3346 33.6942 38.6405 35 40.2513 35C41.8621 35 43.168 33.6942 43.168 32.0833V31.5H47.8346V44.6667C47.8346 45.7712 46.9392 46.6667 45.8346 46.6667H32.668V42H32.0846C30.4738 42 29.168 40.6942 29.168 39.0833C29.168 37.4725 30.4738 36.1667 32.0846 36.1667H32.668V31.5H37.3346V32.0833Z"/>
</mask>
<path d="M43.168 31.5V30.5H42.168V31.5H43.168ZM47.8346 31.5H48.8346V30.5H47.8346V31.5ZM32.668 46.6667H31.668V47.6667H32.668V46.6667ZM32.668 42H33.668V41H32.668V42ZM32.668 36.1667V37.1667H33.668V36.1667H32.668ZM32.668 31.5V30.5H31.668V31.5H32.668ZM37.3346 31.5H38.3346V30.5H37.3346V31.5ZM40.2513 34C39.1928 34 38.3346 33.1419 38.3346 32.0833H36.3346C36.3346 34.2465 38.0882 36 40.2513 36V34ZM42.168 32.0833C42.168 33.1419 41.3098 34 40.2513 34V36C42.4144 36 44.168 34.2465 44.168 32.0833H42.168ZM42.168 31.5V32.0833H44.168V31.5H42.168ZM47.8346 30.5H43.168V32.5H47.8346V30.5ZM48.8346 44.6667V31.5H46.8346V44.6667H48.8346ZM45.8346 47.6667C47.4915 47.6667 48.8346 46.3235 48.8346 44.6667H46.8346C46.8346 45.2189 46.3869 45.6667 45.8346 45.6667V47.6667ZM32.668 47.6667H45.8346V45.6667H32.668V47.6667ZM31.668 42V46.6667H33.668V42H31.668ZM32.0846 43H32.668V41H32.0846V43ZM28.168 39.0833C28.168 41.2464 29.9215 43 32.0846 43V41C31.0261 41 30.168 40.1419 30.168 39.0833H28.168ZM32.0846 35.1667C29.9215 35.1667 28.168 36.9202 28.168 39.0833H30.168C30.168 38.0248 31.0261 37.1667 32.0846 37.1667V35.1667ZM32.668 35.1667H32.0846V37.1667H32.668V35.1667ZM31.668 31.5V36.1667H33.668V31.5H31.668ZM37.3346 30.5H32.668V32.5H37.3346V30.5ZM38.3346 32.0833V31.5H36.3346V32.0833H38.3346Z" fill="#D68843" mask="url(#path-3-inside-2_2248_32215)"/>
<mask id="path-5-inside-3_2248_32215" fill="white">
<path fill-rule="evenodd" clip-rule="evenodd" d="M14.0007 30.9167V31.5H9.33398V44.6667C9.33398 45.7712 10.2294 46.6667 11.334 46.6667H24.5007V42H23.9173C22.3065 42 21.0007 40.6942 21.0007 39.0833C21.0007 37.4725 22.3065 36.1667 23.9173 36.1667H24.5007V31.5H19.834V30.9167C19.834 29.3058 18.5281 28 16.9173 28C15.3065 28 14.0007 29.3058 14.0007 30.9167Z"/>
</mask>
<path d="M14.0007 31.5V32.5H15.0007V31.5H14.0007ZM9.33398 31.5V30.5H8.33398V31.5H9.33398ZM24.5007 46.6667V47.6667H25.5007V46.6667H24.5007ZM24.5007 42H25.5007V41H24.5007V42ZM24.5007 36.1667V37.1667H25.5007V36.1667H24.5007ZM24.5007 31.5H25.5007V30.5H24.5007V31.5ZM19.834 31.5H18.834V32.5H19.834V31.5ZM16.9173 28V29V28ZM15.0007 31.5V30.9167H13.0007V31.5H15.0007ZM9.33398 32.5H14.0007V30.5H9.33398V32.5ZM10.334 44.6667V31.5H8.33398V44.6667H10.334ZM11.334 45.6667C10.7817 45.6667 10.334 45.2189 10.334 44.6667H8.33398C8.33398 46.3235 9.67713 47.6667 11.334 47.6667V45.6667ZM24.5007 45.6667H11.334V47.6667H24.5007V45.6667ZM23.5007 42V46.6667H25.5007V42H23.5007ZM24.5007 41H23.9173V43H24.5007V41ZM23.9173 41C22.8588 41 22.0007 40.1419 22.0007 39.0833H20.0007C20.0007 41.2464 21.7542 43 23.9173 43V41ZM22.0007 39.0833C22.0007 38.0248 22.8588 37.1667 23.9173 37.1667V35.1667C21.7542 35.1667 20.0007 36.9202 20.0007 39.0833H22.0007ZM23.9173 37.1667H24.5007V35.1667H23.9173V37.1667ZM23.5007 31.5V36.1667H25.5007V31.5H23.5007ZM19.834 32.5H24.5007V30.5H19.834V32.5ZM18.834 30.9167V31.5H20.834V30.9167H18.834ZM16.9173 29C17.9759 29 18.834 29.8581 18.834 30.9167H20.834C20.834 28.7536 19.0804 27 16.9173 27V29ZM15.0007 30.9167C15.0007 29.8581 15.8588 29 16.9173 29V27C14.7542 27 13.0007 28.7536 13.0007 30.9167H15.0007Z" fill="#D68843" mask="url(#path-5-inside-3_2248_32215)"/>
<mask id="path-7-inside-4_2248_32215" fill="white">
<path fill-rule="evenodd" clip-rule="evenodd" d="M9.33398 11.3333C9.33398 10.2287 10.2294 9.33325 11.334 9.33325H24.5007V13.9999H25.084C26.6948 13.9999 28.0007 15.3058 28.0007 16.9166C28.0007 18.5274 26.6948 19.8333 25.084 19.8333H24.5007V24.4999H19.834V23.9166C19.834 22.3058 18.5281 20.9999 16.9173 20.9999C15.3065 20.9999 14.0007 22.3058 14.0007 23.9166V24.4999H9.33398V11.3333Z"/>
</mask>
<path d="M24.5007 9.33325H25.5007V8.33325H24.5007V9.33325ZM24.5007 13.9999H23.5007V14.9999H24.5007V13.9999ZM24.5007 19.8333V18.8333H23.5007V19.8333H24.5007ZM24.5007 24.4999V25.4999H25.5007V24.4999H24.5007ZM19.834 24.4999H18.834V25.4999H19.834V24.4999ZM14.0007 23.9166H15.0007H14.0007ZM14.0007 24.4999V25.4999H15.0007V24.4999H14.0007ZM9.33398 24.4999H8.33398V25.4999H9.33398V24.4999ZM11.334 8.33325C9.67713 8.33325 8.33398 9.6764 8.33398 11.3333H10.334C10.334 10.781 10.7817 10.3333 11.334 10.3333V8.33325ZM24.5007 8.33325H11.334V10.3333H24.5007V8.33325ZM25.5007 13.9999V9.33325H23.5007V13.9999H25.5007ZM25.084 12.9999H24.5007V14.9999H25.084V12.9999ZM29.0007 16.9166C29.0007 14.7535 27.2471 12.9999 25.084 12.9999V14.9999C26.1425 14.9999 27.0007 15.858 27.0007 16.9166H29.0007ZM25.084 20.8333C27.2471 20.8333 29.0007 19.0797 29.0007 16.9166H27.0007C27.0007 17.9751 26.1425 18.8333 25.084 18.8333V20.8333ZM24.5007 20.8333H25.084V18.8333H24.5007V20.8333ZM25.5007 24.4999V19.8333H23.5007V24.4999H25.5007ZM19.834 25.4999H24.5007V23.4999H19.834V25.4999ZM18.834 23.9166V24.4999H20.834V23.9166H18.834ZM16.9173 21.9999C17.9759 21.9999 18.834 22.858 18.834 23.9166H20.834C20.834 21.7535 19.0804 19.9999 16.9173 19.9999V21.9999ZM15.0007 23.9166C15.0007 22.858 15.8588 21.9999 16.9173 21.9999V19.9999C14.7542 19.9999 13.0007 21.7535 13.0007 23.9166H15.0007ZM15.0007 24.4999V23.9166H13.0007V24.4999H15.0007ZM9.33398 25.4999H14.0007V23.4999H9.33398V25.4999ZM8.33398 11.3333V24.4999H10.334V11.3333H8.33398Z" fill="#D68843" mask="url(#path-7-inside-4_2248_32215)"/>
</svg>
