<svg width="24" height="24" viewBox="0 0 24 24" fill="none" xmlns="http://www.w3.org/2000/svg">
<path d="M3.47772 2.50941C2.92778 2.50941 2.50917 2.93776 2.50917 3.43267V20.5673C2.50917 21.0624 2.92772 21.4906 3.47772 21.4906H20.5218C21.0718 21.4906 21.4903 21.0624 21.4903 20.5673V3.43267C21.4903 2.93777 21.0717 2.50941 20.5218 2.50941H3.47772Z" stroke="white"/>
<path d="M14.3998 9.37541C15.3545 9.37541 16.2702 9.77466 16.9453 10.4853C17.6205 11.196 17.9998 12.1599 17.9998 13.1649V17.5859H15.5998V13.1649C15.5998 12.8299 15.4733 12.5086 15.2483 12.2717C15.0232 12.0348 14.718 11.9017 14.3998 11.9017C14.0815 11.9017 13.7763 12.0348 13.5512 12.2717C13.3262 12.5086 13.1998 12.8299 13.1998 13.1649V17.5859H10.7998V13.1649C10.7998 12.1599 11.179 11.196 11.8542 10.4853C12.5293 9.77466 13.445 9.37541 14.3998 9.37541Z" stroke="white" stroke-linecap="round" stroke-linejoin="round"/>
<path d="M8.39976 10.007H5.99976V17.5859H8.39976V10.007Z" stroke="white" stroke-linecap="round" stroke-linejoin="round"/>
<path d="M7.19976 8.11225C7.8625 8.11225 8.39976 7.54672 8.39976 6.8491C8.39976 6.15147 7.8625 5.58594 7.19976 5.58594C6.53701 5.58594 5.99976 6.15147 5.99976 6.8491C5.99976 7.54672 6.53701 8.11225 7.19976 8.11225Z" stroke="white" stroke-linecap="round" stroke-linejoin="round"/>
</svg>
