<svg width="101" height="32" viewBox="0 0 101 32" fill="none" xmlns="http://www.w3.org/2000/svg">
<path d="M66.7031 6.74286C66.7119 6.71724 66.7119 6.69163 66.7119 6.66602C67.4985 6.66602 68.2851 6.66602 69.0717 6.66602C69.0717 6.69163 69.0717 6.71724 69.0804 6.74286C69.0017 6.83678 68.8881 6.87093 68.7658 6.87093C68.1802 6.89654 67.6033 6.89654 67.0178 6.87093C66.8954 6.87093 66.7818 6.83678 66.7031 6.74286Z" fill="#08080B"/>
<path d="M66.7031 6.74219C67.4897 6.74219 68.285 6.74219 69.0716 6.74219C69.7446 6.75926 70.4001 6.84464 71.0294 7.10932C71.8597 7.45938 72.0607 7.99728 71.6586 8.78278C71.108 9.85004 70.3127 10.7295 69.4212 11.532C68.4598 12.3944 67.446 13.197 66.2836 13.8117C66.0825 13.9142 65.8903 14.0508 65.6106 14.0508C65.6018 13.8117 65.7592 13.6836 65.899 13.5641C66.7992 12.7871 67.7257 12.0272 68.6171 11.2417C69.1066 10.8063 69.6047 10.3623 69.9893 9.82442C70.1117 9.65366 70.2253 9.46583 70.3127 9.26945C70.5312 8.76571 70.3913 8.39003 69.9106 8.12535C69.5086 7.90336 69.0629 7.83506 68.6171 7.78383C67.1226 7.62161 65.6368 7.77529 64.151 7.93751C61.8437 8.18512 59.5625 8.57787 57.2814 8.97062C54.1875 9.4829 51.111 10.0379 48.0433 10.6355C43.8481 11.4467 39.6529 12.2407 35.4577 13.0518C33.0018 13.5299 30.5458 14.0422 28.0987 14.5289C27.3383 14.6826 26.5692 14.8277 25.6952 15.007C26.237 14.2984 26.7265 13.6751 27.1984 13.0518C27.9938 12.0016 28.7804 10.96 29.567 9.90981C29.6456 9.80735 29.7155 9.70489 29.7767 9.58536C29.969 9.22676 29.8641 9.056 29.4621 9.03039C28.6493 8.9877 27.8802 9.19261 27.0936 9.33776C25.2319 9.68782 23.3616 9.98665 21.465 10.1574C21.264 10.1745 21.0717 10.2855 20.8008 10.2001C21.5524 9.92688 22.2866 9.79881 23.0033 9.61951C25.0397 9.1243 27.0761 8.6291 29.1474 8.25342C29.8466 8.12535 30.5458 8.0229 31.2625 8.03143C31.4024 8.03143 31.5509 8.04851 31.6908 8.07412C32.2851 8.21073 32.4075 8.56079 32.0054 9.02185C31.7345 9.33776 31.4461 9.62805 31.1489 9.92688C30.1613 10.9258 29.2873 12.0187 28.422 13.1201C28.3696 13.1799 28.3434 13.2653 28.2822 13.3848C29.4708 13.1713 30.607 12.9664 31.7432 12.753C34.4788 12.2492 37.2057 11.754 39.9413 11.2417C41.9602 10.8661 43.9792 10.4819 45.9981 10.0976C49.5203 9.43167 53.0513 8.76571 56.5735 8.08266C58.5749 7.68991 60.5938 7.38254 62.6128 7.10079C63.9762 6.93856 65.3309 6.7678 66.7031 6.74219Z" fill="#08080B"/>
<path d="M0 18.6359C1.1362 18.3627 2.28987 18.2176 3.44355 18.0724C4.93808 17.876 6.43261 17.6967 7.92715 17.526C9.08082 17.3979 10.2345 17.3125 11.3882 17.2101C13.075 17.0735 14.7705 16.9283 16.4574 16.8088C17.7858 16.7063 19.123 16.6209 20.4515 16.5356C22.5928 16.399 24.7341 16.2538 26.8754 16.1257C28.1077 16.0489 29.3401 15.9891 30.5724 15.9464C32.9409 15.8611 35.3007 15.733 37.6693 15.6647C39.627 15.6049 41.5848 15.5537 43.5513 15.5025C47.1434 15.4 50.7355 15.4256 54.3276 15.4598C55.8047 15.4769 57.2905 15.4939 58.7763 15.5366C60.4631 15.5793 62.1412 15.6391 63.828 15.7074C65.8469 15.7842 67.8571 15.8696 69.876 15.9635C71.423 16.0404 72.9787 16.1172 74.5257 16.2197C77.1127 16.3819 79.7085 16.5441 82.2955 16.7319C84.3319 16.8771 86.3683 17.0649 88.4048 17.2357C88.5621 17.2528 88.7107 17.2955 88.868 17.3552C88.0726 17.3552 87.2773 17.3723 86.4907 17.3467C86.2285 17.3381 85.9663 17.3211 85.7128 17.3125C84.2882 17.2784 82.8636 17.2528 81.4477 17.2015C79.1229 17.1247 76.8068 17.0479 74.482 16.9454C72.9175 16.8771 71.3443 16.8344 69.7799 16.7746C67.9532 16.7063 66.1178 16.6636 64.2912 16.6039C61.9664 16.527 59.6415 16.5014 57.3254 16.4246C55.1754 16.3563 53.0254 16.4246 50.8753 16.3392C49.206 16.2709 47.5279 16.2624 45.8586 16.305C43.8659 16.3477 41.8732 16.3307 39.8892 16.3819C38.1587 16.4246 36.4369 16.4758 34.7064 16.5526C32.4428 16.6551 30.1878 16.7746 27.9242 16.8942C25.9402 16.9966 23.9562 17.1162 21.9723 17.2272C19.5863 17.3638 17.1915 17.5089 14.8055 17.6541C13.1012 17.7565 11.3882 17.859 9.68388 17.9956C7.34157 18.1749 4.99926 18.3286 2.65695 18.5505C1.77421 18.6274 0.891477 18.6957 0 18.6359Z" fill="#08080B"/>
<path d="M23.2932 25.6211C23.5467 24.8185 24.2721 24.3233 25.1985 24.3062C25.8278 24.2977 26.4483 24.3062 27.0776 24.3062C27.2087 24.3062 27.3398 24.3062 27.4709 24.2977C27.8904 24.2464 28.1701 23.922 28.1177 23.5292C28.0652 23.145 27.8118 22.9743 27.4185 22.9743C26.4746 22.9743 25.5307 22.9487 24.578 22.9828C23.4942 23.017 22.865 22.3595 23.1184 21.3606C23.2932 20.6946 23.3806 19.9945 23.4768 19.3114C23.5117 19.0638 23.6166 19.0382 23.8264 19.098C24.2721 19.2261 24.6042 19.6615 24.6217 20.1567C24.6217 20.336 24.5955 20.5238 24.5867 20.7031C24.578 21.3008 24.9626 21.6936 25.5744 21.7021C26.0813 21.7106 26.5882 21.7021 27.1038 21.7021C28.0128 21.7021 28.4323 21.3947 28.6683 20.5495C28.8693 19.8408 29.3063 19.3627 30.023 19.1065C30.2852 19.0126 30.3289 19.1065 30.2852 19.3285C29.988 20.9251 29.7171 22.5303 29.3937 24.1269C29.2189 24.9892 28.4061 25.604 27.5059 25.604C26.125 25.6296 24.7266 25.6211 23.2932 25.6211Z" fill="#08080B"/>
<path d="M14.2969 25.5357C14.4717 24.6135 14.629 23.7427 14.7951 22.8718C14.9262 22.146 15.0922 21.4289 15.1971 20.7031C15.3457 19.6956 16.2371 18.9101 17.3122 18.9614C18.4571 19.0211 19.6108 18.9699 20.7557 18.9784C21.6647 18.9784 22.1891 19.5761 22.0317 20.447C21.7433 22.0521 21.4287 23.6487 21.1578 25.2539C21.1053 25.5527 21.0004 25.5613 20.7645 25.4674C20.2925 25.2881 19.9866 24.8953 19.9953 24.3916C20.0041 23.5378 20.275 22.7181 20.3886 21.8814C20.4149 21.7021 20.4673 21.5228 20.4935 21.3435C20.5722 20.7885 20.2138 20.3104 19.637 20.2848C18.9553 20.2591 18.2736 20.2591 17.5831 20.2848C16.9975 20.3104 16.5343 20.7458 16.4294 21.3264C16.2721 22.146 16.1323 22.9657 15.9837 23.7939C15.8264 24.7245 15.302 25.2966 14.2969 25.5357Z" fill="#08080B"/>
<path d="M47.3023 19.02C46.0874 20.036 44.925 21.0179 43.7451 21.9827C43.5179 22.1705 43.4916 22.2815 43.6927 22.5121C44.453 23.3829 45.1872 24.2794 45.9301 25.1674C46.0175 25.2698 46.0961 25.3808 46.2098 25.526C45.7291 25.526 45.3095 25.5516 44.8988 25.5174C44.3831 25.4748 43.9723 25.2186 43.649 24.8259C43.2207 24.305 42.775 23.8013 42.3467 23.289C42.1981 23.1097 42.0408 22.9902 41.7873 23.0499C41.5426 23.1097 41.4902 23.289 41.4465 23.4939C41.3329 24.1001 41.193 24.6807 40.6774 25.1162C40.4152 25.3296 40.1267 25.4748 39.7422 25.5516C39.9607 24.3392 40.1704 23.178 40.3802 22.0168C40.4763 21.4704 40.5637 20.924 40.6948 20.3946C40.8522 19.7286 41.2804 19.2761 41.9447 19.0371C42.1544 18.9602 42.268 18.9602 42.2069 19.2505C42.0845 19.8055 42.0058 20.3605 41.9097 20.924C41.8747 21.1118 41.8398 21.2996 42.0495 21.4106C42.268 21.5302 42.4691 21.4619 42.6526 21.3082C43.2644 20.8044 43.8937 20.3263 44.4705 19.797C45.2658 19.0712 46.1923 18.8578 47.3023 19.02Z" fill="#08080B"/>
<path d="M31 24.2978C31.673 23.4525 32.346 22.6244 33.0102 21.7962C33.5084 21.1729 34.0153 20.5496 34.5135 19.9178C34.9679 19.3457 35.5623 19.0384 36.3226 19.064C36.9607 19.0811 37.5987 19.0896 38.2454 19.0896C38.4639 19.0896 38.5076 19.1408 38.4727 19.3543C38.1231 21.3607 37.7735 23.3672 37.4414 25.3821C37.3802 25.7578 37.2141 25.7237 36.9519 25.6041C36.4188 25.3565 36.1216 24.7333 36.2615 24.0929C36.4712 23.1366 36.681 22.1889 36.8995 21.2326C36.9869 20.857 36.9869 20.524 36.5848 20.3191C36.2527 20.1483 35.9381 20.2678 35.6234 20.6691C34.933 21.5486 34.1988 22.3938 33.5695 23.3074C32.949 24.238 32.1187 24.5198 31 24.2978Z" fill="#08080B"/>
<path d="M17.0781 12.6774C17.8647 12.4213 18.5901 12.3786 19.3068 12.3017C20.2158 12.1993 21.1247 12.1651 22.0424 12.1054C22.1473 12.0968 22.2434 12.1054 22.3483 12.1054C22.5581 12.1054 22.8465 12.131 22.8552 12.3359C22.864 12.5408 22.5668 12.5066 22.392 12.5152C20.9762 12.5835 19.5515 12.6518 18.1357 12.703C17.8123 12.7116 17.5064 12.8567 17.0781 12.6774Z" fill="#08080B"/>
<path d="M64.062 18.7805C63.2754 18.772 62.4888 18.7805 61.711 18.7805C60.8982 18.7805 60.0854 18.7976 59.2725 18.772C59.0016 18.7634 58.9229 18.8659 58.8792 19.0964C58.5296 21.0602 58.1713 23.0239 57.8042 24.9791C57.7343 25.3292 57.8567 25.3634 58.1713 25.3634C59.727 25.3463 61.2827 25.3634 62.8384 25.3548C63.8348 25.3548 64.6214 24.7145 64.8049 23.7667C65.0234 22.6397 65.2157 21.5127 65.4255 20.3857C65.6003 19.4123 65.0846 18.7891 64.062 18.7805ZM62.4714 24.0229C62.1043 24.0229 61.7459 24.0229 61.3789 24.0229C60.9593 24.0229 60.5398 24.0143 60.1116 24.0229C59.7358 24.0314 59.491 23.8863 59.4211 23.5191C59.3512 23.152 59.5784 22.8019 59.9543 22.708C60.1203 22.6653 60.2951 22.6568 60.4699 22.6568C61.1516 22.6483 61.8333 22.6568 62.5151 22.6568C63.2667 22.6568 63.4677 22.7763 63.4765 23.2203C63.4939 23.7923 63.2055 24.0229 62.4714 24.0229ZM63.3628 21.4188C62.3665 21.4444 61.3614 21.4444 60.365 21.4188C60.0854 21.4102 59.9106 21.2053 59.8931 20.898C59.8581 20.2576 60.0154 20.0868 60.6709 20.0868C61.0468 20.0868 61.4226 20.0868 61.7984 20.0868C62.2878 20.0868 62.786 20.0783 63.2754 20.0868C63.66 20.0954 63.9484 20.3344 63.9746 20.6503C64.0096 21.0004 63.7212 21.4102 63.3628 21.4188Z" fill="#08080B"/>
<path d="M73.4434 18.9785C72.8753 18.9785 72.3072 18.9785 71.7391 18.9785C71.1448 18.9785 70.5505 18.9785 69.9474 18.9785C69.0297 18.9785 68.1994 19.6018 68.0334 20.4641C67.7974 21.6424 67.5876 22.8292 67.4041 24.016C67.2555 24.9722 67.7712 25.5357 68.7588 25.5443C69.895 25.5443 71.0225 25.5443 72.1586 25.5443C73.19 25.5443 73.9416 24.9893 74.1514 23.9989C74.3961 22.8377 74.6233 21.668 74.8069 20.4983C74.9642 19.5335 74.4398 18.9785 73.4434 18.9785ZM73.2424 21.3606C73.155 21.9924 73.0326 22.6157 72.8928 23.2305C72.7704 23.7684 72.2723 24.1782 71.7129 24.1953C71.0749 24.2209 70.4369 24.2209 69.7989 24.1953C69.1958 24.1697 68.82 23.7769 68.8812 23.1878C68.9598 22.5047 69.0997 21.8217 69.2657 21.1472C69.3968 20.6349 69.9212 20.2848 70.4718 20.2678C70.7777 20.2592 71.0836 20.2678 71.3895 20.2678C71.6779 20.2678 71.9664 20.2592 72.2635 20.2678C72.9015 20.3019 73.3298 20.7459 73.2424 21.3606Z" fill="#08080B"/>
<path d="M54.759 18.9785C53.5791 18.9785 52.408 18.9785 51.2281 18.9785C50.3191 18.9785 49.5325 19.5079 49.3403 20.3702C49.0606 21.6253 48.8333 22.8889 48.6498 24.1611C48.5274 24.9722 49.0781 25.5187 49.9258 25.5357C50.5376 25.5443 51.1494 25.5357 51.7525 25.5357C52.3293 25.5357 52.9149 25.5357 53.4917 25.5357C54.4007 25.5272 55.1348 24.9893 55.3796 24.127C55.4757 23.8025 55.5281 23.461 55.5806 23.128C55.7379 22.1803 56.0001 21.2496 56.0613 20.2934C56.1225 19.4225 55.6505 18.9785 54.759 18.9785ZM54.4881 21.2838C54.4094 21.9668 54.2958 22.6584 54.1123 23.3244C53.9637 23.8452 53.5529 24.1867 52.9673 24.2123C52.3468 24.238 51.7175 24.2465 51.097 24.2209C50.4153 24.1953 50.022 23.7001 50.1443 23.0341C50.2405 22.4962 50.3541 21.9498 50.4677 21.4119C50.6163 20.6861 51.1145 20.2934 51.8748 20.2848C52.137 20.2848 52.3992 20.2848 52.6614 20.2848C52.9499 20.2848 53.2383 20.2763 53.5354 20.2848C54.1385 20.3019 54.558 20.6861 54.4881 21.2838Z" fill="#08080B"/>
</svg>
