<svg width="172" height="56" viewBox="0 0 172 56" fill="none" xmlns="http://www.w3.org/2000/svg">
<path d="M113.594 11.7555C113.609 11.7109 113.609 11.6662 113.609 11.6216C114.948 11.6216 116.288 11.6216 117.627 11.6216C117.627 11.6662 117.627 11.7109 117.642 11.7555C117.508 11.9193 117.315 11.9788 117.106 11.9788C116.109 12.0234 115.127 12.0234 114.13 11.9788C113.921 11.9788 113.728 11.9193 113.594 11.7555Z" fill="white"/>
<path d="M113.596 11.7556C114.936 11.7556 116.29 11.7556 117.63 11.7556C118.776 11.7854 119.892 11.9342 120.964 12.3956C122.378 13.0059 122.72 13.9435 122.035 15.3129C121.098 17.1734 119.743 18.7064 118.225 20.1055C116.588 21.6088 114.861 23.0078 112.882 24.0795C112.539 24.2581 112.212 24.4962 111.736 24.4962C111.721 24.0795 111.989 23.8562 112.227 23.6479C113.76 22.2934 115.337 20.9688 116.856 19.5994C117.689 18.8404 118.537 18.0664 119.192 17.1287C119.401 16.831 119.594 16.5036 119.743 16.1613C120.115 15.2831 119.877 14.6282 119.058 14.1668C118.374 13.7798 117.615 13.6608 116.856 13.5715C114.31 13.2887 111.78 13.5566 109.25 13.8394C105.321 14.271 101.436 14.9557 97.5512 15.6403C92.2823 16.5333 87.0432 17.5008 81.8189 18.5427C74.6746 19.9566 67.5304 21.3409 60.3861 22.7548C56.2037 23.5883 52.0213 24.4814 47.8538 25.3297C46.5589 25.5976 45.2492 25.8507 43.7608 26.1632C44.6836 24.9279 45.5171 23.8413 46.3208 22.7548C47.6752 20.9241 49.0148 19.1083 50.3543 17.2775C50.4883 17.0989 50.6074 16.9203 50.7115 16.712C51.039 16.0868 50.8604 15.7892 50.1757 15.7445C48.7915 15.6701 47.4817 16.0273 46.1422 16.2803C42.9719 16.8906 39.7868 17.4115 36.557 17.7092C36.2146 17.7389 35.8872 17.9324 35.4258 17.7836C36.7058 17.3073 37.956 17.0841 39.1765 16.7715C42.6445 15.9082 46.1124 15.045 49.6399 14.3901C50.8306 14.1668 52.0213 13.9882 53.2418 14.0031C53.48 14.0031 53.733 14.0329 53.9711 14.0775C54.9832 14.3156 55.1916 14.9259 54.5069 15.7296C54.0455 16.2803 53.5544 16.7864 53.0483 17.3073C51.3664 19.0487 49.8781 20.9539 48.4045 22.8739C48.3152 22.9781 48.2706 23.1269 48.1664 23.3353C50.1906 22.9632 52.1255 22.606 54.0604 22.2339C58.7191 21.3557 63.3629 20.4925 68.0215 19.5994C71.4597 18.9445 74.8979 18.2748 78.3361 17.605C84.3343 16.444 90.3474 15.2831 96.3456 14.0924C99.754 13.4077 103.192 12.8719 106.63 12.3807C108.952 12.0979 111.259 11.8003 113.596 11.7556Z" fill="white"/>
<path d="M0 32.4887C1.93491 32.0124 3.89958 31.7594 5.86426 31.5063C8.40941 31.164 10.9546 30.8514 13.4997 30.5538C15.4644 30.3305 17.4291 30.1817 19.3937 30.0031C22.2663 29.7649 25.1538 29.5119 28.0264 29.3035C30.2887 29.1249 32.566 28.9761 34.8283 28.8272C38.4749 28.5891 42.1214 28.3361 45.768 28.1128C47.8666 27.9789 49.9653 27.8747 52.0639 27.8002C56.0974 27.6514 60.1161 27.4281 64.1496 27.3091C67.4836 27.2049 70.8176 27.1156 74.1665 27.0263C80.2838 26.8477 86.4011 26.8923 92.5183 26.9519C95.0337 26.9816 97.564 27.0114 100.094 27.0858C102.967 27.1602 105.825 27.2644 108.697 27.3835C112.135 27.5175 115.559 27.6663 118.997 27.83C121.631 27.964 124.281 28.0979 126.915 28.2765C131.321 28.5593 135.741 28.8421 140.147 29.1696C143.615 29.4226 147.083 29.75 150.551 30.0477C150.819 30.0775 151.072 30.1519 151.34 30.2561C149.985 30.2561 148.631 30.2859 147.291 30.2412C146.845 30.2263 146.398 30.1966 145.966 30.1817C143.54 30.1221 141.114 30.0775 138.703 29.9882C134.744 29.8542 130.8 29.7203 126.841 29.5417C124.176 29.4226 121.497 29.3482 118.833 29.244C115.722 29.1249 112.597 29.0505 109.486 28.9463C105.527 28.8124 101.568 28.7677 97.6235 28.6337C93.9621 28.5147 90.3006 28.6337 86.6392 28.4849C83.7964 28.3658 80.9387 28.3509 78.0958 28.4254C74.7023 28.4998 71.3088 28.47 67.9301 28.5593C64.9831 28.6337 62.051 28.723 59.104 28.857C55.249 29.0356 51.409 29.244 47.5541 29.4524C44.1754 29.631 40.7968 29.8393 37.4181 30.0328C33.3548 30.271 29.2766 30.524 25.2133 30.777C22.311 30.9556 19.3937 31.1342 16.4914 31.3724C12.5025 31.6849 8.51359 31.9529 4.52471 32.3398C3.02143 32.4738 1.51816 32.5929 0 32.4887Z" fill="white"/>
<path d="M39.6663 44.6639C40.098 43.2648 41.3333 42.4016 42.911 42.3718C43.9827 42.3569 45.0394 42.3718 46.1111 42.3718C46.3343 42.3718 46.5576 42.3718 46.7808 42.3569C47.4953 42.2676 47.9716 41.702 47.8823 41.0174C47.793 40.3476 47.3613 40.0499 46.6915 40.0499C45.0841 40.0499 43.4766 40.0053 41.8543 40.0648C40.0087 40.1243 38.937 38.9783 39.3687 37.2369C39.6663 36.0759 39.8152 34.8554 39.9789 33.6647C40.0384 33.2331 40.2171 33.1884 40.5743 33.2926C41.3333 33.5159 41.8989 34.275 41.9287 35.1382C41.9287 35.4508 41.884 35.7782 41.8692 36.0908C41.8543 37.1327 42.5092 37.8173 43.551 37.8322C44.4143 37.8471 45.2776 37.8322 46.1557 37.8322C47.7037 37.8322 48.4181 37.2964 48.8199 35.8229C49.1623 34.5875 49.9065 33.754 51.127 33.3075C51.5735 33.1438 51.6479 33.3075 51.5735 33.6945C51.0674 36.4778 50.606 39.276 50.0553 42.0593C49.7576 43.5625 48.3734 44.6342 46.8404 44.6342C44.4887 44.6788 42.1073 44.6639 39.6663 44.6639Z" fill="white"/>
<path d="M24.3496 44.515C24.6473 42.9076 24.9152 41.3894 25.198 39.8713C25.4212 38.6061 25.704 37.3559 25.8826 36.0907C26.1357 34.3344 27.6538 32.9651 29.4846 33.0544C31.4343 33.1586 33.399 33.0693 35.3488 33.0842C36.8967 33.0842 37.7898 34.1261 37.5219 35.6442C37.0307 38.4424 36.4949 41.2257 36.0335 44.0239C35.9442 44.5448 35.7656 44.5597 35.3637 44.396C34.56 44.0834 34.039 43.3987 34.0539 42.5206C34.0688 41.0322 34.5302 39.6033 34.7237 38.1447C34.7683 37.8322 34.8576 37.5196 34.9023 37.207C35.0363 36.2396 34.426 35.4061 33.4437 35.3614C32.2827 35.3168 31.1218 35.3168 29.946 35.3614C28.9487 35.4061 28.1599 36.1652 27.9813 37.1773C27.7134 38.6061 27.4752 40.035 27.2222 41.4787C26.9543 43.1011 26.0613 44.0983 24.3496 44.515Z" fill="white"/>
<path d="M80.5504 33.1587C78.4815 34.9298 76.5019 36.6415 74.4926 38.3234C74.1056 38.6508 74.061 38.8443 74.4033 39.2462C75.6982 40.7643 76.9485 42.3271 78.2136 43.8751C78.3624 44.0537 78.4964 44.2472 78.6899 44.5002C77.8713 44.5002 77.1568 44.5448 76.4573 44.4853C75.5791 44.4109 74.8796 43.9644 74.3289 43.2797C73.5996 42.3718 72.8405 41.4936 72.1112 40.6006C71.8582 40.288 71.5902 40.0797 71.1586 40.1839C70.7419 40.288 70.6526 40.6006 70.5781 40.9578C70.3847 42.0146 70.1465 43.0267 69.2684 43.7858C68.8218 44.1579 68.3307 44.4109 67.6758 44.5448C68.0479 42.4313 68.4051 40.4071 68.7623 38.3829C68.926 37.4303 69.0749 36.4778 69.2981 35.555C69.566 34.394 70.2953 33.6052 71.4265 33.1884C71.7837 33.0545 71.9772 33.0545 71.873 33.5605C71.6647 34.528 71.5307 35.4954 71.367 36.4778C71.3075 36.8052 71.2479 37.1327 71.6051 37.3261C71.9772 37.5345 72.3196 37.4155 72.6321 37.1475C73.674 36.2694 74.7456 35.4359 75.728 34.5131C77.0824 33.248 78.6601 32.8759 80.5504 33.1587Z" fill="white"/>
<path d="M52.793 42.3569C53.939 40.8834 55.0851 39.4396 56.2163 37.9959C57.0646 36.9094 57.9279 35.8229 58.7763 34.7214C59.5503 33.7242 60.5624 33.1884 61.8573 33.2331C62.9438 33.2628 64.0303 33.2777 65.1317 33.2777C65.5038 33.2777 65.5782 33.367 65.5187 33.7391C64.9233 37.2368 64.328 40.7345 63.7624 44.2471C63.6582 44.902 63.3754 44.8425 62.9289 44.6341C62.021 44.2025 61.5149 43.116 61.7531 41.9997C62.1103 40.3327 62.4675 38.6806 62.8396 37.0136C62.9884 36.3587 62.9884 35.7782 62.3038 35.421C61.7382 35.1233 61.2024 35.3317 60.6665 36.0312C59.4907 37.5643 58.2405 39.0378 57.1688 40.6304C56.1121 42.2527 54.6981 42.7439 52.793 42.3569Z" fill="white"/>
<path d="M29.082 22.0998C30.4216 21.6533 31.6569 21.5788 32.8774 21.4449C34.4254 21.2663 35.9733 21.2067 37.5361 21.1026C37.7147 21.0877 37.8784 21.1026 38.057 21.1026C38.4142 21.1026 38.9054 21.1472 38.9203 21.5044C38.9352 21.8616 38.4291 21.8021 38.1314 21.817C35.7203 21.9361 33.2942 22.0551 30.883 22.1444C30.3323 22.1593 29.8113 22.4123 29.082 22.0998Z" fill="white"/>
<path d="M109.099 32.7418C107.76 32.7269 106.42 32.7418 105.096 32.7418C103.712 32.7418 102.327 32.7716 100.943 32.7269C100.482 32.712 100.348 32.8907 100.273 33.2925C99.678 36.7158 99.0678 40.1391 98.4426 43.5475C98.3236 44.1578 98.5319 44.2173 99.0677 44.2173C101.717 44.1875 104.366 44.2173 107.016 44.2024C108.713 44.2024 110.052 43.0861 110.365 41.434C110.737 39.4693 111.064 37.5047 111.421 35.54C111.719 33.8432 110.841 32.7567 109.099 32.7418ZM106.391 41.8805C105.766 41.8805 105.155 41.8805 104.53 41.8805C103.816 41.8805 103.101 41.8656 102.372 41.8805C101.732 41.8954 101.315 41.6424 101.196 41.0024C101.077 40.3624 101.464 39.7521 102.104 39.5884C102.387 39.514 102.685 39.4991 102.982 39.4991C104.143 39.4842 105.304 39.4991 106.465 39.4991C107.745 39.4991 108.087 39.7075 108.102 40.4814C108.132 41.4787 107.641 41.8805 106.391 41.8805ZM107.909 37.3409C106.212 37.3856 104.5 37.3856 102.804 37.3409C102.327 37.3261 102.03 36.9688 102 36.433C101.94 35.3167 102.208 35.0191 103.325 35.0191C103.965 35.0191 104.605 35.0191 105.245 35.0191C106.078 35.0191 106.926 35.0042 107.76 35.0191C108.415 35.0339 108.906 35.4507 108.951 36.0014C109.01 36.6116 108.519 37.3261 107.909 37.3409Z" fill="white"/>
<path d="M125.07 33.0842C124.102 33.0842 123.135 33.0842 122.168 33.0842C121.155 33.0842 120.143 33.0842 119.116 33.0842C117.554 33.0842 116.14 34.1708 115.857 35.674C115.455 37.728 115.098 39.7969 114.785 41.8657C114.532 43.5327 115.41 44.5151 117.092 44.53C119.027 44.53 120.947 44.53 122.882 44.53C124.638 44.53 125.918 43.5625 126.275 41.836C126.692 39.8118 127.079 37.7727 127.392 35.7336C127.66 34.0517 126.767 33.0842 125.07 33.0842ZM124.728 37.2368C124.579 38.3382 124.37 39.4248 124.132 40.4964C123.924 41.4341 123.075 42.1485 122.123 42.1783C121.036 42.2229 119.95 42.2229 118.863 42.1783C117.836 42.1336 117.196 41.449 117.3 40.422C117.434 39.2313 117.673 38.0406 117.955 36.8647C118.179 35.9717 119.072 35.3615 120.009 35.3317C120.53 35.3168 121.051 35.3317 121.572 35.3317C122.063 35.3317 122.554 35.3168 123.061 35.3317C124.147 35.3912 124.876 36.1652 124.728 37.2368Z" fill="white"/>
<path d="M93.2492 33.0842C91.2398 33.0842 89.2454 33.0842 87.2361 33.0842C85.6881 33.0842 84.3486 34.007 84.0212 35.5103C83.5449 37.6982 83.1579 39.9011 82.8453 42.1188C82.6369 43.5327 83.5746 44.4853 85.0184 44.5151C86.0602 44.53 87.1021 44.5151 88.1291 44.5151C89.1114 44.5151 90.1087 44.5151 91.091 44.5151C92.6389 44.5002 93.8892 43.5625 94.3059 42.0592C94.4696 41.4936 94.559 40.8983 94.6483 40.3178C94.9162 38.6657 95.3627 37.0433 95.4669 35.3764C95.5711 33.8582 94.7673 33.0842 93.2492 33.0842ZM92.7878 37.1029C92.6538 38.2936 92.4603 39.4992 92.1478 40.6601C91.8947 41.5681 91.1952 42.1634 90.198 42.2081C89.1412 42.2527 88.0696 42.2676 87.0128 42.2229C85.8519 42.1783 85.1821 41.315 85.3905 40.1541C85.5542 39.2164 85.7477 38.2638 85.9412 37.3261C86.1942 36.061 87.0426 35.3764 88.3375 35.3615C88.784 35.3615 89.2305 35.3615 89.677 35.3615C90.1682 35.3615 90.6594 35.3466 91.1654 35.3615C92.1924 35.3912 92.9068 36.061 92.7878 37.1029Z" fill="white"/>
</svg>
