<svg width="24" height="25" viewBox="0 0 24 25" fill="none" xmlns="http://www.w3.org/2000/svg">
<path d="M7.63025 19.8229C6.77871 19.8229 6.05135 19.6556 5.44818 19.321C4.88049 18.9864 4.41923 18.5218 4.06443 17.927C3.70962 17.3693 3.44351 16.7002 3.26611 15.9195C3.0887 15.1017 3 14.3396 3 13.6333C3 11.7745 3.44351 10.0831 4.33053 8.55893C5.25303 6.99759 6.65453 5.75224 8.53501 4.82288L9.01401 5.82659C7.98506 6.27269 7.0803 6.97901 6.29972 7.94555C5.55462 8.9121 5.11111 9.89723 4.96919 10.9009C4.86274 11.6073 4.88049 12.2578 5.02241 12.8526C5.73203 12.1091 6.63679 11.7374 7.73669 11.7374C8.87208 11.7374 9.81233 12.0905 10.5574 12.7969C11.3025 13.5032 11.6751 14.5069 11.6751 15.808C11.6751 16.9976 11.2848 17.9641 10.5042 18.7076C9.72362 19.4511 8.76564 19.8229 7.63025 19.8229ZM17.9552 19.8229C17.1036 19.8229 16.3763 19.6556 15.7731 19.321C15.2054 18.9864 14.7442 18.5218 14.3894 17.927C14.0345 17.3693 13.7684 16.7002 13.591 15.9195C13.4136 15.1017 13.3249 14.3396 13.3249 13.6333C13.3249 11.7745 13.7684 10.0831 14.6555 8.55893C15.578 6.99759 16.9795 5.75224 18.8599 4.82288L19.3389 5.82659C18.31 6.27269 17.4052 6.97901 16.6246 7.94555C15.8796 8.9121 15.436 9.89723 15.2941 10.9009C15.1877 11.6073 15.2054 12.2578 15.3473 12.8526C16.057 12.1091 16.9617 11.7374 18.0616 11.7374C19.197 11.7374 20.1373 12.0905 20.8823 12.7969C21.6274 13.5032 22 14.5069 22 15.808C22 16.9976 21.6097 17.9641 20.8291 18.7076C20.0486 19.4511 19.0906 19.8229 17.9552 19.8229Z" fill="#D68843"/>
</svg>
