<svg width="32" height="32" viewBox="0 0 32 32" fill="none" xmlns="http://www.w3.org/2000/svg">
<path d="M10.1737 25.3333C9.03828 25.3333 8.06847 25.1102 7.26424 24.6641C6.50731 24.218 5.89231 23.5984 5.41923 22.8054C4.94616 22.0619 4.59135 21.1697 4.35481 20.1288C4.11827 19.0383 4 18.0222 4 17.0805C4 14.6021 4.59135 12.3469 5.77404 10.3147C7.00405 8.23288 8.8727 6.57241 11.38 5.33325L12.0187 6.67154C10.6467 7.26634 9.4404 8.2081 8.39963 9.49682C7.40616 10.7855 6.81481 12.0991 6.62558 13.4373C6.48366 14.3791 6.50731 15.2465 6.69655 16.0396C7.6427 15.0482 8.84905 14.5526 10.3156 14.5526C11.8294 14.5526 13.0831 15.0235 14.0766 15.9652C15.07 16.907 15.5668 18.2453 15.5668 19.9801C15.5668 21.5662 15.0464 22.8549 14.0056 23.8463C12.9648 24.8376 11.6875 25.3333 10.1737 25.3333ZM23.9402 25.3333C22.8049 25.3333 21.835 25.1102 21.0308 24.6641C20.2739 24.218 19.6589 23.5984 19.1858 22.8054C18.7127 22.0619 18.3579 21.1697 18.1214 20.1288C17.8848 19.0383 17.7666 18.0222 17.7666 17.0805C17.7666 14.6021 18.3579 12.3469 19.5406 10.3147C20.7706 8.23288 22.6393 6.57241 25.1466 5.33325L25.7852 6.67154C24.4133 7.26634 23.207 8.2081 22.1662 9.49682C21.1727 10.7855 20.5814 12.0991 20.3922 13.4373C20.2502 14.3791 20.2739 15.2465 20.4631 16.0396C21.4093 15.0482 22.6156 14.5526 24.0822 14.5526C25.596 14.5526 26.8497 15.0235 27.8431 15.9652C28.8366 16.907 29.3333 18.2453 29.3333 19.9801C29.3333 21.5662 28.8129 22.8549 27.7722 23.8463C26.7314 24.8376 25.4541 25.3333 23.9402 25.3333Z" fill="#D68843"/>
</svg>
