<svg width="56" height="56" viewBox="0 0 56 56" fill="none" xmlns="http://www.w3.org/2000/svg">
<g clip-path="url(#clip0_2592_55247)">
<circle cx="28.2095" cy="20.1861" r="7.43605" stroke="#D68843" stroke-linecap="square"/>
<path d="M14.4327 43.25C14.6959 35.8684 20.7629 29.9651 28.2087 29.9651C35.6545 29.9651 41.7215 35.8684 41.9847 43.25H14.4327Z" stroke="#D68843" stroke-linecap="square"/>
<path d="M50.2088 18.2936C50.2088 21.3553 47.7268 23.8372 44.6652 23.8372C41.6035 23.8372 39.1216 21.3553 39.1216 18.2936C39.1216 15.232 41.6035 12.75 44.6652 12.75C47.7268 12.75 50.2088 15.232 50.2088 18.2936Z" stroke="#D68843" stroke-linecap="square"/>
<mask id="path-4-inside-1_2592_55247" fill="white">
<path fill-rule="evenodd" clip-rule="evenodd" d="M42.0174 36.4244H56.203C56.203 30.3557 51.2833 25.436 45.2146 25.436C41.4283 25.436 38.0893 27.351 36.1133 30.2653C38.6061 31.7297 40.657 33.8655 42.0174 36.4244Z"/>
</mask>
<path d="M56.203 36.4244V37.4244H57.203V36.4244H56.203ZM42.0174 36.4244L41.1344 36.8938L41.4165 37.4244H42.0174V36.4244ZM36.1133 30.2653L35.2856 29.7041L34.6868 30.5872L35.6068 31.1276L36.1133 30.2653ZM56.203 35.4244H42.0174V37.4244H56.203V35.4244ZM45.2146 26.436C50.731 26.436 55.203 30.908 55.203 36.4244H57.203C57.203 29.8034 51.8356 24.436 45.2146 24.436V26.436ZM36.941 30.8265C38.7388 28.175 41.7738 26.436 45.2146 26.436V24.436C41.0828 24.436 37.4398 26.5271 35.2856 29.7041L36.941 30.8265ZM35.6068 31.1276C37.9406 32.4985 39.861 34.4986 41.1344 36.8938L42.9004 35.955C41.453 33.2325 39.2716 30.9608 36.6198 29.4031L35.6068 31.1276Z" fill="#D68843" mask="url(#path-4-inside-1_2592_55247)"/>
<path d="M5.79462 18.2936C5.79462 21.3553 8.27658 23.8372 11.3382 23.8372C14.3999 23.8372 16.8818 21.3553 16.8818 18.2936C16.8818 15.232 14.3999 12.75 11.3382 12.75C8.27658 12.75 5.79462 15.232 5.79462 18.2936Z" stroke="#D68843" stroke-linecap="square"/>
<mask id="path-7-inside-2_2592_55247" fill="white">
<path fill-rule="evenodd" clip-rule="evenodd" d="M14.4009 36.4244H-0.1994C-0.1994 30.3557 4.72026 25.436 10.789 25.436C14.652 25.436 18.0495 27.4295 20.0088 30.4438C17.6496 31.9008 15.707 33.9676 14.4009 36.4244Z"/>
</mask>
<path d="M-0.1994 36.4244V37.4244H-1.1994V36.4244H-0.1994ZM14.4009 36.4244L15.2839 36.8938L15.0018 37.4244H14.4009V36.4244ZM20.0088 30.4438L20.8472 29.8988L21.405 30.7569L20.5342 31.2946L20.0088 30.4438ZM-0.1994 35.4244H14.4009V37.4244H-0.1994V35.4244ZM10.789 26.436C5.27255 26.436 0.8006 30.908 0.8006 36.4244H-1.1994C-1.1994 29.8034 4.16798 24.436 10.789 24.436V26.436ZM19.1703 30.9888C17.3877 28.2462 14.2994 26.436 10.789 26.436V24.436C15.0046 24.436 18.7113 26.6127 20.8472 29.8988L19.1703 30.9888ZM20.5342 31.2946C18.3254 32.6587 16.5065 34.5942 15.2839 36.8938L13.5179 35.955C14.9076 33.3411 16.9738 31.1428 19.4833 29.593L20.5342 31.2946Z" fill="#D68843" mask="url(#path-7-inside-2_2592_55247)"/>
</g>
<defs>
<clipPath id="clip0_2592_55247">
<rect width="56" height="56" fill="white"/>
</clipPath>
</defs>
</svg>
