<svg width="56" height="56" viewBox="0 0 56 56" fill="none" xmlns="http://www.w3.org/2000/svg">
<path d="M29.7498 46.6666H11.6665V9.33325H44.9165V31.4999" stroke="#D68843"/>
<path d="M28.5835 18.6667H40.8335" stroke="#D68843"/>
<path d="M28.5835 28H40.8335" stroke="#D68843"/>
<path d="M15.75 18.0833L18.6667 21L23.9167 15.75" stroke="#D68843"/>
<path d="M15.75 26.8333L18.6667 29.75L23.9167 24.5" stroke="#D68843"/>
<path d="M15.75 36.1666L18.6667 39.0833L23.9167 33.8333" stroke="#D68843"/>
<path d="M44.0742 33.7274C44.2694 33.5321 44.586 33.5321 44.7813 33.7274L48.3168 37.2629C48.5121 37.4582 48.5121 37.7748 48.3168 37.97L38.3896 47.8972L33.2586 49.4064C32.879 49.518 32.5262 49.1653 32.6379 48.7856L34.147 43.6546L44.0742 33.7274Z" stroke="#D68843" stroke-linejoin="round"/>
<path d="M41.1279 35.9666L45.6652 40.5038" stroke="#D68843"/>
</svg>
