<svg width="56" height="56" viewBox="0 0 56 56" fill="none" xmlns="http://www.w3.org/2000/svg">
<rect x="6.3335" y="13.4363" width="43.3333" height="31.598" rx="1.5" stroke="#D68843"/>
<rect x="24.5884" y="25.1716" width="6.82353" height="8.12745" rx="0.5" stroke="#D68843"/>
<path fill-rule="evenodd" clip-rule="evenodd" d="M24.0891 29.3879V28.3689C14.8696 26.594 9.68236 18.7817 7.59549 14.0388L6.68018 14.4416C8.82584 19.3181 14.2757 27.5987 24.0891 29.3879ZM31.9126 29.382V28.3624C41.1746 26.5529 46.5092 18.59 48.4018 14.0479L49.3249 14.4325C47.3687 19.1274 41.7653 27.5596 31.9126 29.382Z" fill="#D68843"/>
<path d="M20.6768 8.41675C20.6768 7.58832 21.3483 6.91675 22.1768 6.91675H33.8238C34.6522 6.91675 35.3238 7.58832 35.3238 8.41675V13.7403H20.6768V8.41675Z" stroke="#D68843"/>
</svg>
