<svg width="56" height="56" viewBox="0 0 56 56" fill="none" xmlns="http://www.w3.org/2000/svg">
<path d="M27.5002 43.0744C27.4389 43.0436 27.3742 43.0112 27.3063 42.9775C26.7268 42.6894 25.9136 42.2996 24.9784 41.8923C23.1198 41.0828 20.7348 40.1843 18.7373 39.9C16.8224 39.6275 14.4048 40.09 12.5155 40.594C11.5606 40.8487 10.7212 41.1194 10.1204 41.3265C10.0177 41.362 9.92181 41.3956 9.8335 41.4269V14.4956C9.95357 14.454 10.1056 14.4031 10.2862 14.3461C10.7843 14.1887 11.498 13.985 12.3548 13.8016C14.074 13.4335 16.3434 13.1528 18.5964 13.4734C21.1408 13.8355 23.4147 14.8277 25.0603 15.7377C25.8812 16.1917 26.5408 16.6225 26.9939 16.9387C27.213 17.0916 27.3834 17.2175 27.5002 17.306V43.0744Z" stroke="#D68843"/>
<path d="M27.3333 43.0744C27.3946 43.0436 27.4593 43.0112 27.5272 42.9775C28.1067 42.6894 28.9199 42.2996 29.8551 41.8923C31.7137 41.0828 34.0987 40.1843 36.0962 39.9C38.0111 39.6275 40.4287 40.09 42.318 40.594C43.2729 40.8487 44.1123 41.1194 44.7131 41.3265C44.8158 41.362 44.9117 41.3956 45 41.4269V14.4956C44.8799 14.454 44.7279 14.4031 44.5473 14.3461C44.0492 14.1887 43.3355 13.985 42.4787 13.8016C40.7595 13.4335 38.4901 13.1528 36.2371 13.4734C33.6927 13.8355 31.4188 14.8277 29.7732 15.7377C28.9523 16.1917 28.2926 16.6225 27.8396 16.9387C27.6205 17.0916 27.4501 17.2175 27.3333 17.306V43.0744Z" stroke="#D68843"/>
<path fill-rule="evenodd" clip-rule="evenodd" d="M45.5002 18.0618V17.0618H49.1668H50.1668V18.0618V42.8951V43.8951H49.1668H6.8335H5.8335V42.8951V18.0618V17.0618H6.8335H9.3335V18.0618H6.8335V42.8951H25.9839C26.2964 43.0412 26.5819 43.1785 26.8335 43.3018V43.8951C26.8335 43.8951 27.046 43.7806 27.4168 43.5925C27.7876 43.7806 28.0002 43.8951 28.0002 43.8951V43.3018C28.2518 43.1785 28.5373 43.0412 28.8497 42.8951H49.1668V18.0618H45.5002Z" fill="#D68843"/>
</svg>
