<svg width="148" height="48" viewBox="0 0 148 48" fill="none" xmlns="http://www.w3.org/2000/svg">
<g clip-path="url(#clip0_3000_4400)">
<path d="M100.483 23.5553C100.483 21.6355 100.488 19.7109 100.479 17.7911C100.479 17.5675 100.548 17.5335 100.75 17.5335C101.506 17.5432 102.261 17.548 103.022 17.5335C103.224 17.5286 103.259 17.5918 103.259 17.7765C103.254 19.3026 103.259 20.8287 103.249 22.3548C103.249 22.5492 103.308 22.5881 103.496 22.5881C105.189 22.5833 106.883 22.5784 108.577 22.5881C108.789 22.5881 108.829 22.5298 108.829 22.3354C108.819 20.8238 108.829 19.3172 108.819 17.8056C108.819 17.5772 108.888 17.5335 109.105 17.5383C109.871 17.5529 110.636 17.548 111.402 17.5383C111.57 17.5383 111.604 17.5869 111.604 17.7425C111.599 21.6355 111.599 25.5286 111.604 29.4168C111.604 29.582 111.565 29.6355 111.387 29.6306C110.612 29.6209 109.841 29.6209 109.066 29.6306C108.873 29.6355 108.819 29.5869 108.819 29.3925C108.829 27.9636 108.819 26.5346 108.829 25.1057C108.829 24.9016 108.77 24.8579 108.567 24.8579C106.883 24.8676 105.194 24.8676 103.511 24.8579C103.283 24.8579 103.249 24.9259 103.249 25.1252C103.259 26.5444 103.249 27.9684 103.259 29.3876C103.259 29.5674 103.229 29.6355 103.022 29.6306C102.266 29.616 101.511 29.616 100.75 29.6306C100.538 29.6355 100.479 29.5917 100.479 29.3682C100.488 27.4289 100.483 25.4897 100.483 23.5553Z" fill="#08080B"/>
<path d="M124.559 17.4896C123.823 18.3936 123.122 19.2539 122.42 20.1142C121.62 21.0959 120.82 22.0826 120.011 23.0595C119.892 23.2053 119.907 23.283 120.02 23.4143C121.699 25.3584 123.373 27.3122 125.048 29.2611C125.122 29.3486 125.191 29.4361 125.265 29.5187C125.23 29.5965 125.161 29.5673 125.112 29.5673C124.05 29.5673 122.988 29.5673 121.927 29.5722C121.774 29.5722 121.69 29.509 121.601 29.407C120.371 27.944 119.137 26.4811 117.917 25.0181C117.788 24.8626 117.66 24.8043 117.458 24.814C117.087 24.8286 116.717 24.8335 116.347 24.814C116.114 24.7994 116.085 24.8869 116.085 25.0862C116.095 26.5005 116.085 27.91 116.095 29.3243C116.095 29.5187 116.06 29.5868 115.843 29.5819C115.102 29.5673 114.361 29.5722 113.621 29.5819C113.453 29.5819 113.398 29.543 113.398 29.3681C113.403 25.475 113.403 21.5868 113.398 17.6938C113.398 17.5382 113.438 17.4896 113.601 17.4945C114.356 17.5042 115.112 17.5042 115.872 17.4945C116.045 17.4945 116.09 17.5334 116.09 17.7083C116.085 19.249 116.09 20.7946 116.08 22.3353C116.08 22.5346 116.134 22.5977 116.337 22.588C116.672 22.5686 117.013 22.5734 117.349 22.588C117.497 22.5929 117.586 22.5394 117.675 22.4276C118.904 20.8432 120.139 19.2588 121.369 17.6743C121.462 17.5528 121.551 17.4993 121.714 17.4993C122.648 17.4945 123.576 17.4896 124.559 17.4896Z" fill="#08080B"/>
<path d="M58.8152 17.5044C58.3954 17.8106 58.035 18.073 57.6745 18.3355C57.1807 18.6951 56.6819 19.0499 56.1881 19.4144C56.0745 19.4971 55.9659 19.5262 55.8276 19.5262C54.6869 19.5214 53.5412 19.5262 52.4005 19.5214C52.2228 19.5214 52.1635 19.5505 52.1684 19.7401C52.1783 20.5809 52.1783 21.4169 52.1684 22.2577C52.1684 22.4327 52.2079 22.4861 52.3956 22.4861C54.1289 22.4764 55.8671 22.4861 57.6004 22.4764C57.7831 22.4764 57.8572 22.5056 57.8473 22.7097C57.8325 23.22 57.8276 23.7255 57.8473 24.2358C57.8572 24.4691 57.7683 24.4934 57.5658 24.4934C55.8572 24.4885 54.1437 24.4934 52.4351 24.4837C52.2228 24.4837 52.1586 24.5274 52.1635 24.7461C52.1783 25.6113 52.1783 26.4715 52.1635 27.3367C52.1586 27.5359 52.203 27.5894 52.4153 27.5894C54.4548 27.5797 56.4943 27.5894 58.5337 27.5797C58.7559 27.5797 58.83 27.6283 58.8201 27.8567C58.8004 28.3719 58.8102 28.8919 58.8201 29.4071C58.8251 29.5675 58.7707 29.6064 58.6127 29.6064C55.6449 29.6015 52.6771 29.6015 49.7092 29.6064C49.5364 29.6064 49.5117 29.5481 49.5117 29.3974C49.5167 25.5043 49.5167 21.6161 49.5117 17.7231C49.5117 17.5627 49.5413 17.4995 49.7241 17.4995C52.7018 17.5044 55.6795 17.5044 58.6522 17.5044C58.6769 17.5044 58.7065 17.5044 58.8152 17.5044Z" fill="#08080B"/>
<path d="M35.3605 18.8894C34.763 19.3219 34.1753 19.7448 33.5926 20.1725C33.4741 20.26 33.4099 20.1482 33.3359 20.1044C31.9433 19.2442 29.973 19.3073 28.6693 20.2891C27.4595 21.198 27.02 22.4471 27.178 23.9003C27.42 26.1457 29.4248 27.5795 31.8594 27.2393C32.5556 27.1421 33.1877 26.8796 33.7803 26.5345C33.9235 26.4519 34.0173 26.4519 34.1506 26.554C34.5852 26.8845 35.0247 27.2101 35.4741 27.5212C35.6321 27.6281 35.6025 27.6913 35.4839 27.8031C34.6148 28.6342 33.5679 29.125 32.3828 29.3292C30.7088 29.6208 29.0891 29.4361 27.6274 28.5613C25.5188 27.3025 24.5805 25.3972 24.6744 23.006C24.783 20.2065 26.8126 17.9756 29.652 17.4896C31.2569 17.2174 32.8124 17.3487 34.2741 18.1166C34.6543 18.3256 35.0099 18.5832 35.3605 18.8894Z" fill="#08080B"/>
<path d="M9.49012 23.2492C8.78397 22.7923 8.06794 22.3549 7.35191 21.9077C6.91735 21.6356 6.4828 21.3682 6.01367 21.0815C6.01367 22.0001 6.01367 22.8798 6.01367 23.7546C6.01367 23.8567 6.08281 23.8907 6.15194 23.9345C7.28771 24.644 8.42349 25.3488 9.55926 26.0632C9.67284 26.1361 9.75185 26.1313 9.86048 26.0535C12.7049 23.9588 15.5542 21.8688 18.4084 19.7838C18.5417 19.6866 18.5319 19.6186 18.4726 19.4922C18.2109 18.9527 17.8899 18.4472 17.5492 17.9515C17.4208 17.7668 17.3418 17.7814 17.1739 17.9029C14.7542 19.6817 12.3296 21.4557 9.9148 23.2394C9.75678 23.3561 9.65308 23.3561 9.49012 23.2492Z" fill="#08080B"/>
<path d="M19.2588 21.9368C19.1551 22.0097 19.076 22.0631 19.002 22.1166C18.4687 22.5054 17.9403 22.904 17.402 23.2879C17.2391 23.4046 17.1749 23.5164 17.1699 23.7205C17.1452 25.4993 16.5576 27.0838 15.3971 28.4544C14.9132 29.0279 14.3404 29.5042 13.7132 29.927C13.1947 30.2332 12.6515 30.4957 12.0836 30.6949C11.6343 30.831 11.175 30.9428 10.7059 31.0157C10.5084 31.0352 10.3059 31.0546 10.1084 31.0692C9.22445 31.0886 8.35534 31.0011 7.50598 30.7581C6.84921 30.5297 6.22206 30.2381 5.62455 29.8833C4.79494 29.3098 4.08878 28.6148 3.50608 27.808C3.45176 27.7205 3.40238 27.633 3.34806 27.5455C3.07153 27.1081 2.874 26.6318 2.66166 26.1603C2.47895 25.5577 2.3308 24.9453 2.25673 24.3183C2.25673 23.9003 2.25673 23.4775 2.25673 23.0595C2.31105 22.6901 2.36537 22.3207 2.42463 21.9465C2.52339 21.6257 2.62215 21.3098 2.72092 20.989C2.88388 20.644 3.04683 20.3037 3.21473 19.9587C3.39744 19.6865 3.58509 19.4095 3.7678 19.1373C3.96039 18.9137 4.15298 18.6901 4.3505 18.4666C4.57272 18.3159 4.74556 18.1118 4.93814 17.9271C5.41714 17.5626 5.93071 17.2369 6.46403 16.9502C7.17018 16.644 7.90103 16.4058 8.67138 16.2989C9.33309 16.2066 9.99974 16.226 10.6615 16.2746C10.701 16.2843 10.7405 16.2989 10.78 16.3086C11.8664 16.4641 12.8688 16.8432 13.7824 17.4411C13.9108 17.5237 13.9848 17.4799 14.0836 17.407C14.6021 17.0231 15.1157 16.6391 15.644 16.2697C15.7823 16.1725 15.7872 16.1191 15.649 16.017C15.0465 15.565 14.4095 15.1713 13.7231 14.8651C12.933 14.5152 12.1231 14.243 11.2639 14.1409C10.9923 14.0389 10.6911 14.0923 10.4145 14C9.97011 14 9.52568 14 9.08125 14C8.83928 14.034 8.59731 14.0632 8.35534 14.0972C7.40228 14.2333 6.48872 14.4909 5.61961 14.9089C5.07641 15.147 4.56778 15.4386 4.09372 15.7934C3.34806 16.2843 2.72092 16.8918 2.16785 17.582C1.97032 17.8153 1.78267 18.0486 1.63453 18.311C1.43206 18.5832 1.25923 18.87 1.11602 19.1762C0.923433 19.5018 0.77035 19.842 0.646897 20.2017C0.488876 20.5419 0.390113 20.9016 0.306165 21.2661C0.217278 21.5868 0.143206 21.9076 0.108639 22.2381C0.0740722 22.4811 0.034567 22.7193 0 22.9623C0 23.4143 0 23.8663 0 24.3183C0.0938247 24.5516 0.00493815 24.814 0.108639 25.0425C0.187649 25.6549 0.335794 26.2527 0.553072 26.8359C0.750598 27.4337 1.01232 27.9975 1.34318 28.5321C2.19254 29.9902 3.353 31.1421 4.8295 31.9829C5.43196 32.3523 6.07885 32.6293 6.76032 32.8383C7.33808 33.0327 7.93066 33.164 8.53805 33.2223C8.84915 33.2952 9.17507 33.3049 9.49111 33.3049C10.0294 33.3 10.5726 33.3098 11.1059 33.1883C11.6145 33.1397 12.1083 33.0327 12.5873 32.8529C13.1997 32.6876 13.7824 32.4495 14.3256 32.1239C15.0811 31.7545 15.7527 31.2587 16.3551 30.6852C18.4045 28.7217 19.4267 26.3256 19.4118 23.5115C19.4118 22.9915 19.3723 22.4763 19.2588 21.9368Z" fill="#08080B"/>
<path d="M85.9065 25.3195C85.7633 23.9197 84.9782 23.0109 83.6498 22.5491C83.1066 22.3596 82.5387 22.2527 81.9609 22.2429C80.7955 22.2235 79.6252 22.2235 78.4549 22.2284C78.2376 22.2284 78.1586 22.1895 78.1635 21.9562C78.1833 21.2369 78.1833 20.5176 78.1635 19.7982C78.1586 19.5504 78.2376 19.5163 78.4647 19.5163C80.603 19.5261 82.7412 19.5212 84.8794 19.5261C85.0473 19.5261 85.1065 19.4969 85.1016 19.3171C85.0868 18.7922 85.0868 18.2673 85.1016 17.7424C85.1065 17.5382 85.0473 17.4896 84.8448 17.4896C81.8177 17.4945 78.7907 17.4945 75.7636 17.4896C75.5512 17.4896 75.5117 17.5479 75.5117 17.7424C75.5216 19.6719 75.5167 21.6014 75.5167 23.5309C75.5167 25.4701 75.5216 27.4094 75.5117 29.3438C75.5117 29.5479 75.566 29.5916 75.7685 29.5916C77.4277 29.5819 79.0919 29.5868 80.7511 29.5868C81.2696 29.5868 81.7881 29.5673 82.3017 29.4944C82.8794 29.4118 83.4424 29.266 83.9708 29.0084C85.5263 28.2599 86.0596 26.8553 85.9065 25.3195ZM82.035 27.4677C81.319 27.6281 80.5931 27.5552 79.9709 27.5746C79.3783 27.5746 78.8845 27.5698 78.3907 27.5795C78.2277 27.5844 78.1635 27.5552 78.1635 27.3754C78.1734 26.3887 78.1684 25.407 78.1684 24.4203C78.1684 24.3085 78.1635 24.2211 78.3314 24.2259C79.4227 24.2551 80.519 24.1773 81.6103 24.2745C81.7832 24.2891 81.9511 24.3231 82.119 24.3669C82.9881 24.5904 83.4177 25.1154 83.4029 25.9319C83.3881 26.7338 82.8992 27.2782 82.035 27.4677Z" fill="#08080B"/>
<path d="M40.262 19.5165C41.8323 19.5262 43.4026 19.5214 44.973 19.5214C45.1013 19.5214 45.205 19.4971 45.3137 19.4193C46.1087 18.8361 46.9087 18.2577 47.7087 17.6745C47.7679 17.6307 47.8568 17.6016 47.8865 17.4946C47.847 17.4946 47.8173 17.4946 47.7877 17.4946C44.3903 17.4995 40.9829 17.4995 37.5756 17.4946C37.3583 17.4946 37.3682 17.5967 37.3682 17.7474C37.3682 21.6161 37.3732 25.4849 37.3633 29.3488C37.3633 29.548 37.4176 29.6015 37.6201 29.6015C39.3534 29.5918 41.0916 29.5966 42.8249 29.5966C43.4569 29.5966 44.089 29.5432 44.7112 29.4071C46.6618 28.9843 47.7531 27.7303 47.7926 25.8688C47.8272 24.2358 47.0272 23.0693 45.4964 22.5444C44.8396 22.3209 44.1582 22.2285 43.4619 22.2285C42.4002 22.2236 41.3385 22.2188 40.2768 22.2285C40.0496 22.2334 40.0101 22.1605 40.0151 21.9563C40.0299 21.2224 40.0299 20.4885 40.0151 19.7498C40.0151 19.5602 40.0743 19.5165 40.262 19.5165ZM40.0249 24.401C40.0249 24.2893 40.0348 24.2261 40.178 24.2261C41.2792 24.2504 42.3804 24.1775 43.4816 24.2747C43.6347 24.2893 43.7927 24.3184 43.9409 24.3524C44.8643 24.5809 45.2742 25.0912 45.2594 25.9855C45.2446 26.7485 44.7409 27.288 43.8668 27.4727C43.689 27.5116 43.5113 27.5505 43.3335 27.5553C42.8002 27.5651 42.2669 27.5602 41.7286 27.5602C41.7286 27.5651 41.7286 27.5699 41.7286 27.5748C41.2249 27.5748 40.7262 27.5699 40.2225 27.5748C40.0891 27.5748 40.02 27.5651 40.02 27.3998C40.0299 26.3986 40.0249 25.3974 40.0249 24.401Z" fill="#08080B"/>
<path d="M99.5418 29.4022C97.848 25.5091 96.1543 21.6112 94.4654 17.7133C94.4111 17.5869 94.3469 17.5286 94.1987 17.5335C93.3691 17.5432 92.5395 17.5383 91.705 17.5335C91.5766 17.5335 91.5025 17.5626 91.4482 17.689C89.7248 21.5966 88.0014 25.5091 86.273 29.4119C86.1891 29.5966 86.2434 29.6258 86.4212 29.6209C87.2261 29.6161 88.0359 29.6161 88.8409 29.6209C88.9989 29.6209 89.073 29.5723 89.1322 29.4314C89.3939 28.7704 89.6705 28.1142 89.9322 27.4581C89.9865 27.3172 90.0606 27.2686 90.2186 27.2686C91.9766 27.2734 93.7395 27.2734 95.4975 27.2686C95.6555 27.2686 95.7246 27.3172 95.7839 27.4581C96.0456 28.1191 96.3271 28.7704 96.5839 29.4314C96.6431 29.5772 96.7172 29.6258 96.8703 29.6209C97.29 29.6112 97.7098 29.6161 98.1295 29.6161C98.5493 29.6161 98.969 29.6063 99.3887 29.6209C99.6011 29.6355 99.6208 29.582 99.5418 29.4022ZM91.1124 25.0912C90.989 25.0912 90.9248 25.0814 90.989 24.9308C91.5914 23.4873 92.1889 22.0389 92.7914 20.5906C92.8111 20.542 92.8358 20.4885 92.8803 20.3962C93.5321 21.9709 94.1642 23.5116 94.816 25.0863C93.5469 25.0912 92.3321 25.0912 91.1124 25.0912Z" fill="#08080B"/>
<path d="M68.9504 18.3063C67.943 17.6891 66.8122 17.5141 65.6468 17.5093C64.0518 17.4995 62.4567 17.5093 60.8617 17.5044C60.6444 17.5044 60.5852 17.5579 60.5901 17.7717C60.6 19.7012 60.5951 21.6307 60.5951 23.5603C60.5951 25.4801 60.6 27.4047 60.5901 29.3245C60.5901 29.5335 60.6247 29.6161 60.8667 29.6113C61.5728 29.5918 62.279 29.5967 62.9901 29.6113C63.1925 29.6161 63.2518 29.5724 63.2518 29.3634C63.2419 28.3768 63.2518 27.395 63.2419 26.4084C63.2419 26.2091 63.3012 26.1654 63.4888 26.1702C63.9678 26.1848 64.4419 26.1751 64.9209 26.1751C65.7011 26.1751 66.4813 26.1848 67.2517 26.0244C69.1627 25.6307 70.6689 24.4351 70.8565 22.3112C70.9948 20.6247 70.4615 19.2298 68.9504 18.3063ZM68.1899 22.2966C68.0467 23.361 67.2912 24.022 66.1505 24.1241C65.232 24.2067 64.3085 24.1435 63.39 24.1678C63.2222 24.1727 63.232 24.0754 63.232 23.9637C63.232 23.2541 63.232 22.5445 63.232 21.8349C63.232 21.135 63.232 20.4303 63.232 19.7304C63.232 19.6478 63.1826 19.5214 63.3555 19.5263C64.2839 19.5457 65.2172 19.4679 66.1406 19.5651C67.7159 19.7304 68.3924 20.7899 68.1899 22.2966Z" fill="#08080B"/>
</g>
<defs>
<clipPath id="clip0_3000_4400">
<rect width="148" height="48" fill="white"/>
</clipPath>
</defs>
</svg>
