<svg width="56" height="56" viewBox="0 0 56 56" fill="none" xmlns="http://www.w3.org/2000/svg">
<mask id="path-1-inside-1_2248_32214" fill="white">
<path fill-rule="evenodd" clip-rule="evenodd" d="M24.2322 6.05388C24.3257 5.58646 24.7361 5.25 25.2128 5.25H31.9547C32.4314 5.25 32.8418 5.58646 32.9353 6.05388L33.6641 9.69777C35.1284 10.1516 36.5175 10.7763 37.8081 11.5486L41.0239 9.40473C41.4206 9.14032 41.9487 9.19261 42.2857 9.52967L47.053 14.297C47.3901 14.634 47.4424 15.1622 47.178 15.5588L44.8938 18.9851C45.5402 20.195 46.0606 21.4824 46.4373 22.8298L50.5301 23.6484C50.9975 23.7419 51.334 24.1523 51.334 24.629V31.3709C51.334 31.8476 50.9975 32.258 50.5301 32.3515L46.4373 33.1701C46.0607 34.5172 45.5405 35.8043 44.8943 37.014L47.1793 40.4414C47.4437 40.8381 47.3914 41.3662 47.0543 41.7033L42.287 46.4705C41.95 46.8076 41.4218 46.8599 41.0252 46.5955L37.8086 44.4511C36.5178 45.2235 35.1285 45.8483 33.6641 46.3022L32.9353 49.9461C32.8418 50.4135 32.4314 50.75 31.9547 50.75H25.2128C24.7361 50.75 24.3257 50.4135 24.2322 49.9461L23.5724 46.6472C21.8867 46.2498 20.287 45.6297 18.806 44.8198L16.1428 46.5953C15.7461 46.8597 15.218 46.8074 14.881 46.4703L10.1137 41.7031C9.77659 41.366 9.7243 40.8379 9.98871 40.4412L11.6292 37.9805C10.6779 36.425 9.94239 34.7232 9.46409 32.9168L6.63787 32.3515C6.17044 32.258 5.83398 31.8476 5.83398 31.3709L5.83398 24.629C5.83398 24.1523 6.17044 23.7419 6.63787 23.6484L9.4641 23.0831C9.94255 21.2761 10.6784 19.5739 11.6301 18.0179L9.98998 15.5578C9.72557 15.1611 9.77786 14.633 10.1149 14.2959L14.8822 9.52866C15.2193 9.19159 15.7474 9.1393 16.144 9.40371L18.8075 11.1794C20.2881 10.3698 21.8873 9.75002 23.5724 9.35276L24.2322 6.05388Z"/>
</mask>
<path d="M24.2322 6.05388L23.2516 5.85777V5.85777L24.2322 6.05388ZM32.9353 6.05388L33.9159 5.85777V5.85777L32.9353 6.05388ZM33.6641 9.69777L32.6835 9.89389L32.8001 10.4769L33.368 10.6529L33.6641 9.69777ZM37.8081 11.5486L37.2946 12.4067L37.837 12.7312L38.3628 12.3807L37.8081 11.5486ZM41.0239 9.40473L41.5786 10.2368V10.2368L41.0239 9.40473ZM42.2857 9.52967L41.5786 10.2368V10.2368L42.2857 9.52967ZM47.053 14.297L46.3459 15.0041V15.0041L47.053 14.297ZM47.178 15.5588L48.01 16.1135L48.01 16.1135L47.178 15.5588ZM44.8938 18.9851L44.0617 18.4304L43.7297 18.9284L44.0118 19.4563L44.8938 18.9851ZM46.4373 22.8298L45.4743 23.0991L45.6395 23.6901L46.2412 23.8104L46.4373 22.8298ZM50.5301 23.6484L50.7262 22.6678H50.7262L50.5301 23.6484ZM50.5301 32.3515L50.7262 33.3321H50.7262L50.5301 32.3515ZM46.4373 33.1701L46.2412 32.1895L45.6395 32.3098L45.4743 32.9008L46.4373 33.1701ZM44.8943 37.014L44.0122 36.5428L43.7302 37.0707L44.0622 37.5687L44.8943 37.014ZM47.1793 40.4414L46.3472 40.9961V40.9962L47.1793 40.4414ZM47.0543 41.7033L46.3472 40.9961L46.3472 40.9961L47.0543 41.7033ZM41.0252 46.5955L40.4705 47.4275L40.4705 47.4275L41.0252 46.5955ZM37.8086 44.4511L38.3633 43.619L37.8374 43.2684L37.2951 43.593L37.8086 44.4511ZM33.6641 46.3022L33.3681 45.347L32.8001 45.523L32.6835 46.1061L33.6641 46.3022ZM32.9353 49.9461L33.9159 50.1422L32.9353 49.9461ZM24.2322 49.9461L23.2516 50.1422L24.2322 49.9461ZM23.5724 46.6472L24.553 46.4511L24.427 45.8212L23.8019 45.6739L23.5724 46.6472ZM18.806 44.8198L19.2858 43.9424L18.7549 43.652L18.2513 43.9877L18.806 44.8198ZM16.1428 46.5953L16.6975 47.4273L16.6975 47.4273L16.1428 46.5953ZM14.881 46.4703L15.5881 45.7632L15.5881 45.7632L14.881 46.4703ZM10.1137 41.7031L9.40655 42.4102L9.40655 42.4102L10.1137 41.7031ZM9.98871 40.4412L10.8208 40.9959H10.8208L9.98871 40.4412ZM11.6292 37.9805L12.4612 38.5352L12.8155 38.0038L12.4823 37.4588L11.6292 37.9805ZM9.46409 32.9168L10.4308 32.6608L10.2713 32.0584L9.66021 31.9362L9.46409 32.9168ZM6.63787 32.3515L6.44175 33.3321L6.63787 32.3515ZM5.83398 31.3709H6.83398H5.83398ZM5.83398 24.629H6.83398H5.83398ZM6.63787 23.6484L6.83398 24.629H6.83398L6.63787 23.6484ZM9.4641 23.0831L9.66022 24.0637L10.2713 23.9415L10.4308 23.3391L9.4641 23.0831ZM11.6301 18.0179L12.4832 18.5397L12.8165 17.9947L12.4621 17.4632L11.6301 18.0179ZM9.98998 15.5578L10.822 15.0031L10.822 15.0031L9.98998 15.5578ZM10.1149 14.2959L9.40782 13.5888H9.40782L10.1149 14.2959ZM14.8822 9.52866L14.1751 8.82155V8.82155L14.8822 9.52866ZM16.144 9.40371L16.6987 8.57166V8.57166L16.144 9.40371ZM18.8075 11.1794L18.2528 12.0114L18.7563 12.3471L19.2872 12.0568L18.8075 11.1794ZM23.5724 9.35276L23.8019 10.3261L24.427 10.1787L24.553 9.54888L23.5724 9.35276ZM25.2128 4.25C24.2594 4.25 23.4386 4.92292 23.2516 5.85777L25.2128 6.25V6.25V4.25ZM31.9547 4.25H25.2128V6.25H31.9547V4.25ZM33.9159 5.85777C33.7289 4.92292 32.9081 4.25 31.9547 4.25V6.25V6.25L33.9159 5.85777ZM34.6447 9.50165L33.9159 5.85777L31.9547 6.25L32.6835 9.89389L34.6447 9.50165ZM38.3216 10.6905C36.9635 9.87788 35.5015 9.22033 33.9601 8.7426L33.368 10.6529C34.7552 11.0829 36.0714 11.6748 37.2946 12.4067L38.3216 10.6905ZM40.4692 8.57268L37.2534 10.7166L38.3628 12.3807L41.5786 10.2368L40.4692 8.57268ZM42.9929 8.82257C42.3187 8.14844 41.2625 8.04385 40.4692 8.57268L41.5786 10.2368V10.2368L42.9929 8.82257ZM47.7601 13.5899L42.9929 8.82257L41.5786 10.2368L46.3459 15.0041L47.7601 13.5899ZM48.01 16.1135C48.5389 15.3202 48.4343 14.264 47.7601 13.5899L46.3459 15.0041V15.0041L48.01 16.1135ZM45.7258 19.5398L48.01 16.1135L46.3459 15.0041L44.0617 18.4304L45.7258 19.5398ZM47.4004 22.5606C47.0038 21.1422 46.4561 19.7871 45.7758 18.5138L44.0118 19.4563C44.6244 20.6029 45.1174 21.8227 45.4743 23.0991L47.4004 22.5606ZM50.7262 22.6678L46.6334 21.8493L46.2412 23.8104L50.334 24.629L50.7262 22.6678ZM52.334 24.629C52.334 23.6756 51.6611 22.8548 50.7262 22.6678L50.334 24.629V24.629H52.334ZM52.334 31.3709V24.629H50.334V31.3709H52.334ZM50.7262 33.3321C51.6611 33.1451 52.334 32.3243 52.334 31.3709H50.334V31.3709L50.7262 33.3321ZM46.6335 34.1507L50.7262 33.3321L50.334 31.3709L46.2412 32.1895L46.6335 34.1507ZM45.7763 37.4852C46.4564 36.2122 47.0039 34.8574 47.4004 33.4394L45.4743 32.9008C45.1175 34.1769 44.6246 35.3965 44.0122 36.5428L45.7763 37.4852ZM48.0113 39.8867L45.7263 36.4593L44.0622 37.5687L46.3472 40.9961L48.0113 39.8867ZM47.7614 42.4104C48.4356 41.7362 48.5401 40.68 48.0113 39.8867L46.3472 40.9962L46.3472 40.9961L47.7614 42.4104ZM42.9941 47.1777L47.7614 42.4104L46.3472 40.9961L41.5799 45.7634L42.9941 47.1777ZM40.4705 47.4275C41.2638 47.9564 42.32 47.8518 42.9941 47.1777L41.5799 45.7634H41.5799L40.4705 47.4275ZM37.2539 45.2831L40.4705 47.4275L41.5799 45.7634L38.3633 43.619L37.2539 45.2831ZM33.9602 47.2573C35.5017 46.7796 36.9639 46.1219 38.3221 45.3092L37.2951 43.593C36.0717 44.325 34.7554 44.917 33.3681 45.347L33.9602 47.2573ZM33.9159 50.1422L34.6447 46.4983L32.6835 46.1061L31.9547 49.75L33.9159 50.1422ZM31.9547 51.75C32.9081 51.75 33.7289 51.0771 33.9159 50.1422L31.9547 49.75V51.75ZM25.2128 51.75H31.9547V49.75H25.2128V51.75ZM23.2516 50.1422C23.4386 51.0771 24.2594 51.75 25.2128 51.75V49.75L23.2516 50.1422ZM22.5918 46.8433L23.2516 50.1422L25.2128 49.75L24.553 46.4511L22.5918 46.8433ZM18.3262 45.6972C19.8847 46.5495 21.5685 47.2022 23.3429 47.6205L23.8019 45.6739C22.2049 45.2974 20.6893 44.71 19.2858 43.9424L18.3262 45.6972ZM16.6975 47.4273L19.3607 45.6518L18.2513 43.9877L15.5881 45.7632L16.6975 47.4273ZM14.1738 47.1774C14.848 47.8516 15.9042 47.9562 16.6975 47.4273L15.5881 45.7632L15.5881 45.7632L14.1738 47.1774ZM9.40655 42.4102L14.1738 47.1775L15.5881 45.7632L10.8208 40.9959L9.40655 42.4102ZM9.15666 39.8865C8.62783 40.6798 8.73242 41.736 9.40655 42.4102L10.8208 40.9959L10.8208 40.9959L9.15666 39.8865ZM10.7971 37.4258L9.15666 39.8865L10.8208 40.9959L12.4612 38.5352L10.7971 37.4258ZM8.4974 33.1727C9.0009 35.0743 9.77514 36.8654 10.7761 38.5022L12.4823 37.4588C11.5808 35.9845 10.8839 34.3721 10.4308 32.6608L8.4974 33.1727ZM6.44175 33.3321L9.26797 33.8974L9.66021 31.9362L6.83398 31.3709L6.44175 33.3321ZM4.83398 31.3709C4.83398 32.3243 5.5069 33.1451 6.44175 33.3321L6.83398 31.3709L6.83398 31.3709H4.83398ZM4.83398 24.629L4.83398 31.3709H6.83398L6.83398 24.629H4.83398ZM6.44175 22.6678C5.5069 22.8548 4.83398 23.6756 4.83398 24.629H6.83398L6.83398 24.629L6.44175 22.6678ZM9.26798 22.1026L6.44175 22.6678L6.83398 24.629L9.66022 24.0637L9.26798 22.1026ZM10.777 17.4961C9.77564 19.1333 9.00106 20.925 8.49741 22.8272L10.4308 23.3391C10.884 21.6273 11.5812 20.0144 12.4832 18.5397L10.777 17.4961ZM9.15793 16.1125L10.798 18.5726L12.4621 17.4632L10.822 15.0031L9.15793 16.1125ZM9.40782 13.5888C8.73369 14.263 8.6291 15.3192 9.15793 16.1125L10.822 15.0031L10.822 15.0031L9.40782 13.5888ZM14.1751 8.82155L9.40782 13.5888L10.822 15.0031L15.5893 10.2358L14.1751 8.82155ZM16.6987 8.57166C15.9055 8.04283 14.8492 8.14742 14.1751 8.82155L15.5893 10.2358V10.2358L16.6987 8.57166ZM19.3622 10.3473L16.6987 8.57166L15.5893 10.2358L18.2528 12.0114L19.3622 10.3473ZM23.343 8.37944C21.5691 8.79762 19.8859 9.45 18.3277 10.3019L19.2872 12.0568C20.6903 11.2896 22.2055 10.7024 23.8019 10.3261L23.343 8.37944ZM23.2516 5.85777L22.5918 9.15665L24.553 9.54888L25.2128 6.25L23.2516 5.85777Z" fill="#D68843" mask="url(#path-1-inside-1_2248_32214)"/>
<circle cx="27.934" cy="27.9999" r="8.6" stroke="#D68843"/>
</svg>
