<svg width="56" height="56" viewBox="0 0 56 56" fill="none" xmlns="http://www.w3.org/2000/svg">
<path d="M24.0518 5.89309C26.1972 3.62928 29.8028 3.62928 31.9482 5.89309C33.4502 7.47809 35.6532 8.19388 37.8 7.79447C40.8662 7.224 43.7833 9.34334 44.1882 12.4358C44.4718 14.601 45.8333 16.4749 47.8049 17.4137C50.6208 18.7544 51.735 22.1836 50.245 24.9235C49.2017 26.8418 49.2017 29.1582 50.245 31.0765C51.735 33.8164 50.6208 37.2456 47.8049 38.5863C45.8333 39.5251 44.4718 41.399 44.1882 43.5642C43.7833 46.6567 40.8662 48.776 37.8 48.2055C35.6532 47.8061 33.4502 48.5219 31.9482 50.1069C29.8028 52.3707 26.1972 52.3707 24.0518 50.1069C22.5498 48.5219 20.3468 47.8061 18.2 48.2055C15.1338 48.776 12.2167 46.6567 11.8118 43.5642C11.5282 41.399 10.1667 39.5251 8.19513 38.5863C5.37917 37.2456 4.26496 33.8164 5.75504 31.0765C6.7983 29.1582 6.7983 26.8418 5.75504 24.9235C4.26496 22.1836 5.37917 18.7544 8.19513 17.4137C10.1667 16.4749 11.5282 14.601 11.8118 12.4358C12.2167 9.34334 15.1338 7.224 18.2 7.79447C20.3468 8.19388 22.5498 7.47809 24.0518 5.89309Z" stroke="#D68843" stroke-linecap="square"/>
<path d="M19 37L37.5 18.5" stroke="#D68843" stroke-linecap="square"/>
<circle cx="21" cy="23" r="3.5" stroke="#D68843" stroke-linecap="square"/>
<circle cx="35" cy="33" r="3.5" stroke="#D68843" stroke-linecap="square"/>
</svg>
