<svg width="56" height="56" viewBox="0 0 56 56" fill="none" xmlns="http://www.w3.org/2000/svg">
<path d="M4.66607 39.8725L5.16603 39.8658L4.66607 39.8725ZM51.6431 39.8725L52.143 39.8631L51.6431 39.8725ZM4.16612 39.8792C4.18658 41.4048 4.16593 41.4214 4.16602 43.7831L5.16602 43.7831C5.16593 41.4471 5.18658 41.3975 5.16603 39.8658L4.16612 39.8792ZM52.143 43.7831C52.143 41.4521 52.1717 41.396 52.143 39.8631L51.1432 39.8819C51.1717 41.406 51.143 41.4164 51.143 43.7831H52.143ZM52.143 39.8631C52.0013 39.5236 51.6598 39.3728 51.6538 39.3726C51.6516 39.3726 51.6482 39.3725 51.6466 39.3725C51.6437 39.3724 51.6404 39.3724 51.6373 39.3724C51.6309 39.3724 51.6218 39.3723 51.6104 39.3723C51.5875 39.3722 51.5535 39.3722 51.509 39.3721C51.4199 39.372 51.2879 39.3719 51.1158 39.3718C50.7717 39.3715 50.267 39.3713 49.6247 39.3711C48.3401 39.3707 46.505 39.3704 44.3029 39.3702C39.8988 39.3696 34.0267 39.3694 28.1545 39.3694C22.2824 39.3694 16.4103 39.3696 12.0061 39.3702C9.80409 39.3704 7.96901 39.3707 6.68444 39.3711C6.04217 39.3713 5.53746 39.3715 5.19331 39.3718C5.02125 39.3719 4.88921 39.372 4.80014 39.3721C4.75565 39.3722 4.72167 39.3722 4.69873 39.3723C4.68733 39.3723 4.67825 39.3724 4.67182 39.3724C4.66877 39.3724 4.66548 39.3724 4.66259 39.3725C4.66093 39.3725 4.65757 39.3726 4.65533 39.3726C4.64933 39.3728 4.30232 39.5294 4.16612 39.8792L5.16603 39.8658C5.02982 40.2155 4.68317 40.3722 4.67789 40.3723C4.67636 40.3724 4.67407 40.3724 4.67385 40.3724C4.67381 40.3724 4.6748 40.3724 4.67743 40.3724C4.68239 40.3724 4.69032 40.3723 4.70151 40.3723C4.72372 40.3722 4.75712 40.3722 4.80151 40.3721C4.89021 40.372 5.02196 40.3719 5.19397 40.3718C5.53794 40.3715 6.0425 40.3713 6.68475 40.3711C7.96922 40.3707 9.80422 40.3704 12.0063 40.3702C16.4103 40.3696 22.2824 40.3694 28.1545 40.3694C34.0266 40.3694 39.8988 40.3696 44.3028 40.3702C46.5049 40.3704 48.3399 40.3707 49.6244 40.3711C50.2666 40.3713 50.7712 40.3715 51.1152 40.3718C51.2872 40.3719 51.4189 40.372 51.5076 40.3721C51.552 40.3722 51.5854 40.3722 51.6076 40.3723C51.6188 40.3723 51.6268 40.3724 51.6317 40.3724C51.6344 40.3724 51.6353 40.3724 51.6353 40.3724C51.6351 40.3724 51.6328 40.3724 51.6313 40.3723C51.626 40.3722 51.2849 40.2213 51.1432 39.8819L52.143 39.8631ZM4.16602 43.7831C4.16604 44.4578 4.33616 44.9971 4.61704 45.4184C4.89582 45.8366 5.26395 46.1091 5.61686 46.2856C5.96782 46.461 6.31272 46.5463 6.56567 46.5884C6.69333 46.6097 6.8008 46.6206 6.87832 46.6261C6.91716 46.6289 6.94873 46.6303 6.97183 46.6311C6.98339 46.6315 6.99285 46.6317 7.00006 46.6318C7.00367 46.6319 7.00672 46.6319 7.0092 46.6319C7.01043 46.6319 7.01152 46.6319 7.01247 46.6319C7.01294 46.6319 7.01338 46.6319 7.01378 46.6319C7.01398 46.6319 7.01425 46.6319 7.01435 46.6319C7.01461 46.6319 7.01487 46.632 7.01487 46.132C7.01487 45.632 7.0151 45.632 7.01533 45.632C7.01539 45.632 7.01561 45.632 7.01574 45.632C7.016 45.632 7.01622 45.632 7.01641 45.632C7.01678 45.632 7.01702 45.632 7.01713 45.632C7.01735 45.632 7.01703 45.632 7.01619 45.6319C7.01452 45.6319 7.01079 45.6318 7.00515 45.6317C6.99384 45.6313 6.97495 45.6304 6.94957 45.6286C6.89864 45.625 6.82261 45.6175 6.73007 45.6021C6.54262 45.5708 6.30033 45.5093 6.06408 45.3911C5.8298 45.274 5.61071 45.1061 5.44908 44.8637C5.28954 44.6244 5.16603 44.2828 5.16602 43.7831L4.16602 43.7831ZM49.2942 46.132C49.2942 46.632 49.2944 46.6319 49.2947 46.6319C49.2948 46.6319 49.2951 46.6319 49.2953 46.6319C49.2957 46.6319 49.2961 46.6319 49.2966 46.6319C49.2975 46.6319 49.2986 46.6319 49.2998 46.6319C49.3023 46.6319 49.3054 46.6319 49.309 46.6318C49.3162 46.6317 49.3256 46.6315 49.3372 46.6311C49.3603 46.6303 49.3919 46.6289 49.4307 46.6261C49.5082 46.6206 49.6157 46.6097 49.7434 46.5884C49.9963 46.5463 50.3412 46.461 50.6922 46.2856C51.0451 46.1091 51.4133 45.8366 51.692 45.4184C51.9729 44.9971 52.143 44.4578 52.143 43.7831H51.143C51.143 44.2828 51.0195 44.6244 50.86 44.8637C50.6984 45.1061 50.4793 45.274 50.245 45.3911C50.0087 45.5093 49.7664 45.5708 49.579 45.6021C49.4864 45.6175 49.4104 45.625 49.3595 45.6286C49.3341 45.6304 49.3152 45.6313 49.3039 45.6317C49.2982 45.6318 49.2945 45.6319 49.2928 45.6319C49.292 45.632 49.2917 45.632 49.2919 45.632C49.292 45.632 49.2923 45.632 49.2926 45.632C49.2928 45.632 49.293 45.632 49.2933 45.632C49.2934 45.632 49.2936 45.632 49.2937 45.632C49.2939 45.632 49.2942 45.632 49.2942 46.132ZM7.01487 46.632H28.1545V45.632H7.01487V46.632ZM28.1545 46.632H49.2942V45.632H28.1545V46.632Z" fill="#D68843"/>
<path d="M32.8517 42.2214V42.7214H32.9196L32.985 42.7033L32.8517 42.2214ZM21.1074 39.8726C20.6297 40.0203 20.6298 40.0203 20.6298 40.0204C20.6298 40.0204 20.6298 40.0205 20.6298 40.0206C20.6299 40.0207 20.6299 40.0208 20.6299 40.0209C20.63 40.0212 20.6301 40.0216 20.6303 40.022C20.6305 40.0229 20.6309 40.024 20.6313 40.0254C20.6322 40.0282 20.6334 40.032 20.635 40.0369C20.6381 40.0466 20.6425 40.0604 20.6482 40.0778C20.6595 40.1125 20.676 40.1617 20.6971 40.2218C20.7391 40.3416 20.8 40.5066 20.8757 40.6869C21.017 41.0235 21.2441 41.4993 21.5368 41.792L22.2439 41.0849C22.1043 40.9453 21.9398 40.6381 21.7977 40.2998C21.7318 40.1427 21.678 39.9973 21.6408 39.891C21.6222 39.8381 21.608 39.7954 21.5985 39.7665C21.5937 39.752 21.5902 39.741 21.588 39.7339C21.5868 39.7304 21.586 39.7278 21.5855 39.7263C21.5853 39.7255 21.5851 39.725 21.5851 39.7247C21.585 39.7246 21.585 39.7246 21.585 39.7246C21.585 39.7246 21.585 39.7246 21.585 39.7247C21.5851 39.7247 21.5851 39.7247 21.5851 39.7247C21.5851 39.7248 21.5851 39.7248 21.1074 39.8726ZM21.5368 41.792C21.9894 42.2446 22.4504 42.4784 22.8088 42.5979C22.9872 42.6573 23.1391 42.6882 23.251 42.7042C23.307 42.7122 23.3532 42.7165 23.3878 42.7188C23.4052 42.7199 23.4197 42.7206 23.4312 42.721C23.4369 42.7211 23.4419 42.7213 23.4461 42.7213C23.4482 42.7214 23.4501 42.7214 23.4518 42.7214C23.4526 42.7214 23.4534 42.7214 23.4542 42.7214C23.4545 42.7214 23.4549 42.7214 23.4553 42.7214C23.4554 42.7214 23.4557 42.7214 23.4558 42.7214C23.456 42.7214 23.4563 42.7214 23.4563 42.2214C23.4563 41.7214 23.4565 41.7214 23.4568 41.7214C23.4568 41.7214 23.4571 41.7214 23.4572 41.7214C23.4575 41.7214 23.4578 41.7214 23.4581 41.7214C23.4587 41.7214 23.4592 41.7214 23.4596 41.7214C23.4606 41.7214 23.4613 41.7214 23.4619 41.7215C23.4631 41.7215 23.4636 41.7215 23.4634 41.7215C23.463 41.7215 23.4599 41.7214 23.4544 41.721C23.4432 41.7202 23.4221 41.7184 23.3924 41.7142C23.333 41.7057 23.2403 41.6876 23.125 41.6492C22.8963 41.573 22.5743 41.4153 22.2439 41.0849L21.5368 41.792ZM23.4563 42.7214H32.8517V41.7214H23.4563V42.7214ZM32.8517 42.2214C32.985 42.7033 32.9851 42.7033 32.9852 42.7033C32.9852 42.7033 32.9853 42.7032 32.9853 42.7032C32.9855 42.7032 32.9856 42.7031 32.9858 42.7031C32.9861 42.703 32.9865 42.7029 32.9869 42.7028C32.9878 42.7025 32.989 42.7022 32.9904 42.7018C32.9933 42.701 32.9972 42.6999 33.002 42.6985C33.0117 42.6957 33.0253 42.6917 33.0424 42.6866C33.0765 42.6764 33.1247 42.6616 33.1837 42.6423C33.3011 42.6039 33.4633 42.5473 33.6425 42.4741C33.9825 42.3351 34.4543 42.1088 34.7711 41.792L34.064 41.0849C33.8974 41.2515 33.5862 41.4168 33.2642 41.5484C33.1124 41.6104 32.9737 41.6589 32.873 41.6918C32.8229 41.7082 32.7828 41.7205 32.7559 41.7286C32.7424 41.7326 32.7323 41.7355 32.7259 41.7374C32.7227 41.7383 32.7204 41.7389 32.7191 41.7393C32.7185 41.7395 32.7181 41.7396 32.718 41.7396C32.7179 41.7396 32.7179 41.7396 32.718 41.7396C32.718 41.7396 32.718 41.7396 32.7181 41.7396C32.7181 41.7396 32.7182 41.7396 32.7182 41.7396C32.7183 41.7395 32.7183 41.7395 32.8517 42.2214ZM34.7711 41.792C34.9085 41.6546 35.0275 41.4616 35.1206 41.292C35.2195 41.1117 35.3134 40.9119 35.3933 40.7302C35.4736 40.5474 35.5426 40.3765 35.5914 40.2517C35.6158 40.1891 35.6353 40.1377 35.6489 40.1016C35.6557 40.0835 35.6609 40.0692 35.6646 40.0593C35.6664 40.0544 35.6678 40.0505 35.6688 40.0477C35.6693 40.0464 35.6697 40.0453 35.67 40.0445C35.6702 40.0441 35.6703 40.0438 35.6704 40.0436C35.6704 40.0434 35.6705 40.0433 35.6705 40.0432C35.6705 40.0432 35.6705 40.0432 35.6705 40.0431C35.6705 40.0431 35.6706 40.043 35.2005 39.8726C34.7305 39.7021 34.7305 39.702 34.7305 39.702C34.7305 39.702 34.7305 39.702 34.7305 39.702C34.7305 39.702 34.7305 39.702 34.7305 39.702C34.7305 39.7021 34.7304 39.7022 34.7304 39.7024C34.7302 39.7028 34.73 39.7035 34.7296 39.7044C34.7289 39.7064 34.7278 39.7094 34.7263 39.7136C34.7232 39.7218 34.7186 39.7343 34.7125 39.7505C34.7004 39.7829 34.6825 39.83 34.6599 39.8879C34.6146 40.0039 34.551 40.1613 34.4778 40.3278C34.4041 40.4954 34.3234 40.6661 34.2439 40.811C34.1585 40.9666 34.0953 41.0536 34.064 41.0849L34.7711 41.792Z" fill="#D68843"/>
<path d="M7.0141 12.4692L7.5141 12.4692L7.5141 12.4503L7.51267 12.4315L7.0141 12.4692ZM10.9285 9.33741L10.9043 9.83682L10.9164 9.83741H10.9285V9.33741ZM45.3783 9.33741V9.83741H45.3904L45.4025 9.83682L45.3783 9.33741ZM49.293 13.2522L48.7936 13.228L48.793 13.2401V13.2522H49.293ZM7.51371 39.8725L7.5141 12.4692L6.5141 12.4692L6.51371 39.8725L7.51371 39.8725ZM7.0141 12.4692C7.51267 12.4315 7.51268 12.4316 7.5127 12.4318C7.5127 12.4318 7.51271 12.4319 7.51272 12.432C7.51273 12.4322 7.51274 12.4323 7.51275 12.4325C7.51277 12.4327 7.51278 12.4329 7.51279 12.433C7.5128 12.4331 7.51278 12.433 7.51275 12.4325C7.51269 12.4315 7.51254 12.4291 7.51235 12.4256C7.51196 12.4184 7.51138 12.4062 7.51087 12.3895C7.50984 12.3561 7.5091 12.3048 7.51067 12.2395C7.51381 12.1083 7.52619 11.924 7.56292 11.716C7.63797 11.2911 7.80543 10.8181 8.14992 10.4742L7.4434 9.76651C6.89497 10.314 6.67116 11.0155 6.57816 11.5421C6.53086 11.8099 6.51502 12.0457 6.51095 12.2156C6.50891 12.3008 6.50981 12.3704 6.51134 12.4201C6.5121 12.445 6.51302 12.4651 6.51381 12.4797C6.51421 12.487 6.51457 12.493 6.51487 12.4975C6.51502 12.4998 6.51515 12.5017 6.51526 12.5033C6.51532 12.5041 6.51537 12.5048 6.51541 12.5054C6.51543 12.5057 6.51546 12.506 6.51547 12.5063C6.51548 12.5064 6.5155 12.5066 6.5155 12.5066C6.51552 12.5068 6.51553 12.507 7.0141 12.4692ZM8.14992 10.4742C8.29931 10.3251 8.52868 10.1966 8.82508 10.0948C9.1175 9.99444 9.44486 9.93024 9.75971 9.8907C10.0728 9.85137 10.3619 9.83786 10.5731 9.83432C10.6783 9.83255 10.7631 9.83327 10.8208 9.83439C10.8496 9.83495 10.8715 9.83561 10.8857 9.83611C10.8929 9.83635 10.898 9.83656 10.9011 9.83669C10.9027 9.83675 10.9038 9.8368 10.9043 9.83683C10.9045 9.83684 10.9047 9.83684 10.9047 9.83684C10.9047 9.83684 10.9046 9.83684 10.9046 9.83684C10.9045 9.83684 10.9045 9.83683 10.9044 9.83683C10.9044 9.83683 10.9043 9.83682 10.9285 9.33741C10.9527 8.838 10.9526 8.83799 10.9524 8.83798C10.9524 8.83798 10.9523 8.83798 10.9522 8.83797C10.9519 8.83796 10.9517 8.83795 10.9514 8.83794C10.9509 8.83791 10.9502 8.83788 10.9494 8.83784C10.9478 8.83777 10.9456 8.83767 10.9429 8.83756C10.9375 8.83734 10.93 8.83704 10.9205 8.83671C10.9014 8.83605 10.8744 8.83525 10.8402 8.83458C10.772 8.83325 10.6749 8.83247 10.5563 8.83446C10.3198 8.83843 9.9933 8.85351 9.6351 8.89849C9.27861 8.94326 8.87883 9.01908 8.50033 9.14905C8.12581 9.27765 7.74047 9.46994 7.4434 9.76651L8.14992 10.4742ZM10.9285 9.83741H45.3783V8.83741H10.9285V9.83741ZM45.3783 9.33741C45.4025 9.83682 45.4024 9.83683 45.4023 9.83683C45.4023 9.83683 45.4022 9.83684 45.4022 9.83684C45.4021 9.83684 45.4021 9.83684 45.4021 9.83684C45.402 9.83684 45.4022 9.83684 45.4024 9.83683C45.403 9.8368 45.404 9.83676 45.4056 9.83669C45.4087 9.83656 45.4139 9.83635 45.421 9.83611C45.4352 9.83561 45.4572 9.83495 45.486 9.83439C45.5437 9.83327 45.6286 9.83255 45.7339 9.83432C45.9452 9.83786 46.2344 9.85137 46.5476 9.8907C46.8625 9.93024 47.1899 9.99444 47.4822 10.0948C47.7786 10.1966 48.0076 10.325 48.1565 10.4739L48.8636 9.76681C48.5668 9.47001 48.1815 9.27766 47.8071 9.14906C47.4286 9.01908 47.0287 8.94326 46.6722 8.89849C46.3139 8.85351 45.9872 8.83843 45.7506 8.83446C45.6319 8.83247 45.5349 8.83325 45.4666 8.83458C45.4324 8.83525 45.4053 8.83605 45.3863 8.83671C45.3768 8.83704 45.3693 8.83733 45.3639 8.83756C45.3612 8.83767 45.359 8.83777 45.3574 8.83784C45.3565 8.83788 45.3559 8.83791 45.3553 8.83794C45.355 8.83795 45.3548 8.83796 45.3546 8.83797C45.3545 8.83797 45.3544 8.83798 45.3543 8.83798C45.3542 8.83799 45.3541 8.83799 45.3783 9.33741ZM48.1565 10.4739C48.3054 10.6228 48.4338 10.8519 48.5356 11.1482C48.636 11.4405 48.7002 11.7679 48.7397 12.0828C48.7791 12.3961 48.7926 12.6852 48.7961 12.8966C48.7979 13.0018 48.7972 13.0867 48.796 13.1444C48.7955 13.1733 48.7948 13.1952 48.7943 13.2094C48.7941 13.2166 48.7939 13.2217 48.7937 13.2249C48.7937 13.2264 48.7936 13.2275 48.7936 13.228C48.7936 13.2283 48.7936 13.2284 48.7936 13.2284C48.7936 13.2284 48.7936 13.2283 48.7936 13.2283C48.7936 13.2282 48.7936 13.2282 48.7936 13.2282C48.7936 13.2281 48.7936 13.228 49.293 13.2522C49.7924 13.2763 49.7924 13.2762 49.7924 13.2761C49.7925 13.2761 49.7925 13.2759 49.7925 13.2758C49.7925 13.2756 49.7925 13.2754 49.7925 13.2751C49.7925 13.2746 49.7926 13.2739 49.7926 13.2731C49.7927 13.2714 49.7928 13.2693 49.7929 13.2666C49.7931 13.2612 49.7934 13.2536 49.7937 13.2441C49.7944 13.2251 49.7952 13.1981 49.7959 13.1639C49.7972 13.0956 49.798 12.9985 49.796 12.8798C49.792 12.6432 49.7769 12.3166 49.7319 11.9583C49.6872 11.6017 49.6114 11.2018 49.4814 10.8234C49.3528 10.4489 49.1604 10.0636 48.8636 9.76681L48.1565 10.4739ZM48.793 13.2522V39.0895H49.793V13.2522H48.793Z" fill="#D68843"/>
<rect x="28.2246" y="15.6899" width="1.44902" height="10.8616" rx="0.724511" transform="rotate(49.0617 28.2246 15.6899)" fill="#D68843"/>
<rect x="36.0215" y="17.4678" width="1.52556" height="22.3832" rx="0.762779" transform="rotate(48.6421 36.0215 17.4678)" fill="#D68843"/>
</svg>
