<svg width="56" height="56" viewBox="0 0 56 56" fill="none" xmlns="http://www.w3.org/2000/svg">
<circle cx="31.6727" cy="28.245" r="18.8842" stroke="#D68843" stroke-width="0.912908" stroke-linecap="square"/>
<path d="M31.5742 19.3352L31.5742 28.5471H37.3011" stroke="#D68843" stroke-width="0.912908" stroke-linecap="square"/>
<path d="M31.5742 11.6572L31.5742 14.7401" stroke="#D68843" stroke-width="0.912908" stroke-linecap="square"/>
<path d="M31.5742 41.3567L31.5742 44.4395" stroke="#D68843" stroke-width="0.912908" stroke-linecap="square"/>
<path d="M15.1797 28.0483L18.2625 28.0483" stroke="#D68843" stroke-width="0.912908" stroke-linecap="square"/>
<path d="M44.8809 28.0483L47.9637 28.0483" stroke="#D68843" stroke-width="0.912908" stroke-linecap="square"/>
<path d="M19.9844 16.458L22.1643 18.6379" stroke="#D68843" stroke-width="0.912908" stroke-linecap="square"/>
<path d="M40.9844 37.459L43.1643 39.6389" stroke="#D68843" stroke-width="0.912908" stroke-linecap="square"/>
<path d="M19.9844 39.6392L22.1643 37.4593" stroke="#D68843" stroke-width="0.912908" stroke-linecap="square"/>
<path d="M40.9844 18.6379L43.1643 16.458" stroke="#D68843" stroke-width="0.912908" stroke-linecap="square"/>
<path d="M40.4785 8L46.4237 11.6572" stroke="#D68843" stroke-width="0.912908"/>
<path d="M22.1641 8L16.2189 11.6572" stroke="#D68843" stroke-width="0.912908"/>
<path d="M13.7731 21.9414H7.52344" stroke="#D68843" stroke-width="0.912908"/>
<path d="M13.2929 32.0371H6.5625" stroke="#D68843" stroke-width="0.912908"/>
<path d="M13.2937 27.2297L1.75586 27.2297" stroke="#D68843" stroke-width="0.912908"/>
<path d="M15.2155 36.8445L3.67773 36.8445" stroke="#D68843" stroke-width="0.912908"/>
</svg>
