<svg width="56" height="56" viewBox="0 0 56 56" fill="none" xmlns="http://www.w3.org/2000/svg">
<path d="M45 27.9999C45 37.0507 37.405 44.4166 28 44.4166C18.595 44.4166 11 37.0507 11 27.9999C11 18.9491 18.595 11.5833 28 11.5833C37.405 11.5833 45 18.9491 45 27.9999Z" stroke="#D68843" stroke-linecap="round" stroke-linejoin="round"/>
<path d="M39.1654 28C39.1654 33.8211 34.1904 38.5833 27.9987 38.5833C21.807 38.5833 16.832 33.8211 16.832 28C16.832 22.1788 21.807 17.4166 27.9987 17.4166C34.1904 17.4166 39.1654 22.1788 39.1654 28Z" stroke="#D68843" stroke-linecap="round" stroke-linejoin="round"/>
<path d="M32.7432 27.9999C32.7432 30.6192 30.6198 32.7426 28.0005 32.7426C25.3812 32.7426 23.2578 30.6192 23.2578 27.9999C23.2578 25.3806 25.3812 23.2572 28.0005 23.2572C30.6198 23.2572 32.7432 25.3806 32.7432 27.9999Z" stroke="#D68843" stroke-linecap="round" stroke-linejoin="round"/>
<path d="M28.3438 27.7392L42.452 13.6307M42.452 13.6307V9.7286L48.1556 4.02502L48.4834 7.59936L51.8163 7.68581L46.0683 13.4339L42.452 13.6307Z" stroke="#D68843" stroke-linecap="round" stroke-linejoin="round"/>
<path fill-rule="evenodd" clip-rule="evenodd" d="M42.4513 10.7961V9.72866L42.5744 9.60555C38.5711 6.42912 33.5067 4.53198 27.9993 4.53198C15.0382 4.53198 4.53125 15.039 4.53125 28C4.53125 40.961 15.0382 51.468 27.9993 51.468C40.9603 51.468 51.4673 40.961 51.4673 28C51.4673 22.4115 49.5139 17.2793 46.2527 13.2488L46.0676 13.4339L45.1491 13.4839C48.4666 17.3994 50.4673 22.4661 50.4673 28C50.4673 40.4087 40.408 50.468 27.9993 50.468C15.5905 50.468 5.53125 40.4087 5.53125 28C5.53125 15.5913 15.5905 5.53198 27.9993 5.53198C33.5031 5.53198 38.5447 7.51095 42.4513 10.7961Z" fill="#D68843"/>
</svg>
