<svg width="56" height="56" viewBox="0 0 56 56" fill="none" xmlns="http://www.w3.org/2000/svg">
<path d="M28 16.6025L30.1337 19.5491L30.2295 19.6814L30.3849 19.7316L33.8466 20.8503L31.7036 23.7901L31.6074 23.9221L31.6076 24.0854L31.6134 27.7234L28.1553 26.5937L28 26.543L27.8447 26.5937L24.3866 27.7234L24.3924 24.0854L24.3926 23.9221L24.2964 23.7901L22.1534 20.8503L25.6151 19.7316L25.7705 19.6814L25.8663 19.5491L28 16.6025Z" stroke="#D68843"/>
<path d="M25.5764 5.71089C26.9623 4.49334 29.0364 4.49334 30.4223 5.71089C31.5154 6.6713 32.9937 7.0674 34.4206 6.78224C36.2295 6.42072 38.0258 7.4578 38.6172 9.20515C39.0837 10.5835 40.1659 11.6656 41.5442 12.1321C43.2915 12.7235 44.3286 14.5198 43.9671 16.3287C43.6819 17.7556 44.078 19.2339 45.0384 20.327C46.256 21.7129 46.256 23.787 45.0384 25.1729C44.078 26.266 43.6819 27.7443 43.9671 29.1712C44.3286 30.9801 43.2915 32.7764 41.5442 33.3678C40.1659 33.8343 39.0837 34.9165 38.6172 36.2948C38.0258 38.0421 36.2295 39.0792 34.4206 38.7177C32.9937 38.4325 31.5154 38.8286 30.4223 39.789C29.0364 41.0066 26.9623 41.0066 25.5764 39.789C24.4833 38.8286 23.005 38.4325 21.5781 38.7177C19.7692 39.0792 17.9729 38.0421 17.3815 36.2948C16.915 34.9165 15.8328 33.8343 14.4545 33.3678C12.7072 32.7764 11.6701 30.9801 12.0316 29.1712C12.3168 27.7443 11.9207 26.266 10.9603 25.1729C9.74273 23.787 9.74273 21.7129 10.9603 20.327C11.9207 19.2339 12.3168 17.7556 12.0316 16.3287C11.6701 14.5198 12.7072 12.7235 14.4545 12.1321C15.8328 11.6656 16.915 10.5835 17.3815 9.20515C17.9729 7.4578 19.7692 6.42072 21.5781 6.78224C23.005 7.0674 24.4833 6.6713 25.5764 5.71089Z" stroke="#D68843"/>
<path d="M16.4258 34.6036L9.3323 46.8899L16.4258 46.2703L19.4359 52.7232L26.4758 40.5298" stroke="#D68843" stroke-linecap="round" stroke-linejoin="round"/>
<path d="M28.7831 40.4408L35.8743 52.7232L38.8845 46.2702L45.978 46.8898L39.1133 34.9999" stroke="#D68843" stroke-linecap="round" stroke-linejoin="round"/>
<path d="M40.3327 22.75C40.3327 29.5615 34.8109 35.0833 27.9993 35.0833C21.1878 35.0833 15.666 29.5615 15.666 22.75C15.666 15.9384 21.1878 10.4166 27.9993 10.4166C34.8109 10.4166 40.3327 15.9384 40.3327 22.75Z" stroke="#D68843"/>
</svg>
