<svg width="56" height="56" viewBox="0 0 56 56" fill="none" xmlns="http://www.w3.org/2000/svg">
<g clip-path="url(#clip0_2172_37799)">
<path d="M9.98177 5.98344L16.4823 12.484L14.6521 14.3142M14.5835 39.4773L9.66314 34.6465C8.04107 33.054 7.45824 30.6816 8.15775 28.5187L8.4041 27.757L4.42818 24.5381L14.6521 14.3142M14.6521 14.3142L18.2495 17.9116L22.7387 17.9579C23.7852 17.9687 24.7859 18.3892 25.5259 19.1293L26.0754 19.6788M46.0196 6.17206L39.8346 12.3571L41.6648 14.1873M40.8339 39.8746L44.2681 36.7378C45.885 35.261 46.9079 33.2454 47.1454 31.0686L47.5342 27.504L51.7628 24.2853L41.6648 14.1873M41.6648 14.1873L37.9412 17.9109L35.5123 17.8623C33.0149 17.8124 30.5893 18.6989 28.7126 20.3475L20.2067 27.8195L21.2396 28.8525C23.0807 30.6936 26.0265 30.8136 28.0113 29.1284L31.1882 26.4311L32.6385 27.8814C34.5911 29.834 37.757 29.834 39.7096 27.8814L42.1697 25.4213" stroke="#D68843" stroke-linecap="square" stroke-linejoin="round"/>
<rect x="13.543" y="40.1954" width="12.3835" height="4.54685" rx="2.27343" transform="rotate(-45 13.543 40.1954)" stroke="#D68843" stroke-linecap="round" stroke-linejoin="round"/>
<rect x="16.6466" y="43.3026" width="15.6913" height="4.54685" rx="2.27343" transform="rotate(-45 16.6466 43.3026)" stroke="#D68843" stroke-linecap="round" stroke-linejoin="round"/>
<rect x="19.7559" y="46.4097" width="12.3835" height="4.54685" rx="2.27343" transform="rotate(-45 19.7559 46.4097)" stroke="#D68843" stroke-linecap="round" stroke-linejoin="round"/>
<rect x="23.9493" y="48.4296" width="8.60859" height="4.54685" rx="2.27343" transform="rotate(-45 23.9493 48.4296)" stroke="#D68843" stroke-linecap="round" stroke-linejoin="round"/>
<path d="M29.7222 29.5606L41.6227 41.4611C42.42 42.2584 42.4201 43.5511 41.6227 44.3485V44.3485C40.8254 45.1458 39.5327 45.1458 38.7354 44.3485L32.2782 37.8912" stroke="#D68843" stroke-linecap="round" stroke-linejoin="round"/>
<path d="M32.1104 37.7272L39.0153 44.6321C39.8126 45.4295 39.8126 46.7222 39.0153 47.5195V47.5195C38.218 48.3168 36.9253 48.3168 36.128 47.5195L33.3357 44.7272" stroke="#D68843" stroke-linecap="round" stroke-linejoin="round"/>
<path d="M34.2826 45.7324L35.7262 47.1761C36.5236 47.9734 36.5236 49.2661 35.7262 50.0634V50.0634C34.9289 50.8607 33.6362 50.8607 32.8389 50.0634L31.111 48.3355" stroke="#D68843" stroke-linecap="round" stroke-linejoin="round"/>
<path d="M30.9454 48.2273L31.6872 48.9691C32.4845 49.7664 32.4845 51.0591 31.6872 51.8564V51.8564C30.8898 52.6538 29.5971 52.6538 28.7998 51.8564L28.0873 51.1439" stroke="#D68843" stroke-linecap="round" stroke-linejoin="round"/>
</g>
<defs>
<clipPath id="clip0_2172_37799">
<rect width="56" height="56" fill="white"/>
</clipPath>
</defs>
</svg>
