<svg width="56" height="56" viewBox="0 0 56 56" fill="none" xmlns="http://www.w3.org/2000/svg">
<mask id="path-1-inside-1_2172_37811" fill="white">
<path fill-rule="evenodd" clip-rule="evenodd" d="M17.4327 10.1403C14.8011 12.7719 14.8011 17.0386 17.4327 19.6702L27.9345 30.172L27.936 30.1705L27.9376 30.172L38.4394 19.6702C41.071 17.0386 41.071 12.7719 38.4394 10.1403C35.8078 7.50872 31.5411 7.50873 28.9095 10.1403L27.936 11.1138L26.9626 10.1403C24.331 7.50873 20.0643 7.50872 17.4327 10.1403Z"/>
</mask>
<path d="M17.4327 19.6702L16.7256 20.3773L17.4327 19.6702ZM17.4327 10.1403L16.7256 9.43322L17.4327 10.1403ZM27.9345 30.172L27.2274 30.8791L27.9345 31.5862L28.6416 30.8791L27.9345 30.172ZM27.936 30.1705L28.6431 29.4634L27.936 28.7563L27.2289 29.4634L27.936 30.1705ZM27.9376 30.172L27.2305 30.8791L27.9376 31.5862L28.6447 30.8791L27.9376 30.172ZM38.4394 19.6702L37.7323 18.9631V18.9631L38.4394 19.6702ZM38.4394 10.1403L37.7323 10.8474V10.8474L38.4394 10.1403ZM28.9095 10.1403L29.6166 10.8474L28.9095 10.1403ZM27.936 11.1138L27.2289 11.8209L27.936 12.528L28.6431 11.8209L27.936 11.1138ZM26.9626 10.1403L27.6697 9.43322V9.43322L26.9626 10.1403ZM18.1398 18.9631C15.8987 16.722 15.8987 13.0885 18.1398 10.8474L16.7256 9.43322C13.7035 12.4554 13.7035 17.3552 16.7256 20.3773L18.1398 18.9631ZM28.6416 29.4649L18.1398 18.9631L16.7256 20.3773L27.2274 30.8791L28.6416 29.4649ZM27.2289 29.4634L27.2274 29.4649L28.6416 30.8791L28.6431 30.8776L27.2289 29.4634ZM27.2289 30.8776L27.2305 30.8791L28.6447 29.4649L28.6431 29.4634L27.2289 30.8776ZM28.6447 30.8791L39.1465 20.3773L37.7323 18.9631L27.2305 29.4649L28.6447 30.8791ZM39.1465 20.3773C42.1686 17.3552 42.1686 12.4554 39.1465 9.43322L37.7323 10.8474C39.9734 13.0885 39.9734 16.722 37.7323 18.9631L39.1465 20.3773ZM39.1465 9.43322C36.1244 6.41109 31.2245 6.4111 28.2024 9.43322L29.6166 10.8474C31.8577 8.60636 35.4912 8.60636 37.7323 10.8474L39.1465 9.43322ZM28.2024 9.43322L27.2289 10.4067L28.6431 11.8209L29.6166 10.8474L28.2024 9.43322ZM26.2555 10.8474L27.2289 11.8209L28.6431 10.4067L27.6697 9.43322L26.2555 10.8474ZM18.1398 10.8474C20.3809 8.60636 24.0144 8.60636 26.2555 10.8474L27.6697 9.43322C24.6475 6.4111 19.7477 6.41109 16.7256 9.43322L18.1398 10.8474Z" fill="#D68843" mask="url(#path-1-inside-1_2172_37811)"/>
<path d="M15.5933 35.8071L9.30235 29.5161C8.42133 28.6351 8.42133 27.2067 9.30236 26.3257V26.3257C10.1834 25.4446 11.6118 25.4446 12.4928 26.3257L22.469 36.3018C23.0391 36.872 23.3595 37.6453 23.3595 38.4517V48.5103H14.0275V42.8513L6.93284 35.7566C5.48142 34.3052 4.66602 32.3367 4.66602 30.2841V13.5241C4.66602 12.3319 5.63245 11.3655 6.8246 11.3655V11.3655C7.9388 11.3655 8.86993 12.2135 8.97379 13.3229L10.115 25.513" stroke="#D68843" stroke-linecap="round" stroke-linejoin="round"/>
<path d="M39.3442 35.8071L45.6351 29.5161C46.5162 28.6351 46.5162 27.2067 45.6351 26.3257V26.3257C44.7541 25.4446 43.3257 25.4446 42.4447 26.3257L32.4685 36.3018C31.8984 36.872 31.578 37.6453 31.578 38.4517V48.5103H40.91V42.8513L48.0047 35.7566C49.4561 34.3052 50.2715 32.3367 50.2715 30.2841V13.5241C50.2715 12.3319 49.3051 11.3655 48.1129 11.3655V11.3655C46.9987 11.3655 46.0676 12.2135 45.9637 13.3229L44.8225 25.513" stroke="#D68843" stroke-linecap="round" stroke-linejoin="round"/>
</svg>
