<?xml version="1.0" encoding="utf-8"?><svg xmlns="http://www.w3.org/2000/svg" xmlns:xlink="http://www.w3.org/1999/xlink"><symbol viewBox="0 0 24 24" id="arrow-right" xmlns="http://www.w3.org/2000/svg"><path d="M13.5 4.5l-1.072 1.045 5.684 5.705H3v1.5h15.113l-5.685 5.68L13.5 19.5 21 12l-7.5-7.5z"/></symbol><symbol viewBox="0 0 40 8" id="arrow-right-link" xmlns="http://www.w3.org/2000/svg"><path d="M0 4h39.5m0 0l-3-3m3 3l-3 3.5"/></symbol><symbol viewBox="0 0 22 24" id="basket" xmlns="http://www.w3.org/2000/svg"><g clip-path="url(#ca)"><path d="M10.363 18.443a2.046 2.046 0 00-2.045 2.042 2.046 2.046 0 004.09 0 2.046 2.046 0 00-2.045-2.042zm6.134 0a2.046 2.046 0 00-2.045 2.042 2.046 2.046 0 004.089 0 2.046 2.046 0 00-2.044-2.042zm3.978-8.199L7.413 6.891a.614.614 0 00-.75.73L8.67 16.4h-.786L5.482 5.895a.613.613 0 00-.474-.464l-4.27-.882A.614.614 0 00.489 5.75l3.885.802L6.797 17.15a.613.613 0 00.598.477h12.07a.615.615 0 00.607-.53l.858-6.175a.613.613 0 00-.455-.678zm-8.14 3.91a.613.613 0 01-1.227 0v-2.696a.613.613 0 011.227 0v2.696zm2.625 0a.613.613 0 01-1.227 0v-1.88a.613.613 0 011.227 0v1.88zm2.625 0a.613.613 0 01-1.227 0v-1.226a.613.613 0 011.227 0v1.226z"/></g><path fill-rule="evenodd" clip-rule="evenodd" d="M16.268 4.568a2.996 2.996 0 00-1.693-.523c-.627 0-1.21.193-1.693.523-.28-.843-.492-1.752-.492-2.383C12.39.98 13.37 0 14.575 0s2.185.98 2.185 2.185c0 .631-.212 1.54-.492 2.383zm-4.722 2.274l.024.006v-.011l-.024.005zm4.972 1.217c-1.333-.33-2.766-.681-4.129-1.013a2.185 2.185 0 114.129 1.013zm4.436 1.103c-.866-.217-2.155-.538-3.618-.9a2.995 2.995 0 00.243-1.425c.87.18 1.762.45 2.308.765.596.344.969.928 1.067 1.56zM9.869 6.439c-.36-.086-.706-.167-1.03-.243a2.19 2.19 0 01-.376-2.667 2.188 2.188 0 013.147-.7c.098.738.338 1.599.61 2.353a3.01 3.01 0 00-.449.774c-.628.113-1.305.278-1.902.483zm10.124.075a3.43 3.43 0 01-.217.114c-.696-.295-1.587-.526-2.397-.672a3.01 3.01 0 00-.449-.774c.262-.727.494-1.553.599-2.273.095-.067.189-.128.278-.18a2.188 2.188 0 012.986.8 2.188 2.188 0 01-.8 2.985z"/><defs><clipPath id="ca"><path transform="translate(0 3.064)" d="M0 0h20.936v20.936H0z"/></clipPath></defs></symbol><symbol viewBox="0 0 344.96 344.96" id="check" xmlns="http://www.w3.org/2000/svg"><g data-name="Слой 2"><path class="dcls-1" d="M321.85 86.24l-40-23.11-23.1-40H212.5L172.48 0l-40 23.11H86.24l-23.11 40-40 23.1v46.21L0 172.48l23.11 40v46.21l40 23.11 23.11 40h46.21l40 23.1 40-23.11h46.21l23.11-40 40-23.11V212.5l23.11-40-23.11-40V86.24zM156.91 243.07a16.79 16.79 0 01-23.34 0l-50.45-50.44a16.19 16.19 0 010-22.89l13.35-13.35a16.19 16.19 0 0122.89 0l25.87 25.87 80.34-80.35a16.19 16.19 0 0122.89 0l13.35 13.35a16.19 16.19 0 010 22.89z" data-name="Capa 1"/></g></symbol><symbol viewBox="0 0 16 16" id="chevron-down" xmlns="http://www.w3.org/2000/svg"><path d="M8 11L3 6l.7-.7L8 9.6l4.3-4.3.7.7-5 5z"/></symbol><symbol viewBox="0 0 32 32" id="chevron-left" xmlns="http://www.w3.org/2000/svg"><path d="M10 16L20 6l1.4 1.4-8.6 8.6 8.6 8.6L20 26 10 16z"/></symbol><symbol viewBox="0 0 32 32" id="chevron-right" xmlns="http://www.w3.org/2000/svg"><path d="M22.002 16l-10 10-1.4-1.4 8.6-8.6-8.6-8.6 1.4-1.4 10 10z"/></symbol><symbol viewBox="0 0 24 24" id="facebook" xmlns="http://www.w3.org/2000/svg"><path d="M13.563 21.864h-.5v.585l.578-.092-.078-.493zm0-6.979v-.5h-.5v.5h.5zm2.316 0v.5h.43l.065-.424-.495-.075zm.441-2.89l.494.075.088-.575h-.582v.5zm-.011 0l-.495-.076-.087.576h.582v-.5zm.001-.01l.495.075.087-.575h-.582v.5zm-2.768 0h-.5v.5h.5v-.5zm2.891-3.435v.5h.5v-.5h-.5zm0-2.44h.5v-.414l-.407-.077-.093.492zm-.01-.001h-.5v.416l.41.075.09-.491zm0-.009h.5v-.413l-.406-.078-.094.491zm-5.986 5.885v.5h.5v-.5h-.5zm-2.553 0v-.5h-.5v.5h.5zm0 2.89h-.5v.5h.5v-.5zm.01 0h.5v-.5h-.5v.5zm0 .01h-.5v.5h.5v-.5zm2.543 0h.5v-.5h-.5v.5zm0 6.982l-.078.494.578.09v-.584h-.5zm12.053-9.872C22.49 6.204 17.785 1.5 11.995 1.5v1c5.239 0 9.495 4.256 9.495 9.495h1zm-8.85 10.362c5.017-.794 8.85-5.126 8.85-10.362h-1c0 4.735-3.467 8.656-8.005 9.375l.156.987zm.423-.493v-6.979h-1v6.979h1zm-.5-6.479h2.316v-1h-2.316v1zm2.81-.424l.441-2.89-.988-.152-.44 2.891.988.15zm-.053-3.466h-.011v1h.011v-1zm-.504.414l-.002.01.99.151v-.01l-.988-.15zm-2.274.576h2.768v-1h-2.768v1zm.5-.5v-1.866h-1v1.866h1zm0-1.866c0-.319.082-.579.232-.753.14-.16.399-.316.908-.316v-1c-.73 0-1.292.234-1.662.66-.36.414-.478.938-.478 1.409h1zm1.14-1.069h1.251v-1h-1.25v1zm1.751-.5V6.11h-1v2.44h1zm-.5-2.44l.093-.49-.001-.001h-.003l-.008-.002-.181.983.006.002h.001l.093-.491zm-.51-.01v.009h1V6.1h-1zm-1.724.285c.519 0 1.052.051 1.46.104a14.26 14.26 0 01.66.1l.009.002h.001l.094-.49.094-.492h-.002a.199.199 0 01-.014-.003 6.868 6.868 0 00-.19-.033 15.247 15.247 0 00-.525-.076c-.43-.055-1.01-.112-1.587-.112v1zm-3.262 3.396c0-1.152.34-1.987.882-2.534.543-.547 1.344-.862 2.38-.862v-1c-1.24 0-2.32.382-3.09 1.158-.77.775-1.173 1.888-1.173 3.238h1zm0 2.204V9.78h-1v2.204h1zm-3.053.5h2.553v-1H7.884v1zm.5 2.39v-2.89h-1v2.89h1zm-.49-.5h-.01v1h.01v-1zm-.5.5v.01h1v-.01h-1zm.5.51h2.543v-1H7.894v1zm3.043 6.482v-6.982h-1v6.982h1zM1.5 11.995c0 5.243 3.843 9.58 8.86 10.366l.154-.988C5.976 20.662 2.5 16.737 2.5 11.995h-1zM11.995 1.5C6.203 1.5 1.5 6.204 1.5 11.995h1c0-5.24 4.256-9.495 9.495-9.495v-1z"/></symbol><symbol viewBox="0 0 24 24" id="fb" xmlns="http://www.w3.org/2000/svg"><path d="M13.397 20.997v-8.196h2.765l.411-3.209h-3.176V7.548c0-.926.258-1.56 1.587-1.56h1.684v-2.86A22.108 22.108 0 0014.201 3c-2.444 0-4.122 1.492-4.122 4.231v2.355H7.332v3.21h2.753v8.201h3.312z"/></symbol><symbol viewBox="0 0 24 24" id="instagram" xmlns="http://www.w3.org/2000/svg"><path clip-rule="evenodd" d="M4.331 2h15.338c1.058 0 1.917.858 1.917 1.917v15.338a1.917 1.917 0 01-1.917 1.917H4.33a1.917 1.917 0 01-1.917-1.917V3.917A1.918 1.918 0 014.33 2z"/><circle cx="12" cy="11.586" r="4.793"/><circle cx="18.231" cy="5.355" r="1.438"/></symbol><symbol viewBox="0 0 24 24" id="linkedin" xmlns="http://www.w3.org/2000/svg"><path d="M3.478 2.51c-.55 0-.969.428-.969.923v17.134c0 .495.419.924.969.924h17.044c.55 0 .968-.429.968-.924V3.433c0-.495-.418-.924-.968-.924H3.478z"/><path d="M14.4 9.375c.954 0 1.87.4 2.545 1.11A3.893 3.893 0 0118 13.165v4.42h-2.4v-4.42c0-.335-.127-.656-.352-.893a1.17 1.17 0 00-.848-.37 1.17 1.17 0 00-.849.37 1.298 1.298 0 00-.351.893v4.42h-2.4v-4.42c0-1.005.379-1.969 1.054-2.68a3.511 3.511 0 012.546-1.11zm-6 .632H6v7.579h2.4v-7.579zM7.2 8.112c.662 0 1.2-.565 1.2-1.263s-.538-1.263-1.2-1.263c-.663 0-1.2.565-1.2 1.263s.537 1.263 1.2 1.263z"/></symbol><symbol viewBox="0 0 24 24" id="search" xmlns="http://www.w3.org/2000/svg"><path fill-rule="evenodd" clip-rule="evenodd" d="M20.47 21.53l-4.5-4.5 1.06-1.06 4.5 4.5-1.06 1.06z"/><path fill-rule="evenodd" clip-rule="evenodd" d="M13.5 6H9a3 3 0 00-3 3v4.5a3 3 0 003 3h4.5a3 3 0 003-3V9a3 3 0 00-3-3zM9 4.5A4.5 4.5 0 004.5 9v4.5A4.5 4.5 0 009 18h4.5a4.5 4.5 0 004.5-4.5V9a4.5 4.5 0 00-4.5-4.5H9z"/></symbol><symbol viewBox="0 0 24 24" id="telegram" xmlns="http://www.w3.org/2000/svg"><path clip-rule="evenodd" d="M17.994 6.502l-1.715 10.286a.422.422 0 01-.214.301.411.411 0 01-.368.02l-3.034-1.239-1.62 1.976a.394.394 0 01-.328.154.361.361 0 01-.148-.027.42.42 0 01-.204-.157.418.418 0 01-.077-.245v-2.337l5.786-7.091-7.159 6.194-2.645-1.085A.393.393 0 016 12.884a.397.397 0 01.215-.395L17.357 6.06a.416.416 0 01.455.013c.148.108.208.25.182.43z"/><path d="M3.478 2.51c-.55 0-.969.428-.969.923v17.134c0 .495.419.924.969.924h17.044c.55 0 .968-.429.968-.924V3.433c0-.495-.418-.924-.968-.924H3.478z"/></symbol><symbol viewBox="0 0 16 16" id="viber" xmlns="http://www.w3.org/2000/svg"><path d="M8 1.335c-1.071.013-3.374.19-4.662 1.37-.958.948-1.292 2.35-1.331 4.084-.033 1.728-.072 4.973 3.058 5.856v1.346s-.02.538.337.648c.438.14.688-.275 1.105-.72l.778-.879c2.142.178 3.782-.232 3.97-.293.435-.139 2.883-.451 3.283-3.696.41-3.351-.2-5.463-1.301-6.418h-.007c-.332-.306-1.668-1.279-4.652-1.29 0 0-.222-.014-.578-.008zm.037.942a7.02 7.02 0 01.488.011c2.527.007 3.732.767 4.017 1.023.927.794 1.405 2.697 1.055 5.495-.332 2.713-2.317 2.885-2.685 3.002-.156.05-1.6.406-3.42.289 0 0-1.356 1.634-1.78 2.055-.067.074-.146.095-.196.085-.071-.018-.093-.107-.089-.229l.013-2.233c-2.655-.733-2.498-3.5-2.47-4.946.033-1.446.304-2.628 1.113-3.43 1.088-.982 3.043-1.115 3.953-1.122zm.2 1.446a.166.166 0 100 .332 3.136 3.136 0 012.242.883c.606.588.9 1.378.912 2.411 0 .092.074.167.167.167V7.51a.167.167 0 00.168-.165 3.588 3.588 0 00-1.009-2.646c-.66-.645-1.496-.977-2.48-.977zm-2.198.382a.523.523 0 00-.342.067H5.69a2.61 2.61 0 00-.637.523 1.003 1.003 0 00-.256.525.71.71 0 00.026.302l.01.006c.172.504.396.988.67 1.444a8.48 8.48 0 001.29 1.762l.015.022.024.017.015.018.017.015c.532.505 1.127.94 1.769 1.295.734.4 1.18.588 1.447.667v.004c.078.024.15.034.221.034.228-.016.444-.109.613-.262a2.53 2.53 0 00.517-.638v-.004c.128-.241.085-.469-.1-.623-.37-.323-.77-.61-1.195-.857-.285-.155-.574-.061-.69.095l-.25.315c-.129.156-.361.134-.361.134l-.007.004C7.093 8.527 6.63 6.772 6.63 6.772s-.022-.239.139-.36l.312-.252c.15-.122.254-.41.094-.695a7.498 7.498 0 00-.856-1.194.475.475 0 00-.28-.167zm2.486.495c-.221 0-.221.334.003.334A2.098 2.098 0 0110 5.572 1.94 1.94 0 0110.5 7a.168.168 0 00.167.165l.007.009a.169.169 0 00.167-.167c.015-.662-.191-1.218-.595-1.663C9.84 4.9 9.273 4.65 8.549 4.6h-.024zm.274.898c-.228-.006-.236.335-.01.341.55.029.816.306.851.877a.166.166 0 00.165.163h.007a.168.168 0 00.16-.178c-.039-.744-.445-1.164-1.166-1.202H8.8z"/></symbol><symbol viewBox="0 0 24 24" id="vk" xmlns="http://www.w3.org/2000/svg"><path d="M3.478 2.51c-.55 0-.969.428-.969.923v17.134c0 .495.419.924.969.924h17.044c.55 0 .968-.429.968-.924V3.433c0-.495-.418-.924-.968-.924H3.478z"/><path clip-rule="evenodd" d="M18.67 8.583c.104-.329 0-.568-.46-.568h-1.527c-.385 0-.563.21-.667.433 0 0-.786 1.914-1.883 3.154-.356.359-.519.478-.711.478-.104 0-.238-.12-.238-.448V8.568c0-.389-.118-.568-.444-.568h-2.402a.37.37 0 00-.386.359c0 .373.549.463.608 1.51v2.271c0 .493-.09.583-.282.583-.519 0-1.78-1.928-2.535-4.125C7.594 8.164 7.446 8 7.06 8H5.519c-.445 0-.52.21-.52.433 0 .404.52 2.437 2.418 5.127 1.26 1.839 3.054 2.825 4.67 2.825.979 0 1.097-.224 1.097-.598v-1.39c0-.448.09-.523.4-.523.223 0 .623.12 1.528 1.001 1.038 1.047 1.216 1.525 1.794 1.525h1.527c.445 0 .652-.224.534-.658-.134-.433-.638-1.06-1.29-1.808-.356-.419-.89-.882-1.053-1.106-.222-.3-.163-.419 0-.688-.015 0 1.854-2.66 2.046-3.557z"/></symbol><symbol viewBox="0 0 24 24" id="whatsapp" xmlns="http://www.w3.org/2000/svg"><path clip-rule="evenodd" d="M22 12c0 5.523-4.477 10-10 10a9.954 9.954 0 01-5.03-1.355L2 22l1.355-4.97A9.954 9.954 0 012 12C2 6.477 6.477 2 12 2s10 4.477 10 10z"/><path clip-rule="evenodd" d="M9.154 7.006c.19.008.4.017.6.459.137.302.367.866.55 1.315.134.33.243.598.272.654.066.132.11.287.022.465l-.037.074c-.067.136-.116.236-.23.368l-.137.164c-.091.11-.183.221-.262.3-.134.133-.273.276-.117.542.155.265.69 1.134 1.482 1.837a6.894 6.894 0 001.967 1.237c.073.032.133.058.177.08.267.132.422.11.577-.067.156-.177.667-.774.844-1.04.178-.265.356-.221.6-.133.244.089 1.555.73 1.821.863.052.026.1.05.146.07.186.09.312.15.365.24.067.11.067.642-.155 1.26-.222.62-1.31 1.218-1.8 1.262l-.141.015c-.452.053-1.022.12-3.057-.679-2.504-.983-4.155-3.419-4.496-3.921l-.057-.083-.003-.004C7.94 12.09 7 10.839 7 9.544c0-1.221.603-1.862.88-2.156l.015-.015.038-.041A.98.98 0 018.643 7h.03c.167 0 .334 0 .481.006z"/></symbol><symbol viewBox="0 0 24 24" id="youtube" xmlns="http://www.w3.org/2000/svg"><path d="M21.115 6.949a2.856 2.856 0 00-.703-1.317 2.764 2.764 0 00-1.255-.764c-.4-.1-1.058-.168-1.78-.218a61.078 61.078 0 00-2.373-.106 120.06 120.06 0 00-2.757-.043h-.183l-.048-.001H12V5v-.5h-.247a108.272 108.272 0 00-2.759.049c-.795.024-1.639.06-2.375.116-.721.054-1.383.128-1.788.24l-.007.002c-.472.137-.898.4-1.237.758a2.856 2.856 0 00-.703 1.317 25.545 25.545 0 00-.384 4.535 25.545 25.545 0 00.395 4.615c.13.468.374.894.713 1.238l.35-.344-.35.345c.338.344.758.594 1.22.724h.003c.405.112 1.067.186 1.788.24.736.056 1.58.092 2.375.116a109.125 109.125 0 002.759.048h.182l.048.001h.016V18v.5h.248l.66-.006a103.93 103.93 0 002.098-.043c.795-.024 1.639-.06 2.375-.116.722-.054 1.383-.128 1.788-.24l.007-.002c.472-.137.899-.4 1.238-.758a2.855 2.855 0 00.702-1.317c.26-1.485.39-2.992.384-4.5a25.45 25.45 0 00-.384-4.57z"/><path d="M10.068 13.714a.5.5 0 00.75.433l3.66-2.115a.5.5 0 000-.866l-3.66-2.115a.5.5 0 00-.75.433v4.23z"/></symbol></svg>