<svg width="290" height="56" viewBox="0 0 290 56" fill="none" xmlns="http://www.w3.org/2000/svg">
<path fill-rule="evenodd" clip-rule="evenodd" d="M20.2815 13.8201C18.8605 13.368 17.4395 12.9158 15.9539 12.6575C15.4748 12.5729 14.9927 12.4976 14.5095 12.4221C12.7777 12.1516 11.0322 11.8789 9.36564 11.1719C7.75088 10.4614 7.49251 8.65284 8.71974 7.42561C11.1096 5.10035 15.7601 6.39216 16.4706 9.5571C16.5998 10.0738 16.7936 10.3322 17.3749 10.2676C19.3126 10.203 21.2503 10.203 23.188 10.2676C23.8985 10.2676 23.9631 10.0092 23.8985 9.42792C23.511 6.71512 21.9608 4.84199 19.571 3.48558C18.3404 2.79002 16.9768 2.49336 15.5904 2.19172L15.5904 2.19171C15.3031 2.12922 15.0149 2.06651 14.7267 2H10.1407C9.94696 2.12918 9.75319 2.12918 9.55941 2.12918C7.23415 2.12918 5.16725 2.83968 3.22953 4.19608C-0.904269 7.03807 -0.904269 14.2722 3.94003 16.7267C5.4902 17.5663 7.16956 18.0185 8.84892 18.3414C9.45714 18.4488 10.0703 18.5313 10.683 18.6138L10.683 18.6138C12.2824 18.8292 13.8781 19.044 15.3726 19.6978C16.5352 20.2146 17.1165 20.9251 17.1165 21.8939C17.0519 22.8628 16.2768 23.767 15.1788 24.09C13.887 24.4775 12.5306 24.4775 11.1742 24.3484C9.30105 24.09 8.07383 23.2503 7.68629 21.3126C7.6217 20.8605 7.42792 20.3437 6.9112 20.3437C6.45725 20.3308 6.0033 20.3126 5.54987 20.2944H5.54984C3.74521 20.2222 1.94886 20.1502 0.193772 20.4083C0.129181 20.4083 0.0645906 20.4729 0 20.5375V21.571C0.0645906 21.6356 0.129181 21.7647 0.129181 21.8293C0.516725 25.0589 2.51903 26.9966 5.4902 27.9654C8.84892 29.1281 12.3368 29.1281 15.8247 28.6759C18.0208 28.4176 20.0877 27.7071 21.8962 26.4153C25.6425 23.8962 26.8051 16.0162 20.2815 13.8201ZM286.46 45.1468C286.012 45.102 285.596 44.9952 285.189 44.8909C285.008 44.8447 284.83 44.7989 284.651 44.7592C284.328 44.6946 284.07 44.4363 284.134 44.1133C284.134 43.7904 284.328 43.532 284.587 43.3382C285.426 42.8861 286.589 43.0799 287.041 43.9195C287.493 44.7592 288.333 44.5009 288.85 44.3071C289.26 44.131 288.978 43.5814 288.777 43.1917L288.777 43.1913C288.757 43.1524 288.738 43.1151 288.72 43.0799C288.397 42.434 287.816 42.111 287.17 41.9172C286.331 41.6589 285.426 41.5943 284.587 41.7881C283.101 42.0464 282.132 43.0153 282.068 44.3071C282.003 45.5989 282.713 46.374 284.393 46.8261C284.682 46.905 284.982 46.9625 285.284 47.0204C285.724 47.1046 286.168 47.1897 286.589 47.3428C287.299 47.6012 287.429 48.1825 286.912 48.6347C286.201 49.2806 284.457 49.1514 283.876 48.3763C283.553 47.9242 282.132 47.5366 281.938 47.9242C281.619 48.4991 282.058 49.0108 282.442 49.4594L282.455 49.4743C282.649 49.7327 282.972 49.9265 283.295 50.1202C285.297 51.0891 287.816 50.5724 289.172 48.893V46.8261C288.462 45.7281 287.558 45.276 286.46 45.1468ZM114.002 21.3126C114.26 20.4729 114.713 20.2791 115.488 20.3437C115.977 20.4049 116.466 20.3502 117.011 20.2894L117.102 20.2791C115.681 25.7048 112.129 28.7405 107.091 28.9343C101.342 29.1281 96.4334 26.1569 94.6895 20.9896C92.9455 15.7578 93.3976 10.7197 97.1439 6.32757C100.761 2.06459 107.995 1.09573 112.775 4.0023C115.036 5.35871 116.392 7.36102 116.909 10.0738H114.583C114.26 10.1384 114.131 10.0092 114.002 9.68628C112.775 6.45675 109.158 4.19608 105.218 4.7128C101.213 5.29412 98.3711 7.4902 97.2731 11.4302C96.3688 14.7244 96.3688 18.0831 97.7898 21.3126C100.115 26.7382 107.608 28.5467 111.871 24.6713C112.839 23.767 113.679 22.669 114.002 21.3126ZM128.664 37.7186C128.342 37.397 127.77 37.4507 127.182 37.506C126.825 37.5395 126.462 37.5736 126.145 37.5249C125.37 37.3957 125.111 37.8478 124.918 38.4291C124.498 39.6241 124.062 40.8351 123.626 42.0462C123.19 43.2573 122.754 44.4683 122.334 45.6633C122.32 45.7057 122.312 45.7575 122.303 45.8131C122.273 46.0114 122.235 46.2587 121.882 46.3092C121.107 44.1777 120.332 42.1108 119.492 39.9793C118.61 37.5232 118.588 37.5232 116.073 37.5248L115.875 37.5249C115.164 37.5249 115.035 37.7186 115.035 38.4291C115.035 39.6133 115.042 40.7974 115.05 41.9816C115.064 44.3499 115.078 46.7183 115.035 49.0866C115.035 50.0292 115.411 50.0583 116.017 50.1052L116.06 50.1086L116.122 50.1135C116.147 50.1156 116.172 50.1177 116.198 50.12C116.973 50.12 117.36 49.9908 117.36 49.0866C117.317 47.2436 117.332 45.372 117.346 43.4909V43.4905V43.4901V43.4897V43.4893V43.4889V43.4885V43.4881V43.4877V43.4873V43.4869V43.4865V43.4861V43.4857V43.4853V43.4849V43.4844V43.484V43.4836V43.4832V43.4828V43.4824V43.482V43.4816V43.4812V43.4808V43.4804V43.48V43.4796V43.4792V43.4788V43.4784V43.478V43.4776V43.4772V43.4768V43.4764V43.476V43.4756V43.4752V43.4748V43.4744V43.474V43.4736V43.4732V43.4728V43.4724V43.472C117.353 42.5247 117.36 41.5749 117.36 40.6252H117.554C117.991 41.8536 118.439 43.0819 118.889 44.3151L118.89 44.317C119.505 46.0013 120.123 47.6946 120.719 49.4095C120.913 50.0554 121.3 50.12 121.882 50.12C121.951 50.12 122.02 50.1219 122.088 50.1237C122.596 50.137 123.067 50.1495 123.238 49.4095C123.352 48.9169 123.532 48.4465 123.714 47.9722C123.842 47.6381 123.971 47.3021 124.078 46.9551L126.403 40.5606C126.597 43.4672 126.597 46.3738 126.532 49.2158C126.532 50.1072 127.013 50.0855 127.518 50.0627C127.599 50.0591 127.68 50.0554 127.76 50.0554C127.822 50.0554 127.884 50.0569 127.944 50.0584C128.446 50.0705 128.858 50.0805 128.858 49.2158C128.825 47.7302 128.825 46.2446 128.825 44.7509V44.7488C128.825 43.2559 128.825 41.7548 128.793 40.2377C128.809 40.0351 128.843 39.8174 128.878 39.5957C128.988 38.8982 129.105 38.1597 128.664 37.7186ZM178.206 5.48794C177.366 5.1004 176.591 4.84204 175.687 4.90663C174.459 5.03581 173.684 5.61712 173.49 6.77976C173.326 7.76529 173.345 8.77694 173.363 9.79809V9.79829V9.7985V9.7987V9.79891V9.79912V9.79932V9.79953V9.79973V9.79994V9.80014V9.80035V9.80055V9.80076V9.80097V9.80117V9.80138V9.80158V9.80179V9.80199V9.8022V9.80241V9.80261V9.80282V9.80302V9.80323V9.80343V9.80364V9.80384V9.80405V9.80426V9.80446V9.80467V9.80487V9.80508V9.80528V9.80549V9.80569V9.8059V9.80611V9.80631V9.80652V9.80672V9.80693V9.80713V9.80734V9.80754C173.374 10.3895 173.385 10.9745 173.361 11.5595C173.361 12.024 173.622 12.0187 173.91 12.0129C173.942 12.0123 173.975 12.0116 174.007 12.0116C174.392 12.0116 174.785 12.0187 175.179 12.0258C175.976 12.0402 176.782 12.0548 177.56 12.0116C178.3 11.9546 178.287 12.3499 178.274 12.7542C178.272 12.8083 178.27 12.8625 178.27 12.9159C178.27 12.9939 178.275 13.0735 178.279 13.1521V13.1524V13.1527V13.153V13.1533C178.304 13.5943 178.327 14.0041 177.56 13.9493C177.215 13.9493 176.871 13.9565 176.526 13.9637C175.837 13.978 175.148 13.9924 174.459 13.9493C173.684 13.8847 173.426 14.1431 173.426 14.9828C173.469 17.6956 173.455 20.4084 173.44 23.1212C173.433 24.4776 173.426 25.834 173.426 27.1904C173.426 27.268 173.441 27.3567 173.456 27.4486L173.456 27.4497L173.457 27.4498C173.505 27.7401 173.56 28.0612 173.168 28.1593C172.522 28.2884 171.876 28.353 171.23 28.0947C171.035 27.9974 171.06 27.717 171.085 27.4465C171.093 27.3578 171.101 27.2701 171.101 27.1904C171.101 25.8579 171.093 24.5183 171.086 23.1762V23.1749V23.1735V23.1721V23.1708V23.1694V23.168V23.1666V23.1652V23.1638V23.1624V23.161V23.1596V23.1581C171.072 20.4729 171.058 17.7781 171.101 15.1119C171.165 14.2077 170.907 13.8201 169.938 13.9493C169.357 14.0785 168.775 14.1431 168.775 13.1096C168.775 12.2054 169.034 11.947 169.873 12.0762C170.842 12.27 171.165 11.8824 171.101 10.849C171.058 9.90164 171.072 8.95431 171.086 8.00698C171.093 7.53331 171.101 7.05965 171.101 6.58598C171.101 4.45449 172.392 3.0335 174.524 2.83973C175.041 2.77514 175.557 2.71055 176.074 2.77514L176.175 2.78497C177.401 2.90434 177.961 2.95889 178.191 3.26305C178.384 3.51905 178.344 3.95186 178.27 4.74894L178.27 4.74923L178.27 4.74999L178.27 4.75178L178.269 4.75582L178.269 4.75733L178.269 4.7606L178.268 4.76783L178.267 4.77414L178.267 4.77828L178.267 4.77969L178.267 4.78279C178.247 4.9921 178.226 5.22606 178.206 5.48794ZM230.007 43.1442C229.687 42.9842 229.343 42.8986 228.989 42.8105C228.771 42.7563 228.549 42.7013 228.328 42.6274C227.992 42.538 227.641 42.4718 227.286 42.4047L227.286 42.4046C226.614 42.2779 225.925 42.1479 225.292 41.8523C224.258 41.3356 224.065 40.3668 224.84 39.6563C226.196 38.3644 228.974 39.0104 229.555 40.7543C229.572 40.8048 229.58 40.8684 229.588 40.9348C229.612 41.1236 229.639 41.3356 229.878 41.3356C230.061 41.3356 230.254 41.3564 230.449 41.3773C230.942 41.4302 231.445 41.4841 231.816 41.2064C232.083 40.9388 231.863 40.405 231.669 39.9359C231.629 39.8389 231.59 39.7448 231.557 39.6563C231.542 39.6258 231.527 39.5917 231.511 39.5556C231.458 39.4392 231.397 39.3028 231.299 39.2041C229.684 36.4913 224.388 36.3621 222.579 39.0104C221.416 40.7543 222.062 42.9504 223.935 43.7901C224.502 44.0475 225.068 44.1819 225.668 44.3239C225.82 44.3601 225.974 44.3967 226.132 44.436C226.307 44.471 226.484 44.5039 226.662 44.537L226.662 44.537C227.47 44.687 228.297 44.8407 229.038 45.2111C229.942 45.7278 230.201 46.5675 229.619 47.278C228.78 48.4406 227.488 48.5052 226.196 48.3114C225.098 48.1822 224.323 47.6009 224 46.5029C223.981 46.4445 223.979 46.3684 223.977 46.289C223.972 46.1048 223.967 45.9021 223.742 45.857C223.62 45.8448 223.494 45.828 223.365 45.811C222.813 45.7377 222.223 45.6595 221.804 45.9216C221.352 46.1799 221.61 46.8904 221.804 47.4071C221.86 47.63 222.011 47.8528 222.135 48.0342C222.155 48.0631 222.174 48.091 222.192 48.1176C223.29 49.7324 224.84 50.2491 227.1 50.1845C228.005 50.1845 229.232 49.9908 230.33 49.2803C231.557 48.5052 232.138 47.4071 232.074 45.9861C232.074 44.7589 231.234 43.7901 230.007 43.1442ZM156.634 13.8847C156.198 13.9008 155.762 13.917 155.342 13.8847C154.761 13.8847 154.503 14.0138 154.567 14.5952V24.09C154.567 24.3484 154.567 24.6713 154.632 24.9297C154.89 26.609 155.859 27.1903 157.474 26.609C157.694 26.5357 157.914 26.4207 158.146 26.2995C158.322 26.2073 158.505 26.1115 158.701 26.0277C158.959 28.353 158.572 28.8697 156.246 28.8697C153.534 28.9343 152.177 27.6425 152.177 24.9297C152.113 21.6355 152.113 18.3414 152.177 15.0473C152.177 14.0784 151.919 13.8201 151.015 13.8847C150.905 13.8847 150.78 13.9051 150.652 13.9262C150.179 14.004 149.658 14.0895 149.658 13.1742C149.658 12.2699 149.787 11.8178 150.821 12.0115C151.919 12.2053 152.177 11.6886 152.113 10.6551C152.07 9.92763 152.084 9.22849 152.098 8.52012V8.52001V8.51989V8.51977V8.51965V8.51952V8.5194V8.51927V8.51914V8.519V8.51887V8.51873V8.51859V8.51845V8.5183V8.51816V8.51801V8.51786V8.5177V8.51754V8.51738V8.51722V8.51705V8.51688V8.51671V8.51653V8.51635V8.51617V8.51599V8.5158V8.51561V8.51542V8.51523V8.51503V8.51482V8.51462V8.51441V8.5142V8.51398C152.105 8.15521 152.113 7.79404 152.113 7.4256C152.113 6.90888 152.242 6.65052 152.823 6.71511C153.041 6.75863 153.288 6.7435 153.524 6.729C153.639 6.72198 153.751 6.71511 153.857 6.71511C154.373 6.71511 154.503 6.97347 154.503 7.4256C154.503 7.80848 154.51 8.19836 154.517 8.59293C154.531 9.39652 154.546 10.2196 154.503 11.0427C154.503 11.7532 154.632 12.0761 155.471 12.0115C155.951 11.9377 156.431 11.9483 156.911 11.9588C157.271 11.9667 157.631 11.9746 157.99 11.9469C158.765 11.8178 158.765 12.2699 158.765 12.8512C158.765 13.4971 158.765 13.9493 157.926 13.8847C157.506 13.8524 157.07 13.8685 156.634 13.8847ZM190.737 44.3069C190.737 41.9816 188.67 40.819 186.603 41.9817C186.076 42.2779 185.818 42.4232 185.563 42.4175C185.318 42.412 185.076 42.2667 184.601 41.9817C184.278 41.7879 183.89 41.6587 183.503 41.6587C182.34 41.5295 181.371 41.9171 180.532 42.8859C180.532 41.8661 179.952 41.9168 179.422 41.963C179.315 41.9724 179.209 41.9817 179.111 41.9817C178.499 42.0326 178.571 42.4454 178.629 42.7759C178.644 42.8644 178.659 42.9469 178.659 43.0151C178.626 44.0485 178.626 45.0658 178.626 46.0832C178.626 47.1005 178.626 48.1178 178.594 49.1512C178.594 49.9263 178.852 50.0555 179.563 50.0555C180.209 50.0555 180.661 50.0555 180.661 49.1512C180.596 47.666 180.661 46.1807 180.725 44.6955L180.725 44.695V44.6945C180.79 43.5964 181.501 43.0151 182.405 43.0797C183.438 43.2089 183.632 43.9194 183.632 44.8236C183.632 45.3213 183.639 45.8116 183.646 46.2996C183.661 47.2684 183.675 48.2278 183.632 49.2158C183.567 50.0555 184.02 50.1201 184.601 50.0555C185.182 50.0555 185.699 50.0555 185.634 49.2158C185.57 47.7306 185.634 46.2453 185.699 44.7601L185.699 44.7596V44.759C185.763 43.661 186.409 43.0797 187.314 43.0797C188.153 43.1443 188.605 43.661 188.605 44.8882V48.9574C188.605 48.996 188.605 49.034 188.605 49.0716C188.601 49.6632 188.599 50.1201 189.51 50.1201C190.349 50.1201 190.672 49.8617 190.608 49.022L190.615 48.8357C190.677 47.2878 190.737 45.7974 190.737 44.3069ZM141.068 14.5951C142.747 12.5282 144.749 11.3009 147.397 11.3009C148.173 11.3009 148.302 11.6239 148.302 12.3344C148.291 12.4341 148.287 12.5339 148.284 12.6306C148.268 13.0981 148.254 13.497 147.397 13.497C143.264 13.5616 141.068 15.8223 141.068 19.9561C141.068 20.7766 141.06 21.59 141.053 22.4009V22.4016V22.4022V22.4029V22.4035V22.4042V22.4048V22.4054V22.4061V22.4067V22.4073V22.4079V22.4085V22.4091V22.4097V22.4103V22.4108V22.4114V22.412V22.4125V22.4131V22.4136V22.4142V22.4147V22.4152V22.4158V22.4163V22.4168V22.4173V22.4178V22.4183V22.4189V22.4194V22.4199V22.4203V22.4208V22.4213V22.4218V22.4223V22.4228V22.4232V22.4237V22.4242C141.039 24.0311 141.025 25.6288 141.068 27.2548C141.068 27.9653 140.938 28.2237 140.163 28.2237C139.421 28.2237 139.049 28.2237 138.863 28.038C138.678 27.8523 138.678 27.4809 138.678 26.7383V26.7381C138.678 25.2094 138.685 23.6808 138.692 22.1522C138.706 19.0949 138.721 16.0376 138.678 12.9803C138.678 12.0114 139.065 12.0114 139.776 12.076C139.888 12.076 140.005 12.0663 140.123 12.0567C140.682 12.0106 141.228 11.9657 141.068 12.9803C141.024 13.327 141.039 13.7028 141.054 14.0686V14.069V14.0692V14.0694V14.0697V14.0699V14.0701V14.0704V14.0706V14.0708V14.071V14.0713V14.0715V14.0717V14.072V14.0722V14.0724V14.0727V14.0729V14.0732V14.0735V14.0737V14.074V14.0743V14.0745V14.0748V14.0751V14.0754V14.0757V14.076V14.0763V14.0765V14.0769V14.0772V14.0775V14.0778V14.0781V14.0784V14.0787V14.0791V14.0794V14.0797V14.0801V14.0804C141.061 14.2558 141.068 14.4288 141.068 14.5951ZM181.242 26.5445C181.242 27.384 181.242 27.8039 181.452 28.0058C181.662 28.2078 182.082 28.1916 182.922 28.1593C183.438 28.1593 183.697 28.0301 183.697 27.4488V12.6576C183.697 12.0762 183.503 11.8825 182.986 11.9471C182.902 11.9471 182.812 11.9539 182.719 11.9608C182.525 11.9754 182.321 11.9907 182.146 11.9471C181.371 11.8179 181.242 12.1408 181.242 12.8513C181.285 14.4322 181.271 15.9848 181.257 17.5465V17.5471V17.5478V17.5484V17.549V17.5497V17.5503V17.5509V17.5516V17.5522V17.5529V17.5536V17.5542V17.5549V17.5556V17.5563V17.557V17.5577V17.5584V17.5591V17.5598V17.5605V17.5612V17.562V17.5627V17.5634V17.5642V17.5649V17.5657V17.5665V17.5672V17.568V17.5688V17.5696V17.5704V17.5712V17.572V17.5728V17.5736V17.5744V17.5752V17.5761C181.249 18.3655 181.242 19.1573 181.242 19.9563V26.5445ZM103.925 41.788C105.863 41.0129 107.865 42.1755 107.93 44.307C107.973 45.4721 107.959 46.6083 107.944 47.735C107.937 48.2948 107.93 48.8522 107.93 49.4096C107.983 50.1487 107.604 50.1112 107.217 50.0728C107.131 50.0642 107.044 50.0556 106.961 50.0556C106.88 50.0556 106.793 50.0638 106.705 50.0722C106.299 50.1108 105.863 50.1521 105.863 49.4096C105.928 47.9241 105.928 46.5031 105.863 45.0175C105.799 43.7257 105.282 43.0798 104.313 43.0798C103.279 43.0798 102.569 43.8549 102.504 45.0175C102.44 46.4385 102.44 47.8595 102.504 49.2805C102.56 50.1095 102.142 50.0873 101.697 50.0636C101.621 50.0596 101.546 50.0556 101.471 50.0556C101.434 50.0556 101.398 50.0558 101.362 50.0561C100.834 50.0599 100.438 50.0627 100.438 49.2159C100.481 47.7925 100.466 46.3403 100.452 44.8978V44.8975V44.8972V44.8969V44.8965V44.8962V44.8958V44.8955V44.8951V44.8948V44.8944V44.8941V44.8938V44.8935V44.8931V44.8927V44.8924V44.892V44.8917V44.8913V44.891V44.8906V44.8903V44.8899V44.8896V44.8892V44.8888V44.8885V44.8881V44.8877V44.8874V44.887V44.8867V44.8863V44.8859V44.8855V44.8852V44.8848V44.8844V44.884V44.8837C100.445 44.1708 100.438 43.4603 100.438 42.7568C100.438 42.2401 100.502 41.788 101.148 41.9171C101.288 41.9522 101.462 41.9302 101.637 41.9079C102.11 41.848 102.599 41.786 102.504 42.8214C102.739 42.665 102.932 42.498 103.112 42.3418C103.378 42.1109 103.617 41.9035 103.925 41.788ZM13.1758 44.3716C13.1112 42.4338 11.7548 41.3358 9.8171 41.6587C9.04201 41.7879 8.52529 42.2401 7.87938 42.8214C7.68561 41.9817 7.42724 41.8525 6.3292 41.9817C5.73801 42.0408 5.74204 42.3705 5.74697 42.7726C5.74742 42.8098 5.74789 42.8477 5.74789 42.886C5.74789 43.5988 5.75511 44.3117 5.76231 45.0222L5.76231 45.0223C5.77664 46.436 5.79088 47.8403 5.74789 49.2159C5.74789 50.0286 6.11316 50.0587 6.6561 50.1033L6.65643 50.1034C6.71744 50.1084 6.7807 50.1136 6.84593 50.1201C7.55643 50.1847 7.94397 50.0555 7.87938 49.1513C7.81479 47.8594 7.81479 46.503 7.87938 45.2112C7.87938 43.984 8.58988 43.1443 9.55873 43.1443C10.5922 43.1443 11.1735 43.8548 11.1735 45.2112C11.1735 45.661 11.1806 46.1179 11.1877 46.5771C11.2021 47.5029 11.2167 48.4384 11.1735 49.345C11.1089 50.1201 11.561 50.1201 12.0778 50.0555C12.1904 50.0394 12.319 50.0514 12.4486 50.0635H12.4487H12.4487H12.4488H12.4488C12.8398 50.0998 13.2404 50.1371 13.2404 49.4096C13.2081 48.5699 13.2081 47.7303 13.2081 46.8906C13.2081 46.0509 13.2081 45.2112 13.1758 44.3716ZM144.425 41.6587C146.362 41.3358 147.719 42.4338 147.783 44.3716C147.816 45.2112 147.816 46.0509 147.816 46.8825C147.816 47.7141 147.816 48.5377 147.848 49.345C147.848 50.0725 147.447 50.0353 147.056 49.9989C146.927 49.9868 146.798 49.9748 146.685 49.9909C146.168 50.0555 145.716 50.0555 145.781 49.2804C145.824 48.3738 145.81 47.4383 145.795 46.5125V46.5112V46.5099V46.5086V46.5072V46.5059V46.5045V46.5032V46.5018V46.5004V46.499V46.4975V46.4961V46.4947V46.4932V46.4918V46.4903V46.4889L145.795 46.4875L145.795 46.4802V46.4788V46.4774V46.4759V46.4746V46.4732V46.4718V46.4704V46.469V46.4676V46.4661L145.795 46.4647C145.788 46.0215 145.781 45.5808 145.781 45.1466C145.781 43.7902 145.2 43.0797 144.166 43.0797C143.197 43.0797 142.487 43.9194 142.487 45.1466C142.422 46.4385 142.422 47.7949 142.487 49.0867C142.551 49.9909 142.164 50.0555 141.453 50.0555C140.807 50.0555 140.355 50.0555 140.355 49.1513C140.398 47.7757 140.384 46.3715 140.37 44.9577V44.9559V44.9541V44.9523V44.9505V44.9486V44.9468V44.9449V44.943V44.9411V44.9392V44.9373V44.9353V44.9334V44.9315V44.9295V44.9275V44.9255V44.9235V44.9215V44.9194V44.9174V44.9153V44.9132V44.9111V44.909V44.9069V44.9047V44.9026V44.9004V44.8983V44.8961L140.37 44.8939C140.363 44.2045 140.355 43.5129 140.355 42.8214C140.355 42.7899 140.355 42.7571 140.354 42.7235C140.35 42.344 140.343 41.863 140.937 41.9817C141.079 42.0173 141.255 41.9941 141.438 41.9701C141.918 41.907 142.44 41.8385 142.487 42.8214C143.133 42.2401 143.649 41.7879 144.425 41.6587ZM163.996 28.1593C164.088 28.1593 164.178 28.1625 164.265 28.1656C164.861 28.1867 165.345 28.2039 165.288 27.1905C165.245 24.1739 165.26 21.1285 165.274 18.0928C165.281 16.5785 165.288 15.0666 165.288 13.5619C165.288 12.0737 165.288 12.0737 163.917 12.0189L163.738 12.0117C163.028 12.0117 162.834 12.2055 162.898 12.8514C162.941 14.478 162.927 16.0763 162.913 17.6838V17.6843V17.6848V17.6853V17.6858V17.6863V17.6869V17.6874V17.6879V17.6884V17.689V17.6895V17.6901V17.6906V17.6912V17.6918V17.6923V17.6929V17.6935V17.6941V17.6946V17.6952V17.6958V17.6964V17.697V17.6976V17.6982V17.6989V17.6995V17.7001V17.7007V17.7014V17.702V17.7027V17.7033V17.704V17.7046V17.7053C162.906 18.5162 162.898 19.3296 162.898 20.1501C162.898 20.9491 162.906 21.7409 162.913 22.5303V22.5312V22.532V22.5328V22.5337V22.5345V22.5353V22.5361V22.5369V22.5377V22.5384V22.5392V22.54V22.5408V22.5415V22.5423V22.543V22.5438V22.5445V22.5452V22.546V22.5467V22.5474V22.5481V22.5488V22.5495V22.5502V22.5509V22.5516V22.5522V22.5529V22.5536V22.5542V22.5549V22.5555V22.5562V22.5568V22.5574C162.927 24.12 162.941 25.6734 162.898 27.2551C162.838 28.1656 163.233 28.1634 163.871 28.1598L163.958 28.1594L163.996 28.1593ZM206.496 41.6583C208.434 41.2708 209.855 42.4334 209.855 44.4357C209.855 44.7556 209.852 45.078 209.85 45.4019L209.849 45.4065C209.839 46.7164 209.829 48.0512 209.984 49.3446C209.984 50.0841 209.583 50.0722 209.134 50.0588C209.074 50.057 209.012 50.0551 208.95 50.0551C208.434 50.1197 207.852 50.1843 207.917 49.3446C207.96 48.5691 207.945 47.7648 207.931 46.9701V46.9696V46.9692V46.9688V46.9684V46.9681V46.9677V46.9673V46.967V46.9667V46.9663V46.966V46.9657V46.9654V46.9651V46.9648V46.9645V46.9643C207.924 46.5696 207.917 46.1773 207.917 45.7921C207.917 45.5984 207.901 45.4046 207.885 45.2108C207.868 45.0171 207.852 44.8233 207.852 44.6295C207.788 43.6607 207.336 43.0793 206.367 43.0793C205.398 43.0793 204.752 43.5961 204.623 44.5649C204.484 45.5799 204.511 46.5949 204.537 47.6099C204.548 48.0159 204.558 48.4219 204.558 48.8279C204.494 49.9905 203.977 50.3781 202.879 50.0551C202.506 49.9485 202.528 49.666 202.548 49.4254C202.552 49.3743 202.556 49.3252 202.556 49.28C202.556 48.6051 202.549 47.937 202.541 47.2713V47.27V47.2686V47.2673V47.2659V47.2645V47.2632V47.2618V47.2605V47.2591V47.2577V47.2564V47.255V47.2537V47.2523V47.2509V47.2496V47.2482V47.2468V47.2455V47.2441V47.2428V47.2414V47.24V47.2387V47.2373V47.2358V47.2344V47.2329V47.2315V47.23V47.2286V47.2271V47.2257V47.2242V47.2228C202.527 45.8664 202.513 44.5195 202.556 43.1439C202.556 43.0516 202.534 42.941 202.511 42.8251C202.437 42.4546 202.353 42.0305 202.943 41.9813C203.049 41.9707 203.161 41.9516 203.276 41.932C203.866 41.8315 204.525 41.719 204.687 42.6918C204.743 42.6483 204.798 42.6049 204.853 42.5617L204.854 42.5612C205.37 42.1554 205.854 41.7751 206.496 41.6583ZM68.5319 47.472C68.0151 47.2136 66.7233 47.6012 66.4004 48.0533C65.6899 49.1514 64.2689 49.1514 63.5584 47.9887C62.7833 46.6969 62.7187 45.2759 63.4938 43.9195C64.1397 42.6923 65.7545 42.6923 66.465 43.8549C66.7879 44.3071 68.2735 44.8238 68.5964 44.4362C68.9559 43.974 68.6621 43.5527 68.3967 43.1721C68.3283 43.0741 68.2618 42.9787 68.2089 42.8861C67.8859 42.3693 67.3046 42.0464 66.7233 41.788C63.7521 40.69 60.9102 42.6277 60.9102 45.8572C60.9102 49.0222 63.4292 50.9599 66.4004 50.1202C67.4984 49.7973 68.2735 49.0868 68.7256 48.0533C68.7256 48.028 68.7306 47.9977 68.7362 47.9638L68.7362 47.9637C68.7589 47.8251 68.7914 47.6277 68.5319 47.472ZM265.855 47.8595C266.501 49.2159 268.051 49.2805 268.826 47.9887C269.184 47.3517 269.665 47.4018 270.208 47.4583C270.547 47.4935 270.909 47.5313 271.28 47.4074C270.893 49.0867 269.924 49.9264 268.503 50.2493C266.824 50.6369 265.338 50.2493 264.176 48.8929C262.948 47.4719 262.948 44.7591 264.046 43.209C265.08 41.788 267.147 41.2067 269.02 41.8526C270.053 42.2401 270.764 42.886 271.087 43.9841C271.216 44.3716 271.151 44.5008 270.699 44.5008C270.593 44.5008 270.486 44.5044 270.381 44.5081C269.716 44.5309 269.078 44.5527 268.632 43.6611C268.116 42.6922 266.436 42.886 265.855 43.9841C265.209 45.2113 265.209 46.5677 265.855 47.8595ZM257.459 41.9817C256.877 41.5941 255.456 42.0463 255.198 42.7568C254.974 43.3439 254.739 43.9431 254.496 44.5597L254.495 44.563L254.493 44.5666L254.492 44.5698L254.492 44.5704L254.491 44.5719L254.49 44.5752L254.49 44.5758L254.489 44.5774L254.488 44.5807L254.488 44.5813L254.487 44.5826C254.172 45.3834 253.845 46.2135 253.519 47.0843C253.301 46.5035 253.074 45.9408 252.852 45.3895L252.851 45.388L252.85 45.3857L252.85 45.3842C252.479 44.4659 252.122 43.5791 251.839 42.6922C251.646 42.1109 251.387 41.9171 250.806 41.9817C250.513 42.0236 250.22 42.0111 249.891 41.9972C249.713 41.9897 249.525 41.9817 249.32 41.9817C249.92 43.427 250.48 44.8339 251.034 46.2232L251.035 46.2252L251.035 46.2264L251.036 46.2287L251.037 46.2294L251.037 46.2313L251.037 46.2316L251.038 46.2318L251.038 46.232L251.038 46.2338L251.04 46.2368L251.04 46.2382L251.041 46.2408L251.042 46.2417L251.042 46.2438L251.043 46.2443L251.043 46.2448L251.043 46.2453L251.044 46.2469C251.501 47.3952 251.954 48.5316 252.421 49.668C252.604 50.1727 252.983 50.1233 253.35 50.0755C253.499 50.056 253.646 50.0368 253.777 50.0555C254.165 50.1201 254.552 50.1847 254.811 49.6034C255.338 48.2096 255.887 46.8379 256.433 45.4753L256.433 45.4738L256.434 45.4713L256.435 45.4699C256.824 44.4978 257.212 43.5304 257.588 42.563C257.653 42.3692 257.717 42.1754 257.459 41.9817ZM81.9014 47.2135C81.8368 47.8594 82.0952 48.3761 82.8702 48.3116C83.7099 48.3116 83.8391 48.6991 83.8391 49.345C83.8391 50.0508 83.474 50.0264 83.0891 50.0007C83.0161 49.9958 82.9423 49.9909 82.8702 49.9909C82.6765 49.9909 82.4827 49.9748 82.2889 49.9586C82.0952 49.9425 81.9014 49.9263 81.7076 49.9263C80.4804 49.8617 79.9637 49.345 79.8991 48.0532V46.0509V44.3069L79.8993 44.2482L79.8997 44.2032C79.9037 43.7236 79.9074 43.2778 79.124 43.3381C78.7527 43.3911 78.7734 43.1393 78.7927 42.9045C78.7969 42.8533 78.801 42.803 78.801 42.7568C78.801 42.682 78.7906 42.6002 78.7803 42.5188C78.7459 42.2486 78.712 41.9817 79.0594 41.9817C79.8883 42.0369 79.8662 41.5722 79.8425 41.0728L79.8425 41.0724C79.8385 40.9881 79.8345 40.9029 79.8345 40.819V40.3023C79.8345 39.2043 80.545 38.7521 81.643 39.1397C81.9014 39.2043 81.9014 39.398 81.9014 39.5918V40.4315C81.8368 41.4004 81.8368 42.3046 83.2578 41.9817C83.8391 41.8525 83.8391 42.3046 83.8391 42.6922C83.8391 43.1443 83.7745 43.5318 83.2578 43.4027C81.966 43.1443 81.7722 43.7902 81.9014 44.8237C81.9446 45.3416 81.93 45.8884 81.9156 46.4255V46.4256V46.4257V46.4258V46.4259V46.426V46.4261V46.4262V46.4263V46.4264V46.4265V46.4266V46.4267V46.4268V46.4269V46.427V46.4271V46.4272V46.4273V46.4274V46.4275V46.4276V46.4277V46.4278V46.4279V46.428V46.4282V46.4283V46.4284V46.4285V46.4286V46.4287V46.429V46.4293V46.4297V46.43V46.4303V46.4307V46.431V46.4313V46.4316V46.4319V46.4323V46.4326V46.4329V46.4333V46.4336V46.4339V46.4343V46.4346V46.4349V46.4352V46.4355V46.4359V46.4362V46.4365V46.4368V46.4372V46.4375V46.4378V46.4382V46.4385V46.4389V46.4392V46.4396C81.9084 46.7014 81.9014 46.9609 81.9014 47.2135ZM215.539 48.3761C214.505 48.4407 214.311 47.8594 214.376 47.0197C214.441 46.3092 214.441 45.5342 214.376 44.8237C214.247 43.7902 214.505 43.1443 215.732 43.4027C216.314 43.5318 216.314 43.1443 216.314 42.6922C216.314 42.3046 216.314 41.8525 215.732 41.9817C214.311 42.3046 214.311 41.4649 214.376 40.4315V39.5918C214.376 39.3335 214.311 39.2043 213.988 39.1397C212.697 38.8813 212.309 39.1397 212.309 40.4315V40.819C212.309 40.9041 212.316 40.9945 212.323 41.0858L212.323 41.0862C212.359 41.5491 212.397 42.0356 211.534 41.9817C211.187 41.9817 211.221 42.2486 211.255 42.5188C211.265 42.6002 211.276 42.682 211.276 42.7568L211.275 42.7877C211.275 42.8094 211.274 42.8319 211.274 42.8548L211.274 42.8558C211.267 43.1028 211.258 43.3948 211.599 43.3381C212.366 43.2833 212.343 43.6931 212.318 44.1341C212.314 44.2131 212.309 44.2931 212.309 44.3715V46.2447V46.9552C212.181 49.9753 212.819 49.9908 215.433 50.0545L215.474 50.0555C216.12 50.0555 216.314 49.9263 216.314 49.2804C216.314 48.6345 216.185 48.3116 215.539 48.3761ZM52.1895 38.3646C52.1895 37.5249 52.6416 37.5249 53.1583 37.5895C53.2483 37.5895 53.3423 37.5817 53.4361 37.5738C53.8805 37.5367 54.3209 37.5 54.3209 38.3C54.2564 41.9817 54.2564 45.6633 54.3209 49.345C54.3209 50.0889 53.9401 50.0713 53.5294 50.0522C53.4052 50.0464 53.2783 50.0405 53.1583 50.0555C52.577 50.1201 52.1895 50.1201 52.1895 49.2804C52.2326 48.0724 52.2181 46.8355 52.2037 45.6083V45.6079V45.6076V45.6072V45.6069V45.6066V45.6063V45.606V45.6057V45.6054V45.605V45.6047V45.6044V45.6041V45.6037V45.6034V45.6032V45.6029V45.6026V45.6023V45.602V45.6017V45.6014V45.6011V45.6008V45.6005V45.6002V45.6V45.5997V45.5994V45.599C52.1966 44.9922 52.1895 44.3877 52.1895 43.7902C52.1895 43.1874 52.1966 42.5845 52.2038 41.9817C52.2182 40.776 52.2325 39.5703 52.1895 38.3646ZM248.157 42.3047C248.287 41.8526 247.964 41.7234 247.512 41.788C246.478 41.9171 245.768 42.5631 245.057 43.5319V42.4985C245.107 41.7949 244.688 41.8733 244.317 41.9428C244.212 41.9627 244.11 41.9817 244.024 41.9817C243.937 41.9817 243.846 41.9723 243.755 41.9629C243.371 41.9231 242.99 41.8837 242.99 42.5631V49.4097C242.99 50.1223 243.41 50.0661 243.811 50.0123C243.956 49.9929 244.098 49.9739 244.217 49.991C244.67 50.0556 245.122 50.0556 245.057 49.3451C245.014 48.7399 245.029 48.1057 245.043 47.4814C245.05 47.1729 245.057 46.8667 245.057 46.5677C245.057 44.8237 245.832 43.5319 247.705 43.5319C248.355 43.5319 248.271 43.0989 248.197 42.7112C248.167 42.5591 248.139 42.4139 248.157 42.3047ZM58.8933 44.8978C58.9005 45.2566 58.9078 45.6178 58.9078 45.9862C58.9078 46.2628 58.9037 46.5393 58.8996 46.8138C58.8875 47.6292 58.8757 48.4263 58.9724 49.1512C59.0329 49.9983 58.5832 49.9951 58.0482 49.9913H58.0477H58.0473H58.0468H58.0464L57.9888 49.991L57.9389 49.9908C57.8175 49.9773 57.6989 49.9779 57.5873 49.9785C57.1643 49.9806 56.8409 49.9823 56.8409 49.2157C56.9055 47.0843 56.9055 44.8882 56.8409 42.6921C56.7856 41.8631 57.2032 41.8853 57.6487 41.909C57.7238 41.913 57.7997 41.917 57.8743 41.917C57.9017 41.917 57.929 41.9169 57.9561 41.9167L57.9822 41.9165H57.9827H57.9831H57.9836C58.5186 41.9127 58.9683 41.9095 58.9078 42.7567C58.8649 43.4856 58.879 44.1861 58.8933 44.8959V44.896V44.8961V44.8961V44.8962V44.8963V44.8963V44.8964V44.8965V44.8965V44.8966V44.8967V44.8967V44.8968V44.8969V44.8969V44.897V44.8971V44.8972V44.8972V44.8973V44.8974V44.8974V44.8975V44.8976V44.8976V44.8977V44.8978V44.8978ZM88.2954 46.0507V42.4983C88.2954 41.828 87.9051 41.8675 87.519 41.9065C87.3841 41.9201 87.2498 41.9337 87.1328 41.9169L87.0745 41.907C86.6955 41.8418 86.2285 41.7614 86.2285 42.4983C86.2285 43.2494 86.2356 44.0077 86.2428 44.7685C86.2572 46.2971 86.2716 47.8354 86.2285 49.3449C86.2285 50.0556 86.645 50.0259 87.0079 50C87.0738 49.9953 87.1379 49.9908 87.1974 49.9908C87.2783 49.9908 87.3654 49.999 87.4538 50.0074C87.86 50.046 88.2954 50.0873 88.2954 49.3449V46.0507ZM2.07592 41.9779H2.07597H2.07602H2.07608H2.07614H2.0762H2.07626H2.07632H2.07638H2.07645H2.07652H2.07659H2.07666H2.07674H2.07681H2.07689H2.07697H2.07706H2.07714H2.07723H2.07732H2.07741H2.0775H2.0776H2.0777H2.0778H2.0779C2.13804 41.9797 2.19903 41.9815 2.26001 41.9815C2.3354 41.9815 2.41079 41.9774 2.48458 41.9734C2.91652 41.9497 3.29346 41.9291 3.29346 42.7566C3.2504 43.4886 3.26476 44.2207 3.27911 44.9527C3.28629 45.3187 3.29346 45.6847 3.29346 46.0507C3.29346 46.4167 3.28629 46.7828 3.27911 47.1488C3.26476 47.8808 3.2504 48.6128 3.29346 49.3448C3.29346 50.0843 2.89269 50.0724 2.4441 50.059H2.44405H2.444H2.44394H2.44388H2.44382H2.44376H2.4437H2.44364H2.44357H2.4435H2.44343H2.44336H2.44328H2.44321H2.44313H2.44305H2.44296H2.44288H2.4428H2.44271H2.44262H2.44252H2.44243H2.44233H2.44223H2.44212C2.38199 50.0572 2.321 50.0553 2.26001 50.0553C2.19903 50.0553 2.13804 50.0572 2.07791 50.059H2.0778H2.0777H2.0776H2.07751H2.07741H2.07732H2.07723H2.07715H2.07706H2.07698H2.0769H2.07682H2.07674H2.07667H2.0766H2.07653H2.07646H2.07639H2.07633H2.07626H2.0762H2.07614H2.07608H2.07603H2.07597H2.07592C1.62733 50.0724 1.22656 50.0843 1.22656 49.3448C1.29115 47.1488 1.29115 44.8881 1.22656 42.692C1.22656 41.9525 1.62733 41.9645 2.07592 41.9779ZM260.364 41.9815C260.244 41.9965 260.117 41.9906 259.993 41.9848C259.582 41.9658 259.201 41.9481 259.201 42.692C259.266 44.8881 259.266 47.1487 259.201 49.3448C259.201 50.1845 259.718 50.1199 260.235 50.0553C260.313 50.0553 260.393 50.0598 260.472 50.0642C260.913 50.0888 261.323 50.1118 261.268 49.3448C261.225 48.6128 261.239 47.8808 261.254 47.1487C261.261 46.7827 261.268 46.4167 261.268 46.0507C261.268 45.6847 261.261 45.3187 261.254 44.9527C261.239 44.2206 261.225 43.4886 261.268 42.7566C261.268 41.9815 260.881 41.9169 260.364 41.9815ZM183.696 7.16712C183.955 8.20057 183.373 8.26516 182.404 8.32975C181.222 8.44796 181.23 7.86309 181.24 7.11952C181.241 7.05049 181.242 6.98009 181.242 6.90876L181.25 6.74751C181.275 6.21723 181.288 5.93567 181.436 5.78618C181.603 5.61694 181.941 5.61694 182.663 5.61694C183.11 5.61694 183.364 5.61694 183.508 5.74264C183.696 5.90734 183.696 6.28784 183.696 7.16691V7.16712ZM163.995 8.32971C164.964 8.26512 165.287 8.13594 165.287 7.10249C165.282 7.03596 165.278 6.97082 165.274 6.90727L165.274 6.90423C165.225 6.10563 165.191 5.55714 163.995 5.6169C162.962 5.6815 162.639 5.93986 162.897 6.90872C162.703 7.81299 162.833 8.3943 163.995 8.32971ZM86.2285 39.2041C86.2285 38.429 86.4223 38.1707 87.262 38.1707C88.1016 38.1707 88.36 38.3645 88.36 39.2687C88.36 40.173 88.0371 40.3022 87.262 40.173C86.4223 40.3668 86.2285 39.9792 86.2285 39.2041ZM57.8737 38.1705L57.7854 38.1784C57.126 38.2367 56.7138 38.2732 56.7757 39.1394C56.7824 39.2132 56.7877 39.2857 56.7928 39.356L56.7929 39.3562C56.8373 39.9618 56.8698 40.4043 57.6799 40.1728L57.6919 40.174C58.333 40.2382 58.9067 40.2956 58.8425 39.2686C58.9071 38.5581 58.8425 38.1059 57.8737 38.1705ZM1.22656 39.2041C1.22656 38.429 1.42033 38.1707 2.26001 38.1707C3.09969 38.1707 3.42264 38.429 3.22887 39.2041C3.47386 40.0616 2.96385 40.106 2.30461 40.1633L2.19542 40.173C1.42033 40.2376 1.22656 39.9792 1.22656 39.2041ZM260.235 38.1707C259.395 38.1707 259.201 38.429 259.201 39.2041C259.201 39.9792 259.395 40.2376 260.17 40.173L260.273 40.1639C260.935 40.1061 261.449 40.0612 261.203 39.1395C261.397 38.3645 261.074 38.1707 260.235 38.1707ZM166.456 41.931C166.569 41.9507 166.677 41.9696 166.773 41.9816C167.118 42.0678 167.118 42.2974 167.118 42.5366C167.118 42.6563 167.118 42.7783 167.161 42.8859V50.3784C167.161 52.3807 166.45 53.1558 164.577 53.7371L164.19 53.9309H162.316C161.283 53.608 160.25 53.285 159.733 52.187C159.41 51.4765 159.345 51.0243 160.314 51.1535C160.425 51.1658 160.538 51.1687 160.65 51.1717C161.13 51.1841 161.603 51.1964 161.864 51.9286C162.169 52.537 162.931 52.4577 163.559 52.3925L163.673 52.3807C164.319 52.2515 164.836 51.9286 164.965 51.2827C165.094 50.7014 165.158 49.9909 165.094 49.4096C164.9 49.2804 164.771 49.4096 164.706 49.4741C162.833 51.2181 159.604 50.2492 159.152 47.0843C159.022 45.9217 158.958 44.6944 159.475 43.5964C160.314 41.5941 162.575 40.9482 164.383 42.1754C164.438 42.2188 164.487 42.2641 164.532 42.3063C164.757 42.515 164.901 42.6481 165.223 42.1108C165.381 41.7432 165.965 41.8453 166.456 41.931ZM163.221 48.8282C163.996 48.8282 164.513 48.3761 164.771 47.6656C165.223 46.503 165.158 45.3403 164.642 44.1131C164.383 43.4672 163.931 43.0151 163.156 43.0151C162.446 43.0151 161.929 43.4672 161.606 44.0485C161.283 44.5653 161.218 45.2112 161.218 45.5987C161.218 46.503 161.283 47.1489 161.606 47.7302C161.929 48.4407 162.446 48.8282 163.221 48.8282ZM44.8895 3.29178C44.6957 2.83965 44.4374 2.77505 43.9852 2.77505H36.1698C35.6531 2.77505 35.4593 2.96883 35.2655 3.42096C32.1006 11.4302 28.9356 19.4394 25.7061 27.4487C25.3831 28.2238 25.7061 28.2238 26.2874 28.2238C26.9979 28.2238 27.7084 28.2166 28.4189 28.2094C29.8399 28.1951 31.2609 28.1807 32.6819 28.2238C33.2632 28.2238 33.5216 27.9654 33.7153 27.4487C33.8797 26.9555 34.0557 26.4623 34.2335 25.9642L34.2336 25.9639L34.2337 25.9638L34.2337 25.9637L34.2337 25.9636L34.2337 25.9636L34.2338 25.9635C34.475 25.2876 34.7195 24.6026 34.9426 23.8962C35.1363 23.3795 35.3947 23.1211 35.976 23.1211C37.8252 23.1641 39.6458 23.1498 41.4758 23.1355H41.4759H41.4761H41.4762H41.4763H41.4764H41.4766H41.4767H41.4768H41.4769H41.4771H41.4772H41.4773H41.4775H41.4776H41.4777H41.4778H41.478C42.3958 23.1283 43.3161 23.1211 44.2436 23.1211C44.7603 23.1211 45.0187 23.2503 45.2125 23.767C45.6 24.9942 46.0521 26.286 46.5043 27.5133C46.6335 27.9008 46.7626 28.1592 47.2794 28.1592C48.8674 28.1162 50.4555 28.1304 52.0625 28.1447H52.0626H52.0627H52.0628H52.0629H52.0629H52.063H52.0631H52.0632H52.0633H52.0633H52.0634H52.0635H52.0636H52.0637H52.0637H52.0638H52.0639C52.8748 28.1519 53.6905 28.1592 54.5135 28.1592C54.5781 28.03 54.5781 27.9654 54.5781 27.9654C51.284 19.7624 48.0545 11.5594 44.8895 3.29178ZM37.9323 15.3864L37.9328 15.3851C38.6421 13.36 39.3609 11.3076 40.1098 9.10494L40.172 9.2953C41.1822 12.3892 42.1329 15.3007 43.1456 18.2122H36.9449C37.2733 17.2679 37.6018 16.3301 37.9323 15.3864ZM74.3443 3.48569C77.4447 4.38996 79.447 6.32768 79.8991 9.6218C80.1575 11.4303 80.0929 13.2389 79.3824 15.0474C78.2198 18.1478 75.5715 19.3104 72.6004 19.8271C70.6373 20.1371 68.633 20.1165 66.6203 20.0958H66.6202H66.6201H66.62H66.6199H66.6197H66.6196H66.6195H66.6194H66.6193H66.6192H66.6191H66.6189H66.6188H66.6187H66.6186H66.6185C66.1153 20.0907 65.6116 20.0855 65.1079 20.0855C64.3328 20.0855 64.0744 20.2793 64.0744 21.1189C64.1067 22.1524 64.1067 23.202 64.1067 24.2516C64.1067 25.3012 64.1067 26.3508 64.139 27.3842C64.139 28.2239 63.8806 28.3531 63.1055 28.3531C61.297 28.2885 59.4885 28.2885 57.6799 28.3531C56.9048 28.3531 56.6465 28.1593 56.6465 27.3196V15.5641C56.6465 14.2465 56.6537 12.9361 56.6609 11.6305V11.6304V11.6303V11.6302V11.6301V11.63V11.6299V11.6298V11.6297V11.6296V11.6295V11.6294V11.6293V11.6292V11.6291V11.629V11.6289C56.6752 9.031 56.6895 6.45212 56.6465 3.87323C56.6465 3.09815 56.7757 2.83978 57.6153 2.83978H70.0167C71.5023 2.83978 72.9233 3.03355 74.3443 3.48569ZM66.3494 14.746C67.6125 14.7891 68.8756 14.8321 70.0813 14.5307C71.6315 14.1431 72.4712 12.9159 72.4066 11.2366C72.4066 9.68639 71.5669 8.65294 70.0813 8.20081C69.3278 7.9855 68.5742 7.99447 67.8207 8.00345C67.67 8.00524 67.5192 8.00703 67.3685 8.00703C67.024 8.02856 66.6365 7.9855 66.249 7.94244C65.4739 7.85632 64.6988 7.7702 64.2682 8.20081C63.858 8.61101 63.9427 9.30778 64.0262 9.99331C64.0741 10.3872 64.1216 10.7774 64.0744 11.1074V14.0786C64.0744 14.1205 64.071 14.1658 64.0675 14.2123C64.0495 14.4525 64.0291 14.7245 64.462 14.7245C65.0863 14.7029 65.7179 14.7245 66.3494 14.746ZM220.965 3.42106C220.319 3.1627 219.673 3.22729 219.027 3.35647C218.615 3.40798 218.655 3.78808 218.688 4.10372C218.697 4.18389 218.704 4.25991 218.704 4.32533V14.5952C218.446 14.2077 218.317 14.0785 218.188 13.9493C215.41 10.3323 210.179 10.2031 207.401 13.8847C204.818 17.2435 204.688 21.0543 206.368 24.8006C208.564 29.7095 214.7 30.42 218.188 26.2216C218.227 26.1824 218.26 26.1433 218.296 26.1006C218.38 26.0023 218.479 25.885 218.704 25.7048V26.6091C218.704 27.4165 218.704 27.8202 218.906 28.022C219.108 28.2239 219.512 28.2239 220.319 28.2239C220.901 28.2239 221.094 28.0947 221.094 27.4488V4.13156C221.094 4.06795 221.102 3.99651 221.11 3.92398C221.134 3.70194 221.16 3.46975 220.965 3.42106ZM217.736 24.1547C216.767 26.0278 215.217 26.9966 213.085 26.9321C211.018 26.8675 209.597 25.7694 208.693 23.8963C208.112 22.6691 207.853 21.3127 207.918 20.0854C207.918 18.6645 208.112 17.4372 208.693 16.21C209.597 14.2723 211.018 13.0451 213.214 13.1097C215.475 13.1742 217.154 14.2723 217.994 16.4038C219.027 19.052 219.027 21.6356 217.736 24.1547ZM199.908 24.4773C200.166 23.9606 202.233 23.573 202.621 23.896C202.793 24.0682 202.736 24.2405 202.678 24.4127C202.649 24.4988 202.621 24.585 202.621 24.6711C201.652 27.0609 199.779 28.3528 197.26 28.7403C193.836 29.1924 190.801 28.5465 188.605 25.6399C186.279 22.6042 186.344 17.114 188.669 14.0782C190.542 11.5592 194.095 10.5257 197.518 11.5592C200.489 12.4635 202.427 14.9825 202.685 18.4058C202.815 20.4081 202.814 20.4081 200.812 20.4081H196.097H190.284C189.767 20.4081 189.509 20.4727 189.509 21.1186C189.638 24.9295 193.061 27.6423 196.743 26.8026C198.164 26.5442 199.197 25.7691 199.908 24.4773ZM193.643 13.3031C191.576 13.8199 189.896 15.8222 189.638 17.9537C189.573 18.535 189.832 18.535 190.219 18.4704H194.805H199.52C200.102 18.4704 200.295 18.3412 200.166 17.7599C199.973 16.9202 199.779 16.0805 199.262 15.37C197.97 13.5615 195.774 12.7218 193.643 13.3031ZM128.599 28.8698C131.441 28.676 133.637 27.4488 134.8 24.6714L134.813 24.6447L134.819 24.6329L134.834 24.6048L134.85 24.5745C134.97 24.3484 135.09 24.1224 134.864 23.8963C134.541 23.5733 132.474 23.8963 132.216 24.3484C131.57 25.6402 130.537 26.4153 129.116 26.8029C125.434 27.7071 121.881 24.9943 121.752 21.1835C121.752 20.5376 121.946 20.4084 122.527 20.4084H128.34H132.797C133.968 20.4084 134.549 20.4084 134.805 20.1199C135.057 19.8353 134.992 19.2702 134.864 18.1477C134.541 14.789 132.603 12.3992 129.503 11.5595C126.08 10.5906 122.527 11.5595 120.783 14.1431C118.458 17.5664 118.458 21.2481 120.267 24.8006C122.011 28.1593 125.046 29.1281 128.599 28.8698ZM121.817 18.0831C122.269 15.8225 123.561 14.0139 125.628 13.4326C127.824 12.7867 130.02 13.4972 131.376 15.3057C131.473 15.4349 131.554 15.5641 131.635 15.6933C131.715 15.8225 131.796 15.9516 131.893 16.0808C132.926 18.0831 132.668 18.5353 130.472 18.5353H127.113H122.463C122.431 18.5353 122.398 18.5359 122.364 18.5365C122.057 18.5424 121.7 18.5491 121.817 18.0831ZM24.9976 37.5897C25.7727 37.5897 26.1602 37.7835 26.4186 38.5585C27.0967 40.3347 27.8072 42.0947 28.5177 43.8547L28.5178 43.8549C29.2283 45.6151 29.9388 47.3752 30.617 49.1514L30.6465 49.2489C30.8214 49.8236 30.893 50.059 30.0356 50.1203C28.8084 50.1849 28.1625 49.7973 27.9687 48.6347C27.775 47.5366 27.1291 47.1491 26.031 47.2783C24.9976 47.3429 23.9641 47.3429 22.9307 47.2783C22.414 47.2783 22.0264 47.4075 21.8972 47.9888C21.8326 48.1825 21.768 48.3763 21.7035 48.5055C20.993 50.314 20.9284 50.3786 18.7969 49.9911L22.2848 41.0776C22.3799 40.8159 22.4926 40.5542 22.6067 40.2893C22.8023 39.835 23.002 39.3711 23.1244 38.8815C23.3828 37.848 23.9641 37.5251 24.9976 37.5897ZM23.512 45.5343H26.2894C26.8061 45.5343 26.8061 45.276 26.6123 44.953C26.1812 43.947 25.7856 42.9055 25.3465 41.7494C25.1935 41.3467 25.0353 40.9301 24.8684 40.4963C24.4167 41.6254 24.0282 42.6598 23.6587 43.6436C23.4998 44.0668 23.3444 44.4805 23.189 44.8884C23.0599 45.2114 22.9307 45.5343 23.512 45.5343ZM34.9367 42.4783L34.9367 42.4784L34.9366 42.4784C34.8135 42.5836 34.6726 42.704 34.4906 42.886C34.5395 41.8109 34.0338 41.8819 33.533 41.9523C33.3718 41.9749 33.2112 41.9974 33.0696 41.9817C32.4656 41.9817 32.5285 42.374 32.5856 42.7306C32.6018 42.8316 32.6175 42.9297 32.6175 43.0152C32.6175 46.2447 32.6175 49.5388 32.5529 52.7683C32.5529 53.5434 32.8113 53.7372 33.5218 53.7372C34.2969 53.7372 34.6198 53.5434 34.5552 52.7038C34.5129 51.9848 34.526 51.2659 34.5401 50.4926C34.5475 50.0848 34.5552 49.6619 34.5552 49.2159C37.0097 50.8952 39.012 50.5077 39.9808 48.3762C40.8205 46.5677 40.6913 44.6945 39.6579 43.0152C38.7536 41.465 36.6221 41.142 35.2011 42.2401C35.1166 42.3246 35.032 42.3969 34.9367 42.4783ZM37.9139 47.9241C37.591 48.5054 37.0743 48.8929 36.4284 48.8929C35.7179 48.8929 35.2011 48.5054 34.9428 47.9241C34.3615 46.6968 34.3615 45.3404 34.9428 44.1132C35.2011 43.5319 35.7179 43.1443 36.4284 43.1443C37.1389 43.1443 37.591 43.5319 37.9785 44.0486C38.3107 44.6022 38.3582 45.1559 38.4056 45.7095C38.4135 45.8018 38.4214 45.8941 38.4307 45.9863C38.4007 46.1512 38.3777 46.3125 38.3552 46.4704L38.3552 46.4705L38.3552 46.4705L38.3551 46.4706L38.3551 46.4706L38.3551 46.4707L38.3551 46.4708C38.2806 46.9933 38.2115 47.4777 37.9139 47.9241ZM44.5297 42.5891C45.0527 42.1577 45.5246 41.7685 46.1829 41.6588C47.6039 41.4004 49.0249 42.0463 49.6708 43.4027C50.3167 44.7591 50.3813 46.2447 50.0583 47.6657C49.477 49.8618 47.0872 51.5411 44.3098 49.2159C44.3098 49.6833 44.3021 50.1278 44.2947 50.5572C44.2806 51.3737 44.2675 52.1356 44.3098 52.8975C44.3744 53.7372 43.9868 53.7372 43.3409 53.7372C42.695 53.7372 42.3075 53.7372 42.3075 52.8329C42.3721 49.539 42.3721 46.3097 42.3721 43.0157V43.0152C42.3721 42.9436 42.3562 42.8561 42.3392 42.7626V42.7626C42.2797 42.4344 42.2066 42.032 42.7596 41.9817C42.8354 41.9741 42.913 41.9639 42.991 41.9536L42.9913 41.9535C43.5779 41.876 44.1882 41.7954 44.2452 42.8214C44.3425 42.7435 44.4369 42.6657 44.5297 42.5891ZM46.2475 48.8283C47.1518 48.8283 47.6685 48.247 47.9269 47.4073C48.1852 46.5676 48.1852 45.6634 47.9914 44.7591C47.7977 43.8548 47.2809 43.1443 46.2475 43.0797C45.4078 43.0152 44.6973 43.6611 44.439 44.7591C44.4067 44.9206 44.3905 45.0982 44.3744 45.2758C44.3582 45.4535 44.3421 45.6311 44.3098 45.7926C44.3296 45.9709 44.3433 46.1431 44.3566 46.3093C44.3865 46.6848 44.414 47.0293 44.5036 47.3427C44.7619 48.1824 45.2786 48.8283 46.2475 48.8283ZM173.748 41.7231C171.617 41.3355 169.808 42.369 169.163 44.3067C168.904 45.0818 168.84 45.9215 168.904 46.7612C168.969 48.3113 170.002 49.6677 171.423 50.1199C173.038 50.6366 175.105 50.1845 176.009 49.0864C176.181 48.9142 176.296 48.6845 176.411 48.4549C176.468 48.34 176.526 48.2252 176.59 48.1176C176.655 47.9884 176.72 47.7946 176.526 47.6654C176.203 47.4071 174.588 47.6654 174.33 48.053C173.878 48.7635 173.232 49.0864 172.392 48.8281C171.552 48.5697 171.165 47.8592 171.036 47.0195C170.971 46.5674 171.1 46.3736 171.552 46.4382C172.074 46.4817 172.596 46.4666 173.098 46.4521C173.342 46.4451 173.581 46.4382 173.813 46.4382H176.203C176.59 46.4382 176.784 46.3736 176.849 45.9215C176.978 43.8546 175.751 42.1106 173.748 41.7231ZM174.653 44.6943C174.612 45.0217 174.311 44.986 173.998 44.9488C173.817 44.9273 173.632 44.9053 173.49 44.9526C173.365 44.9943 173.24 44.9822 173.097 44.9683C173.019 44.9607 172.936 44.9526 172.844 44.9526H172.134C172.018 44.9295 171.885 44.9478 171.754 44.966C171.52 44.9986 171.289 45.0306 171.165 44.8234C170.976 44.4453 171.279 44.0671 171.533 43.749L171.552 43.7254C172.134 43.0795 172.909 42.9503 173.684 43.3379C174.33 43.5962 174.782 44.1775 174.653 44.6943ZM233.302 46.7615C232.979 43.209 235.24 40.9483 238.599 41.8526C240.278 42.2401 241.57 44.307 241.376 46.051C241.319 46.4524 241.109 46.4465 240.881 46.4402C240.853 46.4393 240.824 46.4385 240.795 46.4385H238.405H236.015C235.498 46.4385 235.434 46.6323 235.498 47.0844C235.627 47.9241 235.95 48.57 236.855 48.8284C237.694 49.0222 238.276 48.6992 238.792 47.9887C239.148 47.4549 239.657 47.5338 240.172 47.6136C240.404 47.6496 240.638 47.6859 240.859 47.6657C241.164 47.6657 241.066 47.9529 241 48.1481L240.988 48.1825C240.859 48.893 240.407 49.3451 239.826 49.7327C237.113 51.4766 233.561 49.991 233.302 46.7615ZM238.312 44.9963C238.635 45.065 238.963 45.1348 239.051 44.6946C239.18 44.1133 238.728 43.6611 238.211 43.2736C237.436 42.8215 236.402 43.0798 235.886 43.7903C235.856 43.8406 235.822 43.8925 235.788 43.9455C235.604 44.2324 235.399 44.5511 235.563 44.8238C235.659 45.0167 235.9 44.9935 236.15 44.9694C236.235 44.9612 236.321 44.9529 236.402 44.9529H237.242C237.334 44.9529 237.417 44.9611 237.495 44.9687C237.638 44.9825 237.763 44.9947 237.888 44.9529C238.012 44.9324 238.161 44.9642 238.312 44.9963ZM197.84 41.7878C195.063 41.0127 192.931 42.5629 192.608 45.534C192.415 47.278 192.802 48.7636 194.417 49.797C195.838 50.6367 197.905 50.5721 199.261 49.6032C199.778 49.2157 200.165 48.7636 200.295 48.1177C200.359 47.9239 200.424 47.6009 200.101 47.6655C199.888 47.6832 199.671 47.6573 199.456 47.6315C198.885 47.5633 198.327 47.4966 197.905 48.2468C197.323 49.2157 196.096 49.2157 195.321 48.376C194.804 47.8593 194.74 47.2134 194.675 46.5029H199.778C199.828 46.5029 199.879 46.506 199.928 46.5091C200.197 46.5259 200.444 46.5413 200.553 46.0508C200.811 44.2422 199.584 42.3045 197.84 41.7878ZM198.292 44.6944C198.204 45.0916 197.874 45.0364 197.551 44.9822C197.401 44.9571 197.252 44.9323 197.13 44.9527C197.003 44.9949 196.904 44.982 196.797 44.9679C196.74 44.9605 196.68 44.9527 196.613 44.9527H195.773C195.657 44.9296 195.525 44.9479 195.394 44.9661C195.159 44.9987 194.929 45.0307 194.804 44.8235C194.63 44.4755 194.873 44.1795 195.112 43.8888C195.139 43.8559 195.166 43.823 195.192 43.7901C195.709 43.0796 196.678 42.8858 197.453 43.338C198.034 43.6609 198.421 44.113 198.292 44.6944ZM272.508 45.9862C272.767 42.7566 274.834 41.0773 277.611 41.7232C279.484 42.1753 280.776 44.0484 280.518 46.0507C280.46 46.5145 280.246 46.51 279.969 46.5042H279.969H279.968H279.968H279.968C279.95 46.5038 279.932 46.5035 279.914 46.5032C279.9 46.503 279.886 46.5029 279.872 46.5029H277.482C277.24 46.5029 277.006 46.5104 276.776 46.5177C276.332 46.5319 275.906 46.5455 275.48 46.5029C274.64 46.3737 274.446 46.6967 274.704 47.4717C274.963 48.2468 275.415 48.8281 276.19 48.9573C276.901 49.0865 277.482 48.7636 277.934 48.1176C278.128 47.7301 279.678 47.4717 280.065 47.6655C280.307 47.7865 280.266 47.9074 280.207 48.0814L280.195 48.1176C280.13 48.6344 279.807 49.0219 279.42 49.4095C278.257 50.4429 276.19 50.7013 274.64 49.9908C273.283 49.2803 272.379 47.6655 272.508 45.9862ZM277.645 44.9644C277.947 45.0155 278.239 45.065 278.322 44.6943C278.386 44.113 277.999 43.5963 277.353 43.2733C276.578 42.8858 275.673 43.0796 275.157 43.7901C275.126 43.8404 275.093 43.8923 275.059 43.9453C274.875 44.2322 274.67 44.5509 274.834 44.8235C274.93 45.0165 275.171 44.9933 275.421 44.9692C275.506 44.961 275.592 44.9527 275.673 44.9527H276.513C276.604 44.9527 276.688 44.9608 276.766 44.9684C276.909 44.9823 277.034 44.9944 277.159 44.9527C277.299 44.9059 277.474 44.9354 277.645 44.9644ZM94.5619 41.6588C91.8491 41.6588 90.2344 43.209 90.2344 45.9864C90.2344 48.7638 91.8491 50.4431 94.4328 50.4431C97.0164 50.4431 98.6312 48.7638 98.6312 46.1156C98.6957 43.2736 97.1456 41.6588 94.5619 41.6588ZM94.4974 48.893C93.2055 48.893 92.3659 47.7949 92.3659 45.9864C92.3659 44.1778 93.1409 43.0798 94.4974 43.0798C95.8538 43.0798 96.5642 44.1133 96.5642 45.9864C96.4997 47.7949 95.7892 48.893 94.4974 48.893ZM75.5718 41.9169C76.799 42.2399 77.4449 43.4025 77.5095 44.8881V48.2468C77.5095 48.8281 77.6387 49.3449 77.8325 49.9262C76.0239 50.2491 75.8302 50.1845 75.378 49.1511C74.4092 50.1199 73.2465 50.6367 71.8255 50.1845C70.5983 49.8616 69.8878 48.7635 70.017 47.6009C70.1462 46.4383 70.9213 45.5986 72.1485 45.4048C72.5272 45.3417 72.8905 45.3094 73.246 45.2778C73.6179 45.2448 73.9813 45.2125 74.3446 45.1465C74.9259 45.0819 75.5072 44.8881 75.5072 44.1776C75.5072 43.5317 74.9905 43.2733 74.4092 43.1442C73.6341 43.015 72.9882 43.0796 72.4715 43.7901C72.1123 44.2839 71.6595 44.2161 71.2216 44.1505C71.0295 44.1217 70.8402 44.0933 70.6629 44.113C70.4046 44.1776 70.4691 43.8546 70.5337 43.7255C70.5983 43.3379 70.7275 42.9504 71.0505 42.6274C72.4069 41.4002 73.957 41.4648 75.5718 41.9169ZM72.2777 48.053C72.536 48.9573 73.3111 48.9573 74.0862 48.8281C74.9905 48.6344 75.4426 48.1176 75.4426 47.1488V45.4694C74.9503 46.0602 74.3829 46.2382 73.8549 46.4039C73.6902 46.4555 73.5293 46.506 73.3757 46.5675C72.6652 46.8258 72.0193 47.2134 72.2777 48.053ZM157.215 45.728C157.215 45.2759 157.15 44.8238 157.085 44.3716C156.956 43.0152 156.246 42.1109 154.889 41.788C153.404 41.4005 151.918 41.4005 150.691 42.5631C150.368 42.8214 150.239 43.2736 150.174 43.6611C150.11 43.8549 150.11 44.1778 150.433 44.1133C150.608 44.0957 150.783 44.1115 150.955 44.127C151.419 44.1686 151.864 44.2086 152.241 43.5965C152.629 43.0152 153.339 42.9506 154.05 43.0798C154.566 43.209 155.148 43.4028 155.148 44.1133C155.148 44.8238 154.566 44.9529 153.985 45.0821C153.63 45.1467 153.291 45.179 152.952 45.2113C152.613 45.2436 152.273 45.2759 151.918 45.3405C150.626 45.4697 149.851 46.3093 149.722 47.472C149.593 48.8284 150.303 49.8618 151.595 50.1848C152.952 50.5723 154.05 50.0556 155.148 49.0221C155.255 50.3119 156.033 50.1709 156.701 50.0499C156.836 50.0255 156.966 50.0019 157.085 49.991C157.637 49.9062 157.492 49.5988 157.346 49.288C157.269 49.1252 157.192 48.9615 157.215 48.8284C157.258 48.1825 157.243 47.4791 157.229 46.7758C157.222 46.4242 157.215 46.0725 157.215 45.728ZM155.148 47.0844C155.083 48.1179 154.566 48.6992 153.597 48.8284C152.887 48.893 152.112 48.8284 151.918 47.9887C151.724 47.2136 152.306 46.8261 152.952 46.5677C153.058 46.5289 153.165 46.4915 153.272 46.454C153.877 46.2423 154.489 46.0281 155.148 45.5343V47.0844ZM136.092 41.917C137.384 42.24 137.965 43.2734 138.095 44.6298C138.139 45.2131 138.122 45.7964 138.104 46.3824V46.3825V46.3826C138.071 47.4837 138.038 48.5944 138.418 49.7325C138.482 49.8617 138.482 49.9909 138.353 50.0555C137.772 50.443 136.415 49.9263 136.157 49.1512C135.123 50.1846 134.025 50.7014 132.604 50.3138C131.313 49.9263 130.731 49.022 130.796 47.601C130.86 46.4384 131.7 45.6633 132.927 45.4695C133.702 45.4049 134.413 45.3403 135.188 45.2112C135.64 45.1466 136.157 44.8882 136.157 44.3069C136.157 43.7256 135.769 43.4026 135.253 43.2734C134.413 43.0151 133.638 43.0797 133.121 43.8548C132.762 44.3486 132.309 44.2808 131.871 44.2151C131.679 44.1864 131.49 44.158 131.313 44.1777C131.153 44.1777 131.169 43.9594 131.179 43.81C131.181 43.7777 131.183 43.7485 131.183 43.7256C131.183 43.2734 131.377 42.8859 131.7 42.6275C132.992 41.4649 134.542 41.4649 136.092 41.917ZM134.671 48.8282C135.576 48.6345 136.028 48.0531 136.092 47.1489C136.134 46.8592 136.122 46.5695 136.108 46.2289V46.2287V46.2286L136.108 46.2278C136.101 46.0371 136.092 45.8304 136.092 45.5987C135.382 46.1154 134.671 46.3738 133.961 46.5676C133.25 46.8259 132.604 47.2135 132.863 48.0531C133.121 48.8928 133.896 48.9574 134.671 48.8282ZM87.9076 6.19836C87.9076 4.32523 86.3574 2.77505 84.4843 2.77505C82.4819 2.77505 80.9318 4.26064 80.8672 6.13377C80.8672 8.07149 82.4174 9.68625 84.2905 9.68625C86.3574 9.75084 87.9076 8.20067 87.9076 6.19836ZM84.4197 9.10494C82.8049 9.10494 81.5131 7.81312 81.5777 6.13377C81.5777 4.58359 82.9341 3.29178 84.4843 3.29178C85.9698 3.29178 87.3263 4.71277 87.3263 6.19836C87.2617 7.81312 85.9699 9.10494 84.4197 9.10494ZM85.0005 4.26081C85.711 4.3254 86.0986 4.84212 85.9048 5.48803C85.6956 6.11544 85.7845 6.68868 85.873 7.26037C85.9212 7.57149 85.9694 7.88215 85.9694 8.20084C85.2589 8.39461 84.9359 8.13625 85.0005 7.42575C85.0651 6.84443 84.9359 6.52148 84.2254 6.52148C83.6445 6.52148 83.6249 6.82376 83.6018 7.18117C83.5966 7.26087 83.5913 7.34331 83.5795 7.42575C83.5618 7.49678 83.5684 7.58733 83.5753 7.68131C83.5935 7.92917 83.6135 8.20084 83.192 8.20084C82.726 8.20084 82.7581 7.91033 82.7891 7.62872C82.7968 7.559 82.8044 7.48983 82.8044 7.42575V4.90671C82.8044 4.38999 82.9336 4.13163 83.5149 4.19622C83.7733 4.22851 84.0317 4.22851 84.282 4.22851C84.5322 4.22851 84.7745 4.22851 85.0005 4.26081ZM83.6441 5.42344C83.6441 5.94016 83.9025 5.94016 84.2254 5.94016C84.6776 5.94016 85.0651 5.87557 85.1297 5.48803C85.1297 4.90671 84.6776 4.90671 84.2254 4.90671C83.8379 4.90671 83.6441 5.03589 83.6441 5.42344Z" fill="#00BEB3"/>
</svg>
