<svg width="154" height="63" viewBox="0 0 154 63" fill="none" xmlns="http://www.w3.org/2000/svg">
<path d="M153.513 25.426C149.477 25.426 145.44 25.426 141.404 25.426C141.246 25.426 141.088 25.426 140.904 25.426C140.904 26.2892 140.904 27.087 140.904 27.9371C141.338 27.9371 141.733 27.9371 142.14 27.9371C142.548 27.9371 142.955 27.9371 143.363 27.9371C143.771 27.9371 144.178 27.9371 144.586 27.9371C144.993 27.9371 145.388 27.924 145.822 27.9502C145.822 28.4734 145.822 28.9442 145.822 29.415C145.822 29.8989 145.822 30.3828 145.822 30.8667C145.822 31.3376 145.822 31.8084 145.822 32.2792C145.822 32.7632 145.822 33.2471 145.822 33.731C145.822 34.2018 145.822 34.6726 145.822 35.1435C145.822 35.6274 145.822 36.1113 145.822 36.5952C145.835 37.066 145.782 37.5238 145.848 37.9946C146.952 37.9946 148.004 37.9946 149.109 37.9946C149.109 34.6334 149.109 31.2983 149.109 27.9371C149.293 27.924 149.424 27.911 149.556 27.911C150.213 27.911 150.857 27.911 151.515 27.911C152.343 27.911 153.172 27.8979 154 27.8979C154 27.0609 154 26.2238 154 25.3868C153.842 25.4129 153.684 25.426 153.513 25.426Z" fill="#7E7D85"/>
<path d="M32.8263 39.2241C34.1017 36.8045 35.3902 34.3719 36.6787 31.9654C36.8365 31.6777 36.8497 31.4553 36.6919 31.1545C35.8636 29.6505 35.0747 28.1333 34.2726 26.6162C31.9323 22.1956 29.605 17.7881 27.2647 13.3675C27.1858 13.2236 27.1069 13.0667 26.9885 12.8705C26.2391 14.283 25.5291 15.6301 24.8191 16.9641C24.8848 17.0819 24.9243 17.1865 24.9769 17.278C25.7658 18.7559 26.5415 20.2338 27.3304 21.7117C29.0134 24.9029 30.6963 28.081 32.3924 31.2722C32.4976 31.4684 32.4976 31.6384 32.3924 31.8346C32.0111 32.5278 31.643 33.234 31.2617 33.9403C29.3421 37.5762 27.4093 41.2251 25.4897 44.861C23.3597 48.8761 21.2296 52.9044 19.1128 56.9195C18.9287 57.2596 18.7446 57.5996 18.5211 58.0051C13.8141 49.1377 9.15963 40.3488 4.50518 31.5469C9.98797 21.2016 15.4576 10.8564 20.9535 0.471924C19.4546 0.471924 18.0346 0.471924 16.6015 0.471924C16.5489 0.563475 16.5095 0.628868 16.47 0.70734C14.9448 3.58465 13.4196 6.46196 11.9076 9.33927C9.31741 14.2438 6.71407 19.1483 4.12389 24.0528C2.84851 26.4462 1.58629 28.8527 0.310918 31.2461C0.192585 31.4684 0.192585 31.6515 0.310918 31.8739C1.23129 33.5872 2.12536 35.3135 3.03259 37.0269C5.32037 41.3428 7.595 45.6719 9.88278 49.9878C11.9076 53.8199 13.9193 57.6519 15.9441 61.484C16.1545 61.8764 16.3648 62.2687 16.5752 62.6611C17.8111 62.6611 19.0076 62.6611 20.2172 62.6611C20.4145 62.6611 20.4671 62.5434 20.5459 62.4126C20.7432 62.0333 20.9404 61.6409 21.1508 61.2617C22.9258 57.9135 24.7008 54.5523 26.4758 51.2041C28.5926 47.2151 30.7095 43.2262 32.8263 39.2241Z" fill="#7E7D85"/>
<path d="M37.8496 15.8394C35.7459 11.8373 33.6291 7.83527 31.5122 3.84627C30.9206 2.7215 30.3289 1.60981 29.7372 0.485046C28.4355 0.485046 27.1602 0.485046 25.8585 0.485046C20.3757 10.8434 14.9061 21.1886 9.41016 31.56C12.6972 37.7724 15.9842 43.9848 19.3107 50.2625C20.0602 48.837 20.7833 47.4898 21.4802 46.1558C21.4013 45.9989 21.3355 45.8681 21.2698 45.7373C20.2574 43.8278 19.245 41.9183 18.2326 40.0088C16.7994 37.3146 15.3794 34.6204 13.9463 31.9262C13.8148 31.6777 13.8148 31.4815 13.9463 31.22C14.6431 29.9382 15.3137 28.6435 15.9974 27.3487C18.0354 23.4905 20.0865 19.6453 22.1244 15.7871C23.9389 12.3474 25.7665 8.9208 27.5809 5.4811C27.6335 5.37648 27.6993 5.27185 27.7781 5.14106C27.8702 5.298 27.9359 5.40263 28.0017 5.52034C28.4881 6.43585 28.9746 7.36444 29.4611 8.27994C31.5385 12.2166 33.6291 16.1533 35.7065 20.09C37.6656 23.8043 39.6378 27.5187 41.61 31.22C41.7546 31.4815 41.7415 31.6646 41.5969 31.9262C39.4537 35.9675 37.3106 40.0088 35.1674 44.0632C33.4844 47.2413 31.8015 50.4064 30.1317 53.5845C28.5933 56.488 27.0681 59.3784 25.5298 62.2818C25.4641 62.3995 25.4246 62.5173 25.3457 62.6742C26.8183 62.6742 28.2383 62.6742 29.6846 62.6742C30.0922 61.9026 30.513 61.1309 30.9206 60.3462C32.9454 56.5141 34.9702 52.6821 36.995 48.85C39.9796 43.2 42.9643 37.5631 45.9621 31.9262C46.0935 31.6777 46.1067 31.4815 45.9621 31.22C43.2535 26.08 40.545 20.9532 37.8496 15.8394Z" fill="#7E7D85"/>
<path d="M93.0708 29.4281C93.0708 30.7491 93.084 32.0569 93.0708 33.3779C93.0445 33.391 93.0051 33.404 92.9788 33.4171C92.9262 33.3517 92.8867 33.2863 92.8342 33.2209C91.756 32.0046 90.6647 30.8014 89.5866 29.5851C88.4295 28.2903 87.2725 27.0086 86.1286 25.7138C85.984 25.5568 85.8525 25.413 85.5895 25.413C84.6823 25.426 83.7751 25.413 82.8547 25.426C82.7495 25.426 82.6575 25.4522 82.5654 25.4653C82.5654 29.6635 82.5654 33.8356 82.5654 37.9947C83.0782 38.0731 85.5369 38.047 85.8262 37.9685C85.8262 37.9554 85.8393 37.9423 85.8393 37.9293C85.8393 35.3528 85.8525 32.7763 85.8525 30.1998C85.8525 30.1736 85.8656 30.1474 85.8656 30.1213C85.8656 30.1082 85.8788 30.1082 85.8919 30.0951C85.9051 30.0951 85.9182 30.0821 85.9445 30.0821C86.6282 30.8537 87.3251 31.6253 88.0219 32.397C89.6128 34.1757 91.2038 35.9413 92.7816 37.7331C92.9788 37.9554 93.176 38.047 93.4784 38.0339C94.3199 38.0208 95.1614 38.0339 96.0029 38.0208C96.1212 38.0208 96.2395 38.0077 96.3447 37.9947C96.3447 33.7964 96.3447 29.6243 96.3447 25.4391C95.2534 25.4391 94.1884 25.4391 93.0708 25.4391C93.0708 26.7993 93.0708 28.1203 93.0708 29.4281Z" fill="#7E7D85"/>
<path d="M71.8363 35.5097C71.8363 34.6465 71.8363 33.8095 71.8363 32.9463C74.0978 32.9463 76.333 32.9463 78.555 32.9463C78.6339 32.397 78.6207 30.749 78.5155 30.4221C76.2935 30.4221 74.0583 30.4221 71.7968 30.4221C71.7968 29.585 71.7837 28.7742 71.7968 27.9371C72.3491 27.9371 72.8487 27.9371 73.3483 27.9371C73.848 27.9371 74.3476 27.9371 74.8604 27.9371C75.3731 27.9371 75.8596 27.9371 76.3724 27.9371C76.8852 27.9371 77.3717 27.9371 77.8844 27.9371C78.3841 27.924 78.8837 27.9633 79.3702 27.911C79.3702 27.0609 79.3702 26.2631 79.3702 25.4653C78.7785 25.3737 68.8122 25.4129 68.5229 25.4914C68.5229 29.6504 68.5229 33.8225 68.5229 38.0077C72.2044 38.0077 75.8596 38.0077 79.5148 38.0077C79.5937 37.5107 79.5806 35.8236 79.4885 35.4966C76.9509 35.5097 74.4002 35.5097 71.8363 35.5097Z" fill="#7E7D85"/>
<path d="M128.387 25.426C127.296 25.426 126.231 25.426 125.139 25.426C125.139 25.6091 125.139 25.7268 125.139 25.8445C125.139 26.4462 125.139 27.0609 125.139 27.6625C125.139 29.6504 125.126 31.6253 125.139 33.6133C125.139 34.1757 124.916 34.568 124.456 34.8688C124.298 34.9735 124.127 35.0519 123.956 35.1304C123.469 35.3527 122.943 35.4443 122.418 35.4966C121.471 35.5882 120.551 35.4705 119.683 35.065C119.012 34.7511 118.657 34.2803 118.67 33.4825C118.71 30.9583 118.683 28.4341 118.683 25.9099C118.683 25.753 118.67 25.596 118.657 25.4522C117.54 25.4522 116.488 25.4522 115.396 25.4522C115.383 25.583 115.383 25.6614 115.383 25.7399C115.383 28.4995 115.383 31.246 115.383 34.0056C115.383 34.3326 115.436 34.6465 115.502 34.9604C115.791 36.2159 116.606 37.0268 117.763 37.55C118.881 38.06 120.077 38.2301 121.287 38.2693C122.207 38.2955 123.128 38.2039 124.048 38.0993C124.811 38.0077 125.56 37.8115 126.27 37.4715C127.322 36.9614 128.032 36.1767 128.295 35.0389C128.387 34.6334 128.426 34.2149 128.426 33.7964C128.439 31.1414 128.426 28.4734 128.426 25.8184C128.413 25.7007 128.4 25.583 128.387 25.426Z" fill="#7E7D85"/>
<path d="M135.303 25.4915C134.843 25.3999 132.318 25.413 132.029 25.5046C132.029 29.6767 132.029 33.8357 132.029 38.0209C135.526 38.0209 138.997 38.0209 142.482 38.0209C142.482 37.1969 142.482 36.386 142.482 35.5098C140.089 35.5098 137.709 35.5098 135.303 35.5098C135.303 32.1355 135.303 28.8135 135.303 25.4915Z" fill="#7E7D85"/>
<path d="M63.1196 33.2339C64.5264 32.2269 65.2627 30.8928 65.0655 29.1403C64.934 27.8586 64.4081 26.8123 63.2642 26.1322C62.4359 25.6352 61.5155 25.439 60.582 25.426C57.8998 25.3998 55.2044 25.4129 52.5222 25.4129C52.4301 25.4129 52.3512 25.439 52.2592 25.4521C52.2461 25.5306 52.2329 25.5829 52.2329 25.6352C52.2329 29.7027 52.2329 33.7571 52.2329 37.8245C52.2329 37.8638 52.2461 37.903 52.2592 37.9423C52.2592 37.9553 52.2724 37.9684 52.2855 37.9815C52.2987 37.9946 52.3118 37.9946 52.3118 37.9946C53.3899 37.9946 54.4549 37.9946 55.5462 37.9946C55.5462 36.6998 55.5462 35.4312 55.5462 34.1102C55.7172 34.1102 55.8355 34.1102 55.967 34.1102C57.0057 34.1102 58.0575 34.1233 59.0962 34.0971C59.3855 34.0971 59.5301 34.2018 59.6748 34.4372C60.2927 35.5096 60.9238 36.5821 61.555 37.6545C61.6338 37.7853 61.7127 37.903 61.7785 38.0077C63.159 38.073 65.197 38.0469 65.5126 37.9423C64.6316 36.4251 63.7507 34.9211 62.8566 33.404C62.9618 33.3386 63.0407 33.2993 63.1196 33.2339ZM61.2263 30.8536C61.0027 31.3375 60.6609 31.5991 60.0824 31.586C58.7018 31.5599 57.3081 31.5729 55.9275 31.5729C55.8092 31.5729 55.6909 31.5599 55.5331 31.5599C55.5331 30.3435 55.5331 29.1665 55.5331 27.9632C55.6514 27.9501 55.7435 27.9371 55.8487 27.9371C57.1372 27.9371 58.4257 27.9371 59.7142 27.9371C59.9114 27.9371 60.1218 27.9632 60.319 28.0025C60.7529 28.094 61.0948 28.3425 61.2526 28.761C61.5155 29.4673 61.5418 30.1604 61.2263 30.8536Z" fill="#7E7D85"/>
<path d="M111.124 31.9786C110.204 29.9121 109.283 27.8326 108.376 25.7662C108.271 25.5177 108.139 25.4131 107.863 25.4261C107.377 25.4523 106.89 25.4261 106.391 25.4261C105.628 25.4261 104.865 25.4261 104.103 25.4261C103.906 25.4261 103.761 25.4784 103.695 25.6746C103.669 25.7531 103.63 25.8185 103.603 25.897C101.868 29.8075 100.132 33.718 98.3966 37.6285C98.344 37.7463 98.3045 37.877 98.252 38.0209C99.5142 38.0209 100.75 38.0209 101.986 38.0209C102.275 37.3147 102.551 36.6215 102.814 35.9414C104.971 35.9414 107.088 35.9414 109.191 35.9414C109.48 36.6607 109.757 37.3408 110.033 38.0209C111.282 38.0209 112.505 38.0209 113.767 38.0209C113.701 37.864 113.662 37.7201 113.596 37.5893C112.794 35.7191 111.965 33.8488 111.124 31.9786ZM103.866 33.3387C104.563 31.5339 105.273 29.7552 106.023 27.8718C106.759 29.7421 107.469 31.5208 108.179 33.3387C106.733 33.3387 105.326 33.3387 103.866 33.3387Z" fill="#7E7D85"/>
</svg>
