<svg width="232" height="56" viewBox="0 0 232 56" fill="none" xmlns="http://www.w3.org/2000/svg">
<path fill-rule="evenodd" clip-rule="evenodd" d="M87.6863 3.94123C89.3598 6.93318 88.1934 10.7872 85.1508 12.2578C82.1081 13.7284 78.4062 12.41 77.037 9.3673C75.6171 6.22322 77.0878 2.67346 80.3333 1.35498C80.4102 1.3242 80.4965 1.30743 80.5836 1.2905C80.7836 1.25164 80.988 1.21193 81.0939 1H83.9844C85.5058 1.60853 86.875 2.41991 87.6863 3.94123ZM87.3314 6.93318C87.3821 4.09336 85.2522 1.9128 82.4631 1.9128C79.7754 1.9128 77.5442 4.14408 77.5442 6.83175C77.5442 9.57014 79.674 11.8014 82.4124 11.8014C85.2015 11.8014 87.3314 9.72227 87.3314 6.93318ZM20.9499 15.6555C19.5807 14.4891 17.9073 13.8806 16.2338 13.3735C15.5588 13.1587 14.8745 12.9718 14.1894 12.7846C12.6097 12.3531 11.0255 11.9204 9.53999 11.1422C7.86653 10.2801 7.41013 8.35312 8.62719 7.08535C9.23572 6.42611 10.0471 6.17255 10.9092 6.07113C13.9011 5.76686 16.3352 6.8825 18.1608 9.26592C18.6172 9.82374 18.8201 9.82374 19.3272 9.41805C20.0329 8.82381 20.7657 8.28397 21.5059 7.73877C21.7763 7.53955 22.0477 7.33962 22.3191 7.13606C22.7755 6.78108 22.7755 6.57824 22.4713 6.12184C20.3414 3.28203 17.5523 1.65928 14.0533 1.25359C14.0533 1.23259 14.0446 1.21158 14.0344 1.18698C14.0199 1.15217 14.0025 1.11016 14.0025 1.05075H9.99638V1.05075C9.99638 1.10146 9.99638 1.15217 9.94567 1.25359C8.52577 1.35502 7.20729 1.7607 5.93951 2.47066C3.30255 3.99198 2.03477 6.27397 1.98406 9.26592C1.93335 12.1564 3.35326 14.1342 5.8888 15.4526C6.90471 16.0029 7.99128 16.3412 9.06004 16.6739L9.0603 16.674L9.06046 16.6741C9.27194 16.7399 9.48272 16.8055 9.69212 16.8726C10.252 17.0448 10.816 17.2008 11.3794 17.3567L11.3794 17.3567L11.3794 17.3567L11.3794 17.3567C12.8062 17.7514 14.2295 18.1452 15.5746 18.7996C17.0452 19.5095 17.603 20.3716 17.5016 21.6901C17.3495 23.11 16.386 23.7692 15.1689 24.1749C11.6698 25.2906 7.96795 23.8707 5.8888 20.6252C5.48312 20.0166 5.22956 19.9152 4.62103 20.3209C3.65752 20.9801 2.64331 21.5887 1.57838 22.0958C0.868424 22.4508 0.868424 22.755 1.27411 23.4143C5.33098 30.7166 15.6253 30.5138 20.1893 27.3697C24.2461 24.5299 24.6011 18.6981 20.9499 15.6555ZM109.694 29.246C113.599 28.7389 116.895 25.5948 117.909 21.3351C117.921 21.2863 117.945 21.2257 117.971 21.1604C118.053 20.9546 118.153 20.7022 117.96 20.6252C117.25 20.3716 116.489 20.1181 115.729 20.1181C115.443 20.1181 115.384 20.4193 115.321 20.7392C115.294 20.8739 115.267 21.012 115.222 21.1323C113.954 24.8849 111.621 26.8119 108.274 26.964C104.471 27.1162 101.682 25.2906 100.16 21.6901C99.0955 19.2053 98.8927 16.5683 99.0448 13.9313C99.1969 11.2944 99.8055 8.86023 101.428 6.73037C103.152 4.39767 105.536 3.43416 108.376 3.5863C111.469 3.73843 113.345 5.51331 114.461 8.2517C114.613 8.7081 114.765 9.1645 114.968 9.57018C115.019 9.72231 115.171 10.0266 115.222 10.0266C115.412 9.98855 115.605 9.95685 115.798 9.92516C116.378 9.83008 116.958 9.73499 117.453 9.46876C117.81 9.27035 117.608 8.85459 117.431 8.48874C117.381 8.38705 117.334 8.28922 117.301 8.20099C115.932 4.44838 113.7 1.65928 109.339 1.20288V1.20286C109.339 1.15216 109.339 1.10145 109.288 1.05075H106.195C106.195 1.07176 106.186 1.09276 106.176 1.11737C106.162 1.15217 106.144 1.19418 106.144 1.25359C102.747 1.65928 100.11 3.43416 98.5377 6.32468C95.3429 12.2071 95.3936 18.2925 98.487 24.1749C100.617 28.1811 104.775 29.9053 109.694 29.246ZM154.851 11.6496C154.627 11.6368 154.397 11.6237 154.167 11.6493C153.254 11.7507 153 11.4971 152.95 10.4829C152.899 9.41799 153.305 9.31656 154.217 9.31656C155.367 9.34211 155.937 9.35479 156.22 9.07583C156.499 8.80104 156.499 8.24325 156.499 7.136C156.499 6.6965 156.505 6.25701 156.511 5.81751C156.522 4.93852 156.533 4.05953 156.499 3.18055C156.449 2.57201 156.702 2.36917 157.311 2.36917C157.522 2.37398 157.71 2.37651 157.876 2.37875C158.593 2.38841 158.909 2.39268 159.046 2.55166C159.154 2.67763 159.148 2.90076 159.139 3.3007V3.30084V3.301V3.30116V3.30135V3.30154V3.30176V3.30199V3.30224V3.30252V3.30282V3.30314V3.3035V3.30388V3.3043V3.30476V3.30525V3.30579V3.30637C159.134 3.51643 159.128 3.77495 159.136 4.09334C159.187 5.51325 159.238 6.98386 159.136 8.40377C159.086 9.26585 159.39 9.4687 160.201 9.41799C160.81 9.36003 161.418 9.36831 162.027 9.37659C162.483 9.3828 162.94 9.38901 163.396 9.36728C164.233 9.32079 164.175 9.82839 164.12 10.3039L164.12 10.307C164.115 10.3491 164.11 10.391 164.106 10.4322C164.106 10.5321 164.12 10.6417 164.134 10.7531C164.191 11.2074 164.251 11.69 163.396 11.6493C162.813 11.6239 162.242 11.6366 161.672 11.6493C161.101 11.6619 160.531 11.6746 159.948 11.6493C159.339 11.6493 159.086 11.8014 159.086 12.4606C159.086 13.7622 159.08 15.0638 159.074 16.3654C159.063 18.9685 159.052 21.5717 159.086 24.1749C159.086 26.1526 159.948 26.9132 161.875 26.964C162.054 26.9896 162.234 26.9763 162.407 26.9635C162.576 26.951 162.739 26.9389 162.889 26.964C163.072 27.0047 163.272 26.9471 163.459 26.8933C163.736 26.8133 163.985 26.7418 164.106 27.0147C164.29 27.3463 164.26 27.7583 164.23 28.1727C164.219 28.3287 164.207 28.4849 164.207 28.6374C164.157 29.0431 163.852 29.0938 163.548 29.0938C162.28 29.1952 161.013 29.2967 159.796 29.0431C157.666 28.6374 156.651 27.4204 156.499 25.2398V24.8848V18.7995C156.499 18.1046 156.494 17.4153 156.488 16.7279C156.477 15.3587 156.466 13.997 156.499 12.6128C156.499 11.8014 156.246 11.5478 155.485 11.6493C155.284 11.6744 155.071 11.6622 154.851 11.6496ZM182.516 1.55778C180.031 0.644984 176.633 2.52129 176.126 5.05683C176.004 5.62584 176.013 6.22742 176.021 6.80936V6.80978V6.81012V6.81046V6.81081V6.81115V6.81149V6.81183V6.81216V6.8125V6.81284V6.81317V6.8135C176.023 6.95625 176.025 7.0978 176.025 7.2374C176.025 9.36726 176.025 9.46868 173.793 9.36726C172.728 9.31655 172.475 9.67152 172.526 10.635C172.576 11.345 172.678 11.7507 173.489 11.6492C173.741 11.6241 173.992 11.6364 174.25 11.6489C174.512 11.6617 174.78 11.6748 175.061 11.6492C175.771 11.5985 176.025 11.8521 176.025 12.562C175.991 14.2524 176.002 15.9428 176.013 17.6331C176.019 18.4783 176.025 19.3235 176.025 20.1687V27.3696C176.025 28.0881 176.025 28.4435 176.202 28.6309C176.376 28.8142 176.719 28.8367 177.399 28.8813L177.546 28.891C178.408 28.9417 178.662 28.6881 178.662 27.826C178.628 24.7555 178.639 21.6625 178.65 18.577V18.5763V18.5757V18.575V18.5744V18.5737V18.5731V18.5724V18.5718V18.5711V18.5705V18.5698V18.5692V18.5686V18.5679V18.5673V18.5666V18.566V18.5654V18.5647V18.5641V18.5635V18.5628V18.5622V18.5616V18.561V18.5603V18.5597V18.5591V18.5584V18.5578V18.5572V18.5566V18.5559V18.5553V18.5547V18.5541V18.5534C178.656 17.0096 178.662 15.4676 178.662 13.9312C178.662 11.7 178.662 11.7 180.842 11.7C180.927 11.7 181.011 11.6943 181.096 11.6887C181.265 11.6774 181.434 11.6662 181.603 11.7C182.516 11.8521 182.769 11.4971 182.769 10.5843C182.769 9.67152 182.566 9.26584 181.603 9.46868C181.466 9.50293 181.306 9.49091 181.154 9.4795C181.081 9.47402 181.009 9.46868 180.944 9.46868C178.711 9.46868 178.711 9.46868 178.617 7.33229L178.611 7.18669C178.509 4.95541 179.219 3.73835 182.161 3.78906C182.232 3.78906 182.31 3.79727 182.387 3.80543C182.693 3.83783 182.992 3.86949 182.871 3.38337C182.855 3.18401 182.896 2.96609 182.935 2.75067L182.936 2.75052C183.027 2.25364 183.117 1.77001 182.516 1.55778ZM147.829 9.3166C148.285 9.21518 148.793 9.11376 149.249 9.06305C151.075 8.80949 151.176 8.91092 150.77 10.7872C150.72 11.2943 150.517 11.3958 150.01 11.3958C146.815 11.3958 144.584 13.0185 143.012 15.6555C142.707 16.1119 142.707 16.5683 142.707 17.0247C142.707 18.206 142.702 19.393 142.696 20.5819V20.5835V20.5851V20.5867V20.5883C142.685 22.9696 142.673 25.3584 142.707 27.7247C142.707 28.536 142.555 28.891 141.642 28.8403L141.513 28.8322L141.373 28.8237C140.749 28.786 140.424 28.7664 140.255 28.5938C140.07 28.4061 140.07 28.0376 140.07 27.2683C140.07 25.392 140.076 23.5157 140.082 21.6394C140.093 17.8867 140.104 14.1341 140.07 10.3815C140.07 9.57016 140.324 9.3166 141.135 9.36731L141.278 9.37169C142.003 9.39363 142.373 9.40482 142.561 9.59535C142.758 9.79387 142.758 10.1871 142.758 10.9901V13.0692C144.229 11.2436 145.699 9.82371 147.829 9.3166ZM160.963 49.1754C159.748 49.2091 158.555 49.198 157.355 49.1867C156.752 49.1811 156.147 49.1754 155.537 49.1754C154.877 49.1754 154.573 49.074 154.624 48.3133C154.675 47.2484 154.675 46.1834 154.624 45.1185C154.573 44.4593 154.776 44.2057 155.486 44.2564C156.069 44.2818 156.64 44.2818 157.21 44.2818C157.781 44.2818 158.351 44.2818 158.934 44.3071C159.543 44.3071 159.695 44.1043 159.695 43.5465C159.695 43.0394 159.594 42.7351 158.985 42.7351C158.207 42.769 157.407 42.7576 156.614 42.7463H156.614H156.614H156.613H156.613H156.613H156.613H156.613H156.613H156.613H156.612H156.612H156.612H156.612H156.612H156.612H156.612H156.611H156.611H156.611H156.611H156.611H156.611H156.611H156.611H156.61H156.61H156.61H156.61H156.61H156.61H156.61H156.609H156.609H156.609H156.609C156.215 42.7407 155.822 42.7351 155.435 42.7351C154.827 42.7351 154.675 42.5323 154.675 41.9744C154.725 41.1124 154.725 40.1996 154.675 39.3375C154.624 38.6782 154.928 38.5261 155.537 38.5261C156.654 38.56 157.794 38.5486 158.927 38.5373C159.49 38.5317 160.052 38.5261 160.608 38.5261C161.216 38.5261 161.419 38.374 161.419 37.7147C161.419 37.1062 161.216 36.9034 160.608 36.9034C158.376 36.9541 156.094 36.9541 153.863 36.9034C153.052 36.9034 152.95 37.2076 153.001 37.8669C153.035 39.1816 153.024 40.4964 153.012 41.8261C153.007 42.4966 153.001 43.1708 153.001 43.8507V49.9361C153.001 50.4939 153.153 50.6967 153.762 50.6967C156.196 50.646 158.63 50.646 161.064 50.6967C161.673 50.6967 161.875 50.5446 161.875 49.8853C161.825 49.2768 161.571 49.1754 160.963 49.1754ZM167.184 28.2337C167 28.046 167 27.6775 167 26.9082V18.7437C167 17.7821 167.006 16.8149 167.011 15.8457C167.023 13.9018 167.034 11.9503 167 10.0215C167 9.15938 167.254 8.95653 168.065 9.00724L168.208 9.01175C168.907 9.03359 169.264 9.04474 169.447 9.22893C169.637 9.42111 169.637 9.80167 169.637 10.5793V13.6726C169.637 15.194 169.631 16.7153 169.626 18.2366C169.614 21.2793 169.603 24.3219 169.637 27.3646C169.637 28.1253 169.536 28.5309 168.572 28.4802C168.477 28.4741 168.387 28.4687 168.303 28.4636C167.679 28.4259 167.354 28.4063 167.184 28.2337ZM189.412 11.1422C189.412 9.26587 189.412 9.26587 187.485 9.3673C186.978 9.3673 186.775 9.51943 186.775 10.0265V28.1303C186.775 28.6881 186.978 28.8403 187.485 28.7896C187.79 28.7389 188.094 28.7389 188.347 28.7896C189.159 28.891 189.412 28.6374 189.412 27.7754C189.379 25.8502 189.39 23.9476 189.401 22.0375V22.0354V22.0333V22.0311V22.029V22.0269V22.0248V22.0227V22.0205V22.0184V22.0163V22.0142V22.0121V22.01V22.0078V22.0057V22.0036V22.0015V21.9994V21.9973V21.9951V21.993V21.9909V21.9888V21.9867V21.9846V21.9824V21.9803V21.9782V21.9761V21.974V21.9719V21.9697V21.9676C189.407 21.0329 189.412 20.0964 189.412 19.1545V11.1422ZM78.6592 46.9948C78.9634 46.082 79.4198 46.1834 80.0284 46.3862C80.7479 46.6261 80.5221 47.0235 80.3197 47.3797C80.2654 47.4754 80.2127 47.5681 80.1805 47.654C78.6592 51.9137 73.3852 51.6602 71.2554 49.4289C68.6184 46.6398 68.7705 40.7066 71.5596 38.1204C73.6895 36.1426 78.7606 35.9398 80.0791 40.1995C80.1021 40.2685 80.1285 40.3363 80.1543 40.4022C80.2988 40.7727 80.4205 41.0846 79.7748 41.2137C79.6701 41.2347 79.5676 41.2686 79.4677 41.3016C79.0836 41.4286 78.738 41.5429 78.4563 40.8588C77.6957 38.9825 76.7322 38.3232 75.1094 38.3739C73.4359 38.4246 72.2189 39.3881 71.5596 41.0616C71.4075 41.5179 71.3061 41.9743 71.2047 42.4306L71.2047 42.4308C71.1793 42.659 71.1666 42.8998 71.154 43.1407C71.1413 43.3816 71.1286 43.6225 71.1032 43.8507C71.1032 44.9663 71.2554 46.082 71.7118 47.0962C72.4217 48.6682 73.6388 49.5303 75.363 49.4796C77.0871 49.4289 78.1521 48.5161 78.6592 46.9948ZM98.5875 40.7574C97.1168 40.656 95.9505 41.2138 94.4799 42.3801C94.9363 41.0109 94.3785 40.9602 93.5671 40.9602C92.7567 40.9602 92.8205 41.4135 92.8788 41.8285L92.8788 41.8286C92.8935 41.9329 92.9078 42.0349 92.9078 42.1266C92.874 43.8169 92.8853 45.5073 92.8966 47.1977L92.8966 47.2011C92.9022 48.0451 92.9078 48.8892 92.9078 49.7332C92.9078 50.3418 92.9078 50.7474 93.7192 50.7474C94.632 50.7474 94.632 50.3418 94.632 49.6825C94.6117 49.0755 94.6239 48.4604 94.636 47.8437V47.8436V47.8435V47.8434V47.8433V47.8433V47.8432V47.8431V47.843V47.8429V47.8428V47.8427V47.8426V47.8425V47.8424V47.8423V47.8422V47.8422V47.8421V47.842V47.8419V47.8418V47.8417V47.8416V47.8415V47.8414V47.8413V47.8412V47.8411V47.8411V47.841V47.8409V47.8408V47.8407V47.8406V47.8405V47.8404V47.8403V47.8401V47.84V47.8399V47.8398V47.8397V47.8396V47.8395V47.8394V47.8393V47.8392V47.8391V47.839V47.8389V47.8388V47.8387V47.8386V47.8385V47.8384V47.8383V47.8382V47.8381V47.838V47.8379V47.8378V47.8377C94.6543 46.9107 94.6726 45.9801 94.5813 45.0678C94.4799 43.7493 95.1391 43.1408 96.1026 42.583C98.1311 41.5181 99.4495 42.2787 99.4495 44.5607V50.0882C99.4495 50.646 99.7031 50.7981 100.16 50.7474C100.254 50.7357 100.353 50.7403 100.451 50.7448C100.773 50.7598 101.072 50.7737 101.072 50.1896C101.047 49.0233 101.047 47.8442 101.047 46.6652C101.047 45.4862 101.047 44.3072 101.022 43.1408C101.022 41.7209 100.007 40.8588 98.5875 40.7574ZM43.0596 40.7574C44.6824 40.8081 45.7473 41.6702 45.798 43.2929C45.856 44.5969 45.8477 45.9009 45.8394 47.2049C45.8332 48.1829 45.827 49.1609 45.8487 50.1389C45.8487 50.7707 45.4472 50.7599 45.0728 50.7499L45.0296 50.7488C44.998 50.748 44.9667 50.7474 44.9359 50.7474L44.8927 50.7476L44.8502 50.7478C44.4299 50.7508 44.0739 50.7533 44.0739 50.0882C44.1077 48.736 44.0964 47.3839 44.0851 46.0317V46.0313C44.0795 45.3552 44.0739 44.679 44.0739 44.0029C44.0739 42.6337 43.5667 42.1266 42.1976 42.1773C40.4227 42.2787 39.2563 43.4958 39.2563 45.22C39.2563 45.744 39.2507 46.268 39.2451 46.792C39.2338 47.84 39.2225 48.888 39.2563 49.9361C39.2563 50.5953 38.9521 50.6967 38.3942 50.6967C37.7857 50.6967 37.5829 50.4939 37.5829 49.8854V42.0759C37.5829 41.9912 37.5758 41.9036 37.5687 41.8163L37.5687 41.8162C37.5335 41.3809 37.4988 40.9518 38.3435 40.9095C39.2851 40.9095 39.2752 41.3456 39.2603 42.0074C39.2584 42.0941 39.2563 42.1847 39.2563 42.2787C40.5241 41.3152 41.6397 40.7067 43.0596 40.7574ZM218.368 45.2707C217.963 45.1439 217.557 45.0298 217.151 44.9157C216.746 44.8016 216.34 44.6875 215.934 44.5607C215.275 44.3579 214.768 44.0536 214.869 43.2422C214.971 42.4816 215.528 42.228 216.188 42.1266C217.253 41.9238 218.267 42.228 219.078 42.8873C219.54 43.265 219.724 43.0523 219.946 42.7952C219.976 42.7596 220.008 42.7232 220.041 42.6874C220.052 42.6755 220.063 42.6638 220.074 42.6522L220.092 42.6337C220.541 42.1855 220.255 41.9818 219.909 41.7345L219.89 41.7209C218.825 40.9095 217.557 40.7067 216.238 40.7574C214.565 40.8588 213.399 41.7716 213.246 43.1408C213.044 44.51 213.804 45.5242 215.478 46.0313C216.391 46.3356 217.303 46.5892 218.216 46.8427C218.875 47.0456 219.18 47.502 219.18 48.1612C219.129 48.8204 218.723 49.1754 218.064 49.3783C216.644 49.8347 215.326 49.4797 214.261 48.5669C213.772 48.1536 213.562 48.4084 213.362 48.6506C213.293 48.7354 213.224 48.8186 213.145 48.8712C212.704 49.1801 212.954 49.4123 213.193 49.6344L213.194 49.6348C213.229 49.6678 213.264 49.7005 213.297 49.7332C214.311 50.5446 215.478 50.9503 217.05 50.8996C217.202 50.8996 217.608 50.8996 217.963 50.7982C219.737 50.4432 220.701 49.5304 220.752 48.1612C220.904 46.7413 220.143 45.8285 218.368 45.2707ZM170.658 42.186L170.657 42.1862C170.145 42.9694 169.643 43.7376 169.025 44.4592C168.213 45.372 168.366 46.082 168.974 46.8933C169.676 47.7904 170.318 48.7475 170.969 49.7184L170.97 49.7186L170.97 49.7187L170.97 49.7191L170.97 49.7192L170.97 49.7197L170.971 49.7201L170.971 49.7203L170.972 49.7228C171.167 50.0128 171.362 50.304 171.56 50.5952C170.343 50.9502 169.583 50.646 169.025 49.581C168.712 48.9896 168.303 48.4221 167.865 47.8129L167.865 47.8127L167.864 47.8118C167.663 47.5334 167.457 47.2462 167.25 46.944C167.035 47.2672 166.813 47.5777 166.594 47.8844L166.593 47.8848L166.593 47.8849C166.193 48.4444 165.803 48.9916 165.475 49.581C164.917 50.5952 164.207 50.9502 162.99 50.5952C163.423 49.9889 163.838 49.3826 164.25 48.7802L164.25 48.7799C164.803 47.9717 165.35 47.1707 165.931 46.3862C166.286 45.8284 166.337 45.4734 165.931 44.9156C165.222 43.97 164.544 42.9631 163.872 41.9664L163.87 41.9643C163.678 41.6789 163.486 41.3944 163.295 41.1123C164.867 40.7573 164.917 40.7573 165.678 41.9237C165.988 42.4206 166.318 42.8985 166.667 43.4041L166.668 43.4056C166.888 43.725 167.116 44.0553 167.351 44.4085L167.43 44.3021C167.48 44.2334 167.531 44.165 167.581 44.097L167.627 44.0348C168.09 43.4116 168.534 42.8121 168.873 42.1772C169.431 41.1123 170.14 40.7066 171.408 41.0616C171.147 41.4374 170.901 41.8132 170.658 42.1857L170.658 42.186ZM107.717 42.3293C108.275 42.3293 108.377 42.1772 108.427 41.6194C108.427 41.0616 108.174 40.9601 107.717 40.9601C106.821 40.9345 106.377 40.9219 106.158 40.6936C105.942 40.4698 105.942 40.0388 105.942 39.1853V38.526C105.993 37.8668 105.942 37.4611 105.03 37.4611C104.168 37.4611 104.168 37.9175 104.218 38.4753C104.218 38.661 104.213 38.8467 104.207 39.0324L104.207 39.0331C104.196 39.405 104.184 39.7769 104.218 40.1488C104.269 40.808 104.066 41.1123 103.356 41.0109C102.849 40.9601 102.443 40.9601 102.443 41.7208C102.443 42.4308 102.9 42.38 103.305 42.3293C103.965 42.2786 104.218 42.4815 104.168 43.1914C104.134 43.768 104.145 44.3673 104.156 44.9589C104.162 45.2518 104.168 45.5429 104.168 45.8284V47.9075C104.168 50.3417 105.182 51.2037 107.616 50.8995C108.275 50.7981 108.326 50.4938 108.377 49.936C108.377 49.335 108.086 49.3881 107.751 49.4493C107.69 49.4604 107.627 49.4718 107.565 49.4796C106.297 49.581 105.892 49.226 105.892 47.9582V44.2056L105.892 44.2013C105.942 42.4307 105.944 42.38 107.717 42.3293ZM204.878 47.9076C204.878 49.226 205.284 49.581 206.551 49.4796C206.572 49.4767 206.592 49.4734 206.613 49.4697C206.646 49.4638 206.68 49.4571 206.713 49.4504C207.03 49.3878 207.355 49.3234 207.312 49.8853C207.261 50.4431 207.211 50.7981 206.551 50.8488C204.117 51.153 203.103 50.291 203.103 47.8568V45.7777C203.103 45.4922 203.098 45.2011 203.092 44.9082V44.9079V44.9077V44.9074V44.9071V44.9069V44.9066V44.9063V44.906V44.9057V44.9054V44.9051V44.9048V44.9045V44.9041V44.9038V44.9034V44.903V44.9026V44.9022C203.081 44.3125 203.069 43.7154 203.103 43.1407C203.154 42.4308 202.9 42.2279 202.241 42.2786C201.835 42.3293 201.379 42.3801 201.379 41.6701C201.379 40.9094 201.785 40.9094 202.292 40.9602C203.002 41.0616 203.204 40.7573 203.154 40.0981C203.12 39.7262 203.131 39.3543 203.143 38.9824C203.148 38.7965 203.154 38.6106 203.154 38.4246C203.103 37.8161 203.103 37.3597 203.965 37.3597C204.827 37.3597 204.979 37.7654 204.878 38.4246V38.881C204.878 40.7573 204.878 40.808 206.754 40.9094C207.261 40.9602 207.363 41.1123 207.363 41.5687C207.363 42.0758 207.261 42.2786 206.704 42.2786C205.799 42.3289 205.342 42.3543 205.112 42.5955C204.878 42.8409 204.878 43.31 204.878 44.2564V47.9076ZM146.155 38.4246C146.713 38.4246 146.814 38.2218 146.814 37.7654C146.814 37.2583 146.662 37.1062 146.155 37.0554C143.975 36.9033 142.91 37.8668 142.91 40.0474C142.91 40.6559 142.91 41.163 142.048 41.0109L142.037 41.0097C141.585 40.9594 141.186 40.915 141.186 41.6194C141.186 42.3801 141.591 42.3801 142.098 42.3294C142.707 42.2787 142.91 42.4815 142.91 43.1408C142.876 43.8864 142.887 44.6546 142.899 45.4153C142.904 45.7928 142.91 46.1684 142.91 46.5384C142.91 46.9084 142.915 47.284 142.921 47.6615C142.932 48.4221 142.944 49.1904 142.91 49.936C142.91 50.5445 143.062 50.7474 143.721 50.7474C144.38 50.7474 144.634 50.5953 144.634 49.8853C144.612 48.9986 144.618 48.1211 144.625 47.245V47.2444V47.2439V47.2433V47.2428V47.2422V47.2417V47.2411V47.2406V47.2401V47.2395V47.239V47.2384V47.2379V47.2373V47.2368V47.2362V47.2357V47.2351V47.2346V47.234V47.2335V47.2329V47.2324V47.2318V47.2313C144.633 46.0576 144.641 44.8864 144.583 43.6986C144.532 42.6336 144.735 42.0251 145.952 42.2787C146.814 42.4308 146.865 41.873 146.713 41.2645C146.615 40.9067 146.372 40.9244 146.116 40.943C145.973 40.9534 145.826 40.964 145.699 40.9095C145.585 40.877 145.451 40.8965 145.314 40.9164C145.023 40.9587 144.721 41.0025 144.583 40.5545C144.127 39.3374 144.735 38.4246 146.155 38.4246ZM35.605 41.6194C35.605 42.1265 35.4528 42.3293 34.895 42.3293C33.0187 42.4308 33.0187 42.4308 33.0187 44.1549V47.7047C33.0187 49.0739 33.4244 49.4796 34.7936 49.3782C34.8634 49.3782 34.9333 49.3736 35.0008 49.3693L35.0009 49.3693C35.3255 49.3483 35.5962 49.3308 35.5543 49.8345C35.5461 49.9079 35.5419 49.98 35.5378 50.0497V50.0497C35.5165 50.4136 35.499 50.7129 34.9457 50.7981C32.5623 51.2545 31.396 50.2909 31.396 47.8568V45.7777C31.396 45.4734 31.3903 45.1691 31.3847 44.8649V44.8648C31.3734 44.2563 31.3622 43.6478 31.396 43.0393C31.396 42.4308 31.1931 42.2279 30.6353 42.2786C30.5963 42.283 30.5566 42.288 30.5165 42.2932L30.5164 42.2932L30.5163 42.2932L30.5162 42.2932L30.5161 42.2932H30.5161H30.5161C30.0873 42.348 29.6211 42.4075 29.6211 41.6194C29.6211 40.8752 30.0903 40.9415 30.481 40.9968C30.5163 41.0018 30.551 41.0067 30.5846 41.0109C31.2438 41.0616 31.4467 40.808 31.396 40.1995C31.3623 39.7957 31.3733 39.4143 31.3845 39.0255C31.3902 38.8284 31.396 38.6294 31.396 38.4246C31.3453 37.8668 31.3453 37.4611 32.1566 37.4611C32.968 37.4611 33.0694 37.7654 33.0187 38.4246V38.881C33.0187 40.808 33.0187 40.808 34.9457 40.9601C35.4528 41.0109 35.605 41.163 35.605 41.6194ZM63.8006 41.2644C63.841 40.6995 63.4961 40.7446 63.1747 40.7866C63.0921 40.7974 63.0111 40.808 62.9386 40.808C61.6708 40.8587 60.758 41.5687 59.7945 42.6336V41.9236C59.8959 41.2644 59.7438 40.9601 58.9324 40.9601C58.0703 40.9601 58.0703 41.3658 58.0703 41.9743C58.0703 42.8702 58.0759 43.7661 58.0816 44.662V44.6625C58.0928 46.4541 58.1041 48.2457 58.0703 50.0374C58.0703 50.7473 58.3746 50.798 58.9324 50.798C59.4902 50.798 59.7945 50.7473 59.7945 50.0374C59.7605 49.1208 59.772 48.2041 59.7834 47.3027C59.7889 46.8577 59.7945 46.4163 59.7945 45.9805C59.7945 43.6478 60.7073 42.5829 63.0907 42.38C63.8141 42.2595 63.8049 41.916 63.7952 41.5514C63.7927 41.456 63.7901 41.3591 63.8006 41.2644ZM196.257 42.583C197.17 41.5181 198.083 40.8588 199.3 40.8081C199.362 40.7993 199.43 40.7827 199.5 40.7658C199.831 40.6852 200.204 40.5945 200.162 41.2645C200.162 41.3391 200.166 41.417 200.171 41.4955C200.196 41.9502 200.223 42.4234 199.401 42.3802C198.387 42.3294 197.576 42.7858 196.866 43.5465C196.359 44.0536 196.156 44.6114 196.156 45.3214C196.181 46.1323 196.181 46.9306 196.181 47.7226V47.724C196.181 48.5163 196.181 49.3023 196.207 50.0882C196.207 50.7475 195.953 50.8489 195.344 50.8489C194.837 50.8489 194.482 50.7982 194.482 50.0882C194.516 48.2964 194.505 46.5046 194.494 44.7129C194.488 43.817 194.482 42.9211 194.482 42.0252C194.482 41.3659 194.533 41.011 195.344 41.011C196.156 41.011 196.257 41.3659 196.207 41.9745C196.207 42.0098 196.213 42.0513 196.221 42.1053V42.1055C196.236 42.2066 196.257 42.3518 196.257 42.583ZM124.959 40.7573C123.64 40.7573 122.677 41.4166 121.662 42.4815C121.612 42.1772 121.612 42.0251 121.612 41.873C121.713 41.163 121.459 40.9602 120.699 40.9602C119.933 40.9602 119.935 41.3213 119.938 41.8306L119.938 41.8764L119.938 41.9237V49.7332L119.938 49.8214C119.935 50.3433 119.933 50.7981 120.749 50.7981C121.561 50.7981 121.612 50.4431 121.612 49.7839C121.59 49.1757 121.596 48.5583 121.602 47.9396V47.9392C121.611 47.1133 121.619 46.2851 121.561 45.4734C121.459 44.2057 122.119 43.3943 123.082 42.7858C123.64 42.4308 124.299 42.2787 124.959 42.2787C125.542 42.2787 125.522 41.9382 125.503 41.5961C125.495 41.4621 125.488 41.3279 125.516 41.2137C125.703 40.7479 125.333 40.7528 125.035 40.7566C125.009 40.757 124.983 40.7573 124.959 40.7573ZM24.4993 42.3801C25.5135 41.4166 26.477 40.7574 27.7448 40.7574C27.7998 40.7574 27.863 40.7524 27.9286 40.7473H27.9286C28.2258 40.7239 28.5702 40.6969 28.4041 41.1124C28.3754 41.2268 28.3953 41.3696 28.4157 41.5166C28.4677 41.8908 28.5236 42.293 27.7955 42.3294C26.2235 42.3801 25.1078 43.0901 24.4993 44.51V50.0375C24.4993 50.0878 24.5033 50.1401 24.5073 50.1928L24.5073 50.1928C24.5236 50.4058 24.5404 50.6255 24.2965 50.7474C22.9273 51.3053 22.7244 51.1531 22.7244 49.7332C22.7244 47.2484 22.7244 44.8143 22.7751 42.3294C22.7751 42.2114 22.7477 42.077 22.7196 41.9394C22.627 41.4859 22.5276 40.9991 23.3837 40.9602C24.3979 40.8588 24.6515 41.2645 24.4993 42.3801ZM210.304 40.9602C209.695 40.9602 209.492 41.163 209.492 41.7716C209.543 44.51 209.543 47.1976 209.492 49.936C209.492 50.5446 209.644 50.7474 210.304 50.7474C211.014 50.7474 211.166 50.5446 211.166 49.8853C211.132 49.0063 211.143 48.1273 211.154 47.2484C211.16 46.8089 211.166 46.3694 211.166 45.9299C211.166 45.4735 211.16 45.0171 211.154 44.5607C211.143 43.6479 211.132 42.7351 211.166 41.8223C211.166 41.163 210.963 40.9602 210.304 40.9602ZM189.433 4.87201C189.325 4.9804 189.103 4.97527 188.633 4.96441C188.457 4.96034 188.246 4.95546 187.992 4.95546C187.795 4.95546 187.628 4.96001 187.487 4.96387C187.114 4.97404 186.917 4.9794 186.812 4.88392C186.695 4.77751 186.691 4.54584 186.684 4.05599V4.05588V4.05579V4.0557V4.05563V4.05556C186.682 3.90715 186.68 3.73504 186.674 3.53555C186.68 3.3258 186.682 3.14791 186.683 2.9969V2.9967V2.99649V2.99627V2.99603V2.99577V2.9955V2.99521V2.99491V2.99458V2.99424V2.99387V2.99348V2.99306V2.99262V2.99215V2.99165V2.99112C186.687 2.55965 186.689 2.34905 186.795 2.24128C186.896 2.13852 187.092 2.12922 187.475 2.11106C187.665 2.10204 187.902 2.09084 188.195 2.06494C189.514 1.96351 189.615 2.57204 189.564 3.58626C189.548 3.84704 189.544 4.05937 189.54 4.23208C189.532 4.58747 189.528 4.77511 189.433 4.87201ZM168.62 5.00615C168.68 5.00316 168.739 5.00053 168.797 4.99794C169.726 4.95649 170.419 4.92554 169.99 3.63695C170.193 2.57202 170.091 1.96349 168.722 2.06492C168.444 2.09098 168.22 2.10216 168.038 2.1112C167.679 2.1291 167.487 2.13864 167.381 2.23861C167.259 2.35258 167.248 2.58408 167.225 3.07946V3.07955C167.218 3.21181 167.211 3.36287 167.201 3.53553C167.15 4.65117 167.454 5.10757 168.62 5.00615ZM209.392 38.1204C209.341 37.4104 209.696 37.2583 210.304 37.2583C210.964 37.2583 211.166 37.5119 211.217 38.1204C211.217 38.8303 211.014 39.1346 210.355 38.9318C209.594 39.0839 209.392 38.7796 209.392 38.1204ZM228.813 46.2961H228.813C229.489 46.2905 230.165 46.2849 230.842 46.2849V44.7635C230.795 44.6252 230.754 44.4869 230.713 44.35C230.619 44.0352 230.527 43.7278 230.385 43.4451C229.625 41.3659 227.748 40.4024 225.618 40.9602C222.829 41.6702 221.409 44.9664 222.576 48.0598C223.742 51.2038 227.698 52.0659 230.081 49.6825C230.133 49.6309 230.191 49.5807 230.251 49.53C230.542 49.282 230.848 49.0215 230.385 48.5161C229.9 47.9864 229.645 48.2253 229.319 48.5302L229.319 48.5303C229.271 48.5756 229.221 48.6224 229.168 48.6683C227.343 50.3925 224.655 49.6825 224.046 47.2991C223.843 46.6398 223.843 46.2342 224.756 46.2849C226.108 46.3187 227.461 46.3074 228.813 46.2961ZM223.996 44.5607C224.097 43.3943 225.416 42.1773 226.633 42.1773C227.85 42.1773 228.864 43.0394 229.067 44.3071C229.168 44.8143 229.067 45.0678 228.509 45.0678C228.069 45.034 227.63 45.0453 227.19 45.0565C226.971 45.0622 226.751 45.0678 226.531 45.0678H224.553C224.529 45.0643 224.505 45.061 224.481 45.0579C224.165 45.0149 223.948 44.9856 223.996 44.5607ZM73.2332 14.0327C74.3489 10.8379 74.3489 7.59238 72.1176 4.70186C70.4441 2.52129 67.9593 1.91276 65.373 1.6592C63.0954 1.44942 60.8 1.46988 58.5078 1.49031C56.9215 1.50446 55.3366 1.51858 53.7602 1.45636C52.9489 1.45636 52.6953 1.6592 52.6953 2.47058C52.7292 5.28012 52.7178 8.08966 52.7065 10.8841V10.8848C52.7009 12.2766 52.6953 13.6645 52.6953 15.0469V27.8767C52.6953 28.5867 52.8474 28.8402 53.6081 28.7895C54.9773 28.7388 56.3465 28.7388 57.7157 28.7895C58.5271 28.8402 58.7806 28.6374 58.7806 27.7753C58.7553 26.5075 58.7553 25.2397 58.7553 23.9719C58.7553 22.7042 58.7553 21.4364 58.7299 20.1687C58.7299 19.2559 59.0342 19.053 59.8455 19.1038C62.0261 19.1545 64.2067 19.2052 66.3873 18.8502C69.4299 18.3431 72.1683 17.126 73.2332 14.0327ZM65.0181 14.2355C63.7978 14.4993 62.5346 14.4844 61.2844 14.4695C60.6122 14.4615 59.9438 14.4536 59.2877 14.4891C58.7734 14.4891 58.7764 14.1873 58.78 13.8223L58.7804 13.7778L58.7806 13.7284V10.5336V7.2374C58.7806 6.83172 58.7806 6.52745 59.3384 6.52745C60.0207 6.56433 60.703 6.54757 61.3853 6.5308C62.5793 6.50147 63.7733 6.47213 64.9674 6.73029C66.9451 7.13598 67.8579 8.30233 67.9086 10.3815C67.9086 12.6128 66.9958 13.8298 65.0181 14.2355ZM45.2667 15.199C46.8134 19.5728 48.36 23.9466 49.9067 28.3331C49.9574 28.4853 50.0081 28.6374 50.1096 28.891C49.4822 28.891 48.8549 28.8853 48.2295 28.8796H48.2294H48.2293H48.2292H48.2291H48.229H48.2289H48.2289H48.2288H48.2287H48.2286H48.2285H48.2284C46.9836 28.8684 45.7462 28.8572 44.5314 28.891C43.9857 28.891 43.8768 28.5999 43.7299 28.2075L43.72 28.181C43.6181 27.8755 43.5163 27.5719 43.4148 27.2697L43.4147 27.2692L43.4144 27.2685C43.011 26.0661 42.614 24.8831 42.2494 23.6677C42.0465 23.0592 41.793 22.8056 41.083 22.8056C38.5475 22.8564 36.0626 22.8564 33.5271 22.8056C32.8171 22.8056 32.5636 23.0592 32.3608 23.6677C32.1072 24.403 31.841 25.151 31.5747 25.899L31.5747 25.8992C31.3084 26.6471 31.0422 27.3951 30.7887 28.1303C30.7762 28.1677 30.7645 28.2067 30.7526 28.2463C30.6679 28.5283 30.5742 28.8402 30.1295 28.8402H24.9062C25.3479 27.5785 25.7895 26.3342 26.2275 25.1001L26.2276 25.0998L26.2284 25.0974L26.2289 25.0961L26.2289 25.0961L26.2289 25.096L26.2289 25.096L26.2289 25.096L26.229 25.0957C26.8467 23.3553 27.4572 21.6352 28.0503 19.9151C30.1295 14.0834 32.2086 8.25162 34.2371 2.36916C34.4906 1.6592 34.7949 1.40565 35.5555 1.45636C36.4683 1.49017 37.3811 1.4789 38.2939 1.46763C38.7503 1.46199 39.2067 1.45636 39.6631 1.45636C40.1702 1.40565 40.4238 1.50707 40.6266 2.06489C42.1719 6.44738 43.7172 10.8172 45.2624 15.1871L45.2626 15.1874L45.2667 15.199ZM38.185 18.3826H38.1853H38.1855H38.1857H38.186H38.1862H38.1865H38.1867H38.187H38.1872H38.1875H38.1877H38.188C38.7166 18.3882 39.2434 18.3938 39.7645 18.3938C40.3224 18.4445 40.4238 18.191 40.2717 17.6838C40.038 17.0076 39.8044 16.3343 39.5701 15.659L39.569 15.656C38.8372 13.5469 38.0984 11.4175 37.3304 9.11371C36.8127 10.5682 36.331 11.9627 35.8619 13.3206L35.8617 13.3213C35.3659 14.7565 34.8842 16.1508 34.3892 17.5317C34.1863 18.191 34.2878 18.3938 34.9977 18.3938C36.0476 18.3599 37.1201 18.3713 38.185 18.3826ZM225.214 27.2175L225.214 27.2172C225.569 26.9131 225.924 26.6089 226.329 26.3047C226.584 27.6789 226.71 28.3635 227.12 28.6661C227.526 28.9665 228.211 28.8904 229.575 28.7388C229.042 26.9647 229.053 25.1518 229.064 23.3001C229.066 23.0347 229.068 22.7684 229.068 22.5014V2.52131C229.068 1.70993 228.865 1.35496 228.053 1.50709C227.851 1.5578 227.597 1.5578 227.394 1.50709C226.583 1.40567 226.431 1.76064 226.431 2.52131C226.464 4.38071 226.453 6.24011 226.442 8.09951C226.436 9.02921 226.431 9.95891 226.431 10.8886C226.431 10.945 226.438 11.0064 226.446 11.07C226.473 11.2925 226.504 11.5422 226.228 11.7C226.083 11.5795 225.95 11.4591 225.823 11.3441L225.823 11.344L225.823 11.3439L225.823 11.3438C225.682 11.2168 225.549 11.0964 225.416 10.99C220.802 7.23742 214.412 9.0123 212.587 14.6919C211.623 17.6332 211.674 20.6251 212.587 23.617C214.463 30.0066 221.613 30.5137 225.214 27.2175ZM215.122 15.199C216.238 11.8014 219.382 10.3815 222.729 11.6493C224.047 12.1564 225.112 13.0692 226.126 14.0834C226.431 14.3877 226.431 14.7426 226.431 15.0976V19.0531C226.431 19.4257 226.419 19.7984 226.408 20.1691V20.1694V20.1698V20.1701V20.1704V20.1707V20.171V20.1713V20.1716V20.1719V20.1722V20.1725C226.385 20.9106 226.363 21.6411 226.431 22.3493C226.532 23.5156 226.076 24.2763 225.214 24.9355C224.149 25.7469 223.084 26.5583 221.765 26.8118C218.621 27.3696 216.086 25.899 215.122 22.9071C214.26 20.3715 214.311 17.7346 215.122 15.199ZM207.417 24.2498C207.746 23.7762 208.008 23.3972 208.682 24.0228C208.751 24.0912 208.82 24.1551 208.887 24.2167C209.316 24.6113 209.644 24.9135 208.986 25.7469C206.502 28.8403 203.357 29.9559 199.554 29.0431C195.852 28.1303 194.077 25.2905 193.367 21.7408C192.81 18.901 193.012 16.0612 194.432 13.4749C197.171 8.30238 204.169 7.4403 207.566 11.8014C209.189 13.9313 209.696 16.4161 209.696 19.0531C209.696 19.7182 209.34 19.7157 208.92 19.7127C208.892 19.7125 208.863 19.7123 208.834 19.7123H202.648H196.562C196.506 19.7123 196.443 19.7055 196.378 19.6984C196.09 19.6669 195.76 19.6308 195.802 20.1687C195.954 23.1607 197.475 26.5076 201.177 27.0147C203.763 27.3697 205.842 26.4062 207.364 24.327L207.417 24.2498ZM200.822 11.345C198.337 11.7507 196.512 13.8299 196.004 16.6697C195.852 17.3289 195.903 17.6332 196.714 17.5825C197.764 17.5486 198.837 17.56 199.902 17.5713H199.902H199.902H199.902H199.903H199.903H199.903H199.903H199.904H199.904H199.904C200.433 17.5769 200.96 17.5825 201.481 17.5825H204.676C207.516 17.5825 207.617 17.4303 206.552 14.692C205.538 12.1057 203.459 10.8886 200.822 11.345ZM136.166 25.7469C136.816 24.897 136.48 24.5893 135.887 24.0462L135.862 24.0228C135.176 23.3805 134.925 23.7505 134.65 24.156L134.65 24.1563C134.599 24.231 134.548 24.3068 134.492 24.3777C132.616 26.7104 130.03 27.5725 127.444 26.8119C125.06 26.1019 123.285 23.6678 123.032 20.8787C122.93 20.0166 123.082 19.6109 124.097 19.6616C125.381 19.7292 126.666 19.7067 127.951 19.6842C128.593 19.6729 129.235 19.6616 129.878 19.6616H136.064C136.774 19.6616 137.028 19.4588 136.927 18.7488C136.894 18.4561 136.866 18.1656 136.838 17.877C136.736 16.8158 136.637 15.7792 136.318 14.7427C135.202 11.2436 132.92 9.26589 129.421 8.96163C126.379 8.65736 123.184 10.483 121.612 13.4242C120.141 16.2133 119.989 19.1545 120.648 22.0958C121.409 25.4934 123.285 28.1303 126.886 28.9417C130.638 29.8545 133.732 28.7896 136.166 25.7469ZM123.032 17.0754C123.437 14.2863 125.111 11.8014 127.849 11.345C130.486 10.8886 132.667 12.1057 133.63 14.6412C134.746 17.5318 134.695 17.5825 131.703 17.5825H128.61H123.64C123.617 17.5825 123.593 17.5828 123.57 17.5831C123.284 17.5867 122.985 17.5905 123.032 17.0754ZM4.41876 37.0386C5.50704 37.0182 6.58487 36.998 7.66271 37.2076C9.79257 37.6133 10.9082 38.8303 10.9589 40.808C11.0096 42.8365 9.89399 44.2564 7.81484 44.7635C6.826 44.9917 5.83715 44.9632 4.84831 44.9347H4.84826C4.51864 44.9251 4.18902 44.9156 3.85939 44.9156C3.20015 44.9156 2.9466 45.0678 2.99731 45.7777C3.03104 46.621 3.0199 47.4418 3.00865 48.2701C3.00299 48.687 2.99731 49.1058 2.99731 49.5303C2.99731 49.6302 3.00414 49.7314 3.01085 49.8309C3.04502 50.3375 3.07609 50.7981 2.18593 50.7981C1.24096 50.8431 1.25431 50.369 1.2693 49.8364C1.27121 49.7688 1.27314 49.7003 1.27314 49.6317V44.0028C1.27314 43.3267 1.27877 42.6505 1.28441 41.9744C1.29568 40.6221 1.30694 39.2698 1.27314 37.9175C1.27314 37.2076 1.47598 37.0047 2.13522 37.0047C2.90375 37.067 3.66377 37.0528 4.41876 37.0386ZM4.59834 43.4616C5.46766 43.4823 6.33699 43.503 7.20631 43.3943C8.62622 43.2422 9.28546 42.3801 9.33617 41.0616C9.28546 39.7431 8.67693 39.0332 7.25702 38.7796C6.64849 38.6782 6.09067 38.6275 5.48214 38.6275C4.2733 38.6023 3.6648 38.5896 3.35849 38.8876C3.04802 39.1896 3.04802 39.8108 3.04802 41.0616V42.8365C2.99731 43.1915 3.09873 43.445 3.55513 43.445C3.9027 43.445 4.25028 43.4533 4.59786 43.4616L4.59834 43.4616ZM177.595 40.8081C176.691 40.9086 175.985 41.4572 175.084 42.158L175.06 42.1773C175.303 41.0074 174.75 41.0089 174.077 41.0108L173.995 41.0109C173.23 41.0109 173.296 41.4267 173.356 41.8011C173.371 41.8981 173.386 41.9924 173.386 42.0759V53.5365C173.386 54.0944 173.386 54.5 174.147 54.5C174.907 54.5 175.11 54.2465 175.11 53.5365C175.11 53.234 175.104 52.9315 175.098 52.6274V52.6272V52.6269C175.079 51.7078 175.059 50.7745 175.212 49.7839C175.265 49.8193 175.315 49.8531 175.362 49.8853C175.588 50.0382 175.763 50.1566 175.972 50.2403C178.305 51.6602 181.145 50.6967 181.956 48.1105C182.463 46.5891 182.463 45.0171 181.906 43.4451C181.196 41.518 179.624 40.5545 177.595 40.8081ZM180.283 47.8569C179.826 49.074 178.66 49.7332 177.392 49.4797C175.82 49.1754 175.11 48.364 175.11 46.9441V45.8285C175.12 45.611 175.115 45.3917 175.111 45.174C175.09 44.2241 175.071 43.3032 176.226 42.6844C178.001 41.7209 179.877 42.3294 180.435 44.2564C180.689 45.4735 180.689 46.6906 180.283 47.8569ZM17.7044 40.808C19.1243 40.9601 20.0371 41.8729 20.1385 43.3436C20.198 44.2566 20.1877 45.1619 20.1773 46.0655C20.1612 47.4704 20.1452 48.8713 20.3921 50.291C20.4428 50.6459 20.2906 50.7981 19.9864 50.7473C19.8582 50.7331 19.722 50.7469 19.5868 50.7606H19.5868H19.5868H19.5867H19.5867H19.5866H19.5866C19.2405 50.7956 18.9009 50.8299 18.7186 50.3924C18.6604 50.2761 18.6356 50.1431 18.6059 49.9839C18.5838 49.8654 18.559 49.7324 18.5157 49.581C17.3494 50.4431 16.183 50.9502 14.8139 50.8995C13.3939 50.8488 12.5319 50.3417 12.1769 49.2767C11.8219 48.1611 12.1769 46.8933 13.1911 46.1327C14.4589 45.1692 15.9802 44.8142 17.5015 44.5099C17.5895 44.4989 17.6894 44.4998 17.7924 44.5008H17.7924C18.1645 44.5042 18.5775 44.5081 18.6172 43.9521C18.6172 43.2421 18.3636 42.5829 17.5522 42.3293C16.1323 41.9237 14.966 42.4815 13.8503 43.2421L13.8211 43.2631C13.4812 43.5064 13.2306 43.6859 12.8361 43.2421C12.4304 42.7857 12.3797 42.5322 12.9376 42.1265C14.3575 41.0616 15.9295 40.6052 17.7044 40.808ZM14.3575 49.3782C15.9295 50.2402 18.5665 48.7696 18.5665 46.9947V46.0312C18.5665 45.6763 18.465 45.5748 18.1101 45.6255C17.9891 45.6497 17.8671 45.6735 17.7446 45.6973C16.5837 45.9234 15.3715 46.1594 14.4082 46.8933C13.4447 47.6033 13.4447 48.871 14.3575 49.3782ZM87.2789 40.808C85.2505 40.5544 83.4249 41.6194 82.6135 43.445C82.1064 44.5606 82.1064 45.7269 82.2585 46.8933C82.4107 48.8203 83.7292 50.3416 85.504 50.8487C87.2789 51.3051 89.3074 50.6966 90.3216 49.3781C90.6258 49.0232 90.6766 48.8203 90.2709 48.4653L90.2371 48.4363C89.9026 48.1488 89.7 47.9745 89.3074 48.4653C88.3438 49.581 87.1268 49.9359 85.7069 49.4288C84.3377 48.9217 83.932 47.7554 83.8813 46.3355H89.1045C89.9891 46.3355 90.4328 46.3355 90.624 46.1157C90.8164 45.8946 90.753 45.4509 90.6258 44.5607V44.5606C90.3723 42.4814 89.0538 41.0108 87.2789 40.808ZM87.1269 45.0057H87.1268C86.9071 45.0114 86.6873 45.017 86.4676 45.017H84.9462C83.8813 45.017 83.8306 44.8649 84.2363 43.9014C84.6927 42.7857 85.7069 42.1265 86.8225 42.1772C87.9382 42.2279 88.8003 43.0393 89.1045 44.2563C89.2059 44.7634 89.1045 45.017 88.4453 45.017C88.0058 44.9832 87.5664 44.9945 87.1269 45.0057ZM109.795 48.0597C108.628 45.0171 109.998 41.7209 112.736 40.9095C115.779 40.0474 118.669 42.8365 118.061 45.8792C117.969 46.2933 117.751 46.2899 117.485 46.2857L117.441 46.2851L117.401 46.2849H114.511H111.722C111.265 46.2849 111.113 46.437 111.215 46.9441C111.418 48.1105 111.925 49.0232 113.091 49.4289C114.308 49.8346 115.424 49.5811 116.337 48.6683C116.389 48.6153 116.44 48.559 116.49 48.5035L116.49 48.5034C116.775 48.1868 117.036 47.897 117.554 48.4147C118.055 48.9577 117.73 49.2255 117.43 49.4731C117.366 49.5261 117.303 49.5781 117.249 49.6318C114.866 51.9645 110.961 51.1531 109.795 48.0597ZM114.413 45.0061C114.875 44.9947 115.352 44.983 115.829 45.0171C116.337 45.0171 116.438 44.7635 116.337 44.3578C116.083 43.1408 115.272 42.3294 114.156 42.1773C112.99 42.0251 111.925 42.7351 111.418 43.9522C111.164 44.6621 111.113 45.1185 112.077 45.0171C112.449 44.9833 112.82 44.9946 113.192 45.0058H113.192C113.378 45.0115 113.564 45.0171 113.75 45.0171C113.966 45.0171 114.188 45.0116 114.413 45.0061L114.413 45.0061ZM52.6948 40.7574C50.8185 40.5545 49.0436 41.4673 48.2322 43.1408C47.4208 44.8649 47.4208 46.6398 48.1815 48.364C49.4493 51.2545 53.5061 51.8123 55.6867 49.4796C56.1431 48.9725 56.0924 48.6683 55.5853 48.2626C55.1176 47.9118 54.9495 48.19 54.8046 48.4297C54.761 48.5019 54.7195 48.5706 54.6725 48.6176C53.709 49.5303 52.5933 49.8346 51.3256 49.3782C50.2099 48.9725 49.7028 48.0597 49.4493 46.9441C49.3479 46.437 49.4493 46.1834 50.0578 46.2341C50.6626 46.2677 51.2675 46.2568 51.8871 46.2456H51.8872L51.8878 46.2456C52.203 46.2399 52.5221 46.2341 52.8469 46.2341H54.4189C55.5019 46.2341 56.0471 46.2341 56.2655 45.967C56.4869 45.6963 56.3728 45.1511 56.1431 44.0536C55.636 42.228 54.3682 40.9602 52.6948 40.7574ZM52.4994 45.006H52.4993C52.2909 45.0116 52.0844 45.0171 51.8834 45.0171H50.5649C49.2464 45.0171 49.1957 44.8649 49.8043 43.6986C50.3621 42.6844 51.3763 42.0758 52.3905 42.228C53.5061 42.3801 54.1654 43.0394 54.4697 44.1043C54.6725 44.6621 54.6218 45.0678 53.7597 45.0171C53.3522 44.9831 52.922 44.9946 52.4994 45.006ZM186.774 41.0109C188.194 40.5546 189.614 40.6053 190.781 41.5688C192.099 42.6844 192.403 44.2057 192.454 45.7778C192.454 46.2623 192.148 46.2494 191.868 46.2377C191.826 46.2359 191.784 46.2342 191.744 46.2342H188.955C188.666 46.2342 188.382 46.2399 188.101 46.2456C187.543 46.2568 186.992 46.2679 186.419 46.2342C185.507 46.1835 185.456 46.6399 185.659 47.2991C186.318 49.6318 188.904 50.3418 190.73 48.6683C190.797 48.6106 190.861 48.5438 190.924 48.4776C191.194 48.1945 191.454 47.9216 191.947 48.4147C192.448 48.9578 192.124 49.2255 191.824 49.4731C191.759 49.5261 191.696 49.5782 191.643 49.6318C189.31 51.9645 185.456 51.1531 184.239 48.1105C183.073 45.22 184.239 41.9237 186.774 41.0109ZM188.861 45.006C189.284 44.9947 189.714 44.9832 190.121 45.0171C190.679 45.0171 190.781 44.8143 190.781 44.3072C190.578 43.0901 189.564 42.1773 188.346 42.1773C187.079 42.1773 185.76 43.3944 185.659 44.5607C185.608 45.0171 185.862 45.0171 186.166 45.0171H188.245C188.446 45.0171 188.653 45.0116 188.861 45.006ZM137.128 41.0109C134.643 40.1995 132.158 41.4166 131.347 43.8C130.333 46.6905 131.55 49.7839 133.984 50.6967C137.229 51.8631 140.171 49.5811 140.171 45.8792C140.171 43.445 139.004 41.6195 137.128 41.0109ZM138.497 46.082C138.345 48.2626 137.179 49.5811 135.505 49.5304C133.781 49.4796 132.716 48.0597 132.716 45.8285C132.716 43.4958 133.781 42.1773 135.657 42.228C137.432 42.2787 138.649 43.9522 138.497 46.082ZM80.8897 10.3308C80.2812 10.3308 80.2305 10.0266 80.2305 9.57017C80.2812 7.79556 80.2812 6.02094 80.2812 4.29702V4.29624C80.2812 3.73842 80.484 3.48486 81.0418 3.53557C81.401 3.57783 81.7689 3.57607 82.1383 3.57431C82.6557 3.57185 83.1759 3.56937 83.6788 3.68771C84.5409 3.89055 85.048 4.34695 85.2001 5.20903C85.3523 6.02041 85.1494 6.78107 84.3888 7.18676C83.8309 7.49102 83.7802 7.74458 84.1352 8.25169C84.4165 8.62674 84.64 9.04032 84.8651 9.45681C85.0052 9.71608 85.1459 9.97648 85.3016 10.2294C84.3888 10.5337 83.8309 10.2294 83.476 9.41804C83.2224 8.91093 82.9181 8.45453 82.6139 7.99813C82.411 7.64316 82.1068 7.64316 81.7518 7.69387C81.4616 7.73533 81.4764 7.94627 81.4915 8.16042C81.4949 8.2082 81.4982 8.25615 81.4982 8.3024V9.62088C81.4982 10.0773 81.3968 10.3308 80.8897 10.3308ZM82.7411 4.58727C82.6119 4.57729 82.4831 4.56733 82.3603 4.54979C81.4982 4.44837 81.3461 4.90477 81.4475 5.61472C81.2447 6.32467 81.549 6.67965 82.3603 6.57823C82.444 6.57225 82.5304 6.56839 82.6179 6.56449C83.2727 6.53523 83.9831 6.50349 83.9831 5.56401C83.9831 4.68325 83.3587 4.63499 82.7411 4.58727Z" fill="#7E7D85"/>
</svg>
