<svg width="110" height="64" viewBox="0 0 110 64" fill="none" xmlns="http://www.w3.org/2000/svg">
<path d="M43.8612 49.6246C43.1957 50.1996 42.5882 50.8321 41.9517 51.4359C40.7365 52.6147 39.5214 53.7935 38.3062 54.9435C37.1489 56.0361 36.0206 57.1574 34.8633 58.2499C33.706 59.3712 32.5487 60.4925 31.3914 61.585C30.6102 62.3326 29.8291 63.0801 29.0479 63.8276C28.99 63.8564 28.9611 63.9139 28.9322 63.9714C28.6139 63.9714 28.3246 63.9714 28.0063 63.9714C28.4693 63.4251 29.019 62.9939 29.5108 62.5051C31.0153 61.01 32.5198 59.5437 34.0532 58.0774C34.979 57.2149 35.847 56.2948 36.7728 55.4323C37.6697 54.5985 38.5377 53.6785 39.4346 52.8447C40.3604 51.9822 41.2284 51.0909 42.1253 50.2283C42.4146 49.9408 42.7328 49.6533 43.0222 49.3658C43.0511 49.2508 43.1379 49.1646 43.2247 49.0783C44.5845 47.727 45.9732 46.4044 47.362 45.0531C48.1142 44.3056 48.8665 43.5581 49.6476 42.8393C50.6892 41.8618 51.6729 40.8267 52.7434 39.8492C53.5824 39.0442 54.3925 38.2104 55.2605 37.4053C56.2152 36.5141 57.1121 35.5653 58.0669 34.674C58.9638 33.8689 59.7739 32.9777 60.6419 32.1439C61.5966 31.2813 62.4646 30.3038 63.4193 29.4413C64.2873 28.6362 65.0974 27.745 65.9943 26.9399C66.7176 26.2786 67.3831 25.5886 68.0774 24.8986C68.2221 24.7548 68.3668 24.6973 68.5693 24.6973C70.0159 24.7261 71.4336 24.6111 72.8802 24.6398C73.4877 24.6398 74.0953 24.6686 74.7029 24.6398C76.3231 24.5536 77.9144 24.6398 79.5346 24.5823C80.9812 24.5248 82.3989 24.5823 83.8455 24.5248C85.4657 24.4673 87.0859 24.5248 88.7061 24.4673C90.2106 24.4098 91.715 24.4961 93.2484 24.4098C94.8108 24.3523 96.3731 24.4386 97.9354 24.3523C99.4978 24.2948 101.089 24.3811 102.651 24.2948C104.214 24.2373 105.747 24.2948 107.309 24.2373C108.033 24.2086 108.727 24.1798 109.45 24.2086C109.595 24.2086 109.74 24.2373 109.884 24.2661C109.913 24.2661 109.971 24.2661 110 24.2661C110 24.4098 110 24.5536 110 24.6973C109.971 24.7261 109.942 24.7836 109.913 24.7836C109.856 24.8123 109.769 24.8123 109.711 24.8123C108.669 24.7836 107.599 24.8698 106.557 24.8698C104.908 24.8698 103.259 24.9273 101.639 24.9561C100.597 24.9848 99.5556 24.9273 98.5141 25.0136C97.4725 25.0711 96.431 25.0136 95.3894 25.0711C94.3479 25.1286 93.2774 25.0711 92.2358 25.1286C91.1942 25.1861 90.1238 25.1286 89.0822 25.1861C88.0117 25.2436 86.9412 25.1861 85.8997 25.2436C84.8581 25.3011 83.8455 25.2436 82.8328 25.3011C81.7624 25.3586 80.6919 25.3011 79.6503 25.3586C78.6087 25.4161 77.5672 25.3586 76.5256 25.4161C75.4841 25.4736 74.4136 25.4161 73.372 25.4736C72.3305 25.5311 71.2889 25.5024 70.2763 25.5311C69.958 25.5311 69.6108 25.5886 69.2926 25.5886C69.1479 25.5886 69.0611 25.6749 68.9743 25.7611C68.4825 26.2786 67.9328 26.7387 67.4409 27.2274C66.5151 28.1475 65.5603 29.0388 64.6056 29.9588C63.4772 31.0513 62.3489 32.1439 61.2205 33.2077C60.0343 34.329 58.877 35.479 57.6908 36.6291C56.5335 37.7216 55.4051 38.8141 54.2768 39.9354C53.1195 41.0567 51.9333 42.178 50.776 43.2993C49.6476 44.3919 48.5193 45.4844 47.362 46.577C46.3494 47.5545 45.3367 48.5033 44.353 49.4808C44.0348 49.5383 43.9769 49.5958 43.8612 49.6246Z" fill="#FFE89D"/>
<path d="M109.855 24.7835C109.884 24.7547 109.884 24.7547 109.913 24.726C109.913 37.7215 109.913 50.7457 109.913 63.7412C109.913 63.8275 109.971 63.9138 109.855 63.9713C109.855 59.2561 109.855 54.5121 109.855 49.7969C109.855 49.7394 109.855 49.6532 109.855 49.5957C109.739 49.4519 109.768 49.2794 109.768 49.1357C109.768 47.1518 109.768 45.168 109.768 43.1842C109.768 37.2327 109.768 31.2525 109.768 25.301C109.768 25.1285 109.739 24.956 109.855 24.7835Z" fill="#FEDD94"/>
<path d="M109.797 24.2946C109.421 24.2946 109.045 24.2946 108.669 24.2946C106.846 24.3521 104.995 24.3233 103.172 24.3521C101.581 24.4096 100.018 24.3521 98.4271 24.4096C96.8937 24.4671 95.3602 24.4096 93.8268 24.4671C92.2934 24.5246 90.7311 24.4671 89.1977 24.5246C87.6932 24.5821 86.1598 24.5246 84.6553 24.5821C83.1219 24.6396 81.5596 24.5821 80.0262 24.6396C78.5217 24.6971 76.9883 24.6396 75.4838 24.6971C73.9504 24.7546 72.3881 24.6971 70.8547 24.7546C70.0735 24.7834 69.2634 24.7834 68.4822 24.7834C68.3376 24.7834 68.2508 24.8409 68.164 24.9271C67.7879 25.3009 67.3828 25.7034 67.0067 26.0772C65.9651 27.1122 64.9236 28.1185 63.8531 29.1248C62.9273 29.9873 62.0593 30.9361 61.1045 31.7986C60.2076 32.6324 59.3686 33.5237 58.4717 34.3575C57.5459 35.22 56.6779 36.1401 55.7232 37.0313C54.8552 37.8364 54.0451 38.7277 53.1482 39.5327C52.2224 40.3952 51.3255 41.344 50.3996 42.2066C49.5606 42.9828 48.7505 43.8454 47.9115 44.6216C46.9278 45.5417 46.0309 46.4905 45.0472 47.4105C44.3528 48.043 43.7163 48.7331 43.0219 49.3656C42.125 49.1643 41.2281 48.9631 40.3312 48.7618C37.9299 48.2155 35.5285 47.698 33.156 47.1517C29.8578 46.4042 26.5595 45.6854 23.2612 44.9379C19.8183 44.1616 16.3754 43.4141 12.9614 42.6378C10.3285 42.0628 7.72465 41.459 5.09182 40.884C3.44268 40.5102 1.76462 40.1365 0.115482 39.7915C0.0865494 39.7915 0.0865494 39.7627 0.0576172 39.7627C0.115482 39.6765 0.23121 39.6764 0.318007 39.6764C0.433736 39.6764 0.578397 39.6764 0.694125 39.6764C13.8872 39.6764 27.0803 39.6764 40.3023 39.6764C40.7073 39.6764 40.9967 39.5614 41.2571 39.2739C42.7905 37.7214 44.3528 36.1976 45.8862 34.6737C46.407 34.1562 46.8988 33.61 47.4485 33.0924C47.5353 33.0062 47.6221 32.8912 47.7379 32.8337C47.8536 32.7474 47.9693 32.6612 48.0561 32.5749C50.8047 29.8436 53.5532 27.1122 56.3018 24.3808C58.9057 21.822 61.4807 19.2344 64.0846 16.6468C64.7211 16.0143 65.3286 15.4105 65.9651 14.778C66.0519 14.6917 66.1098 14.5767 66.2545 14.6055C66.4281 14.7492 66.6595 14.7492 66.862 14.778C68.8005 15.2092 70.7679 15.6405 72.7063 16.0718C75.831 16.7618 78.9846 17.4518 82.1093 18.1418C85.3208 18.8606 88.5322 19.5507 91.7437 20.2694C94.2898 20.8445 96.8647 21.3907 99.4108 21.9657C102.68 22.6845 105.949 23.4033 109.248 24.1221C109.421 24.2083 109.595 24.2658 109.797 24.2946Z" fill="#BCBCBB"/>
<path d="M64.4318 50.0558C64.4318 50.1133 64.4028 50.1708 64.4028 50.2283C64.4028 53.1322 64.4028 56.036 64.4028 58.9399C64.316 58.8536 64.345 58.7674 64.345 58.6524C64.345 55.8635 64.345 53.1034 64.345 50.3145C64.3739 50.2283 64.316 50.1133 64.4318 50.0558Z" fill="#FCC000"/>
<path d="M89.4589 52.4134C88.9381 52.3559 88.4173 52.4134 87.8965 52.3846C87.8097 52.3846 87.7519 52.4134 87.7808 52.4996C87.7808 52.5284 87.7808 52.5284 87.7808 52.5571C87.7808 54.6847 87.7808 56.8123 87.7808 58.9399C87.7229 58.8536 87.7519 58.7674 87.7519 58.6811C87.7519 56.6685 87.7519 54.6272 87.7519 52.6146C87.7519 52.3846 87.8097 52.2984 88.0412 52.3271C88.4462 52.3559 88.8224 52.3271 89.2274 52.3271C89.3142 52.3271 89.401 52.2984 89.4589 52.4134Z" fill="#FCC000"/>
<path d="M85.3788 49.9983C84.7133 49.9983 84.019 49.9983 83.3535 49.9983C84.0479 49.912 84.7133 49.912 85.3788 49.9983Z" fill="#FCC000"/>
<path d="M79.7082 52.3845C79.1585 52.3558 78.6088 52.3558 78.0591 52.3845C78.2616 52.2695 78.4641 52.327 78.6667 52.327C79.0138 52.3558 79.361 52.2695 79.7082 52.3845Z" fill="#FCC000"/>
<path d="M49.1845 7.50406C48.6638 7.50406 48.114 7.50406 47.5933 7.50406C48.114 7.44656 48.6638 7.44656 49.1845 7.50406Z" fill="#00AAE5"/>
<path d="M80.5761 0C68.7718 0 56.9675 0 45.1342 0C30.2052 0 15.2762 0 0.347186 0C0.0578644 0 0 0.0575023 0 0.345014C0 2.01258 0 3.68015 0 5.34771C0 6.49776 0 7.61905 0 8.7691C0 8.85535 0 8.97036 0 9.05661C0 11.8742 0 14.7206 0 17.5382C0 17.8545 0 18.1995 0 18.5157C0 18.5732 0 18.6307 0 18.6882C0 22.7709 0 26.8823 0 30.965C0 31.0225 0 31.08 0 31.1375C0 33.9838 0 36.8015 0 39.6478C0 39.7053 0 39.7628 0.0578644 39.7916C0.115729 39.7916 0.202525 39.7916 0.26039 39.7916C13.6849 39.7916 27.1384 39.7916 40.5629 39.7916C40.7654 39.7916 40.939 39.7341 41.0837 39.5903C42.7907 37.894 44.5266 36.1977 46.2047 34.4726C46.7544 33.9263 47.2752 33.3801 47.8249 32.8338C47.9117 32.805 47.9406 32.7475 47.9985 32.69C50.7181 29.9874 53.4378 27.2848 56.1574 24.5822C56.2152 24.5247 56.2442 24.4672 56.302 24.4385C56.3599 24.381 56.4467 24.3235 56.5046 24.2372C58.3562 22.3971 60.2079 20.5571 62.0306 18.7457C62.696 18.0845 63.3904 17.3944 64.0559 16.7332C64.1427 16.6757 64.2005 16.5894 64.2873 16.5032C64.9238 15.8706 65.5603 15.2669 66.1679 14.6343C66.3994 14.4043 66.6308 14.1743 66.8334 13.9443C67.7881 12.9955 68.7718 12.018 69.7266 11.0692C69.7844 11.0117 69.8712 10.9542 69.9291 10.8679C71.2021 9.60288 72.4751 8.33783 73.7192 7.10153C73.7771 7.07278 73.806 7.04403 73.8639 6.98653C76.1495 4.71519 78.4352 2.44385 80.7208 0.172507C80.7497 0.143756 80.8365 0.115005 80.8076 0C80.7787 0 80.6629 0 80.5761 0ZM58.9927 17.3657C58.5877 19.7808 57.4883 21.7071 55.3473 23.0297C55.058 23.2022 54.7686 23.3172 54.4793 23.4897C54.4214 23.5184 54.2768 23.5472 54.3346 23.6622C54.1032 23.7484 53.8717 23.8347 53.6692 23.9209C53.6113 23.8922 53.5824 23.8634 53.5245 23.8922C53.2063 23.9785 52.888 24.0647 52.5698 24.151C52.5409 24.151 52.5119 24.1797 52.483 24.2085C52.3383 24.1797 52.2226 24.2085 52.0779 24.2372C51.0942 24.4097 50.1105 24.5247 49.1269 24.4672C48.4614 24.4385 47.796 24.4385 47.1595 24.4385C46.7544 24.4385 46.7255 24.496 46.7255 24.8985C46.7255 24.9847 46.7255 25.0997 46.7255 25.186C46.7255 27.2848 46.7255 29.3837 46.7255 31.4825C46.7255 31.9138 46.7255 31.9138 46.2915 31.9138C42.675 31.9138 39.0585 31.9138 35.4709 31.9138C35.0079 31.9138 35.0079 31.9138 34.8633 31.4537C34.6029 30.5625 34.3136 29.6712 34.0243 28.7799C33.9085 28.4061 33.8507 28.3774 33.4745 28.4924C32.404 28.7799 31.3046 28.9236 30.2052 28.9812C28.7297 29.0387 27.2831 28.8661 25.8943 28.4636C25.4893 28.3486 25.4314 28.3774 25.2867 28.7799C24.9685 29.6712 24.6502 30.5625 24.332 31.4537C24.1873 31.9138 24.1584 31.9138 23.6955 31.9138C21.9885 31.9138 20.3104 31.9138 18.6034 31.9138C18.1983 31.9138 17.8222 31.9138 17.4172 31.9138C17.1568 31.9138 17.1279 31.885 17.2147 31.6263C17.3304 31.2525 17.4461 30.9075 17.5618 30.5337C17.5908 30.4187 17.7065 30.2462 17.5618 30.1599C17.4461 30.0737 17.3304 30.2174 17.2436 30.3037C16.5781 30.85 15.8838 31.31 15.1026 31.655C14.09 32.115 13.0195 32.3738 11.9201 32.4888C11.8622 32.4888 11.7754 32.4888 11.7175 32.5463C11.3703 32.5463 11.0232 32.5463 10.7049 32.5463C10.0395 32.5463 9.40296 32.5463 8.76645 32.46C7.00159 32.23 5.29459 31.77 3.64546 31.1375C3.55866 31.1087 3.44293 31.0512 3.3272 31.08C3.29827 30.9937 3.18254 30.965 3.12468 30.9362C2.6039 30.7062 2.08312 30.4762 1.56234 30.2174C1.24408 30.0449 1.21515 30.0449 1.38875 29.7287C2.08312 28.3486 2.77749 26.9973 3.50079 25.6173C3.64546 25.3585 3.64546 25.3585 3.90585 25.5023C4.88954 26.0485 5.90217 26.5086 6.97266 26.8248C8.33247 27.1986 9.69228 27.2848 11.081 27.1698C11.6307 27.1411 12.1515 27.0548 12.5855 26.7098C13.4535 26.0485 13.7717 24.9847 12.8748 24.0072C12.6723 23.7772 12.4119 23.6047 12.1805 23.4322C11.3993 22.9434 10.5313 22.6846 9.66335 22.4834C8.21674 22.1384 6.79906 21.6496 5.46818 20.9596C4.45556 20.4133 3.50079 19.752 2.74856 18.8895C2.63283 18.7457 2.5171 18.5445 2.31457 18.4582C2.34351 18.3432 2.25671 18.2857 2.19885 18.1995C1.6202 17.3369 1.27302 16.3882 1.21515 15.3531C1.09942 14.0881 1.35981 12.8805 1.90952 11.7305C2.4303 10.6667 3.18254 9.80414 4.10837 9.08536C4.19517 9.02786 4.28196 8.97036 4.3109 8.8841C4.42662 8.8841 4.54235 8.8266 4.62915 8.74035C5.14993 8.42408 5.67071 8.13657 6.24935 7.90656C7.5513 7.38904 8.91111 7.18779 10.2999 7.18779C10.4445 7.18779 10.5602 7.18779 10.7049 7.13028C10.7917 7.18779 10.8785 7.18779 10.9942 7.18779C11.4282 7.15903 11.8911 7.21654 12.3251 7.24529C13.7717 7.36029 15.1894 7.5903 16.6071 7.96407C17.6776 8.25158 18.6902 8.62534 19.7028 9.11411C19.9632 9.22912 19.9632 9.28662 19.8475 9.51663C19.5871 9.97665 19.3267 10.4079 19.0952 10.8679C18.777 11.4717 18.4298 12.0467 18.0826 12.6505C18.0248 12.7368 17.9669 12.823 18.0248 12.9093C17.8222 13.2543 17.6197 13.5705 17.4461 13.9156C17.3593 14.0593 17.3014 14.0593 17.1568 14.0018C16.2599 13.5993 15.3341 13.283 14.4082 12.9668C13.1063 12.5355 11.8043 12.1617 10.3867 12.363C9.63442 12.4492 8.88218 12.6505 8.30354 13.168C7.75383 13.6568 7.69596 14.2893 8.12994 14.8643C8.41927 15.2669 8.85325 15.5256 9.28723 15.7556C10.2131 16.2444 11.1968 16.5319 12.2094 16.7619C13.8296 17.1357 15.363 17.682 16.7517 18.5732C18.2273 19.522 19.3846 20.7296 20.0211 22.3684C20.1079 22.5696 20.1657 22.7709 20.2525 23.0297C20.3104 22.9147 20.3393 22.8572 20.3683 22.7709C21.2362 20.4996 22.1331 18.2282 23.0011 15.9856C23.3772 14.9793 23.7823 13.9731 24.1584 12.9668C24.2741 12.9093 24.332 12.7943 24.3609 12.6793C24.9685 11.0979 25.5761 9.48788 26.1836 7.90656C26.2704 7.6478 26.4151 7.56155 26.6755 7.5903C28.6718 7.5903 30.6681 7.5903 32.6644 7.5903C33.0984 7.5903 33.0984 7.5903 33.2431 8.02157C33.9664 9.94789 34.6897 11.903 35.413 13.8293C35.4419 13.9443 35.4998 14.0593 35.6155 14.0881C35.6155 14.2031 35.6734 14.2893 35.7313 14.3756C35.7602 14.4618 35.7891 14.5481 35.818 14.6343C35.9048 14.8643 35.9627 15.0656 36.0495 15.2956C37.2936 18.6595 38.5666 22.0234 39.8107 25.3873C39.8975 25.5885 39.9553 25.7898 40.0421 25.991C40.1 25.8473 40.1 25.7323 40.1 25.6173C40.1 22.3109 40.1 19.0045 40.1 15.6694C40.1 15.2956 40.1 14.8931 40.1 14.5193C40.1 14.4906 40.1 14.4618 40.1 14.4043C40.1 14.2606 40.1 14.1456 40.1 14.0018C40.1 14.0018 40.1289 14.0018 40.1289 13.9731C40.2157 13.8293 40.1868 13.6568 40.1868 13.513C40.1868 11.673 40.1868 9.83289 40.1868 7.96407C40.1868 7.56155 40.1868 7.56155 40.6208 7.56155C42.7907 7.56155 44.9606 7.56155 47.1016 7.56155C47.2752 7.56155 47.4199 7.56155 47.5934 7.5328C48.1142 7.44655 48.6639 7.4753 49.1847 7.50405C49.9659 7.5903 50.776 7.61905 51.5572 7.73406C52.9459 7.96407 54.2479 8.33783 55.4919 8.99911C56.4178 9.51663 57.1989 10.1779 57.8354 11.0117C57.8933 11.0692 57.9222 11.1842 58.038 11.1554C58.009 11.2992 58.0958 11.3855 58.1537 11.5005C58.2984 11.7305 58.4141 11.9605 58.5298 12.1905C59.1085 13.4555 59.2821 14.8068 59.1374 16.1869C59.1374 16.3019 59.1085 16.4457 59.1953 16.5319C58.9638 16.8482 59.0217 17.1357 58.9927 17.3657Z" fill="#00A1DF"/>
<path d="M66.3127 51.7808V53.9946C66.3127 54.1096 66.3127 54.1959 66.4573 54.1959C67.0938 54.1959 67.7593 54.1959 68.4247 54.1671C69.148 54.1384 69.582 53.6208 69.582 52.9021C69.582 52.1833 69.148 51.7233 68.4247 51.637C68.0608 51.6041 67.6875 51.6089 67.3155 51.6135C67.0369 51.6171 66.7588 51.6206 66.4863 51.6083C66.3416 51.5795 66.3127 51.637 66.3127 51.7808Z" fill="#FCC000"/>
<path d="M75.6002 55.7773V56.4385C75.5712 57.3586 74.6454 58.0774 73.7196 57.8474C73.4013 57.7611 73.1988 57.5886 73.1699 57.3011C73.1409 56.9561 73.1988 56.6398 73.546 56.4385C73.8233 56.2778 74.156 56.2088 74.4703 56.1435C74.5495 56.1271 74.6276 56.1109 74.7033 56.0935C74.7528 56.0801 74.8017 56.0674 74.8499 56.0548C75.1116 55.9866 75.3559 55.9229 75.6002 55.7773Z" fill="#FCC000"/>
<path d="M96.3439 55.0008H98.6874C98.7742 55.0008 98.8321 55.0008 98.8321 54.8571C98.8031 54.1383 98.2534 53.592 97.5301 53.5633C96.8358 53.5345 96.2571 54.1096 96.1703 54.7996C96.1414 54.9721 96.1992 55.0008 96.3439 55.0008Z" fill="#FCC000"/>
<path d="M100.307 44.9379C100.336 44.5354 100.365 44.1329 100.51 43.788C100.741 43.2129 101.204 42.9254 101.841 42.9542C102.448 42.9542 102.882 43.2417 103.085 43.8167C103.316 44.478 103.374 45.1393 103.172 45.8293C102.94 46.6631 102.217 47.1231 101.465 46.9218C100.857 46.7781 100.568 46.2893 100.423 45.743C100.336 45.4555 100.307 45.1967 100.307 44.9379Z" fill="#FCC000"/>
<path d="M90.9625 43.6729C90.76 44.0467 90.7021 44.4779 90.7021 44.9955C90.7021 45.2255 90.731 45.513 90.8468 45.8292C91.0204 46.433 91.4543 46.8355 92.0908 46.893C92.8431 46.9793 93.4217 46.7205 93.6821 46.1455C94.0293 45.3405 94.0293 44.5067 93.6821 43.7017C93.4217 43.1266 92.9299 42.9254 92.3512 42.9254C91.7437 42.9254 91.2518 43.0979 90.9625 43.6729Z" fill="#FCC000"/>
<path fill-rule="evenodd" clip-rule="evenodd" d="M109.885 49.8832V63.7125C109.885 63.7332 109.887 63.7556 109.888 63.7789C109.894 63.8524 109.9 63.9345 109.856 64H28.9326C28.975 63.8107 29.1102 63.6983 29.2478 63.584C29.2982 63.5421 29.349 63.5 29.3955 63.4537C29.5981 63.2812 29.8006 63.1087 29.9742 62.9362C30.4859 62.4112 31.026 61.8956 31.5674 61.3787C31.9748 60.9897 32.383 60.5999 32.7806 60.2048C33.909 59.0836 35.0373 57.991 36.1946 56.8985C36.7733 56.3378 37.3593 55.7771 37.9452 55.2163C38.531 54.6558 39.1168 54.0952 39.6954 53.5346C40.1604 53.084 40.6301 52.6381 41.0989 52.193C41.7967 51.5306 42.4923 50.8702 43.1673 50.1995C43.2541 50.1132 43.3481 50.0341 43.4421 49.9551C43.5361 49.876 43.6302 49.7969 43.717 49.7107C43.7748 49.6532 43.8327 49.6244 43.9195 49.5957C44.3839 49.1177 44.8674 48.6586 45.348 48.2021C45.7058 47.8624 46.062 47.5241 46.4077 47.1806C47.0297 46.5768 47.6517 45.9802 48.2738 45.3836C48.8958 44.7871 49.5179 44.1905 50.1399 43.5867C50.7186 43.0261 51.3044 42.4654 51.8903 41.9048C52.4762 41.3441 53.0621 40.7835 53.6407 40.2228C54.2194 39.6765 54.7908 39.123 55.3622 38.5696C55.9336 38.0161 56.505 37.4627 57.0836 36.9164C57.6767 36.3558 58.2626 35.788 58.8484 35.2202C59.4343 34.6523 60.0202 34.0845 60.6134 33.5238C61.7705 32.4314 62.8988 31.3389 64.027 30.2465C65.2132 29.0965 66.3709 27.9748 67.5571 26.8535C67.7596 26.6523 67.9693 26.4511 68.1791 26.2498C68.3888 26.0485 68.5986 25.8473 68.8012 25.646C68.888 25.531 68.9748 25.5022 69.1194 25.5022C69.7125 25.4735 70.3056 25.4735 70.8987 25.4735C71.4919 25.4735 72.085 25.4735 72.6781 25.4447C73.1989 25.416 73.7269 25.416 74.2549 25.416C74.7829 25.416 75.3109 25.416 75.8317 25.3872C76.338 25.3585 76.8516 25.3585 77.3687 25.3585C77.8859 25.3585 78.4067 25.3585 78.9274 25.3297C79.4627 25.301 79.9979 25.301 80.5332 25.301C81.0684 25.301 81.6037 25.301 82.1389 25.2722C82.6452 25.2435 83.1588 25.2435 83.6723 25.2435C84.1859 25.2435 84.6994 25.2435 85.2057 25.2147C85.741 25.186 86.2762 25.186 86.8115 25.186C87.3467 25.186 87.882 25.186 88.4172 25.1572C88.9235 25.1285 89.4371 25.1285 89.9506 25.1285C90.4642 25.1285 90.9777 25.1285 91.484 25.0997C92.0193 25.071 92.5617 25.071 93.1042 25.071C93.6467 25.071 94.1892 25.071 94.7244 25.0422C95.2307 25.0135 95.737 25.0135 96.2433 25.0135C96.7497 25.0135 97.256 25.0135 97.7623 24.9847C98.312 24.956 98.8545 24.956 99.397 24.956C99.9395 24.956 100.482 24.956 101.032 24.9272C101.538 24.8985 102.044 24.8985 102.551 24.8985C103.057 24.8985 103.563 24.8985 104.07 24.8697C104.605 24.841 105.147 24.841 105.69 24.841C106.232 24.841 106.775 24.841 107.31 24.8122C108.149 24.7834 109.017 24.7834 109.856 24.7834V49.5957C109.9 49.6612 109.894 49.7433 109.888 49.8168C109.887 49.8401 109.885 49.8625 109.885 49.8832ZM86.7962 47.4107C86.3332 47.957 85.7835 48.2445 85.1181 48.3883C83.1507 48.8195 81.4726 48.0145 80.6047 46.2032C79.7946 44.5069 79.7946 42.7818 80.6625 41.1142C81.3858 39.7342 82.601 39.0729 84.1344 38.9867C85.2628 38.9292 86.3332 39.1592 87.2301 39.9067C87.8377 40.3955 88.2138 41.028 88.3296 41.833C88.3585 41.9768 88.3296 42.0343 88.1849 42.0343H86.6515C86.5358 42.0343 86.449 42.0343 86.42 41.8905C86.3043 41.1717 85.4653 40.568 84.5684 40.5392C83.4979 40.4817 82.6589 40.9992 82.2827 41.9768C81.8198 43.2131 81.7909 44.4494 82.3985 45.6282C83.1507 47.0657 84.9734 47.3245 86.0729 46.1744C86.3622 45.8582 86.5358 45.5132 86.5936 45.0819C86.6226 44.9094 86.5647 44.8519 86.3911 44.8519H84.8577C84.6841 44.8519 84.6263 44.7944 84.6552 44.6506V43.5868C84.6552 43.4431 84.6841 43.3856 84.8577 43.3856H88.2138C88.3585 43.3856 88.3874 43.4143 88.3874 43.5581V47.9858C88.3874 48.1008 88.3585 48.1583 88.2138 48.1583H86.9698C86.8251 48.1583 86.7962 48.1008 86.7962 47.9858V47.4107ZM85.3789 52.0683V49.9982C85.2058 49.9552 85.0164 49.9604 84.8229 49.9658C84.7578 49.9676 84.6923 49.9694 84.6267 49.9694C84.5174 49.9694 84.4099 49.9676 84.3033 49.9658C83.9869 49.9604 83.6783 49.9552 83.3537 49.9982V52.0395C83.3537 52.2408 83.2958 52.2983 83.1222 52.2695H82.9486C82.8877 52.2695 82.819 52.2591 82.7487 52.2485C82.5852 52.2238 82.4133 52.1978 82.3121 52.2983C82.2074 52.4023 82.224 52.5666 82.2411 52.7367C82.2476 52.8016 82.2543 52.8673 82.2543 52.9308C82.2543 53.0106 82.2433 53.0986 82.2323 53.1864C82.2077 53.3832 82.1832 53.5789 82.2832 53.6783C82.4078 53.8022 82.622 53.7778 82.8293 53.7542C82.9106 53.745 82.991 53.7358 83.0644 53.7358C83.2958 53.7358 83.3537 53.7933 83.3537 54.0233V57.301C83.3537 58.1635 83.8166 58.796 84.5688 58.9686C85.1707 59.1121 85.7925 59.0566 86.4178 59.0008C86.5438 58.9895 86.6704 58.9782 86.7966 58.9686C86.9123 58.9686 86.9413 58.9398 86.9413 58.8248V57.531L86.867 57.5393C86.6413 57.5648 86.4559 57.5857 86.2469 57.5597C85.6972 57.5022 85.3789 57.186 85.3789 56.6397V53.9371C85.3789 53.7646 85.4368 53.7358 85.5815 53.7358H86.8834C87.0281 53.7358 87.0859 53.7071 87.0859 53.5346V52.4995C87.1149 52.327 87.057 52.2983 86.8834 52.2983H85.6104C85.4079 52.2983 85.3789 52.2408 85.3789 52.0683ZM89.459 53.1895V52.4132C89.4048 52.3325 89.3252 52.3525 89.2203 52.379L89.1986 52.3845C89.0625 52.3845 88.9296 52.3877 88.7979 52.3909C88.5375 52.3973 88.2813 52.4036 88.0124 52.3845C87.7809 52.3845 87.7231 52.442 87.7231 52.672V58.7672C87.7231 58.8247 87.7231 58.911 87.752 58.9685C87.9149 58.9685 88.0809 58.9653 88.2481 58.9622C88.5856 58.9558 88.9275 58.9493 89.2565 58.9685C89.4301 58.9685 89.4879 58.911 89.4879 58.7385V56.0359C89.4879 55.9435 89.4862 55.8494 89.4844 55.7544C89.4789 55.4651 89.4733 55.167 89.5169 54.8858C89.6615 53.9083 90.4716 53.4195 91.4264 53.7645C91.6868 53.8508 91.8314 53.9945 91.9182 54.2533C91.9761 54.4833 92.005 54.7708 92.005 55.0296V58.681C92.005 58.8822 92.0629 58.9397 92.2654 58.9397C92.6994 58.911 93.1044 58.911 93.5095 58.9397C93.741 58.9685 93.7699 58.8822 93.7699 58.681V54.2821C93.7699 54.1096 93.741 53.937 93.712 53.7933C93.4806 52.787 92.7573 52.212 91.6289 52.1832C90.9056 52.1832 90.2112 52.327 89.6904 52.9308C89.6842 52.9401 89.6782 52.9502 89.6724 52.9607C89.6649 52.9744 89.6576 52.9888 89.6502 53.0035C89.6109 53.0817 89.5675 53.168 89.459 53.1895ZM79.7077 52.3845V53.0745C79.7348 53.0447 79.7615 53.0148 79.788 52.9852L79.7896 52.9834C80.0184 52.7278 80.2363 52.4843 80.5468 52.3557C80.9518 52.1832 81.3858 52.1832 81.7909 52.1832C81.9066 52.1832 81.9066 52.2695 81.9066 52.3557V53.9946C81.7041 53.937 81.5015 53.937 81.328 53.937C80.3732 53.937 79.8235 54.4833 79.8235 55.4321V58.681C79.8235 58.911 79.7656 58.9685 79.5341 58.9397C79.1291 58.911 78.7241 58.911 78.2901 58.9397C78.0875 58.9397 78.0297 58.8822 78.0297 58.681V52.3845C78.6083 52.3557 79.158 52.3557 79.7077 52.3845ZM102.924 52.978C102.895 53.0135 102.862 53.0529 102.824 53.1033C102.824 52.9021 102.824 52.7296 102.795 52.5283C102.795 52.3558 102.738 52.2983 102.564 52.2983H101.349C101.175 52.2696 101.146 52.3558 101.146 52.4996V58.6811C101.146 58.8248 101.204 58.8823 101.349 58.8823H102.651C102.824 58.8823 102.882 58.8536 102.882 58.6523V55.5759C102.882 54.3684 103.432 53.8221 104.647 53.8796C104.705 53.8796 104.763 53.8796 104.821 53.9084C104.965 53.9659 104.994 53.9084 104.994 53.7934V52.2983C104.994 52.2408 104.994 52.1546 104.879 52.1546C104.184 52.1546 103.519 52.2696 103.027 52.8446C102.994 52.893 102.962 52.9324 102.924 52.978ZM96.2288 39.4754V43.673C96.2288 45.1106 96.2288 46.5194 96.2577 47.957C96.2577 48.1295 96.2577 48.187 96.4602 48.187H97.8201C97.9647 48.187 98.0226 48.1295 98.0226 47.9857V39.5041C98.0226 39.2741 97.9358 39.2166 97.7043 39.2166C97.2993 39.2454 96.8942 39.2454 96.4892 39.2166C96.2866 39.1879 96.2288 39.2741 96.2288 39.4754ZM68.1641 50.0557H64.4318C64.3979 50.0894 64.3938 50.1428 64.3904 50.1871C64.388 50.2184 64.3859 50.2451 64.374 50.257V58.6523C64.374 58.6739 64.3721 58.6954 64.3703 58.717C64.3649 58.7817 64.3595 58.8464 64.4029 58.9111C64.5744 58.9111 64.749 58.908 64.9258 58.9048C65.2857 58.8984 65.6544 58.8918 66.0231 58.9111C66.2256 58.9111 66.2835 58.8536 66.2835 58.6523V55.9497C66.2835 55.7485 66.3413 55.691 66.5439 55.691H68.3955C68.627 55.691 68.8295 55.691 69.061 55.6334C70.2472 55.4034 70.9416 54.6847 71.173 53.3909C71.4045 52.1833 70.8258 50.8608 69.6396 50.3145C69.1767 50.0845 68.6559 50.0557 68.1641 50.0557ZM75.5998 58.4224C75.1947 58.7674 74.7607 58.9974 74.2689 59.0836C73.7481 59.1699 73.2273 59.1699 72.7066 59.0261C71.7807 58.7961 71.3178 58.0199 71.4046 56.9848C71.5203 55.8923 72.1568 55.346 73.2563 55.1447L74.8186 54.886C74.9343 54.8572 75.0501 54.8285 75.1658 54.771C75.3683 54.6847 75.513 54.541 75.513 54.311C75.513 54.0235 75.4262 53.8509 75.1658 53.7072C74.7318 53.5059 74.2978 53.5059 73.8638 53.6209C73.5167 53.7072 73.3431 53.9947 73.2563 54.3397C73.2273 54.5122 73.1405 54.541 73.0248 54.5122H71.7807C71.6361 54.5122 71.5782 54.4547 71.5782 54.311C71.6361 53.4772 71.9543 52.7584 72.8512 52.4421C73.9217 52.0396 75.0501 52.0396 76.1206 52.4709C76.8149 52.7584 77.1621 53.3334 77.2489 54.0522C77.3226 54.6011 77.3142 55.15 77.3058 55.6989C77.301 56.0125 77.2963 56.3262 77.3068 56.6398C77.3262 57.102 77.3196 57.5642 77.3131 58.0178L77.3131 58.0186C77.3099 58.2419 77.3068 58.4631 77.3068 58.6811C77.3068 58.8824 77.2489 58.9111 77.0753 58.9111C76.9607 58.9111 76.843 58.908 76.7242 58.9048C76.4832 58.8984 76.2373 58.8919 76.0048 58.9111C75.7444 58.9399 75.5998 58.8249 75.5998 58.5661C75.6287 58.5661 75.6287 58.5086 75.5998 58.4224ZM99.6998 58.4224C100.134 58.0199 100.394 57.5887 100.568 57.0136C100.018 57.0136 99.4973 57.0136 99.0633 56.9849C98.8897 56.9849 98.774 57.0136 98.7161 57.1861C98.6583 57.3586 98.5136 57.4449 98.3689 57.5312C97.4431 58.0774 96.3437 57.5024 96.1701 56.4099C96.1122 56.1798 96.1701 56.0936 96.4305 56.1223H100.365C100.597 56.1223 100.712 56.0936 100.684 55.8061C100.661 55.6466 100.647 55.4915 100.633 55.3375C100.612 55.1028 100.591 54.8702 100.539 54.6273C100.278 53.506 99.7288 52.6435 98.5425 52.3272C98.0507 52.1834 97.5588 52.1834 97.0381 52.2409C96.0254 52.3272 95.2732 52.7872 94.7814 53.6785C94.3474 54.5123 94.3184 55.4036 94.4052 56.2948C94.4631 57.0136 94.6946 57.6749 95.1864 58.2499C96.0833 59.285 98.5715 59.4862 99.6998 58.4224ZM103.201 42.4079V39.5041C103.201 39.2741 103.258 39.1878 103.49 39.2166C103.895 39.2453 104.271 39.2453 104.676 39.2166C104.908 39.2166 104.965 39.2741 104.965 39.5041V47.9857C104.965 48.1582 104.936 48.2444 104.734 48.2157H103.461C103.287 48.2157 103.229 48.1582 103.229 47.9857V47.5544C103.172 47.5256 103.143 47.5544 103.143 47.5831C102.506 48.5032 101.233 48.5319 100.394 48.2444C99.4394 47.8994 98.9475 47.1519 98.6871 46.2318C98.3978 45.168 98.4267 44.133 98.8318 43.098C99.5262 41.3441 101.465 41.1429 102.564 41.8617C102.756 41.9569 102.908 42.1114 103.086 42.2924C103.102 42.3085 103.118 42.3249 103.134 42.3414C103.156 42.3633 103.178 42.3855 103.201 42.4079ZM89.4877 47.0368C90.1821 47.9856 91.1369 48.3593 92.2942 48.3593C93.9144 48.3593 95.1006 47.5543 95.5056 46.1455C95.766 45.2542 95.766 44.3629 95.4478 43.5004C95.1006 42.5229 94.4351 41.8903 93.4514 41.6028C92.6992 41.3728 91.918 41.3728 91.1369 41.6028C90.24 41.8616 89.5745 42.4366 89.1984 43.3279C89.0248 43.7592 88.938 44.1904 88.9091 44.6217C88.8512 45.4842 88.9959 46.318 89.4877 47.0368Z" fill="#FCC000"/>
<path d="M31.9996 22.8857C30.6977 23.3745 29.3668 23.3458 28.0648 23.0007C27.8623 22.9432 27.6887 22.8857 27.4862 22.8282C27.3126 22.7995 27.2837 22.7132 27.3415 22.5695C27.6309 21.6782 27.9202 20.7581 28.2095 19.8669C28.7013 18.3718 29.1643 16.8767 29.6561 15.3817C29.685 15.2954 29.685 15.2092 29.7718 15.1229C29.9165 15.5829 30.0612 16.0142 30.2058 16.4742C30.8423 18.4868 31.5078 20.4994 32.1732 22.512C32.26 22.742 32.2021 22.7995 31.9996 22.8857Z" fill="#00A1DF"/>
<path d="M51.123 18.2857C50.3997 18.6307 49.6185 18.7457 48.8374 18.7457C48.2877 18.7745 47.709 18.7457 47.1593 18.7457C46.9857 18.7457 46.8989 18.6882 46.9278 18.5157C46.9278 17.5382 46.9278 16.5319 46.9278 15.5544C46.9278 14.5768 46.9278 13.628 46.9278 12.6505C46.9278 12.4492 46.9857 12.363 47.1882 12.3917C48.143 12.4205 49.0978 12.3342 50.0525 12.478C50.9784 12.6505 51.8463 12.9668 52.425 13.743C53.4955 15.2381 52.83 17.5094 51.123 18.2857Z" fill="#00A1DF"/>
</svg>
