<svg width="126" height="46" viewBox="0 0 126 46" fill="none" xmlns="http://www.w3.org/2000/svg">
<path d="M33.4702 29.1411C33.5544 31.6946 33.9192 34.2482 33.386 36.7175C32.2074 42.1333 27.6335 45.5848 21.9091 45.248C13.6592 44.771 7.31747 40.9828 3.30476 33.7992C-0.371208 27.233 -0.45539 20.3861 2.60324 13.5112C2.88385 12.8939 3.1364 12.7536 3.80986 13.0342C7.90674 14.6898 10.4603 18.5902 10.5725 23.1922C10.6848 28.0467 12.9577 31.6666 17.251 33.9114C22.7509 36.8017 29.5136 35.0058 32.9932 29.8987C33.1335 29.6462 33.3018 29.3936 33.4702 29.1411Z" fill="#7E7D85"/>
<path d="M20.9263 0.855713C22.189 0.855713 23.4517 0.855713 24.7145 0.855713C29.6532 1.24856 33.9746 3.1567 37.7067 6.41176C39.1939 7.70256 40.4566 9.18979 41.551 10.8454C41.8316 11.2663 41.8597 11.4627 41.3265 11.6872C38.0995 12.978 35.8266 15.279 34.4797 18.4779C34.4516 18.5341 34.3955 18.5621 34.3394 18.6182C31.7578 13.1464 27.5206 10.4525 21.3752 10.8734C17.2503 11.154 13.2657 14.2127 11.3014 18.7024C10.656 17.6642 10.2351 16.5698 9.5055 15.6157C8.15858 13.876 6.50299 12.5852 4.45455 11.7433C3.86527 11.5188 3.75303 11.2944 4.14588 10.7612C7.84991 5.40157 12.8728 2.09039 19.3549 1.05214C19.86 0.967956 20.3931 0.911835 20.9263 0.855713Z" fill="#7E7D85"/>
<path d="M72.3625 18.7025C70.5946 17.7485 68.8829 17.075 67.059 16.7102C65.5998 16.4015 64.1126 16.2612 62.6254 16.598C61.9519 16.7663 61.3626 17.075 61.3065 17.8607C61.2784 18.5903 61.8958 18.8709 62.457 19.0393C64.0565 19.5724 65.7121 20.0214 67.3115 20.5546C68.5181 20.9474 69.6406 21.5928 70.763 22.2101C74.9721 24.5673 74.7196 30.909 71.0156 33.4625C69.0232 34.8375 66.8345 35.3707 64.4493 35.3987C61.3065 35.4549 58.332 34.8936 55.6101 33.2942C55.1612 33.0136 54.9367 32.733 54.9647 32.1717C54.9928 30.3759 54.9928 28.5519 54.9928 26.6438C57.2096 28.3555 59.5948 29.3376 62.2325 29.7305C63.4672 29.9269 64.7299 29.9549 65.9646 29.6463C66.7503 29.4498 67.4518 29.0851 67.536 28.159C67.6202 27.233 66.9187 26.7279 66.1891 26.4754C64.758 25.9703 63.2988 25.6055 61.8397 25.1285C60.2402 24.5953 58.6968 23.9499 57.2657 22.9678C54.4316 21.0316 53.8984 14.8863 57.8831 12.4169C59.3703 11.4909 60.9978 11.0419 62.7095 10.9016C65.8243 10.6491 68.8268 11.07 71.689 12.445C72.1941 12.6695 72.3905 12.9501 72.3905 13.5113C72.3344 15.1949 72.3625 16.8505 72.3625 18.7025Z" fill="#7E7D85"/>
<path d="M31.3662 43.34C34.2565 40.5058 35.2667 37.0543 35.1264 33.1258C35.0141 29.7585 35.0983 26.3912 35.0983 23.0239C35.0983 18.5903 37.7921 14.6618 41.889 13.0062C42.4502 12.7817 42.7028 12.8659 42.9834 13.4271C48.2588 24.3428 43.5727 37.812 32.6289 43.0593C32.2642 43.2277 31.8994 43.5644 31.3662 43.34Z" fill="#7E7D85"/>
<path d="M100.536 35.2023C100.199 35.3426 99.8904 35.4548 99.5818 35.567C98.0104 36.0721 96.467 36.0721 95.064 35.0339C94.615 34.6972 94.5028 34.5007 95.1482 34.1359C100.199 31.414 102.668 25.8299 101.322 20.3019C99.9185 14.5775 95.1201 10.9016 89.0028 10.9016C80.7529 10.9016 74.9724 18.1693 76.8244 26.1947C77.9749 31.1054 81.8193 34.6691 86.8141 35.4267C87.5156 35.539 88.0488 35.7354 88.5258 36.3527C89.4518 37.5313 90.5462 38.5415 91.7528 39.4114C94.2783 41.2353 97.0002 41.544 99.8904 40.5619C100.283 40.4216 100.536 40.2813 100.536 39.7762C100.508 38.2328 100.536 36.7456 100.536 35.2023ZM87.235 29.6462C84.6534 28.8605 82.9697 26.4473 82.8856 23.3325C82.7453 18.5622 87.0666 15.3071 91.3319 16.9346C94.5308 18.1693 96.1584 22.0417 94.9798 25.6054C93.8574 28.8886 90.5181 30.6283 87.235 29.6462Z" fill="#7E7D85"/>
<path d="M121.721 21.8732C125.369 19.7126 125.032 14.2126 121.468 12.3606C120.346 11.7713 119.139 11.4346 117.877 11.3785C113.92 11.2101 109.935 11.3504 105.979 11.2943C105.305 11.2943 105.361 11.6591 105.361 12.08C105.361 19.46 105.361 26.84 105.361 34.22C105.361 34.8374 105.502 35.0057 106.147 35.0057C109.963 34.9777 113.78 35.0057 117.596 34.9777C118.578 34.9777 119.56 34.8654 120.514 34.6409C123.517 33.9394 125.762 31.6384 125.958 29.0007C126.267 25.5211 124.864 23.2202 121.721 21.8732ZM111.507 16.8223C111.507 16.4856 111.563 16.2611 111.984 16.2611C113.499 16.3172 115.014 16.1488 116.53 16.3733C117.736 16.5417 118.438 17.2993 118.41 18.3656C118.41 19.4319 117.596 20.2176 116.389 20.358C116.333 20.358 116.277 20.358 116.221 20.358C115.52 20.358 114.79 20.358 114.088 20.358C113.415 20.358 112.713 20.3299 112.04 20.358C111.675 20.358 111.507 20.2457 111.535 19.8529C111.535 18.8427 111.507 17.8325 111.507 16.8223ZM116.838 29.8145C115.997 29.8706 115.183 29.8145 114.341 29.8145V29.8425C113.555 29.8425 112.798 29.8425 112.012 29.8425C111.619 29.8425 111.507 29.7022 111.507 29.3374C111.535 28.0186 111.507 26.7278 111.507 25.4089C111.507 25.0722 111.563 24.8477 111.984 24.8477C113.639 24.9038 115.323 24.7354 116.979 24.9599C118.438 25.1564 119.336 26.1104 119.308 27.4293C119.308 28.7762 118.354 29.7022 116.838 29.8145Z" fill="#7E7D85"/>
</svg>
