<svg width="204" height="32" viewBox="0 0 204 32" fill="none" xmlns="http://www.w3.org/2000/svg">
<path d="M163.627 15.5593C163.627 12.4332 163.635 9.29917 163.619 6.17305C163.619 5.80899 163.732 5.75359 164.061 5.75359C165.292 5.76942 166.522 5.77734 167.76 5.75359C168.09 5.74568 168.146 5.84856 168.146 6.14931C168.138 8.63437 168.146 11.1194 168.13 13.6045C168.13 13.9211 168.227 13.9844 168.532 13.9844C171.29 13.9765 174.048 13.9686 176.806 13.9844C177.152 13.9844 177.217 13.8894 177.217 13.5729C177.2 11.1115 177.217 8.65812 177.2 6.19679C177.2 5.82482 177.313 5.75359 177.667 5.76151C178.913 5.78525 180.16 5.77734 181.406 5.76151C181.679 5.76151 181.736 5.84065 181.736 6.09391C181.728 12.4332 181.728 18.7725 181.736 25.1039C181.736 25.373 181.671 25.46 181.382 25.4521C180.119 25.4363 178.865 25.4363 177.603 25.4521C177.289 25.46 177.2 25.3809 177.2 25.0643C177.217 22.7375 177.2 20.4107 177.217 18.084C177.217 17.7516 177.12 17.6803 176.79 17.6803C174.048 17.6962 171.298 17.6962 168.556 17.6803C168.186 17.6803 168.13 17.7911 168.13 18.1156C168.146 20.4266 168.13 22.7454 168.146 25.0564C168.146 25.3492 168.098 25.46 167.76 25.4521C166.53 25.4284 165.3 25.4284 164.061 25.4521C163.716 25.46 163.619 25.3888 163.619 25.0247C163.635 21.867 163.627 18.7092 163.627 15.5593Z" fill="#7E7D85"/>
<path d="M202.828 5.68237C201.63 7.15442 200.488 8.55524 199.346 9.95606C198.044 11.5547 196.741 13.1613 195.422 14.7521C195.229 14.9895 195.253 15.1161 195.438 15.3298C198.172 18.4955 200.898 21.677 203.624 24.8506C203.745 24.9931 203.857 25.1355 203.978 25.2701C203.922 25.3967 203.809 25.3492 203.729 25.3492C202 25.3492 200.271 25.3492 198.542 25.3571C198.293 25.3571 198.156 25.2543 198.011 25.0881C196.009 22.7059 193.999 20.3237 192.013 17.9415C191.804 17.6883 191.595 17.5933 191.265 17.6091C190.662 17.6329 190.059 17.6408 189.456 17.6091C189.078 17.5854 189.03 17.7278 189.03 18.0523C189.046 20.3554 189.03 22.6505 189.046 24.9535C189.046 25.2701 188.989 25.3809 188.636 25.373C187.429 25.3492 186.223 25.3571 185.017 25.373C184.744 25.373 184.655 25.3097 184.655 25.0247C184.663 18.6855 184.663 12.3541 184.655 6.01477C184.655 5.76152 184.72 5.68237 184.985 5.69029C186.215 5.70612 187.446 5.70612 188.684 5.69029C188.965 5.69029 189.038 5.7536 189.038 6.03851C189.03 8.54732 189.038 11.064 189.022 13.5729C189.022 13.8973 189.11 14.0002 189.44 13.9844C189.987 13.9527 190.541 13.9607 191.088 13.9844C191.329 13.9923 191.474 13.9053 191.619 13.7232C193.621 11.1432 195.631 8.56315 197.634 5.98311C197.786 5.78526 197.931 5.6982 198.196 5.6982C199.716 5.69029 201.228 5.68237 202.828 5.68237Z" fill="#7E7D85"/>
<path d="M95.7768 5.70616C95.0933 6.20475 94.5063 6.63212 93.9193 7.05949C93.1152 7.64514 92.3031 8.22288 91.499 8.81645C91.314 8.95099 91.1371 8.99847 90.912 8.99847C89.0545 8.99056 87.189 8.99847 85.3315 8.99056C85.042 8.99056 84.9455 9.03805 84.9535 9.3467C84.9696 10.7159 84.9696 12.0771 84.9535 13.4463C84.9535 13.7312 85.0179 13.8182 85.3234 13.8182C88.1458 13.8024 90.9763 13.8182 93.7987 13.8024C94.0962 13.8024 94.2169 13.8499 94.2008 14.1823C94.1767 15.0133 94.1686 15.8364 94.2008 16.6674C94.2169 17.0472 94.0721 17.0868 93.7424 17.0868C90.9602 17.0789 88.17 17.0868 85.3878 17.071C85.042 17.071 84.9375 17.1422 84.9455 17.4984C84.9696 18.9071 84.9696 20.3079 84.9455 21.7166C84.9375 22.0411 85.0098 22.1282 85.3556 22.1282C88.6766 22.1124 91.9975 22.1282 95.3185 22.1123C95.6803 22.1123 95.8009 22.1915 95.7849 22.5635C95.7527 23.4024 95.7688 24.2492 95.7849 25.0881C95.7929 25.3493 95.7045 25.4126 95.4471 25.4126C90.6145 25.4047 85.7818 25.4047 80.9491 25.4126C80.6676 25.4126 80.6274 25.3176 80.6274 25.0723C80.6355 18.733 80.6355 12.4016 80.6274 6.0623C80.6274 5.80113 80.6757 5.69824 80.9732 5.69824C85.822 5.70616 90.6707 5.70616 95.5115 5.70616C95.5517 5.70616 95.5999 5.70616 95.7768 5.70616Z" fill="#7E7D85"/>
<path d="M57.5822 7.96172C56.6092 8.66609 55.6523 9.35463 54.7035 10.0511C54.5105 10.1935 54.4059 10.0115 54.2853 9.94028C52.0177 8.53946 48.8094 8.64234 46.6865 10.241C44.7165 11.721 44.0008 13.7549 44.2581 16.1213C44.6521 19.7777 47.9168 22.1124 51.8811 21.5584C53.0148 21.4001 54.0441 20.9727 55.009 20.4108C55.2422 20.2763 55.395 20.2763 55.6121 20.4425C56.3197 20.9806 57.0354 21.5109 57.7671 22.0174C58.0244 22.1915 57.9762 22.2944 57.7832 22.4764C56.368 23.8297 54.6633 24.6291 52.7334 24.9615C50.0075 25.4363 47.37 25.1356 44.9899 23.711C41.5563 21.6612 40.0285 18.5589 40.1813 14.6651C40.3582 10.1065 43.6631 6.47385 48.2867 5.68242C50.9 5.23923 53.433 5.45291 55.8131 6.70336C56.4323 7.04367 57.0113 7.46313 57.5822 7.96172Z" fill="#7E7D85"/>
<path d="M15.4544 15.0609C14.3045 14.317 13.1385 13.6047 11.9726 12.8766C11.265 12.4334 10.5574 11.9981 9.79346 11.5312C9.79346 13.0269 9.79346 14.4594 9.79346 15.884C9.79346 16.0502 9.90603 16.1056 10.0186 16.1768C11.8681 17.3323 13.7175 18.4798 15.5669 19.6432C15.7519 19.762 15.8805 19.754 16.0574 19.6274C20.6891 16.2164 25.3288 12.8133 29.9765 9.41806C30.1936 9.25978 30.1776 9.14898 30.0811 8.94321C29.6549 8.06473 29.1322 7.24165 28.5774 6.4344C28.3683 6.13366 28.2397 6.1574 27.9663 6.35526C24.0261 9.25186 20.078 12.1406 16.1459 15.0451C15.8886 15.235 15.7197 15.235 15.4544 15.0609Z" fill="#7E7D85"/>
<path d="M31.3602 12.9239C31.1913 13.0426 31.0627 13.1297 30.942 13.2168C30.0736 13.8499 29.2132 14.4989 28.3367 15.1241C28.0714 15.314 27.9668 15.4961 27.9588 15.8285C27.9186 18.7251 26.9617 21.3051 25.0721 23.5369C24.284 24.4708 23.3513 25.2464 22.3301 25.9349C21.4857 26.4335 20.6012 26.8609 19.6765 27.1854C18.9448 27.407 18.1969 27.589 17.433 27.7077C17.1114 27.7394 16.7817 27.771 16.4601 27.7948C15.0207 27.8264 13.6055 27.684 12.2224 27.2883C11.153 26.9163 10.1317 26.4414 9.15878 25.8637C7.80788 24.9298 6.65801 23.7981 5.70916 22.4843C5.62071 22.3419 5.5403 22.1994 5.45185 22.0569C5.00155 21.3447 4.6799 20.5691 4.33414 19.8014C4.03662 18.82 3.79538 17.8228 3.67477 16.8019C3.67477 16.1213 3.67477 15.4327 3.67477 14.7521C3.76322 14.1506 3.85167 13.5492 3.94817 12.9398C4.10899 12.4174 4.26981 11.903 4.43063 11.3807C4.69598 10.8187 4.96134 10.2648 5.23474 9.70284C5.53226 9.25964 5.83782 8.80853 6.13534 8.36534C6.44894 8.00128 6.76254 7.63723 7.08418 7.27317C7.44603 7.02783 7.72747 6.69544 8.04107 6.3947C8.82105 5.80113 9.65732 5.27087 10.5258 4.80394C11.6756 4.30534 12.8657 3.91754 14.1201 3.74343C15.1976 3.59306 16.2832 3.62472 17.3607 3.70386C17.425 3.71969 17.4893 3.74343 17.5537 3.75926C19.3227 4.01251 20.955 4.62982 22.4426 5.60327C22.6517 5.73781 22.7723 5.66659 22.9331 5.54787C23.7774 4.92265 24.6137 4.29743 25.4741 3.69594C25.6993 3.53766 25.7073 3.4506 25.4821 3.2844C24.5011 2.54838 23.4638 1.90733 22.3461 1.40873C21.0596 0.838908 19.7408 0.395711 18.3417 0.229513C17.8994 0.0633138 17.4089 0.15037 16.9586 0C16.2349 0 15.5112 0 14.7875 0C14.3935 0.0553996 13.9995 0.102885 13.6055 0.158285C12.0536 0.379883 10.566 0.799337 9.15074 1.47996C8.26622 1.86776 7.43799 2.34261 6.66605 2.92035C5.45185 3.71969 4.43063 4.70896 3.53003 5.83278C3.20839 6.21267 2.90283 6.59255 2.66159 7.01992C2.33191 7.46312 2.05047 7.93006 1.81728 8.42865C1.50368 8.9589 1.25441 9.5129 1.05338 10.0986C0.796066 10.6525 0.635244 11.2382 0.498546 11.8318C0.353807 12.3541 0.233191 12.8764 0.176904 13.4146C0.120616 13.8103 0.0562875 14.1981 0 14.5938C0 15.3299 0 16.0659 0 16.8019C0.15278 17.1818 0.00804108 17.6092 0.176904 17.9811C0.305561 18.9783 0.546793 19.9518 0.9006 20.9015C1.22224 21.8749 1.64842 22.793 2.18717 23.6635C3.57024 26.0378 5.45989 27.9135 7.86417 29.2826C8.84518 29.8841 9.89856 30.3352 11.0082 30.6755C11.949 30.9921 12.914 31.2058 13.903 31.3008C14.4096 31.4195 14.9403 31.4353 15.4549 31.4353C16.3314 31.4274 17.2159 31.4432 18.0844 31.2454C18.9126 31.1662 19.7167 30.9921 20.4967 30.6993C21.4938 30.4302 22.4426 30.0424 23.3271 29.5121C24.5574 28.9107 25.651 28.1034 26.632 27.1695C29.9691 23.9722 31.6336 20.0705 31.6094 15.4881C31.6094 14.6413 31.5451 13.8024 31.3602 12.9239Z" fill="#7E7D85"/>
<path d="M139.89 18.4322C139.657 16.1529 138.378 14.6729 136.215 13.9211C135.331 13.6124 134.406 13.4383 133.465 13.4225C131.567 13.3908 129.662 13.3908 127.756 13.3987C127.402 13.3987 127.273 13.3354 127.281 12.9555C127.314 11.7842 127.314 10.6129 127.281 9.44163C127.273 9.03801 127.402 8.98261 127.772 8.98261C131.254 8.99843 134.736 8.99052 138.217 8.99843C138.491 8.99843 138.587 8.95095 138.579 8.65812C138.555 7.80339 138.555 6.94865 138.579 6.09391C138.587 5.76152 138.491 5.68237 138.161 5.68237C133.232 5.69029 128.303 5.69029 123.373 5.68237C123.028 5.68237 122.963 5.77734 122.963 6.09391C122.979 9.23586 122.971 12.3778 122.971 15.5198C122.971 18.6775 122.979 21.8353 122.963 24.9852C122.963 25.3176 123.052 25.3888 123.382 25.3888C126.083 25.373 128.793 25.3809 131.495 25.3809C132.339 25.3809 133.184 25.3492 134.02 25.2305C134.961 25.096 135.877 24.8585 136.738 24.4391C139.271 23.2203 140.139 20.9331 139.89 18.4322ZM133.586 21.9303C132.42 22.1915 131.238 22.0727 130.224 22.1044C129.26 22.1044 128.455 22.0965 127.651 22.1123C127.386 22.1202 127.281 22.0727 127.281 21.7799C127.298 20.1733 127.289 18.5746 127.289 16.9681C127.289 16.786 127.281 16.6436 127.555 16.6515C129.332 16.699 131.117 16.5723 132.894 16.7306C133.176 16.7544 133.449 16.8098 133.722 16.881C135.138 17.2451 135.837 18.0998 135.813 19.4294C135.789 20.7352 134.993 21.6216 133.586 21.9303Z" fill="#7E7D85"/>
<path d="M65.5663 8.9825C68.1234 8.99833 70.6804 8.99042 73.2375 8.99042C73.4465 8.99042 73.6154 8.95085 73.7923 8.82422C75.0869 7.87451 76.3896 6.93272 77.6922 5.98301C77.7887 5.91178 77.9335 5.8643 77.9817 5.69019C77.9174 5.69019 77.8691 5.69019 77.8209 5.69019C72.2886 5.6981 66.7403 5.6981 61.192 5.69019C60.8381 5.69019 60.8542 5.85638 60.8542 6.10173C60.8542 12.4015 60.8623 18.7012 60.8462 24.993C60.8462 25.3175 60.9346 25.4045 61.2643 25.4045C64.0867 25.3887 66.9172 25.3966 69.7396 25.3966C70.7689 25.3966 71.7981 25.3096 72.8113 25.088C75.9875 24.3994 77.7646 22.3575 77.8289 19.3264C77.8852 16.6672 76.5826 14.7678 74.0898 13.9131C73.0204 13.549 71.9107 13.3986 70.7769 13.3986C69.0481 13.3907 67.3192 13.3828 65.5904 13.3986C65.2205 13.4066 65.1562 13.2878 65.1642 12.9554C65.1884 11.7604 65.1884 10.5654 65.1642 9.36239C65.1642 9.05373 65.2607 8.9825 65.5663 8.9825ZM65.1803 16.9363C65.1803 16.7543 65.1964 16.6514 65.4296 16.6514C67.2228 16.691 69.0159 16.5722 70.8091 16.7305C71.0583 16.7543 71.3157 16.8018 71.5569 16.8572C73.0606 17.2291 73.728 18.0601 73.7039 19.5163C73.6797 20.7589 72.8595 21.6374 71.4363 21.9381C71.1468 22.0014 70.8573 22.0647 70.5678 22.0726C69.6994 22.0885 68.831 22.0806 67.9545 22.0806C67.9545 22.0885 67.9545 22.0964 67.9545 22.1043C67.1343 22.1043 66.3222 22.0964 65.502 22.1043C65.2849 22.1043 65.1723 22.0885 65.1723 21.8194C65.1884 20.1891 65.1803 18.5587 65.1803 16.9363Z" fill="#7E7D85"/>
<path d="M162.092 25.0802C159.334 18.7409 156.576 12.3937 153.826 6.04646C153.737 5.84069 153.633 5.74572 153.392 5.75363C152.041 5.76946 150.69 5.76154 149.331 5.75363C149.122 5.75363 149.001 5.80112 148.913 6.00689C146.107 12.3699 143.3 18.7409 140.486 25.096C140.349 25.3967 140.438 25.4442 140.727 25.4363C142.038 25.4284 143.356 25.4284 144.667 25.4363C144.924 25.4363 145.045 25.3572 145.142 25.1277C145.568 24.0513 146.018 22.9829 146.444 21.9145C146.533 21.685 146.653 21.6058 146.911 21.6058C149.773 21.6137 152.644 21.6137 155.507 21.6058C155.764 21.6058 155.876 21.685 155.973 21.9145C156.399 22.9908 156.857 24.0513 157.276 25.1277C157.372 25.3651 157.493 25.4442 157.742 25.4363C158.425 25.4205 159.109 25.4284 159.792 25.4284C160.476 25.4284 161.159 25.4126 161.843 25.4363C162.189 25.4601 162.221 25.373 162.092 25.0802ZM148.366 18.0603C148.165 18.0603 148.06 18.0444 148.165 17.7991C149.146 15.4486 150.119 13.0901 151.1 10.7317C151.132 10.6525 151.172 10.5655 151.245 10.4151C152.306 12.9793 153.335 15.4881 154.397 18.0523C152.33 18.0603 150.352 18.0603 148.366 18.0603Z" fill="#7E7D85"/>
<path d="M112.278 7.01215C110.637 6.00704 108.796 5.72213 106.898 5.71421C104.301 5.69838 101.704 5.71421 99.1063 5.7063C98.7525 5.7063 98.656 5.79336 98.664 6.14158C98.6801 9.28353 98.6721 12.4255 98.6721 15.5674C98.6721 18.6935 98.6801 21.8276 98.664 24.9537C98.664 25.294 98.7203 25.4286 99.1143 25.4206C100.264 25.389 101.414 25.3969 102.572 25.4206C102.902 25.4286 102.998 25.3573 102.998 25.017C102.982 23.4104 102.998 21.8118 102.982 20.2052C102.982 19.8807 103.079 19.8095 103.384 19.8174C104.164 19.8411 104.936 19.8253 105.716 19.8253C106.987 19.8253 108.257 19.8411 109.511 19.5799C112.623 18.9389 115.076 16.992 115.381 13.5335C115.607 10.7872 114.738 8.51585 112.278 7.01215ZM111.039 13.5097C110.806 15.2429 109.576 16.3193 107.718 16.4855C106.223 16.62 104.719 16.5171 103.223 16.5567C102.95 16.5646 102.966 16.4063 102.966 16.2243C102.966 15.0688 102.966 13.9134 102.966 12.7579C102.966 11.6182 102.966 10.4707 102.966 9.33102C102.966 9.19647 102.886 8.9907 103.167 8.99862C104.679 9.03027 106.199 8.90365 107.702 9.06193C110.267 9.33102 111.369 11.0563 111.039 13.5097Z" fill="#7E7D85"/>
</svg>
