<svg width="56" height="56" viewBox="0 0 56 56" fill="none" xmlns="http://www.w3.org/2000/svg">
<path d="M19.2503 11.2H15.3008C14.1962 11.2 13.3008 12.0954 13.3008 13.1999V49H42.7008V13.2C42.7008 12.0954 41.8054 11.2 40.7008 11.2H36.167" stroke="#D68843"/>
<path d="M42.6992 21.7H46.9992C48.1038 21.7 48.9992 22.5954 48.9992 23.7V49H42.6992V21.7Z" stroke="#D68843"/>
<path d="M7 23.7C7 22.5954 7.89543 21.7 9 21.7H13.3V49H7V23.7Z" stroke="#D68843"/>
<rect x="19.5996" y="7" width="16.8" height="16.8" stroke="#D68843"/>
<path d="M28 11.2V19.6" stroke="#D68843"/>
<path d="M23.8008 15.4L32.2008 15.4" stroke="#D68843"/>
<rect x="22.75" y="37.45" width="10.5" height="11.55" stroke="#D68843"/>
</svg>
