<svg width="56" height="56" viewBox="0 0 56 56" fill="none" xmlns="http://www.w3.org/2000/svg">
<path d="M48.8668 7H19.6478C17.6487 7 15.957 8.61473 15.957 10.6908V30.6828C15.957 32.6819 17.5718 34.3736 19.6478 34.3736H33.3346L42.331 41.0632C42.4079 41.1401 42.5617 41.217 42.7155 41.217C42.7924 41.217 42.8693 41.217 42.9461 41.1401C43.1768 41.0632 43.2537 40.8325 43.2537 40.6018V34.2198H48.8668C50.866 34.2198 52.5577 32.6051 52.5577 30.529V10.6139C52.5577 8.61473 50.866 7 48.8668 7ZM51.4043 30.6059C51.4043 31.9899 50.2509 33.1433 48.8668 33.1433H42.7155C42.4079 33.1433 42.1003 33.374 42.1003 33.7584V39.5253L33.8729 33.2202C33.796 33.1433 33.6422 33.0664 33.4884 33.0664H19.6478C18.2638 33.0664 17.1104 31.913 17.1104 30.529V10.6139C17.1104 9.22987 18.2638 8.07649 19.6478 8.07649H48.8668C50.2509 8.07649 51.4043 9.22987 51.4043 10.6139V30.6059Z" fill="#D68843"/>
<path d="M37.0249 39.9098C37.1018 39.6022 36.8712 39.2946 36.5636 39.2178C36.256 39.1409 35.9484 39.3715 35.8716 39.6791C35.6409 40.8325 34.6413 41.6014 33.411 41.6014H22.6461C22.4923 41.6014 22.4154 41.6783 22.2617 41.7552L13.9573 47.9834V42.1397C13.9573 41.8321 13.7266 41.5245 13.3422 41.5245H7.19082C5.80676 41.5245 4.65338 40.3711 4.65338 38.9871V22.1477C4.65338 20.7637 5.80676 19.6103 7.19082 19.6103H13.3422C13.6498 19.6103 13.9573 19.3796 13.9573 18.9951C13.9573 18.6107 13.7266 18.38 13.3422 18.38H7.19082C5.19163 18.38 3.5 19.9947 3.5 22.0708V38.9871C3.5 40.9863 5.11473 42.6779 7.19082 42.6779H12.8039V49.0599C12.8039 49.2906 12.9577 49.4444 13.1115 49.5982C13.1884 49.6751 13.2653 49.6751 13.3422 49.6751C13.496 49.6751 13.5729 49.5982 13.7266 49.5213L22.7999 42.7548H33.411C35.1795 42.7548 36.6405 41.5245 37.0249 39.9098Z" fill="#D68843"/>
<path d="M26.9512 25.2234V15.2275H33.2495V16.3013H28.2149V19.6788H32.9234V20.7526H28.2149V24.1497H33.331V25.2234H26.9512Z" fill="#D68843"/>
<path d="M36.5668 20.7135V25.2234H35.3642V17.7265H36.5261V18.8979H36.628C36.8114 18.5172 37.09 18.2113 37.4637 17.9803C37.8374 17.746 38.3198 17.6289 38.9109 17.6289C39.4408 17.6289 39.9045 17.733 40.302 17.9412C40.6995 18.1462 41.0086 18.4586 41.2294 18.8783C41.4503 19.2948 41.5607 19.822 41.5607 20.4597V25.2234H40.3581V20.5378C40.3581 19.9489 40.1984 19.4901 39.8791 19.1614C39.5597 18.8295 39.1215 18.6636 38.5644 18.6636C38.1805 18.6636 37.8374 18.7433 37.535 18.9028C37.2361 19.0622 37 19.2948 36.8267 19.6007C36.6535 19.9066 36.5668 20.2775 36.5668 20.7135Z" fill="#D68843"/>
</svg>
