<svg width="56" height="56" viewBox="0 0 56 56" fill="none" xmlns="http://www.w3.org/2000/svg">
<path d="M23.3333 18.8344V19.3344H23.5087L23.6457 19.2248L23.3333 18.8344ZM30.3333 3.66771L30.056 4.08373L30.0819 4.101L30.1097 4.11492L30.3333 3.66771ZM32.6667 18.8344L32.2379 18.5771L31.7836 19.3344H32.6667V18.8344ZM16.9167 42.1677V42.6677H17.4167V42.1677H16.9167ZM16.9167 19.3344H23.3333V18.3344H16.9167V19.3344ZM23.6457 19.2248C25.2073 17.9755 26.5593 15.6304 27.5161 13.2456C28.4763 10.8525 29.0833 8.30644 29.0833 6.58437H28.0833C28.0833 8.12898 27.5237 10.5412 26.588 12.8732C25.6491 15.2134 24.376 17.3599 23.021 18.4439L23.6457 19.2248ZM29.0833 6.58437C29.0833 4.9689 29.3804 4.3244 29.5955 4.10641C29.6848 4.01589 29.7576 4 29.8138 4C29.8846 4 29.972 4.02774 30.056 4.08373L30.6107 3.25168C30.403 3.11323 30.1258 3 29.8138 3C29.4872 3 29.1589 3.12508 28.8837 3.404C28.3696 3.92491 28.0833 4.93318 28.0833 6.58437H29.0833ZM30.1097 4.11492C31.1774 4.64877 33.4775 6.15938 33.9197 10.1396L34.9136 10.0291C34.4225 5.60934 31.8226 3.85331 30.5569 3.22049L30.1097 4.11492ZM33.9197 10.1396C34.3705 14.1966 32.7856 17.6643 32.2379 18.5771L33.0954 19.0916C33.7144 18.06 35.3962 14.3721 34.9136 10.0291L33.9197 10.1396ZM32.6667 19.3344H42.5833V18.3344H32.6667V19.3344ZM16.9167 39.1677H22.1667V38.1677H16.9167V39.1677ZM25.6667 42.6677H40.8333V41.6677H25.6667V42.6677ZM16.4167 18.8344V42.1677H17.4167V18.8344H16.4167ZM16.9167 41.6677H7V42.6677H16.9167V41.6677ZM17.4167 18.8344V14.751H16.4167V18.8344H17.4167ZM21.6667 38.6677C21.6667 40.8768 23.4575 42.6677 25.6667 42.6677V41.6677C24.0098 41.6677 22.6667 40.3245 22.6667 38.6677H21.6667Z" fill="#D68843"/>
<path d="M22.2482 30.9942L22.3435 30.9783L22.1791 29.9919L22.0838 30.0078L22.2482 30.9942ZM22.3435 30.9783C26.569 30.2741 29.666 26.6182 29.666 22.3344H28.666C28.666 26.1293 25.9224 29.3681 22.1791 29.9919L22.3435 30.9783Z" fill="#D68843"/>
<rect x="35.5" y="18.751" width="14.1667" height="6" rx="3" stroke="#D68843"/>
<rect x="35.5" y="24.5844" width="14.1667" height="6" rx="3" stroke="#D68843"/>
<rect x="35.5" y="30.4177" width="14.1667" height="6" rx="3" stroke="#D68843"/>
<rect x="35.5" y="36.251" width="10.6667" height="6" rx="3" stroke="#D68843"/>
</svg>
