<svg width="56" height="56" viewBox="0 0 56 56" fill="none" xmlns="http://www.w3.org/2000/svg">
<path d="M6.48828 15.2727H48.3469" stroke="#D68843"/>
<path d="M27.418 21.376L30.5089 25.7849L30.6075 25.9256L30.7719 25.976L35.9201 27.5531L32.6821 31.8551L32.5788 31.9924L32.5817 32.1643L32.6726 37.5479L27.5805 35.7978L27.418 35.7419L27.2555 35.7978L22.1635 37.5479L22.2544 32.1643L22.2573 31.9924L22.1539 31.8551L18.916 27.5531L24.0642 25.976L24.2285 25.9256L24.3272 25.7849L27.418 21.376Z" stroke="#D68843"/>
<rect x="12.875" y="2.69189" width="6.84848" height="8.15657" stroke="#D68843"/>
<rect x="35.1113" y="2.69189" width="6.84848" height="8.15657" stroke="#D68843"/>
<path fill-rule="evenodd" clip-rule="evenodd" d="M34.6118 7.42419H20.2229V8.42419H34.6118V7.42419ZM42.4602 8.42419H44.0006C46.2098 8.42419 48.0007 10.2151 48.0007 12.4242V42.9747C48.0007 45.1838 46.2098 46.9747 44.0007 46.9747H10.834C8.62485 46.9747 6.83398 45.1838 6.83398 42.9747V12.4242C6.83398 10.2151 8.62484 8.42419 10.834 8.42419H12.3744V7.42419H10.834C8.07256 7.42419 5.83398 9.66277 5.83398 12.4242V42.9747C5.83398 45.7361 8.07257 47.9747 10.834 47.9747H44.0007C46.7621 47.9747 49.0007 45.7361 49.0007 42.9747V12.4242C49.0007 9.66277 46.7621 7.42419 44.0006 7.42419H42.4602V8.42419Z" fill="#D68843"/>
</svg>
