<svg width="56" height="56" viewBox="0 0 56 56" fill="none" xmlns="http://www.w3.org/2000/svg">
<path d="M8.75 16.3333H46.0833" stroke="#D68843"/>
<rect x="14.5" y="5.16669" width="6" height="7.16667" stroke="#D68843"/>
<rect x="34.334" y="5.16669" width="6" height="7.16667" stroke="#D68843"/>
<rect x="15.666" y="22.6667" width="4.83333" height="4.83333" stroke="#D68843"/>
<rect x="15.666" y="32" width="4.83333" height="4.83334" stroke="#D68843"/>
<rect x="25" y="22.6667" width="4.83333" height="4.83333" stroke="#D68843"/>
<rect x="25" y="32" width="4.83333" height="4.83334" stroke="#D68843"/>
<rect x="34.332" y="22.6667" width="4.83333" height="4.83333" stroke="#D68843"/>
<circle cx="39.6667" cy="39.6667" r="7.7" stroke="#D68843" stroke-width="0.933333"/>
<path fill-rule="evenodd" clip-rule="evenodd" d="M20.9993 9.33331H33.8327V10.3333H20.9993V9.33331ZM41.666 10.3333H40.8327V9.33331H41.666C44.4274 9.33331 46.666 11.5719 46.666 14.3333V35.4578C46.3781 34.9799 46.0425 34.5339 45.666 34.1263V14.3333C45.666 12.1242 43.8752 10.3333 41.666 10.3333ZM33.0825 44.5H13.166C10.9569 44.5 9.16602 42.7091 9.16602 40.5V14.3333C9.16602 12.1242 10.9569 10.3333 13.166 10.3333H13.9993V9.33331H13.166C10.4046 9.33331 8.16602 11.5719 8.16602 14.3333V40.5C8.16602 43.2614 10.4046 45.5 13.166 45.5H33.9505C33.6351 45.1909 33.3447 44.8565 33.0825 44.5Z" fill="#D68843"/>
<path fill-rule="evenodd" clip-rule="evenodd" d="M37.9167 37.3839H36.75V39.1339H35V40.3005H36.75V42.0505H37.9167V40.3005H39.6667V39.1339H37.9167V37.3839Z" fill="#D68843"/>
<path d="M44.0232 42.2437V43.2172H40.316V42.2437H41.6632V37.268C41.6107 37.3467 41.5222 37.4352 41.3977 37.5335C41.2797 37.6253 41.1453 37.7171 40.9945 37.8089C40.8437 37.8941 40.6864 37.9662 40.5225 38.0252C40.3652 38.0842 40.221 38.1137 40.0898 38.1137V37.1107C40.2668 37.1107 40.4438 37.0648 40.6208 36.973C40.8044 36.8812 40.9748 36.7764 41.1322 36.6584C41.2895 36.5338 41.4141 36.4224 41.5058 36.324C41.6042 36.2257 41.6566 36.1732 41.6632 36.1667H42.7743V42.2437H44.0232Z" fill="#D68843"/>
</svg>
