<svg width="56" height="56" viewBox="0 0 56 56" fill="none" xmlns="http://www.w3.org/2000/svg">
<path d="M20.0805 29.8152H26.1457C28.658 29.8152 30.6946 27.7785 30.6946 25.2663V24.5081H19.3223C16.8101 24.5081 14.7734 26.5447 14.7734 29.057V29.4359C14.7734 29.6883 14.7939 29.9394 14.8374 30.188C15.2738 32.6798 16.0813 36.3719 16.6933 39.0786C17.1584 41.1357 18.99 42.5834 21.099 42.5834C21.4378 42.5834 21.7949 42.5834 22.1676 42.5834V46.6667C24.5214 46.6667 31.9526 46.6667 34.6548 46.6667V42.5834C34.9338 42.5834 35.2098 42.5834 35.4821 42.5834C37.848 42.5834 39.8188 40.7699 40.0152 38.4122L40.8343 28.5834" stroke="#D68843"/>
<path fill-rule="evenodd" clip-rule="evenodd" d="M25.8012 22.6527V24.4217H24.8012V16.4611C24.8012 15.2718 23.837 14.3076 22.6477 14.3076C21.4583 14.3076 20.4941 15.2718 20.4941 16.4611V24.4217H19.4941V16.4611C19.4941 14.7195 20.906 13.3076 22.6477 13.3076C23.4998 13.3076 24.273 13.6456 24.8405 14.1948C25.079 12.6895 26.3826 11.5386 27.9551 11.5386C29.5275 11.5386 30.8312 12.6895 31.0696 14.1948C31.6371 13.6456 32.4104 13.3076 33.2625 13.3076C34.8353 13.3076 36.1392 14.459 36.3772 15.965C36.9448 15.4151 37.7185 15.0766 38.5712 15.0766C40.3129 15.0766 41.7248 16.4885 41.7248 18.2301V27.0752C41.7248 28.8169 40.3129 30.2288 38.5712 30.2288C37.457 30.2288 36.4778 29.6509 35.9169 28.7786C35.3559 29.6509 34.3767 30.2288 33.2625 30.2288C31.5209 30.2288 30.109 28.8169 30.109 27.0752V24.4217H30.1086V14.6921C30.1086 13.5027 29.1444 12.5386 27.9551 12.5386C26.7657 12.5386 25.8016 13.5027 25.8016 14.6921V22.6527H25.8012ZM33.2625 14.3076C32.0731 14.3076 31.109 15.2718 31.109 16.4611V27.0752C31.109 28.2646 32.0731 29.2288 33.2625 29.2288C34.4519 29.2288 35.416 28.2646 35.416 27.0752V16.4611C35.416 15.2718 34.4519 14.3076 33.2625 14.3076ZM36.4177 18.2301C36.4177 17.0408 37.3819 16.0766 38.5712 16.0766C39.7606 16.0766 40.7248 17.0408 40.7248 18.2301V27.0752C40.7248 28.2646 39.7606 29.2288 38.5712 29.2288C37.3819 29.2288 36.4177 28.2646 36.4177 27.0752V18.2301Z" fill="#D68843"/>
<path d="M28.9271 38.6603C28.9271 37.4987 28.6983 36.3485 28.2538 35.2754C27.8093 34.2023 27.1578 33.2272 26.3365 32.4059C25.5151 31.5845 24.54 30.933 23.4669 30.4885C22.3938 30.044 21.2436 29.8152 20.082 29.8152" stroke="#D68843" stroke-linecap="round"/>
<path d="M19.1953 46.6667H38.6545V53.1785" stroke="#D68843"/>
<path d="M28.5664 2.33337V6.24514" stroke="#D68843" stroke-linecap="round" stroke-linejoin="round"/>
<path d="M17.4824 5.30322L19.4383 8.69091" stroke="#D68843" stroke-linecap="round" stroke-linejoin="round"/>
<path d="M37.6934 8.69141L39.6492 5.30372" stroke="#D68843" stroke-linecap="round" stroke-linejoin="round"/>
</svg>
