<svg width="32" height="32" viewBox="0 0 32 32" fill="none" xmlns="http://www.w3.org/2000/svg">
<path fill-rule="evenodd" clip-rule="evenodd" d="M25.9897 6.83657L23.1326 23.9794C23.0954 24.1952 22.9764 24.3626 22.7755 24.4817C22.6713 24.5412 22.556 24.5709 22.4295 24.5709C22.3477 24.5709 22.2584 24.5523 22.1616 24.5151L17.1059 22.4504L14.4051 25.7428C14.2712 25.9139 14.0889 25.9995 13.8582 25.9995C13.7615 25.9995 13.6797 25.9846 13.6127 25.9549C13.4713 25.9028 13.3579 25.8154 13.2723 25.6926C13.1867 25.5698 13.144 25.434 13.144 25.2852V21.3901L22.7866 9.57094L10.8561 19.8946L6.44766 18.0866C6.17237 17.9824 6.02356 17.7778 6.00124 17.4727C5.98636 17.1751 6.1054 16.9556 6.35838 16.8142L24.9295 6.09996C25.0411 6.03299 25.1601 5.99951 25.2866 5.99951C25.4354 5.99951 25.5693 6.04043 25.6884 6.12228C25.9339 6.30085 26.0343 6.53894 25.9897 6.83657Z" fill="#08080B"/>
<rect x="0.5" y="0.499512" width="31" height="31" rx="3.5" stroke="#08080B"/>
</svg>
