<svg width="24" height="24" viewBox="0 0 24 24" fill="none" xmlns="http://www.w3.org/2000/svg">
<path fill-rule="evenodd" clip-rule="evenodd" d="M17.9936 6.50223L16.2793 16.7879C16.257 16.9174 16.1856 17.0179 16.065 17.0893C16.0025 17.125 15.9333 17.1429 15.8575 17.1429C15.8083 17.1429 15.7548 17.1317 15.6967 17.1094L12.6633 15.8705L11.0428 17.846C10.9625 17.9487 10.8531 18 10.7147 18C10.6567 18 10.6076 17.9911 10.5674 17.9732C10.4826 17.942 10.4145 17.8895 10.3631 17.8158C10.3118 17.7422 10.2861 17.6607 10.2861 17.5714V15.2344L16.0717 8.14286L8.91339 14.3371L6.26835 13.2522C6.10318 13.1897 6.01389 13.067 6.0005 12.8839C5.99157 12.7054 6.063 12.5737 6.21478 12.4888L17.3574 6.06027C17.4244 6.02009 17.4958 6 17.5717 6C17.661 6 17.7413 6.02455 17.8128 6.07366C17.9601 6.1808 18.0204 6.32366 17.9936 6.50223Z" stroke="white" stroke-linecap="round" stroke-linejoin="round"/>
<path d="M3.47772 2.50941C2.92778 2.50941 2.50917 2.93776 2.50917 3.43267V20.5673C2.50917 21.0624 2.92772 21.4906 3.47772 21.4906H20.5218C21.0718 21.4906 21.4903 21.0624 21.4903 20.5673V3.43267C21.4903 2.93777 21.0717 2.50941 20.5218 2.50941H3.47772Z" stroke="white"/>
</svg>
