<svg width="172" height="56" viewBox="0 0 172 56" fill="none" xmlns="http://www.w3.org/2000/svg">
<path d="M34.082 23.1684C34.3209 22.6153 34.7357 22.4268 35.3265 22.4268C39.2235 22.4393 43.1079 22.4268 47.0049 22.4393C47.998 22.4393 48.2494 22.741 48.2494 23.8724C48.2494 24.8906 47.9728 25.1798 47.03 25.1923C45.8735 25.1923 44.7296 25.2175 43.573 25.1798C43.0828 25.1672 42.9948 25.3306 42.9948 25.7832C43.0199 28.8756 43.0073 31.9806 43.0073 35.073C43.0073 36.0536 42.7182 36.3427 41.7377 36.3553C41.3229 36.3553 40.8954 36.3678 40.4806 36.3553C39.6635 36.3427 39.3492 36.0284 39.3492 35.1988C39.3492 32.0812 39.3367 28.9636 39.3618 25.846C39.3618 25.3306 39.2487 25.1672 38.7207 25.1923C37.6144 25.2426 36.4956 25.1798 35.3894 25.2175C34.8111 25.2426 34.3837 25.0666 34.082 24.5638C34.082 24.0861 34.082 23.621 34.082 23.1684Z" fill="#08080B"/>
<path d="M74.0958 31.0253C74.0958 29.5671 74.0958 28.0963 74.0958 26.6381C74.0958 25.8839 74.2718 25.7204 75.026 25.7204C75.554 25.7204 76.0694 25.7079 76.5974 25.7204C77.2762 25.733 77.4522 25.909 77.4648 26.5752C77.4648 27.4804 77.4773 28.3729 77.4648 29.278C77.4522 29.6677 77.5276 29.8311 77.9676 29.8185C79.0487 29.7808 80.1423 29.7934 81.236 29.8185C81.6257 29.8311 81.7388 29.7054 81.7263 29.3157C81.7011 28.3729 81.7263 27.4301 81.7137 26.4873C81.7011 25.9593 81.9651 25.7204 82.468 25.7204C83.0714 25.7204 83.6873 25.7204 84.2907 25.7204C84.8061 25.7204 85.0701 25.9467 85.0701 26.4747C85.0701 29.5043 85.0701 32.5464 85.0701 35.576C85.0701 36.0914 84.8439 36.3554 84.3159 36.3554C83.6873 36.3554 83.0588 36.3554 82.4302 36.3554C81.9526 36.3554 81.7011 36.1165 81.7137 35.6137C81.7263 34.6332 81.7011 33.6526 81.7263 32.6595C81.7388 32.2573 81.6509 32.1064 81.2109 32.119C80.1298 32.1441 79.0361 32.1441 77.9424 32.119C77.5402 32.1064 77.4522 32.2447 77.4648 32.6218C77.4899 33.5646 77.4773 34.5075 77.4773 35.4503C77.4773 36.192 77.3139 36.3554 76.5471 36.3554C76.0191 36.3554 75.5037 36.3679 74.9757 36.3554C74.3095 36.3428 74.1209 36.1668 74.1209 35.488C74.0832 33.9921 74.0958 32.5087 74.0958 31.0253Z" fill="#08080B"/>
<path d="M110.701 31.0126C110.701 32.4834 110.701 33.9416 110.701 35.4124C110.701 36.1667 110.538 36.3301 109.783 36.3427C109.28 36.3427 108.778 36.3427 108.275 36.3427C107.508 36.3427 107.345 36.1793 107.345 35.4376C107.345 34.4948 107.332 33.552 107.357 32.6091C107.37 32.232 107.269 32.0937 106.879 32.1063C105.786 32.1314 104.705 32.1314 103.611 32.1063C103.184 32.0937 103.083 32.2446 103.096 32.6469C103.121 33.6148 103.096 34.5702 103.108 35.5381C103.121 36.0913 102.869 36.3553 102.316 36.3427C101.713 36.3427 101.097 36.3427 100.493 36.3427C99.978 36.3427 99.7266 36.0787 99.7266 35.5633C99.7266 32.5337 99.7266 29.4916 99.7266 26.462C99.7266 25.934 100.003 25.7077 100.519 25.7077C101.122 25.7077 101.738 25.7077 102.341 25.7077C102.857 25.7077 103.108 25.9466 103.096 26.4746C103.083 27.4174 103.108 28.3602 103.083 29.303C103.07 29.6801 103.184 29.8058 103.573 29.8058C104.667 29.7807 105.748 29.7807 106.842 29.8058C107.282 29.8184 107.357 29.655 107.345 29.2653C107.319 28.3602 107.332 27.4677 107.332 26.5626C107.332 25.8963 107.508 25.7203 108.187 25.7077C108.715 25.6952 109.23 25.7077 109.758 25.7077C110.525 25.7203 110.688 25.8712 110.688 26.6254C110.714 28.0836 110.701 29.5544 110.701 31.0126Z" fill="#08080B"/>
<path d="M92.6846 36.5061C92.0812 36.5312 91.3646 36.4809 90.6732 36.3049C88.4105 35.7518 87.1157 34.281 86.8894 31.9554C86.814 31.1886 86.814 30.4092 86.9648 29.6424C87.3419 27.5808 88.511 26.2483 90.5601 25.758C92.3703 25.3306 94.1805 25.406 95.9404 26.0345C97.0592 26.4368 97.8386 27.1785 98.0397 28.3979C98.178 29.215 97.9643 29.4664 97.1221 29.4664C96.8329 29.4664 96.5312 29.4538 96.2421 29.4664C95.689 29.5041 95.2742 29.2904 94.9599 28.8504C94.1805 27.7568 93.0617 27.719 91.9052 27.9705C90.8492 28.1967 90.4847 29.0264 90.3589 30.0195C90.2332 30.9498 90.2458 31.8549 90.5224 32.7474C90.7612 33.4891 91.2766 33.9416 92.0434 34.0799C93.288 34.3062 94.4193 34.193 95.2113 33.0114C95.4124 32.7097 95.7518 32.5588 96.129 32.5588C96.569 32.5714 97.0089 32.5714 97.4489 32.5588C98.002 32.5463 98.2032 32.848 98.1655 33.3508C98.0775 34.5576 97.4238 35.3621 96.3552 35.865C95.2239 36.3929 94.0171 36.5187 92.6846 36.5061Z" fill="#08080B"/>
<path d="M143.799 28.1966C143.648 27.9829 143.422 28.0709 143.221 28.0709C142.429 28.0583 141.624 28.0583 140.832 28.0709C140.354 28.0709 140.065 27.8697 140.053 27.3795C140.028 25.8207 139.94 25.695 141.549 25.7076C144.264 25.7327 146.992 25.7201 149.707 25.7201C150.675 25.7201 150.801 25.8458 150.801 26.7886C150.801 26.9772 150.801 27.1658 150.801 27.3543C150.788 27.832 150.549 28.0834 150.046 28.0709C149.229 28.0709 148.412 28.096 147.595 28.0583C147.168 28.0457 147.067 28.184 147.08 28.5863C147.092 30.849 147.092 33.1118 147.092 35.362C147.092 36.2042 146.967 36.3299 146.099 36.3299C145.596 36.3299 145.094 36.3299 144.591 36.3299C144.339 36.3299 144.088 36.3425 143.912 36.1037C143.811 35.626 143.849 35.1483 143.849 34.6706C143.849 32.7095 143.849 30.761 143.849 28.8C143.862 28.6114 143.912 28.3977 143.799 28.1966Z" fill="#08080B"/>
<path d="M48.4909 25.7708C48.0383 26.3616 48.164 27.053 48.164 27.7192C48.1515 31.5659 48.1515 35.4252 48.1515 39.2719C47.9629 39.0833 48.0383 38.8444 48.0383 38.6182C48.0383 34.6332 48.0383 30.6357 48.0383 26.6507C48.0258 26.2862 47.9755 25.8839 48.4909 25.7708Z" fill="#08080B"/>
<path d="M143.803 28.197C144.016 28.3856 143.916 28.6244 143.916 28.8381C143.928 30.9375 143.928 33.0494 143.903 35.1487C143.903 35.4756 144.067 35.7898 143.916 36.1041C143.727 36.0412 143.765 35.8653 143.765 35.7395C143.79 33.2254 143.803 30.7112 143.803 28.197Z" fill="#08080B"/>
<path d="M23.1983 36.5161C21.3327 38.8091 18.9355 40.2682 16.0901 40.9457C8.77341 42.6863 1.47758 37.8085 0.195598 30.3772C-0.210884 27.9904 0.0184128 25.687 0.862644 23.4253C1.22744 22.4351 1.97786 21.9036 2.96801 21.6847C3.85393 21.4867 5.12549 21.6951 5.74043 22.0808C4.23957 23.2064 3.71844 24.7802 3.94774 26.5521C4.31253 29.3349 5.78212 31.5862 7.82495 33.431C10.9309 36.2347 14.5996 37.6313 18.8104 37.4958C20.3217 37.4437 21.7808 37.0998 23.1983 36.5161Z" fill="#08080B"/>
<path d="M13.8168 35.7447C12.7641 35.3695 11.8469 34.7546 10.8047 34.0771C11.7323 34.2126 12.4931 34.2751 13.2853 34.2126C14.7027 34.098 15.8284 33.4934 16.756 32.4512C18.2256 30.794 19.6743 29.1055 21.0814 27.3858C21.7901 26.5103 22.5405 25.6661 23.3744 24.9052C24.1561 24.1861 25.0732 23.8421 26.1051 23.7692C27.3037 23.6858 28.4919 23.7275 29.753 24.0089C28.5752 25.7078 27.3141 27.3024 26.0947 28.9179C26.0738 29.1264 25.8758 29.1264 25.7403 29.1576C24.6251 29.3974 23.7079 30.0227 22.822 30.6898C21.54 31.6382 20.456 32.816 19.1949 33.7853C17.9233 34.765 16.558 35.5675 14.9008 35.7343C14.536 35.7552 14.1712 35.776 13.8168 35.7447Z" fill="#08080B"/>
<path d="M13.8164 35.7448C14.4522 35.5572 15.1192 35.6197 15.7654 35.4425C17.2663 35.0256 18.5274 34.1814 19.6948 33.1913C20.5807 32.4408 21.4249 31.6383 22.3213 30.9087C23.4365 30.0019 24.6247 29.189 26.0942 28.918C27.3345 28.845 28.5123 29.0952 29.6379 29.5955C30.2112 29.8456 30.2216 29.8873 29.8047 30.3146C28.3351 31.8155 26.8342 33.2851 25.323 34.7338C24.0306 35.9637 22.5297 36.6516 20.7891 36.8496C18.3502 37.1102 16.0364 36.7245 13.8164 35.7448Z" fill="#08080B"/>
<path d="M11.9808 15.2019C12.7208 15.2019 13.4608 15.2019 14.2008 15.2019C16.6919 15.4416 18.9536 16.2442 20.986 17.7763C20.8401 17.8597 20.7775 17.7867 20.7046 17.745C15.5454 14.6912 8.89574 15.7439 4.94557 20.4966C4.83092 20.6321 4.73712 20.7572 4.51824 20.7363C3.73655 20.6529 2.96527 20.7467 2.21484 21.0073C4.60162 17.5887 7.83263 15.6292 11.9808 15.2019Z" fill="#08080B"/>
<path d="M28.8783 16.5776C28.9721 16.6089 29.066 16.6402 29.1702 16.6714C28.6803 17.4531 28.18 18.2348 27.6902 19.027C27.6589 19.0061 27.6172 18.9748 27.5859 18.954C28.0133 18.1515 28.4406 17.3593 28.8783 16.5776Z" fill="#08080B"/>
<path d="M29.6581 15.3375C29.3246 15.2645 28.9911 15.1811 28.6575 15.1082C27.855 15.1082 27.0629 15.1082 26.2603 15.1082C26.2082 15.1915 26.1144 15.1811 26.031 15.202C23.9361 15.5667 22.3206 16.5986 21.2366 18.4747C19.9547 20.7155 18.7873 23.0189 17.5366 25.2806C16.411 27.313 15.2853 29.3559 13.7741 31.1381C13.1904 31.826 12.565 32.4826 11.7 32.8266C11.3143 32.91 10.9183 32.9934 10.418 33.0976C10.9495 33.1497 11.356 33.0976 11.7416 32.9517C11.7625 32.9517 11.7729 32.9412 11.7938 32.9308C12.2524 32.8474 12.638 32.6286 13.0028 32.3576C13.9304 31.6905 14.66 30.8359 15.3479 29.9395C17.1927 27.5215 18.6518 24.8533 20.2152 22.2581C20.7572 21.3721 21.3096 20.4966 21.862 19.6107C23.4879 16.9634 25.9789 16.3068 28.866 16.5673C28.939 16.6715 29.0119 16.7862 29.1578 16.6611C29.3663 16.3484 29.5747 16.0253 29.7936 15.7127C29.9604 15.5042 29.9291 15.3896 29.6581 15.3375Z" fill="#08080B"/>
<path d="M136.009 25.9592C135.506 25.8335 134.978 25.7832 134.463 25.7455C134.111 25.7203 133.998 25.6072 134.01 25.2552C134.035 24.5889 134.01 23.9101 134.023 23.2439C134.035 22.6907 133.796 22.4268 133.243 22.4268C132.64 22.4268 132.024 22.4268 131.421 22.4268C130.905 22.4268 130.654 22.6782 130.654 23.1936C130.654 23.7593 130.591 24.325 130.666 24.8906C130.754 25.5946 130.465 25.758 129.812 25.7957C128.454 25.8712 127.146 26.2357 126.166 27.254C124.507 29.0013 124.519 31.1007 125.173 33.2377C125.512 34.3314 126.292 35.0856 127.31 35.5885C128.19 36.0284 129.12 36.2421 130.088 36.2799C130.566 36.2924 130.679 36.4936 130.654 36.921C130.616 37.5244 130.654 38.1403 130.641 38.7437C130.629 39.146 130.767 39.4351 131.119 39.6237C131.961 39.6237 132.791 39.6237 133.633 39.6237C133.935 39.3849 134.06 39.0957 134.023 38.6935C133.985 38.2786 134.01 37.8512 134.01 37.4364C134.01 36.3427 134.01 36.3427 135.104 36.2296C137.932 35.9404 139.592 34.3942 139.83 31.6161C140.094 28.7499 138.951 26.6631 136.009 25.9592ZM130.729 28.3225C130.704 29.215 130.717 30.1201 130.717 31.0127C130.717 31.9303 130.704 32.848 130.729 33.7657C130.742 34.1428 130.616 34.2308 130.251 34.1805C129.271 34.0171 128.605 33.5143 128.341 32.5337C128.064 31.5281 128.064 30.5098 128.341 29.5042C128.592 28.5613 129.221 28.0334 130.189 27.8699C130.578 27.8071 130.742 27.8699 130.729 28.3225ZM136.361 32.4457C136.109 33.4388 135.456 34.0045 134.438 34.1679C134.086 34.2182 133.947 34.1554 133.947 33.7657C133.972 32.8731 133.96 31.968 133.96 31.0755C133.96 30.1578 133.985 29.2402 133.947 28.3225C133.935 27.8699 134.098 27.8197 134.5 27.8825C135.506 28.0585 136.109 28.6368 136.361 29.5922C136.6 30.5475 136.6 31.5029 136.361 32.4457Z" fill="#08080B"/>
<path d="M59.3273 30.032C59.0382 27.1407 57.1274 25.4813 54.2361 25.5316C53.0922 25.5442 52.0865 25.959 51.106 26.5624C51.106 26.0722 50.9677 25.7202 50.49 25.7202C49.8238 25.7202 49.1575 25.6196 48.5038 25.7705C48.177 26.047 48.1016 26.3864 48.1016 26.8264C48.1141 30.7737 48.1141 34.7209 48.1141 38.6682C48.1141 38.8693 48.0764 39.083 48.1644 39.2842C48.1644 39.4727 48.3907 39.4727 48.4284 39.6236C49.2707 39.6236 50.1003 39.6236 50.9426 39.6236C51.3323 39.435 51.4454 39.1082 51.4328 38.6933C51.4077 37.9768 51.4454 37.2728 51.4203 36.5563C51.4077 36.1666 51.4831 36.0283 51.9105 36.1666C52.8785 36.4934 53.8716 36.5563 54.8898 36.4808C56.9766 36.3426 58.5354 35.0729 59.1388 33.0741C59.4153 32.081 59.4405 31.0502 59.3273 30.032ZM55.8326 32.2193C55.6315 33.5644 54.8773 34.2055 53.5196 34.1804C52.8911 34.1678 52.2122 34.1427 51.6843 33.8284C51.0557 33.4387 51.458 32.697 51.4203 32.1188C51.3574 31.1382 51.4203 30.1577 51.3951 29.1646C51.3826 28.8252 51.5083 28.6241 51.81 28.4858C52.2751 28.2595 52.7402 28.0207 53.2682 27.9201C54.5881 27.6687 55.5561 28.2846 55.8075 29.6046C55.8955 30.0697 55.9835 30.5474 55.9709 31.0377C55.9206 31.4274 55.8955 31.8296 55.8326 32.2193Z" fill="#08080B"/>
<path d="M159.415 29.2779C158.284 29.1773 157.152 29.2276 156.033 29.2276C155.644 29.2276 155.531 29.1144 155.543 28.7248C155.568 27.9705 155.543 27.2162 155.556 26.462C155.568 25.934 155.304 25.6952 154.789 25.7077C154.185 25.7077 153.582 25.7077 152.966 25.7077C152.463 25.7077 152.199 25.934 152.199 26.4746C152.212 29.5041 152.212 32.5337 152.199 35.5759C152.199 36.1038 152.438 36.3427 152.953 36.3427C154.94 36.3427 156.926 36.3804 158.912 36.3176C160.722 36.2673 162.243 35.7016 162.784 33.7154C162.784 33.0868 162.784 32.4583 162.784 31.8298C162.319 30.1201 161.087 29.4161 159.415 29.2779ZM158.271 34.1051C157.894 34.1177 157.517 34.1051 157.014 34.1051C156.637 34.0548 155.97 34.3439 155.644 34.0045C155.329 33.6651 155.556 33.0114 155.556 32.496C155.543 31.4526 155.556 31.4526 156.599 31.4526C157.165 31.4526 157.73 31.4401 158.284 31.4652C159.05 31.5029 159.453 31.9806 159.44 32.7977C159.44 33.6148 159.038 34.0674 158.271 34.1051Z" fill="#08080B"/>
<path d="M71.6965 29.4916C71.6462 27.5682 70.6531 26.2986 68.7926 25.8083C66.9322 25.318 65.0591 25.4186 63.2112 25.9592C62.5826 26.1477 62.0169 26.4871 61.665 27.078C61.401 27.5431 61.1873 28.0585 61.4387 28.5613C61.6775 29.0642 62.2055 28.8756 62.6329 28.8882C63.2489 28.9007 63.9151 29.0013 64.4054 28.4733C65.0968 27.7316 65.9768 27.6436 66.8944 27.7568C67.7995 27.8699 68.1515 28.2596 68.3401 29.1521C68.4281 29.5921 68.3275 29.743 67.8624 29.7304C66.6305 29.7178 65.3859 29.655 64.154 29.7933C63.0226 29.9315 61.9792 30.271 61.225 31.1886C59.8045 32.9234 60.6844 35.4627 62.9975 36.1793C64.946 36.7827 66.8442 36.6318 68.6292 35.4753C68.6544 36.1667 69.0315 36.3678 69.6223 36.3301C70.0623 36.305 70.5023 36.3175 70.9423 36.3301C71.4451 36.3301 71.7217 36.1164 71.7217 35.5759C71.7091 33.552 71.7468 31.528 71.6965 29.4916ZM68.3778 33.288C68.3401 33.464 68.2395 33.5268 68.1138 33.6022C67.259 34.0799 66.3539 34.3439 65.3608 34.3188C65.1722 34.3188 64.9837 34.2685 64.8077 34.2182C64.2043 34.0296 63.89 33.5897 63.9403 33.0114C63.9906 32.4834 64.418 32.0434 65.034 31.9932C65.5494 31.9429 66.0773 31.9806 66.6053 31.9806V31.968C66.8567 31.968 67.1081 31.968 67.3596 31.968C68.3904 31.9555 68.6041 32.232 68.3778 33.288Z" fill="#08080B"/>
<path d="M116.421 32.0559C117.515 32.0685 118.596 32.0685 119.689 32.0685C120.594 32.0685 121.487 32.0685 122.392 32.0685C123.8 32.0685 123.875 31.993 123.8 30.5599C123.8 30.5222 123.8 30.472 123.787 30.4342C123.599 27.8824 122.329 26.2984 120.004 25.7327C119.098 25.5065 118.181 25.4939 117.251 25.5693C114.862 25.7704 113.215 27.1281 112.675 29.2903C112.461 30.1325 112.436 30.9874 112.511 31.8547C112.738 34.3689 114.183 35.9654 116.685 36.3928C118.206 36.6568 119.727 36.5688 121.223 36.1791C122.002 35.978 122.719 35.626 123.146 34.8718C123.787 33.7278 123.461 33.1495 122.166 33.1495C121.877 33.1495 121.575 33.1495 121.286 33.1621C120.946 33.1747 120.632 33.2878 120.381 33.5518C119.639 34.3438 118.696 34.4192 117.716 34.2684C116.672 34.1049 116.207 33.6021 115.956 32.5839C115.855 32.1187 116.019 32.0433 116.421 32.0559ZM115.918 29.592C116.031 28.448 116.924 27.7064 118.181 27.7189C119.438 27.7315 120.23 28.4355 120.343 29.6046C120.381 29.944 120.255 29.9943 119.978 29.9943C119.35 29.9817 118.721 29.9943 118.105 29.9943C117.502 29.9943 116.899 29.9817 116.295 29.9943C115.968 30.0068 115.88 29.8811 115.918 29.592Z" fill="#08080B"/>
</svg>
