<svg width="148" height="48" viewBox="0 0 148 48" fill="none" xmlns="http://www.w3.org/2000/svg">
<path d="M29.3262 19.9358C29.5317 19.4599 29.8886 19.2976 30.397 19.2976C33.7502 19.3084 37.0926 19.2976 40.4458 19.3084C41.3004 19.3084 41.5167 19.568 41.5167 20.5415C41.5167 21.4177 41.2787 21.6665 40.4675 21.6773C39.4723 21.6773 38.488 21.6989 37.4928 21.6665C37.071 21.6557 36.9953 21.7963 36.9953 22.1857C37.0169 24.8466 37.0061 27.5184 37.0061 30.1793C37.0061 31.023 36.7573 31.2718 35.9136 31.2826C35.5566 31.2826 35.1889 31.2934 34.8319 31.2826C34.1288 31.2718 33.8584 31.0014 33.8584 30.2875C33.8584 27.6049 33.8476 24.9223 33.8692 22.2398C33.8692 21.7963 33.7719 21.6557 33.3176 21.6773C32.3657 21.7206 31.403 21.6665 30.4511 21.6989C29.9535 21.7206 29.5858 21.5691 29.3262 21.1365C29.3262 20.7254 29.3262 20.3252 29.3262 19.9358Z" fill="#08080B"/>
<path d="M63.7556 26.6963C63.7556 25.4416 63.7556 24.176 63.7556 22.9213C63.7556 22.2723 63.9071 22.1316 64.5561 22.1316C65.0104 22.1316 65.4539 22.1208 65.9082 22.1316C66.4923 22.1425 66.6437 22.2939 66.6545 22.8672C66.6545 23.646 66.6654 24.414 66.6545 25.1928C66.6437 25.5281 66.7086 25.6687 67.0872 25.6579C68.0175 25.6255 68.9585 25.6363 69.8996 25.6579C70.2349 25.6687 70.3322 25.5606 70.3214 25.2252C70.2998 24.414 70.3214 23.6027 70.3106 22.7915C70.2998 22.3372 70.5269 22.1316 70.9596 22.1316C71.4788 22.1316 72.0089 22.1316 72.5281 22.1316C72.9715 22.1316 73.1987 22.3263 73.1987 22.7806C73.1987 25.3875 73.1987 28.0052 73.1987 30.612C73.1987 31.0555 73.004 31.2826 72.5497 31.2826C72.0089 31.2826 71.468 31.2826 70.9272 31.2826C70.5161 31.2826 70.2998 31.0771 70.3106 30.6445C70.3214 29.8007 70.2998 28.957 70.3214 28.1025C70.3322 27.7564 70.2565 27.6266 69.8779 27.6374C68.9477 27.659 68.0066 27.659 67.0656 27.6374C66.7194 27.6266 66.6437 27.7456 66.6545 28.0701C66.6762 28.8813 66.6654 29.6926 66.6654 30.5038C66.6654 31.142 66.5247 31.2826 65.8649 31.2826C65.4106 31.2826 64.9671 31.2935 64.5128 31.2826C63.9395 31.2718 63.7773 31.1204 63.7773 30.5363C63.7448 29.2491 63.7556 27.9727 63.7556 26.6963Z" fill="#08080B"/>
<path d="M95.2536 26.6855C95.2536 27.951 95.2536 29.2058 95.2536 30.4713C95.2536 31.1203 95.113 31.261 94.464 31.2718C94.0313 31.2718 93.5986 31.2718 93.166 31.2718C92.5061 31.2718 92.3655 31.1312 92.3655 30.493C92.3655 29.6817 92.3547 28.8705 92.3763 28.0592C92.3872 27.7347 92.3006 27.6157 91.9653 27.6265C91.0242 27.6482 90.094 27.6482 89.1529 27.6265C88.7852 27.6157 88.6986 27.7455 88.7094 28.0916C88.7311 28.9245 88.7094 29.7466 88.7203 30.5795C88.7311 31.0554 88.5147 31.2826 88.0388 31.2718C87.5196 31.2718 86.9896 31.2718 86.4704 31.2718C86.0269 31.2718 85.8105 31.0446 85.8105 30.6011C85.8105 27.9943 85.8105 25.3766 85.8105 22.7698C85.8105 22.3155 86.0485 22.1208 86.492 22.1208C87.0112 22.1208 87.5412 22.1208 88.0604 22.1208C88.5039 22.1208 88.7203 22.3263 88.7094 22.7806C88.6986 23.5919 88.7203 24.4031 88.6986 25.2144C88.6878 25.5389 88.7852 25.647 89.1205 25.647C90.0615 25.6254 90.9918 25.6254 91.9328 25.647C92.3114 25.6579 92.3763 25.5172 92.3655 25.1819C92.3439 24.4031 92.3547 23.6351 92.3547 22.8563C92.3547 22.283 92.5061 22.1316 93.0902 22.1208C93.5446 22.11 93.988 22.1208 94.4423 22.1208C95.1022 22.1316 95.2428 22.2614 95.2428 22.9104C95.2644 24.1651 95.2536 25.4307 95.2536 26.6855Z" fill="#08080B"/>
<path d="M79.7538 31.4122C79.2346 31.4338 78.618 31.3906 78.0231 31.2391C76.0761 30.7632 74.9619 29.4976 74.7672 27.4965C74.7023 26.8367 74.7023 26.1661 74.8321 25.5062C75.1566 23.7323 76.1626 22.5857 77.9257 22.1639C79.4834 21.7961 81.041 21.861 82.5553 22.4018C83.518 22.748 84.1887 23.3861 84.3617 24.4354C84.4807 25.1385 84.2968 25.3548 83.5721 25.3548C83.3233 25.3548 83.0637 25.344 82.8149 25.3548C82.339 25.3873 81.982 25.2034 81.7116 24.8248C81.041 23.8837 80.0783 23.8513 79.0831 24.0676C78.1745 24.2623 77.8608 24.9762 77.7527 25.8307C77.6445 26.6312 77.6553 27.41 77.8933 28.178C78.0988 28.8162 78.5423 29.2056 79.2021 29.3246C80.273 29.5193 81.2465 29.4219 81.928 28.4051C82.101 28.1455 82.3931 28.0157 82.7176 28.0157C83.0962 28.0266 83.4748 28.0266 83.8533 28.0157C84.3293 28.0049 84.5024 28.2645 84.4699 28.6972C84.3942 29.7356 83.8317 30.4279 82.9123 30.8605C81.9388 31.3149 80.9004 31.423 79.7538 31.4122Z" fill="#08080B"/>
<path d="M123.734 24.2623C123.604 24.0784 123.409 24.1541 123.236 24.1541C122.555 24.1433 121.862 24.1433 121.181 24.1541C120.77 24.1541 120.521 23.981 120.51 23.5592C120.489 22.2179 120.413 22.1097 121.797 22.1205C124.134 22.1422 126.481 22.1313 128.818 22.1313C129.65 22.1313 129.759 22.2395 129.759 23.0508C129.759 23.213 129.759 23.3753 129.759 23.5375C129.748 23.9486 129.542 24.1649 129.11 24.1541C128.407 24.1541 127.703 24.1757 127 24.1433C126.633 24.1325 126.546 24.2514 126.557 24.5976C126.568 26.5446 126.568 28.4916 126.568 30.4278C126.568 31.1525 126.46 31.2607 125.713 31.2607C125.28 31.2607 124.848 31.2607 124.415 31.2607C124.199 31.2607 123.982 31.2715 123.831 31.066C123.745 30.655 123.777 30.2439 123.777 29.8329C123.777 28.1455 123.777 26.4689 123.777 24.7815C123.788 24.6192 123.831 24.4353 123.734 24.2623Z" fill="#08080B"/>
<path d="M41.7245 22.1749C41.3351 22.6833 41.4433 23.2782 41.4433 23.8515C41.4324 27.1615 41.4324 30.4822 41.4324 33.7922C41.2702 33.6299 41.3351 33.4244 41.3351 33.2297C41.3351 29.8008 41.3351 26.361 41.3351 22.9321C41.3243 22.6184 41.281 22.2723 41.7245 22.1749Z" fill="#08080B"/>
<path d="M123.736 24.2626C123.92 24.4248 123.834 24.6303 123.834 24.8142C123.844 26.6206 123.844 28.4379 123.823 30.2443C123.823 30.5255 123.963 30.7959 123.834 31.0663C123.671 31.0122 123.704 30.8608 123.704 30.7526C123.725 28.5893 123.736 26.4259 123.736 24.2626Z" fill="#08080B"/>
<path d="M19.9613 31.421C18.356 33.394 16.2933 34.6496 13.845 35.2325C7.54921 36.7302 1.27141 32.533 0.168305 26.1386C-0.181458 24.0849 0.0158436 22.1029 0.742275 20.1568C1.05617 19.3048 1.70188 18.8474 2.55387 18.6591C3.31617 18.4887 4.41031 18.6681 4.93944 18.9999C3.648 19.9685 3.19959 21.3227 3.39689 22.8473C3.71078 25.2418 4.97531 27.179 6.7331 28.7664C9.40565 31.1788 12.5625 32.3806 16.1857 32.264C17.4861 32.2191 18.7416 31.9232 19.9613 31.421Z" fill="#08080B"/>
<path d="M11.8887 30.7572C10.9829 30.4344 10.1937 29.9052 9.29688 29.3223C10.0951 29.4389 10.7497 29.4927 11.4313 29.4389C12.651 29.3402 13.6196 28.8201 14.4178 27.9233C15.6823 26.4973 16.9289 25.0444 18.1396 23.5647C18.7495 22.8113 19.3952 22.0849 20.1126 21.4302C20.7853 20.8114 21.5745 20.5154 22.4623 20.4527C23.4937 20.3809 24.5161 20.4168 25.6012 20.6589C24.5878 22.1208 23.5027 23.4929 22.4534 24.883C22.4354 25.0624 22.265 25.0624 22.1484 25.0893C21.1888 25.2955 20.3996 25.8336 19.6373 26.4076C18.5342 27.2237 17.6015 28.2371 16.5164 29.0712C15.4222 29.9142 14.2474 30.6048 12.8214 30.7483C12.5075 30.7662 12.1936 30.7841 11.8887 30.7572Z" fill="#08080B"/>
<path d="M11.8887 30.7573C12.4357 30.5958 13.0097 30.6497 13.5657 30.4972C14.8572 30.1385 15.9423 29.412 16.9468 28.56C17.7091 27.9143 18.4355 27.2238 19.2068 26.596C20.1664 25.8157 21.1888 25.1162 22.4533 24.883C23.5206 24.8203 24.534 25.0355 25.5025 25.466C25.9958 25.6812 26.0048 25.7171 25.646 26.0848C24.3815 27.3762 23.0901 28.6408 21.7897 29.8873C20.6776 30.9456 19.3862 31.5375 17.8885 31.7079C15.7899 31.9321 13.7989 31.6003 11.8887 30.7573Z" fill="#08080B"/>
<path d="M10.3095 13.0808C10.9463 13.0808 11.583 13.0808 12.2198 13.0808C14.3632 13.2871 16.3093 13.9776 18.0581 15.296C17.9326 15.3677 17.8788 15.3049 17.816 15.2691C13.3767 12.6414 7.65493 13.5472 4.25594 17.6367C4.15729 17.7533 4.07658 17.8609 3.88824 17.843C3.21562 17.7712 2.55197 17.8519 1.90625 18.0761C3.95999 15.1345 6.74016 13.4485 10.3095 13.0808Z" fill="#08080B"/>
<path d="M24.8504 14.2646C24.9311 14.2916 25.0118 14.3185 25.1015 14.3454C24.68 15.018 24.2495 15.6906 23.828 16.3722C23.8011 16.3543 23.7652 16.3274 23.7383 16.3094C24.106 15.6189 24.4737 14.9373 24.8504 14.2646Z" fill="#08080B"/>
<path d="M25.5203 13.1974C25.2333 13.1346 24.9463 13.0629 24.6594 13.0001C23.9688 13.0001 23.2872 13.0001 22.5967 13.0001C22.5518 13.0719 22.4711 13.0629 22.3994 13.0808C20.5967 13.3947 19.2066 14.2826 18.2739 15.8969C17.1708 17.8251 16.1664 19.8071 15.0902 21.7532C14.1216 23.502 13.153 25.2598 11.8526 26.7934C11.3504 27.3853 10.8123 27.9503 10.0679 28.2462C9.73612 28.318 9.39532 28.3897 8.96484 28.4794C9.42223 28.5242 9.77199 28.4794 10.1038 28.3538C10.1218 28.3538 10.1307 28.3449 10.1487 28.3359C10.5433 28.2642 10.8751 28.0758 11.189 27.8427C11.9872 27.2687 12.6149 26.5333 13.2068 25.762C14.7942 23.6814 16.0498 21.3855 17.395 19.1524C17.8614 18.3901 18.3367 17.6367 18.812 16.8744C20.2111 14.5965 22.3545 14.0315 24.8387 14.2557C24.9015 14.3454 24.9643 14.444 25.0898 14.3364C25.2692 14.0673 25.4486 13.7893 25.6369 13.5203C25.7804 13.3409 25.7535 13.2423 25.5203 13.1974Z" fill="#08080B"/>
<path d="M117.029 22.3371C116.597 22.229 116.142 22.1857 115.699 22.1532C115.396 22.1316 115.299 22.0343 115.31 21.7314C115.331 21.1581 115.31 20.574 115.32 20.0007C115.331 19.5248 115.126 19.2976 114.65 19.2976C114.131 19.2976 113.6 19.2976 113.081 19.2976C112.638 19.2976 112.421 19.5139 112.421 19.9574C112.421 20.4442 112.367 20.9309 112.432 21.4177C112.508 22.0234 112.259 22.1641 111.697 22.1965C110.529 22.2614 109.404 22.5751 108.56 23.4513C107.132 24.9548 107.143 26.7612 107.705 28.6C107.997 29.5411 108.668 30.1901 109.544 30.6228C110.301 31.0014 111.102 31.1853 111.935 31.2177C112.346 31.2285 112.443 31.4016 112.421 31.7694C112.389 32.2886 112.421 32.8186 112.411 33.3378C112.4 33.6839 112.519 33.9327 112.822 34.095C113.546 34.095 114.26 34.095 114.985 34.095C115.245 33.8895 115.353 33.6407 115.32 33.2945C115.288 32.9376 115.31 32.5698 115.31 32.2129C115.31 31.2718 115.31 31.2718 116.251 31.1744C118.684 30.9257 120.112 29.5952 120.318 27.2047C120.545 24.7385 119.561 22.9429 117.029 22.3371ZM112.486 24.3707C112.465 25.1387 112.476 25.9175 112.476 26.6855C112.476 27.4751 112.465 28.2647 112.486 29.0544C112.497 29.3789 112.389 29.4546 112.075 29.4113C111.232 29.2707 110.658 28.838 110.431 27.9943C110.193 27.129 110.193 26.2528 110.431 25.3875C110.647 24.5762 111.188 24.1219 112.021 23.9813C112.357 23.9272 112.497 23.9813 112.486 24.3707ZM117.332 27.9186C117.116 28.7731 116.553 29.2599 115.677 29.4005C115.374 29.4438 115.255 29.3897 115.255 29.0544C115.277 28.2864 115.266 27.5076 115.266 26.7396C115.266 25.9499 115.288 25.1603 115.255 24.3707C115.245 23.9813 115.385 23.938 115.731 23.9921C116.597 24.1435 117.116 24.6411 117.332 25.4632C117.538 26.2853 117.538 27.1073 117.332 27.9186Z" fill="#08080B"/>
<path d="M51.0481 25.8416C50.7993 23.3538 49.1551 21.926 46.6673 21.9692C45.6829 21.98 44.8176 22.337 43.9739 22.8562C43.9739 22.4343 43.8549 22.1315 43.4439 22.1315C42.8706 22.1315 42.2973 22.0449 41.7348 22.1747C41.4536 22.4127 41.3887 22.7048 41.3887 23.0833C41.3995 26.4798 41.3995 29.8763 41.3995 33.2728C41.3995 33.4458 41.367 33.6297 41.4428 33.8028C41.4428 33.965 41.6375 33.965 41.6699 34.0948C42.3946 34.0948 43.1085 34.0948 43.8333 34.0948C44.1686 33.9326 44.2659 33.6514 44.2551 33.2944C44.2335 32.6778 44.2659 32.0721 44.2443 31.4555C44.2335 31.1202 44.2984 31.0012 44.6662 31.1202C45.4991 31.4015 46.3536 31.4555 47.2297 31.3906C49.0253 31.2717 50.3666 30.1792 50.8858 28.4593C51.1238 27.6048 51.1454 26.7178 51.0481 25.8416ZM48.041 27.7237C47.8679 28.8811 47.2189 29.4328 46.0507 29.4112C45.5099 29.4004 44.9258 29.3787 44.4715 29.1083C43.9306 28.773 44.2768 28.1348 44.2443 27.6372C44.1902 26.7935 44.2443 25.9498 44.2227 25.0953C44.2119 24.8032 44.32 24.6301 44.5796 24.5112C44.9798 24.3165 45.3801 24.1109 45.8344 24.0244C46.9701 23.8081 47.803 24.3381 48.0194 25.4739C48.0951 25.8741 48.1708 26.2851 48.16 26.707C48.1167 27.0423 48.0951 27.3884 48.041 27.7237Z" fill="#08080B"/>
<path d="M137.172 25.1927C136.198 25.1062 135.225 25.1495 134.262 25.1495C133.927 25.1495 133.829 25.0521 133.84 24.7168C133.862 24.0678 133.84 23.4188 133.851 22.7698C133.862 22.3155 133.635 22.1099 133.191 22.1208C132.672 22.1208 132.153 22.1208 131.623 22.1208C131.19 22.1208 130.963 22.3155 130.963 22.7806C130.974 25.3874 130.974 27.9943 130.963 30.6119C130.963 31.0663 131.168 31.2718 131.612 31.2718C133.321 31.2718 135.03 31.3042 136.739 31.2501C138.297 31.2069 139.606 30.7201 140.071 29.0111C140.071 28.4702 140.071 27.9294 140.071 27.3885C139.67 25.9175 138.61 25.3117 137.172 25.1927ZM136.187 29.3464C135.863 29.3572 135.538 29.3464 135.106 29.3464C134.781 29.3031 134.208 29.5519 133.927 29.2598C133.656 28.9678 133.851 28.4053 133.851 27.9618C133.84 27.064 133.851 27.064 134.749 27.064C135.236 27.064 135.722 27.0532 136.198 27.0749C136.858 27.1073 137.204 27.5183 137.193 28.2214C137.193 28.9245 136.847 29.3139 136.187 29.3464Z" fill="#08080B"/>
<path d="M61.6904 25.3764C61.6472 23.7214 60.7926 22.6289 59.1918 22.2071C57.5909 21.7852 55.9792 21.8718 54.3891 22.3369C53.8483 22.4991 53.3615 22.7912 53.0586 23.2996C52.8315 23.6998 52.6476 24.1433 52.8639 24.576C53.0695 25.0086 53.5238 24.8464 53.8915 24.8572C54.4216 24.868 54.9948 24.9545 55.4167 24.5002C56.0116 23.8621 56.7688 23.7863 57.5584 23.8837C58.3372 23.981 58.6401 24.3164 58.8024 25.0843C58.8781 25.4629 58.7915 25.5927 58.3913 25.5819C57.3313 25.5711 56.2604 25.517 55.2004 25.636C54.2269 25.755 53.3291 26.047 52.68 26.8367C51.4578 28.3294 52.2149 30.5144 54.2052 31.1309C55.8818 31.6501 57.5152 31.5203 59.0511 30.5252C59.0728 31.1201 59.3973 31.2932 59.9057 31.2607C60.2843 31.2391 60.6628 31.2499 61.0414 31.2607C61.4741 31.2607 61.7121 31.0769 61.7121 30.6117C61.7013 28.8702 61.7337 27.1287 61.6904 25.3764ZM58.8348 28.6431C58.8024 28.7945 58.7158 28.8486 58.6077 28.9135C57.8721 29.3245 57.0933 29.5517 56.2388 29.5301C56.0765 29.5301 55.9143 29.4868 55.7628 29.4435C55.2436 29.2813 54.9732 28.9027 55.0165 28.4051C55.0597 27.9508 55.4275 27.5722 55.9575 27.5289C56.401 27.4857 56.8553 27.5181 57.3096 27.5181V27.5073C57.526 27.5073 57.7423 27.5073 57.9586 27.5073C58.8456 27.4965 59.0295 27.7345 58.8348 28.6431Z" fill="#08080B"/>
<path d="M100.177 27.5831C101.118 27.5939 102.048 27.5939 102.989 27.5939C103.768 27.5939 104.536 27.5939 105.315 27.5939C106.526 27.5939 106.591 27.529 106.526 26.2959C106.526 26.2635 106.526 26.2202 106.515 26.1877C106.353 23.9919 105.26 22.629 103.259 22.1423C102.481 21.9476 101.691 21.9367 100.89 22.0016C98.8353 22.1747 97.4183 23.3429 96.9532 25.2034C96.7693 25.9281 96.7477 26.6637 96.8126 27.41C97.0073 29.5734 98.2512 30.9471 100.404 31.3149C101.713 31.542 103.021 31.4663 104.309 31.131C104.979 30.9579 105.596 30.6551 105.964 30.0061C106.515 29.0217 106.234 28.5242 105.12 28.5242C104.871 28.5242 104.611 28.5242 104.363 28.535C104.071 28.5458 103.8 28.6431 103.584 28.8703C102.946 29.5518 102.134 29.6167 101.291 29.4869C100.393 29.3462 99.9927 28.9136 99.7764 28.0374C99.6898 27.6372 99.8304 27.5723 100.177 27.5831ZM99.7439 25.463C99.8413 24.4787 100.609 23.8405 101.691 23.8513C102.773 23.8621 103.454 24.4679 103.551 25.4738C103.584 25.7659 103.476 25.8091 103.238 25.8091C102.697 25.7983 102.156 25.8091 101.626 25.8091C101.107 25.8091 100.588 25.7983 100.068 25.8091C99.7872 25.82 99.7115 25.7118 99.7439 25.463Z" fill="#08080B"/>
</svg>
