<svg width="24" height="24" viewBox="0 0 24 24" fill="none" xmlns="http://www.w3.org/2000/svg">
<path d="M3.47772 2.50941C2.92778 2.50941 2.50917 2.93776 2.50917 3.43267V20.5673C2.50917 21.0624 2.92772 21.4906 3.47772 21.4906H20.5218C21.0718 21.4906 21.4903 21.0624 21.4903 20.5673V3.43267C21.4903 2.93777 21.0717 2.50941 20.5218 2.50941H3.47772Z" stroke="white"/>
<path fill-rule="evenodd" clip-rule="evenodd" d="M18.6703 8.58292C18.7741 8.25409 18.6703 8.01495 18.2107 8.01495H16.6835C16.298 8.01495 16.1201 8.2242 16.0163 8.4484C16.0163 8.4484 15.2304 10.3616 14.1332 11.6021C13.7774 11.9609 13.6143 12.0804 13.4215 12.0804C13.3177 12.0804 13.1843 11.9609 13.1843 11.632V8.56797C13.1843 8.17936 13.0657 8 12.7395 8H10.3375C10.1003 8 9.952 8.17936 9.952 8.35872C9.952 8.73238 10.5006 8.82206 10.5599 9.86833V12.1402C10.5599 12.6335 10.4709 12.7231 10.2782 12.7231C9.75924 12.7231 8.49894 10.795 7.74276 8.59786C7.59449 8.16441 7.44622 8 7.06072 8H5.5187C5.07389 8 4.99976 8.20925 4.99976 8.43345C4.99976 8.83701 5.5187 10.8698 7.41657 13.5601C8.67687 15.3986 10.4709 16.3851 12.0871 16.3851C13.0657 16.3851 13.1843 16.1609 13.1843 15.7872V14.3972C13.1843 13.9488 13.2733 13.874 13.5846 13.874C13.807 13.874 14.2074 13.9936 15.1118 14.8754C16.1497 15.9217 16.3276 16.4 16.9059 16.4H18.4331C18.8779 16.4 19.0855 16.1758 18.9668 15.7423C18.8334 15.3089 18.3293 14.6811 17.6769 13.9338C17.321 13.5153 16.7873 13.052 16.6242 12.8278C16.4018 12.5288 16.4611 12.4093 16.6242 12.1402C16.6093 12.1402 18.4776 9.47971 18.6703 8.58292Z" stroke="white"/>
</svg>
