<svg width="32" height="32" viewBox="0 0 32 32" fill="none" xmlns="http://www.w3.org/2000/svg">
<rect x="0.5" y="0.499512" width="31" height="31" rx="3.5" stroke="#08080B"/>
<path fill-rule="evenodd" clip-rule="evenodd" d="M23.6274 11.3325C23.746 10.9567 23.6274 10.6834 23.1021 10.6834H21.3567C20.9162 10.6834 20.7128 10.9226 20.5942 11.1788C20.5942 11.1788 19.6961 13.3653 18.4422 14.7831C18.0355 15.193 17.8491 15.3297 17.6288 15.3297C17.5102 15.3297 17.3577 15.193 17.3577 14.8172V11.3154C17.3577 10.8713 17.2221 10.6663 16.8493 10.6663H14.1042C13.8331 10.6663 13.6636 10.8713 13.6636 11.0763C13.6636 11.5033 14.2906 11.6058 14.3584 12.8016V15.398C14.3584 15.9617 14.2567 16.0642 14.0364 16.0642C13.4433 16.0642 12.003 13.8606 11.1388 11.3496C10.9693 10.8542 10.7999 10.6663 10.3593 10.6663H8.59699C8.08863 10.6663 8.00391 10.9055 8.00391 11.1617C8.00391 11.6229 8.59699 13.9461 10.766 17.0208C12.2063 19.1219 14.2567 20.2493 16.1037 20.2493C17.2221 20.2493 17.3577 19.993 17.3577 19.566V17.9774C17.3577 17.4649 17.4593 17.3795 17.8152 17.3795C18.0694 17.3795 18.5269 17.5162 19.5605 18.524C20.7467 19.7197 20.9501 20.2663 21.6109 20.2663H23.3563C23.8646 20.2663 24.1019 20.0101 23.9663 19.5147C23.8138 19.0194 23.2377 18.3019 22.4921 17.4478C22.0854 16.9695 21.4754 16.44 21.289 16.1838C21.0348 15.8421 21.1026 15.7055 21.289 15.398C21.272 15.398 23.4071 12.3574 23.6274 11.3325Z" fill="#08080B"/>
</svg>
