<svg width="24" height="24" viewBox="0 0 24 24" fill="none" xmlns="http://www.w3.org/2000/svg">
<path fill-rule="evenodd" clip-rule="evenodd" d="M21.9998 12C21.9998 17.5228 17.5226 22 11.9998 22C10.1658 22 8.44719 21.5063 6.96951 20.6446L1.99976 22L3.35514 17.0302C2.49343 15.5526 1.99976 13.8339 1.99976 12C1.99976 6.47715 6.47691 2 11.9998 2C17.5226 2 21.9998 6.47715 21.9998 12Z" stroke="white" stroke-linecap="round" stroke-linejoin="round"/>
<path fill-rule="evenodd" clip-rule="evenodd" d="M9.15432 7.00617C9.34412 7.01392 9.5543 7.02287 9.7541 7.46453C9.89067 7.76688 10.1206 8.33082 10.3037 8.77976C10.4382 9.10967 10.5475 9.37761 10.5756 9.43379C10.6424 9.56643 10.6867 9.72134 10.5978 9.89852C10.5847 9.92472 10.5725 9.94947 10.5609 9.97312C10.494 10.109 10.4449 10.2088 10.3317 10.3408C10.2869 10.3928 10.2405 10.4489 10.1942 10.505C10.1026 10.6158 10.0112 10.7265 9.93171 10.8055C9.79805 10.9377 9.65919 11.0813 9.81463 11.3468C9.97027 11.6123 10.5051 12.4807 11.2975 13.1838C12.1487 13.9392 12.8882 14.2587 13.2637 14.4209C13.3374 14.4528 13.3971 14.4786 13.4409 14.5004C13.7076 14.6331 13.863 14.611 14.0185 14.4338C14.1741 14.2568 14.6846 13.6595 14.8622 13.394C15.04 13.1285 15.2176 13.1727 15.462 13.2612C15.7063 13.3497 17.0168 13.9916 17.2833 14.1242C17.3352 14.15 17.3838 14.1733 17.4288 14.1949C17.615 14.2843 17.7406 14.3446 17.7944 14.4338C17.8609 14.5448 17.8609 15.0755 17.6387 15.6949C17.4167 16.3144 16.3285 16.9119 15.8398 16.9561C15.7927 16.9603 15.746 16.9658 15.6979 16.9714C15.2462 17.0242 14.676 17.0909 12.6413 16.2923C10.1368 15.3094 8.48576 12.8733 8.14508 12.3707C8.11724 12.3296 8.0981 12.3013 8.08803 12.288L8.08478 12.2836C7.9402 12.0912 6.99976 10.8395 6.99976 9.54436C6.99976 8.32265 7.60307 7.68227 7.88068 7.3876L7.89463 7.37278C7.90829 7.35826 7.92105 7.34464 7.93279 7.33189C8.17693 7.06642 8.46563 7 8.64345 7L8.67229 7C8.84024 6.99998 9.0073 6.99996 9.15432 7.00617Z" stroke="white" stroke-linecap="round" stroke-linejoin="round"/>
</svg>
