<svg width="32" height="32" viewBox="0 0 32 32" fill="none" xmlns="http://www.w3.org/2000/svg">
<path fill-rule="evenodd" clip-rule="evenodd" d="M26 15.9995C26 21.5224 21.5228 25.9995 16 25.9995C14.1661 25.9995 12.4474 25.5058 10.9698 24.6441L6 25.9995L7.35539 21.0298C6.49368 19.5521 6 17.8334 6 15.9995C6 10.4767 10.4772 5.99951 16 5.99951C21.5228 5.99951 26 10.4767 26 15.9995ZM13.1546 11.0057C13.3444 11.0134 13.5545 11.0224 13.7543 11.464C13.8909 11.7664 14.1209 12.3303 14.3039 12.7793C14.4384 13.1092 14.5477 13.3771 14.5759 13.4333C14.6426 13.5659 14.687 13.7208 14.5981 13.898C14.5849 13.9242 14.5727 13.949 14.5611 13.9726C14.4942 14.1086 14.4451 14.2083 14.3319 14.3403C14.2871 14.3923 14.2408 14.4484 14.1944 14.5045C14.1029 14.6153 14.0114 14.7261 13.932 14.805C13.7983 14.9372 13.6594 15.0808 13.8149 15.3463C13.9705 15.6118 14.5054 16.4802 15.2977 17.1833C16.1489 17.9387 16.8884 18.2582 17.2639 18.4204C17.3377 18.4523 17.3974 18.4781 17.4411 18.4999C17.7078 18.6326 17.8633 18.6105 18.0187 18.4333C18.1744 18.2563 18.6848 17.659 18.8624 17.3935C19.0403 17.128 19.2179 17.1722 19.4622 17.2607C19.7066 17.3492 21.017 17.9911 21.2835 18.1237C21.3355 18.1495 21.384 18.1728 21.429 18.1945C21.6152 18.2838 21.7409 18.3441 21.7946 18.4333C21.8611 18.5443 21.8611 19.075 21.639 19.6945C21.417 20.3139 20.3287 20.9115 19.84 20.9556C19.793 20.9598 19.7462 20.9653 19.6982 20.9709C19.2464 21.0238 18.6762 21.0904 16.6415 20.2918C14.1371 19.309 12.486 16.8728 12.1453 16.3702C12.1175 16.3291 12.0983 16.3009 12.0883 16.2875L12.085 16.2832C11.9404 16.0907 11 14.839 11 13.5439C11 12.3222 11.6033 11.6818 11.8809 11.3871L11.8949 11.3723C11.9085 11.3578 11.9213 11.3442 11.933 11.3314C12.1772 11.0659 12.4659 10.9995 12.6437 10.9995L12.6725 10.9995C12.8405 10.9995 13.0075 10.9995 13.1546 11.0057Z" fill="#08080B"/>
<rect x="0.5" y="0.499512" width="31" height="31" rx="3.5" stroke="#08080B"/>
</svg>
