<svg width="24" height="24" viewBox="0 0 24 24" fill="none" xmlns="http://www.w3.org/2000/svg">
<path d="M6.75049 4V3.5H6.25049V4H6.75049ZM17.2505 4H17.7505V3.5H17.2505V4ZM6.75049 4.5H17.2505V3.5H6.75049V4.5ZM16.7505 4V11.75H17.7505V4H16.7505ZM7.25049 11.75V4H6.25049V11.75H7.25049ZM12.0005 16.5C9.37714 16.5 7.25049 14.3734 7.25049 11.75H6.25049C6.25049 14.9256 8.82485 17.5 12.0005 17.5V16.5ZM16.7505 11.75C16.7505 14.3734 14.6238 16.5 12.0005 16.5V17.5C15.1761 17.5 17.7505 14.9256 17.7505 11.75H16.7505Z" fill="#47A180"/>
<path d="M12 17V21" stroke="#47A180"/>
<path d="M8 21H16" stroke="#47A180"/>
<path d="M20 6H20.5V5.5H20V6ZM17.5 6.5H20V5.5H17.5V6.5ZM19.5 6V10.3624H20.5V6H19.5ZM17.3787 13.5794L16.303 14.0404L16.697 14.9596L17.7726 14.4986L17.3787 13.5794ZM19.5 10.3624C19.5 11.7625 18.6656 13.0279 17.3787 13.5794L17.7726 14.4986C19.4272 13.7895 20.5 12.1625 20.5 10.3624H19.5Z" fill="#47A180"/>
<path d="M4 6H3.5V5.5H4V6ZM6.5 6.5H4V5.5H6.5V6.5ZM4.5 6V10.3624H3.5V6H4.5ZM6.62128 13.5794L7.69696 14.0404L7.30304 14.9596L6.22736 14.4986L6.62128 13.5794ZM4.5 10.3624C4.5 11.7625 5.33439 13.0279 6.62128 13.5794L6.22736 14.4986C4.57279 13.7895 3.5 12.1625 3.5 10.3624H4.5Z" fill="#47A180"/>
</svg>
