<svg width="24" height="24" viewBox="0 0 24 24" fill="none" xmlns="http://www.w3.org/2000/svg">
<path d="M13.9016 4.20005H1.19922V3.00005H13.9016C14.1487 2.30093 14.8155 1.80005 15.5992 1.80005C16.3829 1.80005 17.0497 2.30093 17.2968 3.00005H22.7992V4.20005H17.2968C17.0497 4.89916 16.3829 5.40005 15.5992 5.40005C14.8155 5.40005 14.1487 4.89916 13.9016 4.20005Z" fill="white"/>
<path d="M7.69679 11.4001C7.44969 10.7009 6.78295 10.2001 5.99922 10.2001C5.21549 10.2001 4.54874 10.7009 4.30164 11.4001H1.19922V12.6H4.30164C4.54874 13.2992 5.21549 13.8001 5.99922 13.8001C6.78295 13.8001 7.44969 13.2992 7.69679 12.6H22.7992V11.4001H7.69679Z" fill="white"/>
<path d="M9.10164 19.8001H1.19922V21.0001H9.10164C9.34874 21.6992 10.0155 22.2001 10.7992 22.2001C11.5829 22.2001 12.2497 21.6992 12.4968 21.0001H22.7992V19.8001H12.4968C12.2497 19.1009 11.5829 18.6001 10.7992 18.6001C10.0155 18.6001 9.34874 19.1009 9.10164 19.8001Z" fill="white"/>
</svg>
