<svg width="15" height="14" viewBox="0 0 15 14" fill="none" xmlns="http://www.w3.org/2000/svg">
<path fill-rule="evenodd" clip-rule="evenodd" d="M3.19939 13.3842V4.35313H0.178574V13.3842H3.19939ZM1.68897 3.12008C2.74239 3.12008 3.39806 2.42659 3.39806 1.55993C3.37843 0.673761 2.74239 -0.000485307 1.70895 -0.000485307C0.675623 -0.000485307 0 0.673761 0 1.55993C0 2.42659 0.655527 3.12008 1.66928 3.12008H1.68891H1.68897Z" fill="#08080B"/>
<path fill-rule="evenodd" clip-rule="evenodd" d="M4.87109 13.3842H7.89189V8.34089C7.89189 8.07098 7.91152 7.80133 7.99128 7.60838C8.20966 7.06909 8.70671 6.51056 9.54122 6.51056C10.6343 6.51056 11.0716 7.33874 11.0716 8.55281V13.3842H14.0921V8.20593C14.0921 5.43198 12.6018 4.14121 10.6144 4.14121C8.98471 4.14121 8.26928 5.04635 7.87179 5.66287H7.89197V4.35313H4.87118C4.91082 5.20055 4.87118 13.3842 4.87118 13.3842H4.87109Z" fill="#08080B"/>
</svg>
