<svg width="24" height="24" viewBox="0 0 24 24" fill="none" xmlns="http://www.w3.org/2000/svg">
<path fill-rule="evenodd" clip-rule="evenodd" d="M20.4697 21.5304L15.9697 17.0304L17.0304 15.9697L21.5304 20.4697L20.4697 21.5304Z" fill="white"/>
<path fill-rule="evenodd" clip-rule="evenodd" d="M13.5 6H9C7.34315 6 6 7.34315 6 9V13.5C6 15.1569 7.34315 16.5 9 16.5H13.5C15.1569 16.5 16.5 15.1569 16.5 13.5V9C16.5 7.34315 15.1569 6 13.5 6ZM9 4.5C6.51472 4.5 4.5 6.51472 4.5 9V13.5C4.5 15.9853 6.51472 18 9 18H13.5C15.9853 18 18 15.9853 18 13.5V9C18 6.51472 15.9853 4.5 13.5 4.5H9Z" fill="white"/>
</svg>
