<svg width="24" height="24" viewBox="0 0 24 24" fill="none" xmlns="http://www.w3.org/2000/svg">
<path fill-rule="evenodd" clip-rule="evenodd" d="M21.9897 2.83657L19.1326 19.9794C19.0954 20.1952 18.9764 20.3626 18.7755 20.4817C18.6713 20.5412 18.556 20.5709 18.4295 20.5709C18.3477 20.5709 18.2584 20.5523 18.1616 20.5151L13.1059 18.4504L10.4051 21.7428C10.2712 21.9139 10.0889 21.9995 9.85823 21.9995C9.76151 21.9995 9.67967 21.9846 9.6127 21.9549C9.47133 21.9028 9.35787 21.8154 9.27231 21.6926C9.18674 21.5698 9.14396 21.434 9.14396 21.2852V17.3901L18.7866 5.57094L6.85606 15.8946L2.44766 14.0866C2.17237 13.9824 2.02356 13.7778 2.00124 13.4727C1.98636 13.1751 2.1054 12.9556 2.35838 12.8142L20.9295 2.09996C21.0411 2.03299 21.1601 1.99951 21.2866 1.99951C21.4354 1.99951 21.5693 2.04043 21.6884 2.12228C21.9339 2.30085 22.0343 2.53894 21.9897 2.83657Z" fill="#08080B"/>
</svg>
