<svg width="22" height="22" viewBox="0 0 22 22" fill="none" xmlns="http://www.w3.org/2000/svg">
<path fill-rule="evenodd" clip-rule="evenodd" d="M18.6274 6.33253C18.746 5.95673 18.6274 5.68342 18.1021 5.68342H16.3567C15.9162 5.68342 15.7128 5.92256 15.5942 6.17879C15.5942 6.17879 14.6961 8.36527 13.4422 9.78306C13.0355 10.193 12.8491 10.3297 12.6288 10.3297C12.5102 10.3297 12.3577 10.193 12.3577 9.81723V6.31545C12.3577 5.87132 12.2221 5.66634 11.8493 5.66634H9.10419C8.83306 5.66634 8.66361 5.87132 8.66361 6.0763C8.66361 6.50335 9.29058 6.60584 9.35836 7.80157V10.398C9.35836 10.9617 9.25669 11.0642 9.03641 11.0642C8.44332 11.0642 7.00298 8.86064 6.13877 6.34961C5.96932 5.85424 5.79987 5.66634 5.35929 5.66634H3.59699C3.08863 5.66634 3.00391 5.90548 3.00391 6.16171C3.00391 6.62292 3.59699 8.94605 5.76598 12.0208C7.20632 14.1219 9.25669 15.2493 11.1037 15.2493C12.2221 15.2493 12.3577 14.993 12.3577 14.566V12.9774C12.3577 12.4649 12.4593 12.3795 12.8152 12.3795C13.0694 12.3795 13.5269 12.5162 14.5605 13.524C15.7467 14.7197 15.9501 15.2663 16.6109 15.2663H18.3563C18.8646 15.2663 19.1019 15.0101 18.9663 14.5147C18.8138 14.0194 18.2377 13.3019 17.4921 12.4478C17.0854 11.9695 16.4754 11.44 16.289 11.1838C16.0348 10.8421 16.1026 10.7055 16.289 10.398C16.272 10.398 18.4071 7.35744 18.6274 6.33253Z" fill="#08080B"/>
</svg>
