<svg width="24" height="24" viewBox="0 0 24 24" fill="none" xmlns="http://www.w3.org/2000/svg">
<path fill-rule="evenodd" clip-rule="evenodd" d="M22 11.9995C22 17.5224 17.5228 21.9995 12 21.9995C10.1661 21.9995 8.44744 21.5058 6.96976 20.6441L2 21.9995L3.35539 17.0298C2.49368 15.5521 2 13.8334 2 11.9995C2 6.47666 6.47715 1.99951 12 1.99951C17.5228 1.99951 22 6.47666 22 11.9995ZM9.15456 7.00568C9.34437 7.01344 9.55455 7.02238 9.75434 7.46404C9.89091 7.76639 10.1209 8.33033 10.3039 8.77928C10.4384 9.10918 10.5477 9.37713 10.5759 9.43331C10.6426 9.56594 10.687 9.72085 10.5981 9.89803C10.5849 9.92423 10.5727 9.94898 10.5611 9.97263C10.4942 10.1086 10.4451 10.2083 10.3319 10.3403C10.2871 10.3923 10.2408 10.4484 10.1944 10.5045C10.1029 10.6153 10.0114 10.7261 9.93196 10.805C9.7983 10.9372 9.65944 11.0808 9.81488 11.3463C9.97052 11.6118 10.5054 12.4802 11.2977 13.1833C12.1489 13.9387 12.8884 14.2582 13.2639 14.4204C13.3377 14.4523 13.3974 14.4781 13.4411 14.4999C13.7078 14.6326 13.8633 14.6105 14.0187 14.4333C14.1744 14.2563 14.6848 13.659 14.8624 13.3935C15.0403 13.128 15.2179 13.1722 15.4622 13.2607C15.7066 13.3492 17.017 13.9911 17.2835 14.1237C17.3355 14.1495 17.384 14.1728 17.429 14.1945C17.6152 14.2838 17.7409 14.3441 17.7946 14.4333C17.8611 14.5443 17.8611 15.075 17.639 15.6945C17.417 16.3139 16.3287 16.9115 15.84 16.9556C15.793 16.9598 15.7462 16.9653 15.6982 16.9709C15.2464 17.0238 14.6762 17.0904 12.6415 16.2918C10.1371 15.309 8.486 12.8728 8.14532 12.3702C8.11748 12.3291 8.09834 12.3008 8.08827 12.2875L8.08503 12.2832C7.94045 12.0907 7 10.839 7 9.54387C7 8.32217 7.60331 7.68178 7.88092 7.38711L7.89488 7.37229C7.90854 7.35777 7.9213 7.34415 7.93303 7.33141C8.17718 7.06593 8.46588 6.99952 8.64369 6.99952L8.67253 6.99951C8.84048 6.99949 9.00754 6.99947 9.15456 7.00568Z" fill="#08080B"/>
</svg>
