<svg width="24" height="24" viewBox="0 0 24 24" fill="none" xmlns="http://www.w3.org/2000/svg">
<path d="M21.1154 6.9485C21.1135 6.9378 21.1113 6.92717 21.1087 6.91662C20.9913 6.43429 20.7517 5.99088 20.4128 5.63174C20.0737 5.2725 19.6471 5.01024 19.1754 4.87306C19.1694 4.87133 19.1635 4.86971 19.1575 4.86821C18.7566 4.76761 18.0988 4.69957 17.3769 4.65016C16.6417 4.59984 15.7987 4.5665 15.004 4.54434C14.2086 4.52216 13.4579 4.51108 12.9063 4.50554C12.6304 4.50277 12.404 4.50139 12.2466 4.50069L12.0643 4.50009L12.0164 4.50001L12.0041 4.5L12.0009 4.5L12.0001 4.5L11.9999 4.5L11.9998 5L11.9997 4.5L11.9994 4.5L11.9986 4.5L11.9954 4.5L11.983 4.50001L11.9351 4.5001L11.7527 4.50076C11.5952 4.50152 11.3688 4.50304 11.0928 4.50607C10.541 4.51214 9.78997 4.52428 8.99419 4.54858C8.19924 4.57286 7.35548 4.6094 6.61942 4.66458C5.89766 4.71869 5.23609 4.7934 4.83124 4.90469L4.83122 4.90463L4.82415 4.90669C4.35237 5.04388 3.92577 5.30614 3.58674 5.66537C3.24779 6.02452 3.00823 6.46792 2.89077 6.95026C2.88819 6.96081 2.88597 6.97145 2.88409 6.98215C2.62156 8.47841 2.49307 9.9962 2.50022 11.5165C2.49102 13.0482 2.61952 14.5776 2.88409 16.0851C2.88688 16.101 2.89042 16.1167 2.89472 16.1322C3.02425 16.5997 3.26929 17.0264 3.60755 17.3705L3.95745 17.0265L3.60755 17.3705C3.9459 17.7146 4.36618 17.9645 4.82839 18.0945L4.83124 18.0953C5.23609 18.2066 5.89766 18.2813 6.61942 18.3354C7.35548 18.3906 8.19924 18.4271 8.99419 18.4514C9.78997 18.4757 10.541 18.4879 11.0928 18.4939C11.3688 18.497 11.5952 18.4985 11.7527 18.4992L11.9351 18.4999L11.983 18.5L11.9954 18.5L11.9986 18.5H11.9994H11.9997L11.9998 18L11.9999 18.5H12.0001H12.0009L12.0041 18.5L12.0165 18.5L12.0644 18.4999L12.2468 18.4992C12.4043 18.4985 12.6307 18.497 12.9067 18.4939C13.4585 18.4879 14.2095 18.4757 15.0053 18.4514C15.8003 18.4271 16.644 18.3906 17.3801 18.3354C18.1019 18.2813 18.7634 18.2066 19.1683 18.0953L19.1683 18.0954L19.1754 18.0933C19.6471 17.9561 20.0737 17.6939 20.4128 17.3346C20.7517 16.9755 20.9913 16.5321 21.1087 16.0497C21.1113 16.0392 21.1135 16.0285 21.1154 16.0178C21.3759 14.5328 21.5044 13.0265 21.4993 11.5175C21.5085 9.98566 21.38 8.45615 21.1154 6.9485Z" stroke="white" stroke-linecap="round" stroke-linejoin="round"/>
<path d="M10.068 13.714C10.068 13.8927 10.1633 14.0578 10.3181 14.1471C10.4729 14.2364 10.6635 14.2363 10.8182 14.1469L14.4771 12.0318C14.6317 11.9424 14.7269 11.7774 14.7269 11.5989C14.7269 11.4204 14.6317 11.2554 14.4771 11.166L10.8182 9.05089C10.6635 8.96146 10.4729 8.96139 10.3181 9.05068C10.1633 9.13998 10.068 9.30508 10.068 9.48376V13.714Z" stroke="white" stroke-linecap="round" stroke-linejoin="round"/>
</svg>
